<svg width="32" height="32" viewBox="0 0 32 32" fill="none" xmlns="http://www.w3.org/2000/svg">
<g id="file - 2023-10-19T223258.825 1" clip-path="url(#clip0_106_646)">
<path id="Path 0" fill-rule="evenodd" clip-rule="evenodd" d="M16.4999 0.0062718C16.8624 2.18032e-05 17.0624 0.0375218 17.3749 0.156272C17.5999 0.243772 17.8686 0.368772 17.9686 0.437522C18.0686 0.500022 18.2874 0.693772 18.4561 0.868772C18.6186 1.04377 18.8374 1.36252 18.9374 1.57502C19.0749 1.86252 19.1374 2.10002 19.1624 2.43752C19.1936 2.77502 19.1749 3.01877 19.0999 3.31252C19.0436 3.53752 18.9061 3.86877 18.7936 4.05627C18.6811 4.23752 18.4624 4.50627 17.9999 4.90627L18.2124 5.43752C18.4249 5.96252 18.4311 5.96877 18.6374 5.95002C18.7499 5.94377 19.2374 5.92502 19.7186 5.91877C20.4874 5.90627 20.6499 5.92502 21.0624 6.05002C21.3186 6.13127 21.7124 6.29377 21.9374 6.41252C22.1624 6.52502 22.5186 6.76252 23.1249 7.25002L23.3936 7.04377C23.5436 6.93752 23.9499 6.61877 24.2999 6.34377C24.7436 5.99377 24.9186 5.81877 24.8936 5.75002C24.8749 5.70002 24.7874 5.47502 24.7124 5.25002C24.5999 4.95002 24.5686 4.70627 24.5686 4.31252C24.5624 4.01877 24.5936 3.65627 24.6311 3.50002C24.6686 3.34377 24.7811 3.05002 24.8811 2.84377C24.9811 2.63752 25.1686 2.34377 25.2999 2.18752C25.4311 2.03127 25.7061 1.79377 25.9124 1.65002C26.1124 1.51252 26.4749 1.33127 26.7186 1.25002C27.0561 1.13752 27.2874 1.10002 27.7186 1.10002C28.1499 1.10002 28.3811 1.13752 28.7186 1.25002C28.9624 1.33127 29.3249 1.51252 29.5249 1.65002C29.7311 1.79377 29.9936 2.01877 30.1061 2.15627C30.2249 2.29377 30.3999 2.54377 30.4999 2.71877C30.5936 2.88752 30.7186 3.18752 30.7749 3.37502C30.8311 3.56877 30.8749 3.95002 30.8749 4.25002C30.8749 4.55627 30.8311 4.93127 30.7749 5.12502C30.7186 5.31252 30.5874 5.63752 30.4811 5.83752C30.3686 6.03752 30.1124 6.36252 29.9061 6.55627C29.6999 6.75002 29.3499 7.00002 29.1249 7.11252C28.8999 7.22502 28.5624 7.34377 28.3749 7.38127C28.1874 7.41877 27.7936 7.43752 27.4999 7.41877C27.1749 7.40002 26.8311 7.33752 26.6249 7.25627C26.4374 7.18127 26.1311 7.02502 25.9499 6.90627C25.7749 6.78752 25.6124 6.68752 25.5936 6.68752C25.5749 6.68752 25.2061 6.97502 24.7624 7.31877C24.3249 7.66877 23.9311 7.98752 23.8874 8.02502C23.8249 8.08127 23.8624 8.20627 24.0561 8.62502C24.1874 8.91877 24.3499 9.35627 24.4061 9.59377C24.4874 9.93127 24.5061 10.2188 24.4874 10.8438C24.4624 11.5313 24.4311 11.7375 24.2749 12.1875C24.1749 12.4813 23.9749 12.9063 23.5624 13.5625L27.7811 17.5438L28.0936 17.3875C28.2624 17.3 28.5436 17.1938 28.7186 17.15C28.8874 17.1 29.1561 17.0625 29.3124 17.0625C29.4686 17.0625 29.7624 17.1063 29.9686 17.1625C30.1749 17.2125 30.4811 17.3313 30.6499 17.425C30.8124 17.5188 31.0874 17.7313 31.2499 17.9063C31.4124 18.075 31.6186 18.3688 31.7061 18.5438C31.7999 18.725 31.9061 19.0625 31.9499 19.2938C32.0061 19.625 32.0061 19.8188 31.9499 20.1563C31.9124 20.4 31.7999 20.75 31.7061 20.9375C31.6124 21.125 31.3874 21.4313 31.2061 21.6063C31.0124 21.8 30.6999 22.025 30.4499 22.1375C30.0561 22.3313 29.9936 22.3438 29.3436 22.3438C28.6936 22.3438 28.6311 22.3313 28.2311 22.1375C27.9999 22.0313 27.6686 21.8063 27.4936 21.6375C27.2811 21.4438 27.0999 21.1875 26.9499 20.875C26.7561 20.4813 26.7186 20.325 26.6936 19.9063C26.6811 19.5563 26.7061 19.2938 26.7811 19.0313C26.8374 18.825 26.9311 18.5875 26.9811 18.5C27.0811 18.3438 27.0749 18.3375 26.5499 17.8438C26.2624 17.5688 25.3061 16.6688 22.8436 14.3313L22.4061 14.6375C22.1624 14.8 21.7561 15.0188 21.4999 15.1188C21.2436 15.2188 20.8624 15.3313 20.6561 15.3688C20.4499 15.4063 20.0436 15.4375 19.2186 15.4375L18.5686 18.3438L18.7061 18.4375C18.7811 18.4875 18.9624 18.6438 19.1061 18.7938C19.2561 18.9438 19.4311 19.1688 19.4936 19.2938C19.5561 19.425 19.6436 19.7 19.6874 19.9063C19.7436 20.1875 19.7436 20.375 19.6874 20.6563C19.6499 20.8625 19.5436 21.1688 19.4499 21.3375C19.3561 21.5063 19.1686 21.7438 19.0311 21.8625C18.8936 21.9875 18.6249 22.1563 18.4374 22.2438C18.1624 22.3688 17.9936 22.4 17.5936 22.4063C17.1874 22.4063 17.0311 22.375 16.7499 22.25C16.5624 22.1625 16.2811 21.975 16.1249 21.8313C15.9499 21.6813 15.7686 21.425 15.6561 21.1813C15.4936 20.8375 15.4686 20.7063 15.4686 20.2813C15.4749 19.8813 15.5061 19.7125 15.6311 19.4375C15.7186 19.25 15.8874 18.9875 16.0061 18.85C16.1249 18.7188 16.3561 18.525 16.5311 18.4313C16.6999 18.3313 16.9999 18.2188 17.5311 18.1125L17.8374 16.7313C18.0061 15.9688 18.1499 15.3188 18.1624 15.2813C18.1749 15.2438 17.9374 15.1 17.6374 14.95C17.3374 14.8063 16.9124 14.5375 16.6874 14.3563C16.4624 14.175 16.1311 13.8313 15.9499 13.5875C15.7624 13.35 15.5936 13.15 15.5749 13.1375C15.5499 13.1313 15.0249 13.3438 13.2811 14.125V14.9188C13.2749 15.5875 13.2561 15.775 13.1436 16.0625C13.0686 16.25 12.8874 16.5875 12.7374 16.8125C12.5874 17.0313 12.3124 17.3313 12.1249 17.4813C11.9374 17.625 11.6249 17.825 11.4374 17.9125C11.2499 18.0063 10.8686 18.1188 10.5936 18.1688C10.2124 18.2313 9.99362 18.2375 9.66862 18.1875C9.43737 18.1563 9.11862 18.075 8.94987 18.0125C8.78737 17.95 8.52487 17.825 8.35612 17.7313C8.19362 17.6375 7.91237 17.4125 7.73112 17.225C7.55612 17.0438 7.31237 16.7125 7.19987 16.4938C7.08737 16.275 6.95612 15.9375 6.90612 15.75C6.85612 15.5625 6.81237 15.2063 6.81237 14.9688C6.81237 14.7313 6.85612 14.3625 6.91237 14.1563C6.96237 13.95 7.09362 13.6125 7.20612 13.4063C7.31237 13.2 7.57487 12.8625 7.78112 12.65C8.04362 12.3875 8.29987 12.2 8.62487 12.05C8.88112 11.925 9.24362 11.7938 9.41862 11.7563C9.59987 11.7188 9.89987 11.6875 10.0749 11.6875C10.2561 11.6875 10.5811 11.7313 10.7936 11.7813C11.0124 11.8313 11.3624 11.9625 11.5749 12.0688C11.8249 12.1938 12.1249 12.4313 12.3874 12.6938C12.6249 12.9313 12.8311 13.125 12.8561 13.125C12.8874 13.125 13.3874 12.9063 13.9686 12.65C14.5499 12.3875 15.0561 12.1563 15.0811 12.1375C15.1061 12.1125 15.0874 11.875 15.0311 11.6063C14.9811 11.3438 14.9374 10.9063 14.9374 10.6375C14.9374 10.375 14.9749 9.97502 15.0249 9.75002C15.0749 9.52502 15.1874 9.14377 15.2811 8.90627C15.3749 8.66252 15.5811 8.26877 15.7374 8.03127C15.8936 7.78752 16.1936 7.42502 16.4124 7.21877C16.6249 7.01252 16.9436 6.75627 17.1186 6.65627C17.2936 6.55002 17.4311 6.43752 17.4311 6.40627C17.4311 6.36877 17.3374 6.11877 17.0249 5.34377L16.4311 5.30627C15.9749 5.28127 15.7624 5.23752 15.4686 5.10002C15.2624 5.00627 14.9686 4.82502 14.8186 4.70002C14.6624 4.57502 14.4374 4.31252 14.3124 4.12502C14.1874 3.93752 14.0374 3.60002 13.9749 3.37502C13.8874 3.06252 13.8686 2.85627 13.8999 2.46877C13.9249 2.10627 13.9811 1.86252 14.1124 1.59377C14.2061 1.38752 14.4124 1.08127 14.5624 0.912522C14.7186 0.750022 14.9249 0.550022 15.0311 0.481272C15.1374 0.406272 15.3999 0.268772 15.6249 0.175022C15.9374 0.0500218 16.1436 0.0062718 16.4999 0.0062718ZM12.5936 0.443772C12.6999 0.443772 12.8249 0.475022 12.8811 0.518772C12.9374 0.562522 13.0124 0.656272 13.0499 0.731272C13.0936 0.812522 13.1249 0.931272 13.1249 1.00002C13.1249 1.06877 13.0624 1.20002 12.9811 1.28752C12.8624 1.43127 12.6936 1.48127 11.4999 1.71877C10.7624 1.86877 9.84987 2.09377 9.46862 2.21877C9.08737 2.34377 8.49987 2.58127 8.15612 2.75002C7.81237 2.91252 7.29362 3.23127 6.99987 3.45002C6.71237 3.66252 6.29362 4.05627 6.07487 4.31252C5.84987 4.56877 5.52487 5.00627 5.34362 5.28127C5.16237 5.55627 4.89987 6.00627 4.76862 6.28127C4.63112 6.55627 4.44362 6.99377 4.35612 7.25002C4.26862 7.50627 4.10612 8.05627 4.00612 8.46877C3.89987 8.88127 3.76237 9.37502 3.69987 9.56252C3.63112 9.75002 3.44987 10.2 3.29362 10.5625C3.13112 10.925 3.00612 11.3 3.00612 11.4063C2.99987 11.5563 3.08737 11.675 3.43112 12C3.71237 12.2625 3.91862 12.525 4.02487 12.75C4.12487 12.9688 4.18737 13.2 4.18737 13.3875C4.18737 13.6313 4.11237 13.8438 3.75612 14.5438C3.51862 15.0188 3.09362 15.7688 2.81237 16.2188C2.53112 16.6625 2.02487 17.4063 1.68112 17.8563C1.34362 18.3125 1.06237 18.7125 1.06237 18.75C1.06237 18.7875 1.18112 18.9 1.32487 19.0063C1.47487 19.1125 1.75612 19.2813 1.94987 19.3813C2.14987 19.4813 2.43737 19.6813 2.59987 19.825C2.76862 19.9875 2.91862 20.2063 2.98112 20.375C3.05612 20.5813 3.07487 20.7688 3.04362 21.0625C3.01862 21.3625 2.94987 21.5875 2.76862 21.925C2.63737 22.1688 2.54362 22.3813 2.56237 22.3938C2.58112 22.4063 2.73112 22.525 2.90612 22.6563C3.07487 22.7875 3.25612 22.9438 3.29987 22.9938C3.34362 23.05 3.37487 23.1938 3.37487 23.3125C3.37487 23.4313 3.31862 23.6 3.24987 23.6875C3.18112 23.775 3.13112 23.8688 3.13112 23.9063C3.13112 23.9438 3.26237 24.0563 3.42487 24.1563C3.58112 24.2563 3.79987 24.4563 3.90612 24.5938C4.01862 24.7375 4.13737 24.9875 4.18112 25.1875C4.24362 25.475 4.23737 25.625 4.14987 26.125C4.09362 26.4688 4.06237 26.8375 4.08112 27C4.10612 27.1563 4.14987 27.3875 4.18737 27.5125C4.21862 27.6438 4.31862 27.8375 4.40612 27.9375C4.49987 28.05 4.67487 28.1563 4.82487 28.2C5.03737 28.2563 5.17487 28.2563 5.46862 28.1938C5.67487 28.15 6.32487 27.975 6.90612 27.8125C7.48737 27.6438 9.04987 27.1375 10.3749 26.6875C11.6999 26.2375 13.0499 25.7375 13.3749 25.5813C13.8061 25.3688 14.0624 25.2 14.3186 24.9438C14.5811 24.675 14.6811 24.525 14.7374 24.2938C14.7811 24.1313 14.8124 23.9438 14.8124 23.875C14.8124 23.8063 14.8874 23.6938 14.9811 23.625C15.0811 23.55 15.2374 23.4938 15.3436 23.4938C15.4624 23.4938 15.5874 23.5563 15.6874 23.6625C15.8186 23.7938 15.8436 23.875 15.8311 24.1438C15.8249 24.325 15.7624 24.625 15.6936 24.8125C15.6186 25.025 15.4436 25.2938 15.2374 25.525C15.0561 25.725 14.7374 26.0063 14.5311 26.1438C14.3249 26.2875 13.9561 26.4938 13.7186 26.6063C13.4811 26.7188 12.8311 26.9688 12.2811 27.1563C11.7311 27.35 11.2686 27.5188 11.2499 27.5313C11.2311 27.5438 11.3374 27.6938 11.4749 27.8563C11.6186 28.0188 11.8686 28.3688 12.0374 28.625C12.1999 28.8813 12.4561 29.35 12.5999 29.6563C12.7436 29.9625 12.9124 30.3875 13.0936 30.9563L19.0749 30.9313C22.3624 30.9188 25.0686 30.8938 25.0874 30.875C25.1061 30.8563 25.0124 30.65 24.8749 30.4063C24.7436 30.1625 24.5124 29.675 24.3686 29.3125C24.2311 28.95 24.0061 28.2313 23.8749 27.7188C23.7436 27.2 23.5686 26.375 23.4936 25.875C23.3999 25.2563 23.3561 24.6625 23.3561 24C23.3499 23.4688 23.3874 22.8063 23.4311 22.5313C23.4749 22.2563 23.5749 21.7625 23.6624 21.4375C23.7436 21.1125 23.8874 20.65 23.9811 20.4063C24.0686 20.1625 24.2374 19.7813 24.3499 19.5438C24.4686 19.3125 24.6311 19.0563 24.7186 18.9688C24.8249 18.8625 24.9374 18.8125 25.0936 18.8125C25.2436 18.8125 25.3624 18.8625 25.4686 18.9688C25.5561 19.0563 25.6249 19.1875 25.6249 19.2625C25.6249 19.3438 25.4936 19.675 25.3311 20C25.1624 20.325 24.9499 20.8313 24.8561 21.125C24.7624 21.4188 24.6436 21.85 24.5936 22.0938C24.5436 22.3375 24.4686 22.8375 24.4374 23.2188C24.3874 23.7125 24.3874 24.125 24.4374 24.6875C24.4749 25.1188 24.5624 25.775 24.6249 26.1563C24.6936 26.5375 24.8311 27.1813 24.9374 27.5938C25.0436 28.0063 25.2436 28.625 25.3811 28.9688C25.5186 29.3125 25.7811 29.8313 25.9624 30.125C26.1499 30.4188 26.3624 30.7813 26.4374 30.9375C26.5124 31.0938 26.5811 31.3063 26.5874 31.4188C26.5936 31.5625 26.5436 31.6688 26.2186 32L12.4686 32.0063L12.3374 31.8625C12.2624 31.7813 12.1436 31.5063 12.0624 31.25C11.9874 30.9938 11.8124 30.525 11.6811 30.2188C11.5436 29.9125 11.3249 29.475 11.1936 29.25C11.0624 29.025 10.8124 28.6938 10.6499 28.5063C10.4811 28.325 10.2749 28.1188 10.1874 28.0563C10.0311 27.9438 10.0186 27.95 8.81237 28.3438C8.14362 28.5625 7.09987 28.875 6.49987 29.0313C5.56862 29.2813 5.34362 29.3188 4.96862 29.2938C4.66237 29.275 4.43737 29.225 4.21862 29.1063C4.04362 29.0188 3.80612 28.8375 3.68112 28.7063C3.55612 28.575 3.39362 28.3563 3.32487 28.2188C3.25612 28.0813 3.14987 27.7875 3.09362 27.5625C3.01237 27.2625 2.99987 27.025 3.02487 26.6563C3.04362 26.3813 3.07487 25.95 3.12487 25.25L2.69987 24.9813C2.46862 24.8313 2.21862 24.625 2.13737 24.525C2.03112 24.3938 1.99362 24.2625 1.99987 24.0438C1.99987 23.8813 2.03737 23.6813 2.07487 23.6C2.14987 23.4563 2.13112 23.425 1.78112 23.1063C1.43112 22.7813 1.40612 22.7438 1.41237 22.4938C1.41862 22.3 1.49987 22.0563 1.70612 21.6563C1.87487 21.3313 1.99987 21.0063 1.99987 20.8875C1.99987 20.7313 1.95612 20.6563 1.79362 20.5375C1.68737 20.4563 1.41237 20.3 1.19362 20.1813C0.968624 20.0625 0.649874 19.8438 0.481124 19.6875C0.318624 19.5313 0.137374 19.2938 0.0811244 19.1563C0.0186244 18.9938 -0.000125556 18.8125 0.0248744 18.6375C0.0436244 18.4938 0.106124 18.2813 0.162374 18.1688C0.218624 18.0625 0.468624 17.7 0.718624 17.375C0.962374 17.05 1.33737 16.525 1.54362 16.2188C1.74987 15.9125 2.06237 15.4 2.24987 15.0938C2.43112 14.7875 2.69987 14.2875 2.84987 13.9813C2.99987 13.6813 3.12487 13.3875 3.12487 13.325C3.11862 13.2688 2.89987 12.9938 2.63737 12.7188C2.29362 12.3688 2.11237 12.125 2.03112 11.9063C1.94987 11.6813 1.92487 11.5 1.94987 11.25C1.96862 11.0375 2.09362 10.6438 2.28112 10.2188C2.44362 9.83752 2.63112 9.37502 2.69987 9.18752C2.76237 9.00002 2.89987 8.49377 3.00612 8.06252C3.11237 7.63127 3.28112 7.06877 3.37487 6.81252C3.46862 6.55627 3.67487 6.08127 3.83737 5.76252C3.99362 5.45002 4.24987 5.00002 4.39362 4.76252C4.54362 4.53127 4.83737 4.13127 5.04362 3.87502C5.24987 3.61877 5.59987 3.23752 5.81862 3.03752C6.03737 2.83127 6.41237 2.53752 6.65612 2.37502C6.89362 2.21252 7.31862 1.96877 7.59362 1.83127C7.86862 1.69377 8.36237 1.48127 8.68737 1.35627C9.01237 1.23752 9.51862 1.07502 9.81237 1.00002C10.1061 0.925022 10.8061 0.768772 11.3749 0.656272C11.9436 0.537522 12.4874 0.443772 12.5936 0.443772ZM26.7499 2.37502C26.6124 2.44377 26.3811 2.61877 26.2311 2.76252C26.0874 2.91252 25.8999 3.16877 25.8186 3.34377C25.7124 3.56252 25.6624 3.80002 25.6374 4.15627C25.6186 4.56877 25.6374 4.72502 25.7561 5.03127C25.8561 5.30002 25.9936 5.50627 26.2436 5.75627C26.4936 6.00627 26.6999 6.14377 26.9686 6.24377C27.2749 6.36252 27.4311 6.38127 27.8436 6.36252C28.1999 6.33752 28.4374 6.28752 28.6561 6.18127C28.8249 6.10002 29.0874 5.91252 29.2311 5.76877C29.3811 5.61877 29.5749 5.33752 29.6686 5.13752C29.8124 4.84377 29.8374 4.69377 29.8374 4.28127C29.8374 3.87502 29.8061 3.71252 29.6686 3.40627C29.5749 3.20002 29.3811 2.91252 29.2374 2.76877C29.0874 2.62502 28.8124 2.43752 28.6249 2.35002C28.4124 2.25002 28.1249 2.17502 27.8749 2.16252C27.6499 2.14377 27.3624 2.15627 27.2311 2.18752C27.1061 2.22502 26.8874 2.30627 26.7499 2.37502ZM18.1874 7.28752C17.9311 7.41252 17.5749 7.62502 17.4061 7.76252C17.2311 7.90627 16.9749 8.16252 16.8374 8.33752C16.6936 8.51252 16.5061 8.79377 16.4249 8.96877C16.3374 9.13752 16.2124 9.43752 16.1499 9.62502C16.0624 9.88127 16.0311 10.15 16.0311 10.6563C16.0311 11.2188 16.0561 11.4313 16.1874 11.8125C16.2686 12.075 16.4749 12.4875 16.6561 12.75C16.8249 13.0063 17.1311 13.35 17.3249 13.5125C17.5249 13.675 17.8936 13.9063 18.1374 14.025C18.3874 14.1438 18.7436 14.2688 18.9186 14.3063C19.0999 14.3438 19.4811 14.375 19.7624 14.375C20.0499 14.375 20.4499 14.3313 20.6561 14.275C20.8624 14.2188 21.2124 14.0875 21.4374 13.9813C21.7186 13.8438 21.9936 13.6313 22.3436 13.2813C22.6936 12.9375 22.9061 12.6563 23.0436 12.375C23.1561 12.15 23.2874 11.8 23.3374 11.5938C23.3936 11.3875 23.4374 10.9688 23.4374 10.6563C23.4374 10.35 23.3936 9.92502 23.3374 9.71877C23.2811 9.51252 23.1374 9.14377 23.0124 8.90627C22.8749 8.65002 22.6186 8.30002 22.3749 8.05627C22.1499 7.83127 21.7874 7.54377 21.5624 7.41877C21.3374 7.29377 20.9311 7.13752 20.6561 7.06252C20.3561 6.98752 19.9811 6.93752 19.7186 6.94377C19.4749 6.95002 19.1374 6.98127 18.9686 7.01252C18.7936 7.04377 18.4436 7.16877 18.1874 7.28752ZM8.78737 13.2813C8.65612 13.3875 8.46862 13.5938 8.36237 13.75C8.26237 13.9063 8.13737 14.1875 8.08112 14.375C8.01237 14.6125 7.99362 14.8438 8.01862 15.125C8.04362 15.3688 8.11862 15.6563 8.21237 15.8438C8.29362 16.0125 8.48737 16.2813 8.63737 16.4313C8.78737 16.5813 9.06237 16.7813 9.24987 16.8688C9.53737 17.0063 9.68112 17.0313 10.1249 17.0313C10.5624 17.0313 10.7124 17.0063 10.9999 16.8688C11.1874 16.7813 11.4436 16.625 11.5624 16.5188C11.6811 16.4125 11.8811 16.15 11.9999 15.9313C12.2061 15.5563 12.2186 15.5 12.2186 14.9375C12.2186 14.4313 12.1936 14.2938 12.0624 14.0313C11.9811 13.8563 11.7811 13.5938 11.6249 13.4375C11.4686 13.2813 11.1999 13.0875 11.0311 13.0063C10.8061 12.8938 10.5811 12.85 10.2186 12.8313C9.79987 12.8125 9.66237 12.8313 9.37487 12.95C9.18737 13.0313 8.92487 13.1813 8.78737 13.2813ZM28.3874 18.4563C28.2749 18.5313 28.1186 18.6938 28.0311 18.8125C27.9436 18.9313 27.8499 19.1313 27.8124 19.25C27.7811 19.3688 27.7499 19.6063 27.7499 19.7813C27.7499 19.9563 27.8061 20.2125 27.8811 20.375C27.9499 20.5313 28.0811 20.7375 28.1749 20.8375C28.2686 20.9375 28.4811 21.0813 28.6561 21.1625C28.8749 21.2688 29.0811 21.3125 29.3436 21.3125C29.6311 21.3125 29.7999 21.275 30.0624 21.1438C30.2811 21.0313 30.4686 20.8688 30.6061 20.6875C30.7124 20.5313 30.8374 20.2625 30.8811 20.0938C30.9186 19.9188 30.9374 19.6625 30.9124 19.5125C30.8936 19.3688 30.8311 19.1563 30.7749 19.0438C30.7186 18.9375 30.5874 18.75 30.4749 18.6375C30.3686 18.5188 30.1686 18.3688 30.0311 18.3C29.8936 18.2313 29.6249 18.1625 29.4374 18.15C29.2249 18.1313 28.9999 18.1563 28.8436 18.2188C28.7061 18.2688 28.4999 18.375 28.3874 18.4563ZM16.7311 19.65C16.6374 19.7813 16.5874 19.9625 16.5749 20.2188C16.5561 20.5313 16.5749 20.6313 16.6999 20.8125C16.7749 20.9313 16.9436 21.0938 17.0624 21.1688C17.2186 21.275 17.3686 21.3125 17.5749 21.3125C17.7436 21.3125 17.9499 21.275 18.0436 21.225C18.1436 21.175 18.2936 21.0563 18.3874 20.9563C18.4749 20.8625 18.5811 20.6625 18.6186 20.5125C18.6624 20.3375 18.6686 20.1688 18.6311 20.0125C18.5936 19.8875 18.5061 19.7 18.4249 19.6C18.3436 19.5 18.1686 19.3625 18.0311 19.3C17.8936 19.2438 17.6936 19.1875 17.5936 19.1875C17.4874 19.1875 17.2874 19.25 17.1374 19.3188C16.9874 19.3938 16.8061 19.5375 16.7311 19.65ZM15.5936 1.38127C15.4874 1.45002 15.3311 1.61252 15.2436 1.73752C15.1561 1.86877 15.0499 2.06877 15.0061 2.18752C14.9686 2.30627 14.9374 2.51877 14.9374 2.65627C14.9374 2.79377 14.9811 3.03127 15.0311 3.18752C15.0811 3.34377 15.2061 3.56877 15.2999 3.68752C15.3999 3.80627 15.6311 3.98127 15.8186 4.08127C16.0686 4.20627 16.2436 4.25002 16.4999 4.25002C16.6874 4.24377 16.9436 4.21252 17.0624 4.16877C17.1874 4.12502 17.3874 4.01877 17.5186 3.91877C17.6436 3.82502 17.8186 3.63127 17.9061 3.48127C18.0061 3.31877 18.0811 3.07502 18.1061 2.84377C18.1311 2.58752 18.1124 2.38127 18.0499 2.18752C17.9999 2.03127 17.8874 1.80627 17.7999 1.68752C17.7124 1.56877 17.4874 1.38752 17.2999 1.28752C17.0811 1.16877 16.8499 1.10002 16.6249 1.08127C16.4186 1.06877 16.1811 1.10002 16.0311 1.15627C15.8936 1.20627 15.6936 1.30627 15.5936 1.38127ZM20.5124 0.631272C20.5436 0.625022 20.7686 0.700022 21.0124 0.787522C21.2624 0.875022 21.8874 1.16877 22.4061 1.43127C22.9249 1.69377 23.4561 2.01252 23.5936 2.14377C23.8186 2.35627 23.8374 2.40002 23.7999 2.58127C23.7686 2.69377 23.6811 2.84377 23.5936 2.91877C23.5061 3.00002 23.3749 3.06252 23.2936 3.06252C23.2186 3.06252 22.9561 2.95002 22.7186 2.80627C22.4749 2.66252 22.0124 2.41877 21.6874 2.25627C21.3624 2.08752 20.8874 1.88127 20.6374 1.79377C20.3686 1.69377 20.1499 1.56877 20.0936 1.48127C20.0436 1.40627 19.9999 1.27502 19.9999 1.18752C19.9999 1.10002 20.0436 0.968772 20.0999 0.887522C20.1561 0.806272 20.2624 0.718772 20.3374 0.687522C20.4061 0.656272 20.4874 0.631272 20.5124 0.631272ZM10.2499 3.16877C10.3374 3.18752 10.4561 3.25002 10.5186 3.30627C10.5749 3.36252 10.6436 3.48127 10.6561 3.57502C10.6749 3.67502 10.6499 3.82502 10.5999 3.91877C10.5311 4.06252 10.3999 4.13127 9.93112 4.30002C9.60612 4.41252 9.13112 4.62502 8.87487 4.76877C8.57487 4.93752 8.21237 5.21877 7.86862 5.56252C7.53112 5.89377 7.21237 6.29377 7.00612 6.62502C6.83112 6.91877 6.59987 7.36877 6.49362 7.62502C6.38737 7.88127 6.21237 8.43127 6.11237 8.84377C5.98737 9.33752 5.88112 9.64377 5.79362 9.73752C5.70612 9.83127 5.58737 9.87502 5.44987 9.87502C5.34362 9.87502 5.19362 9.84377 5.12487 9.81252C5.05612 9.77502 4.96862 9.66252 4.93737 9.56252C4.88737 9.41252 4.91862 9.21252 5.08737 8.54377C5.20612 8.09377 5.38737 7.50627 5.49362 7.25002C5.59987 6.99377 5.81862 6.55627 5.97487 6.28127C6.13737 6.00627 6.38737 5.62502 6.53112 5.43752C6.67487 5.25002 6.93112 4.95627 7.09987 4.78752C7.26862 4.62502 7.57487 4.36877 7.78112 4.21877C7.98737 4.06877 8.33737 3.85002 8.56237 3.73127C8.78737 3.60627 9.21862 3.42502 9.53112 3.31877C9.87487 3.20002 10.1499 3.14377 10.2499 3.16877ZM28.0311 8.50002C28.0311 8.50002 28.1249 8.52502 28.2311 8.56252C28.3436 8.59377 28.4686 8.68752 28.5061 8.76252C28.5436 8.84377 28.6124 9.11877 28.6561 9.37502C28.6999 9.63127 28.7749 10.2375 28.8124 10.7188C28.8561 11.2063 28.8749 11.9688 28.8561 12.4375C28.8374 12.9 28.7749 13.5063 28.7186 13.7813C28.6624 14.0563 28.5436 14.5063 28.4561 14.7813C28.3686 15.0563 28.2311 15.4125 28.1499 15.575C28.0686 15.7438 27.9436 15.9 27.8749 15.9375C27.8061 15.9688 27.6874 16 27.6061 16C27.5311 16.0063 27.3999 15.95 27.3124 15.8875C27.2249 15.825 27.1374 15.6938 27.1061 15.6063C27.0749 15.4875 27.1061 15.3313 27.2186 15.0625C27.3061 14.8563 27.4436 14.4563 27.5249 14.1688C27.6061 13.8875 27.7124 13.3625 27.7499 13C27.7999 12.5813 27.8124 12.025 27.7874 11.4688C27.7686 10.9875 27.7061 10.2438 27.6436 9.81252C27.5874 9.38127 27.5624 8.95627 27.5811 8.85627C27.6124 8.74377 27.6936 8.65627 27.8249 8.59377C27.9374 8.54377 28.0311 8.50627 28.0311 8.50002ZM4.79362 10.6875C4.93112 10.6875 5.05196 10.7396 5.15612 10.8438C5.26237 10.95 5.31237 11.0688 5.31237 11.2188C5.31237 11.3875 5.26862 11.475 5.10612 11.6C4.94987 11.725 4.86237 11.7563 4.71862 11.725C4.61237 11.7 4.48112 11.6313 4.41862 11.575C4.36237 11.5188 4.29362 11.3938 4.28112 11.2938C4.26237 11.2 4.28112 11.0625 4.32487 10.9813C4.36237 10.9063 4.43737 10.8125 4.49362 10.7688C4.54987 10.725 4.68737 10.6875 4.79362 10.6875ZM19.6686 8.00627C19.8749 8.00002 19.9749 8.03752 20.0936 8.15627C20.1936 8.25627 20.2499 8.38752 20.2499 8.51252C20.2561 8.62502 20.2061 8.78752 20.1374 8.86877C20.0499 8.98127 19.9374 9.03127 19.6374 9.06877C19.4249 9.10002 19.1561 9.16877 19.0436 9.22502C18.9374 9.28127 18.7499 9.41252 18.6374 9.52502C18.5186 9.63127 18.3749 9.82502 18.3061 9.95002C18.2436 10.0813 18.1624 10.3625 18.1311 10.575C18.0874 10.875 18.0436 10.9938 17.9311 11.0813C17.8499 11.1438 17.6936 11.1938 17.5936 11.1938C17.4874 11.1938 17.3436 11.1313 17.2624 11.0625C17.1874 10.9938 17.1061 10.8625 17.0811 10.7625C17.0624 10.6688 17.0749 10.425 17.1186 10.2188C17.1561 10.0125 17.2561 9.69377 17.3436 9.51252C17.4311 9.33752 17.6374 9.03752 17.8061 8.85627C17.9749 8.68127 18.2624 8.45002 18.4436 8.35002C18.6311 8.24377 18.9186 8.13127 19.0936 8.08752C19.2624 8.04377 19.5249 8.00627 19.6686 8.00627Z" fill="#049AFA"/>
</g>
<defs>
<clipPath id="clip0_106_646">
<rect width="32" height="32" fill="white"/>
</clipPath>
</defs>
</svg>
