<svg width="32" height="32" viewBox="0 0 32 32" fill="none" xmlns="http://www.w3.org/2000/svg">
<g id="file - 2023-10-19T223338.078 1" clip-path="url(#clip0_106_650)">
<path id="Path 0" fill-rule="evenodd" clip-rule="evenodd" d="M8.125 0.375C15.3438 0.375 15.85 0.3875 15.975 0.4875C16.05 0.54375 16.1437 0.65625 16.1812 0.7375C16.2312 0.83125 16.25 1.88125 16.25 4.21875C16.25 7.3625 16.2562 7.5625 16.3625 7.5625C16.4187 7.5625 19.55 7.29375 23.3125 6.9625C29.4312 6.43125 30.175 6.375 30.3438 6.45625C30.4438 6.5 30.5688 6.625 30.6063 6.725C30.65 6.825 30.7812 7.9875 30.9 9.3125C31.0875 11.4312 31.1 11.7438 31.025 11.925C30.9688 12.05 30.8563 12.1562 30.7188 12.2188C30.5562 12.2875 30.4437 12.3 30.3 12.2563C30.1875 12.2188 30.0437 12.125 29.9875 12.0375C29.9 11.9062 29.8375 11.4563 29.6875 9.79375C29.5812 8.65625 29.4875 7.7125 29.4813 7.7C29.475 7.69375 26.4062 7.95625 22.6562 8.28125C18.9062 8.6125 15.8375 8.8875 15.825 8.89375C15.8187 8.9 16.0812 11.9688 16.4062 15.7188C16.7313 19.4688 17.0062 22.5375 17.0187 22.55C17.025 22.5562 20.0938 22.3 23.8438 21.9688C27.5938 21.6437 30.6625 21.3688 30.675 21.3563C30.6812 21.35 30.6187 20.525 30.5312 19.5312C30.4438 18.5375 30.375 17.5625 30.375 17.375C30.375 17.175 30.4125 16.975 30.4688 16.8875C30.5187 16.8125 30.6625 16.725 30.7812 16.6875C30.95 16.6375 31.05 16.65 31.2188 16.7188C31.3375 16.7687 31.4688 16.875 31.5063 16.95C31.55 17.0312 31.675 18.2062 31.7938 19.5625C31.975 21.6625 31.9937 22.0562 31.925 22.2125C31.8812 22.3125 31.7687 22.4312 31.675 22.475C31.5562 22.5312 29.4375 22.7437 25.3312 23.0938C21.9312 23.3875 19.0625 23.6437 18.75 23.6875V27.4062C18.75 30.0187 18.7312 31.1687 18.6812 31.2687C18.6437 31.3438 18.55 31.4563 18.475 31.5125C18.35 31.6125 17.8438 31.625 10.625 31.625C3.40625 31.625 2.9 31.6125 2.775 31.5125C2.7 31.4563 2.60625 31.3438 2.56875 31.2687C2.51875 31.1625 2.5 29.0875 2.5 16.625H1.5C0.83125 16.625 0.44375 16.6 0.3375 16.55C0.24375 16.5062 0.13125 16.3937 0.0875 16.3C0.0125 16.1562 0 14.8562 0 8.5C0 3.0125 0.01875 0.8375 0.06875 0.7375C0.10625 0.65625 0.2 0.54375 0.275 0.4875C0.4 0.3875 0.90625 0.375 8.125 0.375ZM1.25 15.375H15C15 14.3313 14.8875 12.725 14.7437 11.125C14.5312 8.64375 14.5062 8.19375 14.575 8.0375C14.6187 7.9375 14.7312 7.81875 14.825 7.775L15 7.6875V1.625H1.25V15.375ZM3.75 30.375H17.5V23.7812C16.4562 23.8625 16.2688 23.8563 16.1375 23.7875C16.0438 23.7437 15.9312 23.625 15.8875 23.525C15.85 23.425 15.6875 21.9062 15.5312 20.1437C15.375 18.3812 15.25 16.8687 15.25 16.7812V16.625H3.75V30.375ZM19.5187 9.81875C19.9062 9.8125 19.95 9.825 20.125 10C20.2625 10.1375 20.3125 10.2437 20.3125 10.4062C20.3125 10.5562 20.2563 10.6875 20.1375 10.8188C19.975 11.0125 19.9438 11.0188 18.4937 11.1562L18.525 11.375C18.5437 11.4937 18.575 11.825 18.625 12.625L18.4125 12.8438C18.275 12.9812 18.1438 13.0625 18.0375 13.0625C17.95 13.0625 17.8 13.025 17.7 12.975C17.6063 12.9313 17.4937 12.8125 17.4562 12.7125C17.4125 12.6125 17.3375 12.0813 17.2875 11.5312C17.2125 10.6687 17.2125 10.5062 17.2875 10.325C17.3375 10.2188 17.4375 10.0938 17.5125 10.05C17.5938 10.0063 17.9813 9.9375 18.375 9.9C18.7687 9.8625 19.2812 9.825 19.5125 9.81875H19.5187ZM23.85 11.8125C24.1875 11.8125 24.55 11.85 24.7563 11.9125C24.9438 11.9688 25.225 12.0813 25.3813 12.1625C25.5375 12.2438 25.7 12.3813 25.7375 12.4688C25.7812 12.5562 25.8188 12.7063 25.8188 12.8125C25.8188 12.9375 25.7563 13.0625 25.6375 13.1875C25.5063 13.3188 25.3937 13.375 25.2437 13.375C25.1313 13.375 24.8687 13.3062 24.6625 13.2125C24.3313 13.0625 24.2313 13.05 23.7875 13.075C23.4813 13.0938 23.2 13.1437 23.0688 13.2125C22.95 13.275 22.7375 13.4187 22.6 13.5312C22.4625 13.6375 22.25 13.9125 22.1313 14.1313C21.9188 14.5188 21.9125 14.5562 21.9125 15.1875C21.9125 15.7188 21.9375 15.9 22.0438 16.125C22.1125 16.2812 22.2938 16.5437 22.45 16.7125C22.6188 16.9 22.875 17.0875 23.1 17.1938C23.4062 17.3438 23.5625 17.375 23.925 17.375C24.2687 17.375 24.45 17.3375 24.675 17.2375C24.8312 17.1562 25.0688 16.975 25.1875 16.825C25.3188 16.6688 25.5 16.5312 25.6125 16.4937C25.7625 16.45 25.875 16.4625 26.0187 16.5312C26.1312 16.5812 26.2625 16.6938 26.3 16.7812C26.3438 16.8687 26.3813 17.0125 26.3813 17.1125C26.3813 17.2062 26.3062 17.3937 26.2062 17.5312C26.1062 17.6688 25.9188 17.875 25.7812 17.9937C25.65 18.1125 25.3563 18.2937 25.1313 18.4C24.7812 18.5625 24.6375 18.5938 24.1 18.6125C23.6375 18.6312 23.3813 18.6125 23.1 18.5312C22.8938 18.475 22.5688 18.3438 22.3813 18.2437C22.1938 18.1437 21.8875 17.9125 21.7 17.7313C21.5125 17.5563 21.2688 17.2625 21.1625 17.0938C21.05 16.9188 20.9 16.6125 20.8188 16.4062C20.7188 16.1438 20.6687 15.8438 20.6437 15.4062C20.625 15.0188 20.6438 14.6375 20.6938 14.4062C20.7375 14.2 20.8688 13.85 20.9813 13.625C21.0938 13.4 21.3062 13.075 21.4625 12.9062C21.6125 12.7312 21.9 12.4812 22.1 12.3438C22.3 12.2063 22.65 12.0312 22.875 11.9563C23.175 11.85 23.4375 11.8125 23.85 11.8125ZM30.7188 13.875C30.9188 13.8687 31.0125 13.9062 31.15 14.0437C31.2437 14.1375 31.325 14.275 31.3312 14.3438C31.3312 14.4125 31.325 14.525 31.3188 14.5938C31.3125 14.6625 31.2687 14.7812 31.2188 14.8562C31.1688 14.9375 31.0375 15.025 30.925 15.05C30.8187 15.0813 30.6688 15.0938 30.6 15.0813C30.5312 15.0688 30.3937 14.9875 30.3 14.8875C30.1687 14.7625 30.125 14.6562 30.1187 14.4625C30.1125 14.2562 30.15 14.1688 30.2875 14.0375C30.4188 13.9188 30.525 13.875 30.7188 13.875ZM28.5187 17.1875C28.6187 17.1875 28.7562 17.225 28.8312 17.275C28.9125 17.325 29.0125 17.4438 29.05 17.5438C29.0938 17.6375 29.1688 18.1688 29.2188 18.7188C29.2938 19.5812 29.2938 19.7437 29.2188 19.925C29.1688 20.0312 29.0687 20.1562 28.9875 20.2C28.9125 20.2375 28.5 20.3062 28.0688 20.35C27.6375 20.3938 27.125 20.4312 26.925 20.4312C26.6125 20.4375 26.55 20.4188 26.3813 20.25C26.2437 20.1125 26.1938 20.0063 26.1938 19.8438C26.1938 19.6938 26.25 19.5625 26.3625 19.4312C26.5312 19.2437 26.5625 19.2313 28.0125 19.0938L27.9813 18.8438C27.9625 18.7062 27.9312 18.4 27.9125 18.1562C27.8875 17.8563 27.9 17.6625 27.9562 17.5375C28 17.4375 28.1063 17.3188 28.1938 17.275C28.2812 17.2312 28.425 17.1938 28.5187 17.1875ZM4.05625 2.875C4.79375 2.875 5.18125 2.9 5.29375 2.95625C5.3875 2.99375 5.5 3.10625 5.54375 3.20625C5.59375 3.3 5.63125 3.43125 5.63125 3.5C5.63125 3.56875 5.59375 3.7 5.54375 3.8C5.5 3.89375 5.3875 4.00625 5.29375 4.05C5.19375 4.09375 4.8625 4.125 3.75625 4.125V4.8125C3.75625 5.275 3.725 5.55625 3.66875 5.675C3.625 5.76875 3.5125 5.88125 3.41875 5.925C3.33125 5.9625 3.2 6 3.13125 6C3.0625 6 2.93125 5.9625 2.84375 5.925C2.75 5.88125 2.6375 5.76875 2.59375 5.675C2.53125 5.54375 2.50625 5.21875 2.50625 4.425C2.5125 3.55625 2.53125 3.3125 2.60625 3.19375C2.6625 3.1125 2.76875 3.00625 2.8375 2.9625C2.9375 2.9 3.26875 2.88125 4.05 2.875H4.05625ZM7.41875 5.08125C8.49375 5.09375 8.55625 5.1 8.8875 5.2625C9.075 5.35 9.325 5.53125 9.44375 5.66875C9.5625 5.8 9.73125 6.0625 9.8125 6.25C9.94375 6.54375 9.9625 6.66875 9.94375 7.0625C9.925 7.38125 9.875 7.61875 9.6375 8.09375L9.88125 8.34375C10.0125 8.48125 10.1875 8.71875 10.2688 8.875C10.3938 9.1125 10.4187 9.25 10.4187 9.78125C10.4187 10.3188 10.4 10.45 10.2625 10.7188C10.1812 10.8938 9.9875 11.15 9.84375 11.3C9.69375 11.4438 9.4125 11.6375 9.2125 11.7375C8.85625 11.9062 8.85 11.9062 6.125 11.9062L5.975 11.7375C5.8875 11.6375 5.8125 11.45 5.7875 11.3C5.76875 11.15 5.7625 9.79375 5.775 8.28125C5.79375 5.725 5.8 5.5125 5.90625 5.35625C5.975 5.25625 6.0875 5.15625 6.15625 5.125C6.23125 5.09375 6.8 5.06875 7.41875 5.08125ZM7.075 7.625C8.325 7.625 8.3375 7.61875 8.51875 7.4375C8.6625 7.2875 8.7 7.19375 8.7 6.9875C8.7 6.825 8.65 6.6625 8.5875 6.5875C8.53125 6.5125 8.41875 6.41875 8.3375 6.38125C8.2625 6.34375 7.94375 6.3125 7.6375 6.3125H7.075V7.625ZM7.075 10.6875C8.19375 10.6875 8.525 10.6562 8.65 10.6062C8.7625 10.5562 8.93125 10.4312 9.025 10.325C9.1625 10.1687 9.2 10.0625 9.2 9.83125C9.2 9.64375 9.15625 9.45625 9.075 9.33125C9.00625 9.21875 8.875 9.075 8.78125 9.01875C8.65 8.93125 8.4375 8.9 7.85 8.88125L7.0875 8.8625L7.075 10.6875ZM12.8125 11C12.8875 11 13.0312 11.0375 13.125 11.0813C13.2188 11.1313 13.3313 11.2438 13.375 11.3313C13.425 11.4438 13.45 11.8375 13.45 12.5625C13.45 13.3375 13.4312 13.6687 13.3687 13.7937C13.3187 13.8875 13.2062 14 13.1187 14.0437C13.0062 14.1 12.6125 14.125 11.8875 14.125C11.1687 14.125 10.775 14.1 10.6625 14.0437C10.575 14 10.4625 13.8875 10.4125 13.7937C10.3688 13.7 10.325 13.5688 10.325 13.5C10.325 13.4312 10.3688 13.2937 10.4125 13.2C10.4625 13.1062 10.575 12.9937 10.6625 12.95C10.7625 12.9 11.0938 12.875 12.2 12.875L12.2063 12.1687C12.2063 11.6438 12.2312 11.4313 12.3062 11.3188C12.3562 11.2375 12.4625 11.1312 12.5375 11.0875C12.6125 11.0375 12.7375 11 12.8125 11ZM6.5625 17.875C7.3 17.875 7.69375 17.9 7.80625 17.95C7.89375 17.9938 8.00625 18.1063 8.05625 18.2C8.1 18.2938 8.1375 18.4312 8.1375 18.5C8.1375 18.5688 8.1 18.7 8.05625 18.7938C8.00625 18.8875 7.89375 19 7.80625 19.0438C7.70625 19.0938 7.375 19.125 6.2625 19.125V19.8125C6.2625 20.2687 6.2375 20.5563 6.18125 20.6688C6.13125 20.7625 6.01875 20.875 5.93125 20.9188C5.8375 20.9625 5.70625 21 5.6375 21C5.56875 21 5.44375 20.9625 5.35 20.9188C5.2625 20.875 5.15 20.7625 5.1 20.6688C5.0375 20.5438 5.01875 20.2125 5.01875 19.4188C5.01875 18.55 5.0375 18.3125 5.11875 18.1938C5.16875 18.1125 5.275 18.0063 5.35 17.9625C5.45 17.9 5.78125 17.875 6.5625 17.875ZM10.6562 20.0625C10.75 20.0625 10.9062 20.1063 11 20.1562C11.0938 20.2125 11.2125 20.3125 11.2563 20.3937C11.3063 20.4688 11.8187 21.8 12.4 23.3563C12.9812 24.9125 13.45 26.2437 13.45 26.3125C13.45 26.3813 13.4187 26.5063 13.375 26.6C13.3313 26.6875 13.2188 26.8 13.125 26.85C13.0312 26.8938 12.8938 26.9375 12.825 26.9375C12.7562 26.9375 12.6187 26.8937 12.5125 26.8438C12.3625 26.7625 12.2937 26.65 11.8875 25.5625H9.3875L9.16875 26.1562C8.9875 26.65 8.91875 26.7625 8.7625 26.8438C8.6625 26.8937 8.51875 26.9375 8.45 26.9375C8.38125 26.9375 8.25 26.8938 8.15625 26.85C8.0625 26.8 7.95 26.6875 7.90625 26.6C7.8625 26.5063 7.825 26.3875 7.825 26.325C7.825 26.2625 8.30625 24.9375 8.89375 23.375C9.475 21.8062 10.0063 20.4562 10.0688 20.375C10.1313 20.2875 10.25 20.1813 10.3313 20.1375C10.4187 20.0938 10.5625 20.0625 10.6562 20.0625ZM10.2375 23.325C10.05 23.8313 9.8875 24.2625 9.8875 24.2812C9.8875 24.2938 10.225 24.3125 10.6375 24.3125C11.05 24.3125 11.3875 24.2875 11.3875 24.2625C11.3875 24.2375 11.2313 23.7938 11.0375 23.2812C10.8438 22.7625 10.6813 22.3313 10.675 22.3188C10.6687 22.3125 10.6438 22.325 10.625 22.35C10.6062 22.3813 10.4313 22.8188 10.2375 23.325ZM15.625 26C15.7 26 15.8438 26.0375 15.9375 26.0812C16.0312 26.1312 16.1437 26.2437 16.1875 26.3312C16.2375 26.4437 16.2625 26.8375 16.2625 27.5625C16.2625 28.3375 16.2437 28.6688 16.1812 28.7938C16.1313 28.8875 16.0187 29 15.9312 29.0438C15.8187 29.1 15.425 29.125 14.7 29.125C13.9812 29.125 13.5875 29.1 13.475 29.0438C13.3875 29 13.275 28.8875 13.225 28.7938C13.1813 28.7 13.1375 28.5688 13.1375 28.5C13.1375 28.4312 13.1813 28.2938 13.225 28.2C13.275 28.1063 13.3875 27.9938 13.475 27.95C13.575 27.9 13.9062 27.875 15.0125 27.875L15.0188 27.1688C15.0188 26.6438 15.0437 26.4312 15.1187 26.3188C15.1687 26.2375 15.275 26.1313 15.35 26.0875C15.425 26.0375 15.55 26 15.625 26Z" fill="#049AFA"/>
</g>
<defs>
<clipPath id="clip0_106_650">
<rect width="32" height="32" fill="white"/>
</clipPath>
</defs>
</svg>
