<svg width="32" height="32" viewBox="0 0 32 32" fill="none" xmlns="http://www.w3.org/2000/svg">
<g id="file - 2023-10-19T223415.736 1" clip-path="url(#clip0_106_654)">
<path id="Path 0" fill-rule="evenodd" clip-rule="evenodd" d="M7.0625 0.00624156C7.38125 -8.43871e-06 7.54375 0.0312416 7.8125 0.162492C8 0.249992 8.2625 0.424992 8.39375 0.549992C8.525 0.681242 8.69375 0.893742 8.76875 1.03124C8.88125 1.23749 8.90625 1.38749 8.90625 1.88124C8.90625 2.44374 8.89375 2.49999 8.5125 3.09374L8.975 3.42499C9.2875 3.64374 9.525 3.87499 9.70625 4.14374C9.85625 4.35624 10.0375 4.67499 10.1125 4.84374C10.1813 5.01874 10.275 5.35624 10.3188 5.59374C10.3563 5.83124 10.375 6.18749 10.3562 6.37499C10.3375 6.56249 10.2625 6.89999 10.1938 7.12499C10.1188 7.36249 9.9375 7.72499 9.75 7.98749C9.51875 8.31874 9.3125 8.52499 8.5 9.09374V10.3125H8.66875C8.76875 10.3125 9 10.3562 9.1875 10.4125C9.44375 10.4875 9.6125 10.5937 9.85 10.8375C10.0938 11.075 10.2 11.2437 10.275 11.5C10.35 11.7562 10.375 12.1062 10.375 12.8937C10.375 13.7937 10.3875 13.9375 10.4688 13.9375C10.525 13.9375 10.7 13.8062 10.8625 13.6437C11.0375 13.4625 11.1875 13.2437 11.2375 13.0937C11.2875 12.9187 11.3125 12.2125 11.3125 8.74999L11.4688 8.59374C11.55 8.50624 11.6938 8.43749 11.7812 8.43749C11.8687 8.43749 12.0063 8.50624 12.25 8.74999V10.8312C12.25 12.475 12.2312 12.975 12.1562 13.25C12.1062 13.4375 11.9938 13.7062 11.9125 13.8437C11.8313 13.9812 11.6375 14.2125 11.475 14.3625C11.3188 14.5062 11.0375 14.6937 10.8562 14.7812C10.6812 14.8687 10.4937 14.9375 10.45 14.9375C10.3937 14.9375 10.375 15.1062 10.375 15.5812C10.375 16.175 10.3875 16.2375 10.5437 16.4687C10.6375 16.6062 10.7875 16.875 10.8813 17.0625C10.975 17.25 11.1 17.575 11.1562 17.7812C11.25 18.0937 11.275 18.475 11.3125 22.1875L11.1562 22.3437C11.0125 22.4937 10.975 22.5 9.4375 22.5L9.46875 30.5812L10.2812 30.8562C10.8313 31.0375 11.1313 31.1687 11.2063 31.2625C11.2688 31.3437 11.3188 31.4625 11.3188 31.5312C11.3188 31.6 11.2625 31.7312 11.1875 31.825C11.0938 31.9625 11.0125 32 10.825 32C10.7 32 10.5687 31.975 10.5312 31.9437C10.4938 31.9187 10.0687 31.7625 9.575 31.6C8.925 31.3875 8.6625 31.275 8.59375 31.1687C8.5125 31.05 8.5 30.4625 8.5 22.5H5.6875L5.71875 30.5812L6.53125 30.8562C7.08125 31.0375 7.38125 31.1687 7.45625 31.2625C7.51875 31.3437 7.56875 31.4625 7.56875 31.5312C7.56875 31.6 7.5125 31.7312 7.4375 31.825C7.34375 31.9625 7.2625 32 7.075 32C6.95 32 6.8125 31.975 6.78125 31.9437C6.74375 31.9187 6.31875 31.7625 5.825 31.6C5.175 31.3875 4.9125 31.275 4.84375 31.1687C4.7625 31.05 4.75 30.4625 4.75 22.5H3.96875C3.21875 22.5 3.18125 22.4937 2.875 22.1875L2.89375 20.1687C2.90625 18.4312 2.925 18.1062 3.025 17.7812C3.0875 17.575 3.2125 17.25 3.30625 17.0625C3.4 16.875 3.55 16.6062 3.8125 16.2187V14.0312C3.8125 12.2625 3.83125 11.7812 3.90625 11.5125C3.975 11.275 4.0875 11.1 4.325 10.85C4.58125 10.5875 4.73125 10.4875 5 10.4125C5.25625 10.3375 5.61875 10.3125 7.5625 10.3125V9.40624L6.9875 9.36249C6.66875 9.33749 6.2625 9.26874 6.09375 9.21249C5.91875 9.14999 5.625 9.01249 5.4375 8.89999C5.25 8.79374 4.95625 8.56874 4.7875 8.39999C4.61875 8.23124 4.39375 7.93749 4.2875 7.74999C4.175 7.56249 4.0375 7.26249 3.98125 7.09374C3.91875 6.91874 3.85625 6.61249 3.8375 6.40624C3.8125 6.19999 3.83125 5.83124 3.86875 5.59374C3.9125 5.34999 4.00625 5.01249 4.075 4.84374C4.15 4.66874 4.33125 4.35624 4.48125 4.13749C4.6625 3.87499 4.9 3.64374 5.675 3.09374L5.475 2.78749C5.31875 2.53124 5.275 2.39999 5.25625 2.03749C5.2375 1.71874 5.2625 1.49374 5.34375 1.24999C5.4125 1.04374 5.5625 0.799992 5.7125 0.631242C5.85625 0.481242 6.125 0.281242 6.3125 0.187492C6.575 0.0562416 6.75625 0.0124916 7.0625 0.00624156ZM6.325 1.37499C6.23125 1.51874 6.18125 1.68749 6.18125 1.87499C6.18125 2.06249 6.23125 2.23124 6.325 2.37499C6.40625 2.49374 6.56875 2.64374 6.6875 2.69999C6.80625 2.76249 6.9875 2.81249 7.09375 2.81249C7.2 2.81249 7.38125 2.76249 7.5 2.69999C7.61875 2.64374 7.78125 2.49374 7.8625 2.37499C7.95625 2.23124 8.00625 2.06249 8.00625 1.87499C8.00625 1.68749 7.95625 1.51874 7.8625 1.37499C7.78125 1.25624 7.61875 1.10624 7.5 1.04999C7.38125 0.987491 7.2 0.937492 7.09375 0.937492C6.9875 0.937492 6.80625 0.987491 6.6875 1.04999C6.56875 1.10624 6.40625 1.25624 6.325 1.37499ZM5.98125 4.04999C5.81875 4.14374 5.68125 4.23124 5.68125 4.24999C5.68125 4.26874 5.81875 4.34374 5.98125 4.41874C6.14375 4.48749 6.39375 4.58124 6.53125 4.61874C6.66875 4.65624 6.91875 4.68749 7.09375 4.68749C7.2625 4.68749 7.51875 4.65624 7.65625 4.61874C7.79375 4.58124 8.04375 4.48749 8.20625 4.41874C8.36875 4.34374 8.50625 4.26249 8.5 4.23124C8.5 4.20624 8.325 4.09999 8.10625 3.99999C7.8125 3.84999 7.60625 3.79999 7.25 3.78124C6.99375 3.76874 6.66875 3.78124 6.53125 3.81874C6.39375 3.84999 6.14375 3.95624 5.98125 4.04999ZM4.775 5.85624C4.75 6.07499 4.7625 6.35624 4.8125 6.56249C4.85625 6.74999 4.95 7.01874 5.0125 7.15624C5.08125 7.29374 5.26875 7.54374 5.43125 7.70624C5.5875 7.87499 5.83125 8.06874 5.96875 8.13749C6.10625 8.21249 6.35625 8.30624 6.53125 8.34999C6.7 8.39999 6.95625 8.43749 7.09375 8.43749C7.23125 8.43749 7.48125 8.39999 7.65625 8.34999C7.825 8.30624 8.08125 8.21249 8.21875 8.13749C8.35625 8.06874 8.6 7.87499 8.75625 7.70624C8.91875 7.54374 9.10625 7.29374 9.175 7.15624C9.2375 7.01874 9.33125 6.74999 9.375 6.56249C9.425 6.35624 9.4375 6.07499 9.4125 5.85624C9.39375 5.66249 9.33125 5.38749 9.28125 5.24999C9.23125 5.11249 9.1625 4.99999 9.125 4.99999C9.0875 4.99999 8.95625 5.06874 8.825 5.14999C8.7 5.23749 8.4125 5.36874 8.1875 5.44374C7.8625 5.55624 7.64375 5.58749 7.09375 5.58749C6.54375 5.58749 6.325 5.55624 6 5.44374C5.775 5.36874 5.4875 5.23749 5.35625 5.14999C5.23125 5.06874 5.1 4.99999 5.06875 4.99999C5.0375 4.99999 4.96875 5.11249 4.9125 5.24999C4.85625 5.38749 4.79375 5.66249 4.775 5.85624ZM4.84375 11.6875C4.76875 11.8437 4.75 12.225 4.75 13.9062V15.9375H9.4375C9.4375 11.9562 9.43125 11.8312 9.3125 11.6375C9.24375 11.5312 9.10625 11.3937 9 11.3437C8.89375 11.2937 8.74375 11.25 8.65625 11.25H8.5C8.5 12.5687 8.4625 13.0312 8.4125 13.2187C8.36875 13.3875 8.28125 13.6312 8.21875 13.75C8.1625 13.8687 7.98125 14.1062 7.81875 14.2687C7.6625 14.4375 7.41875 14.6312 7.28125 14.7C7.14375 14.775 6.8875 14.8687 6.71875 14.9125C6.54375 14.9625 6.3125 15 6.2 15C6.06875 15 5.94375 14.9437 5.84375 14.8437C5.75625 14.7562 5.6875 14.6187 5.6875 14.5312C5.6875 14.4437 5.75625 14.3062 5.84375 14.2187C5.93125 14.125 6.06875 14.0625 6.16875 14.0625C6.2625 14.0625 6.45625 14.025 6.59375 13.9875C6.7375 13.9437 6.9625 13.7937 7.125 13.625C7.29375 13.4625 7.44375 13.2375 7.4875 13.0937C7.525 12.9562 7.5625 12.4875 7.5625 12.0437V11.25C5.45625 11.25 5.325 11.2625 5.1375 11.375C5.03125 11.4437 4.89375 11.5812 4.84375 11.6875ZM4.34375 17.1062C4.25625 17.2375 4.1125 17.5375 4.01875 17.7812C3.85 18.2125 3.85 18.2437 3.83125 19.8875L3.8125 21.5625H10.375C10.3375 18.2437 10.3375 18.2125 10.1687 17.7812C10.075 17.5375 9.93125 17.2375 9.84375 17.1062L9.6875 16.875H4.5L4.34375 17.1062ZM26 6.28124C26.2938 6.29374 26.675 6.34999 26.8438 6.41249C27.0187 6.46874 27.3125 6.60624 27.5 6.71874C27.6875 6.83124 27.9812 7.05624 28.15 7.22499C28.3188 7.39374 28.5438 7.68124 28.6562 7.86874C28.7625 8.06249 28.9062 8.36874 28.975 8.55624C29.0625 8.80624 29.0938 9.07499 29.0938 9.52499C29.0938 9.98124 29.0625 10.25 28.975 10.4937C28.9062 10.6875 28.7625 10.9937 28.6562 11.1812C28.5438 11.375 28.3188 11.6625 28.15 11.8312C27.9812 12 27.6875 12.225 27.5 12.3375C27.3125 12.45 27.0187 12.5875 26.8438 12.6437C26.675 12.7062 26.275 12.775 25.375 12.8375V13.7437H26.4875C27.325 13.7437 27.6812 13.7687 27.9375 13.8437C28.2 13.925 28.3625 14.025 28.6063 14.2687C28.8438 14.5125 28.95 14.675 29.025 14.9312C29.1125 15.225 29.125 15.675 29.125 17.9625C29.125 20.5625 29.125 20.6687 28.9937 21.0562C28.9125 21.2812 28.7688 21.6062 28.6688 21.775C28.5688 21.95 28.4188 22.1687 28.1875 22.4312V26.7312C28.1875 30.4562 28.175 31.0437 28.0938 31.1687C28.025 31.2687 27.7625 31.3875 27.1125 31.6C26.6187 31.7562 26.1938 31.9125 26.1625 31.9437C26.125 31.975 25.9937 32 25.8625 31.9937C25.675 31.9937 25.6 31.9625 25.5 31.825C25.4312 31.7312 25.3687 31.5937 25.3687 31.525C25.3687 31.4562 25.4188 31.3375 25.4813 31.2625C25.5563 31.1687 25.8625 31.0312 27.2188 30.5812L27.25 23.1187L26.8937 23.2562C26.6062 23.3625 26.3937 23.3937 25.8438 23.3937C25.2938 23.3937 25.0875 23.3625 24.4375 23.1187V27.075C24.4375 30.4937 24.425 31.05 24.3438 31.1687C24.275 31.2687 24.0125 31.3875 23.3625 31.6C22.8687 31.7562 22.4438 31.9125 22.4125 31.9437C22.375 31.975 22.2437 31.9937 22.1125 31.9937C21.925 31.9937 21.85 31.9625 21.75 31.825C21.6812 31.7312 21.6187 31.5937 21.6187 31.525C21.6187 31.4562 21.6688 31.3375 21.7313 31.2625C21.8063 31.1687 22.1125 31.0312 23.4688 30.5812L23.5 22.4312L23.35 22.2625C23.2688 22.1687 23.1187 21.95 23.0187 21.775C22.9187 21.6062 22.7812 21.325 22.7188 21.15C22.6313 20.9 22.6 20.6062 22.5875 19.6062C22.5688 18.675 22.5437 18.3687 22.4875 18.3687C22.4437 18.3687 22.2625 18.3 22.0812 18.2125C21.9 18.1312 21.6187 17.9375 21.4625 17.7937C21.3062 17.65 21.1062 17.4125 21.025 17.275C20.9438 17.1375 20.8375 16.875 20.7812 16.6812C20.7062 16.4125 20.6875 15.9125 20.6875 12.1812L20.8438 12.025C20.925 11.9437 21.0688 11.8687 21.1562 11.8687C21.2437 11.8687 21.3813 11.9437 21.625 12.1812V14.2312C21.625 15.6437 21.65 16.3562 21.7062 16.525C21.75 16.675 21.9 16.9 22.075 17.075C22.2438 17.2375 22.4188 17.3687 22.4688 17.3687C22.55 17.3687 22.5625 17.2125 22.5625 16.325C22.5625 15.575 22.5875 15.1875 22.6562 14.95C22.725 14.7062 22.8375 14.5312 23.0812 14.2812C23.3312 14.0187 23.4813 13.925 23.75 13.8437C23.9375 13.7937 24.175 13.7437 24.4375 13.7437V12.525L23.9688 12.2C23.625 11.9562 23.4188 11.75 23.1875 11.4187C22.9937 11.15 22.8125 10.7875 22.7313 10.525C22.6313 10.2 22.5938 9.93749 22.5938 9.49374C22.6 9.08124 22.6313 8.79999 22.7188 8.55624C22.7812 8.36874 22.925 8.06249 23.0375 7.86874C23.1438 7.68124 23.375 7.39374 23.5375 7.22499C23.7063 7.05624 24 6.83124 24.1875 6.71874C24.375 6.60624 24.6813 6.47499 24.8563 6.42499C25.0375 6.37499 25.25 6.31249 25.325 6.29374C25.4062 6.27499 25.7062 6.26874 26 6.28124ZM24.7188 7.48124C24.5812 7.55624 24.3375 7.74999 24.1812 7.91249C24.0187 8.08124 23.8375 8.31249 23.7812 8.43124C23.7188 8.55624 23.6313 8.79374 23.5875 8.96249C23.5375 9.13749 23.5 9.38749 23.5 9.52499C23.5 9.66249 23.5375 9.91874 23.5875 10.0875C23.6313 10.2625 23.7188 10.5 23.7812 10.6187C23.8375 10.7437 24.0187 10.975 24.1812 11.1437C24.3375 11.3062 24.5812 11.5 24.7188 11.575C24.8563 11.6437 25.1125 11.7437 25.2812 11.7875C25.4562 11.8312 25.7062 11.8687 25.8438 11.8687C25.9813 11.8687 26.2375 11.8312 26.4062 11.7875C26.5812 11.7437 26.8312 11.6437 26.9688 11.575C27.1063 11.5 27.35 11.3062 27.5125 11.1437C27.6688 10.975 27.85 10.7437 27.9125 10.6187C27.9688 10.5 28.0563 10.2625 28.1063 10.0875C28.15 9.91874 28.1875 9.66249 28.1875 9.52499C28.1875 9.38749 28.15 9.13749 28.1063 8.96249C28.0563 8.79374 27.9625 8.53749 27.8875 8.39999C27.8188 8.26249 27.625 8.02499 27.4562 7.86249C27.2937 7.70624 27.0562 7.52499 26.9375 7.46249C26.8188 7.39999 26.5812 7.31249 26.4062 7.26874C26.2375 7.22499 25.9688 7.18749 25.8125 7.19374C25.6562 7.19374 25.4062 7.23124 25.25 7.27499C25.0938 7.31874 24.8563 7.41249 24.7188 7.48124ZM23.5938 15.1187C23.5187 15.275 23.5 15.675 23.5 17.4937V19.6812H28.1875C28.1875 15.3875 28.1812 15.2687 28.0625 15.075C27.9937 14.9625 27.8563 14.8312 27.75 14.775C27.6063 14.7062 27.3188 14.6812 26.4688 14.6812H25.375C25.375 15.9187 25.4125 16.3875 25.4562 16.525C25.5 16.675 25.65 16.8937 25.8125 17.0625C25.975 17.225 26.2 17.375 26.3438 17.4187C26.4813 17.4625 26.675 17.4937 26.7687 17.4937C26.8625 17.4937 27.0063 17.5625 27.0938 17.65C27.1812 17.7375 27.25 17.8812 27.25 17.9625C27.25 18.05 27.1812 18.1937 27.1 18.275C26.9958 18.3833 26.875 18.4354 26.7375 18.4312C26.625 18.4312 26.3937 18.3937 26.2188 18.35C26.05 18.3062 25.7938 18.2062 25.6562 18.1375C25.5187 18.0625 25.275 17.8687 25.1187 17.7062C24.9562 17.5375 24.775 17.3062 24.7188 17.1812C24.6562 17.0625 24.5688 16.825 24.525 16.65C24.475 16.4687 24.4375 16 24.4375 15.5125V14.6812C24.175 14.6875 24.0062 14.7437 23.8937 14.8125C23.7812 14.8812 23.6437 15.0187 23.5938 15.1187ZM23.7188 21.1062C23.8062 21.2875 23.9937 21.5625 24.1437 21.725C24.2875 21.8812 24.5187 22.075 24.6562 22.1625C24.7938 22.2437 25.0625 22.35 25.25 22.4C25.4375 22.4562 25.7062 22.4937 25.8438 22.4937C25.9813 22.4937 26.25 22.4562 26.4375 22.4C26.625 22.35 26.8937 22.2437 27.0312 22.1625C27.1688 22.075 27.4 21.8812 27.55 21.725C27.6937 21.5625 27.8813 21.2875 27.9688 21.1062C28.0562 20.925 28.125 20.7437 28.125 20.7C28.125 20.6375 27.6313 20.6187 25.8438 20.6187C24.0625 20.6187 23.5625 20.6375 23.5625 20.7C23.5625 20.7437 23.6375 20.925 23.7188 21.1062ZM17.425 1.88124C17.6062 1.87499 17.9562 1.91249 18.2062 1.95624C18.4562 2.00624 18.8562 2.13749 19.0938 2.24374C19.3375 2.34999 19.5812 2.48749 19.6437 2.54999C19.7062 2.60624 19.7563 2.73749 19.75 2.85624C19.75 2.98124 19.7 3.10624 19.6125 3.19374C19.5062 3.28749 19.4188 3.31874 19.2812 3.29374C19.1812 3.27499 18.9125 3.18124 18.6875 3.08749C18.4625 2.99374 18.1 2.88749 17.875 2.84999C17.5875 2.79999 17.3375 2.79999 17 2.84999C16.7437 2.88749 16.375 2.98749 16.1875 3.06249C16 3.14374 15.7437 3.27499 15.625 3.35624C15.5063 3.43124 15.2688 3.63124 15.1 3.79374C14.9375 3.95624 14.7063 4.24374 14.5938 4.43749C14.4875 4.62499 14.3438 4.94374 14.275 5.14374C14.2125 5.34374 14.1 5.55624 14.0312 5.61874C13.9625 5.67499 13.7188 5.79999 13.4875 5.89374C13.2563 5.98124 13.0625 6.07499 13.0625 6.09374C13.0625 6.10624 13.2563 6.19999 13.4875 6.28749C13.7188 6.38124 13.9625 6.50624 14.0312 6.56249C14.1 6.62499 14.2125 6.83749 14.275 7.03749C14.3438 7.23749 14.4875 7.55624 14.5938 7.74999C14.7063 7.93749 14.9375 8.22499 15.1 8.38749C15.2688 8.54999 15.5063 8.74999 15.625 8.82499C15.7437 8.90624 15.9875 9.03124 16.1562 9.10624C16.3313 9.17499 16.6687 9.26874 16.9062 9.31249C17.15 9.35624 17.5125 9.36874 17.7188 9.34999C17.925 9.32499 18.2375 9.26249 18.4062 9.20624C18.5813 9.14999 18.875 9.01249 19.0625 8.89999C19.25 8.78749 19.5437 8.56249 19.7125 8.39374C19.8813 8.22499 20.1063 7.93749 20.2188 7.74999C20.325 7.55624 20.4625 7.26249 20.525 7.09374C20.5812 6.91874 20.65 6.55624 20.6688 6.28124C20.6938 5.91249 20.675 5.66874 20.6 5.37499C20.5438 5.14999 20.425 4.81249 20.3375 4.62499C20.2563 4.43124 20.1875 4.21249 20.1875 4.13749C20.1875 4.06249 20.2437 3.94374 20.3125 3.87499C20.3937 3.79374 20.5187 3.74999 20.6562 3.74999C20.825 3.74999 20.9062 3.78749 21.0063 3.91874C21.075 4.01249 21.2125 4.28749 21.3125 4.53124C21.4062 4.76874 21.525 5.17499 21.5625 5.43749C21.6063 5.69374 21.625 6.11249 21.6063 6.37499C21.5875 6.63124 21.525 7.01249 21.4688 7.21874C21.4062 7.42499 21.2438 7.81874 21.1063 8.09374C20.9188 8.44374 20.7125 8.72499 20.375 9.06249C20.0438 9.39374 19.7625 9.60624 19.4062 9.78749C19.1313 9.93124 18.7375 10.0937 18.5312 10.1562C18.2688 10.2375 17.95 10.2687 17.4688 10.275C17.0938 10.275 16.625 10.2375 16.4375 10.1875C16.25 10.1437 15.9125 10.025 15.6875 9.91874C15.4625 9.81874 15.1125 9.61874 14.9062 9.46874C14.7 9.32499 14.4375 9.09374 14.3188 8.95624C14.2 8.82499 13.9938 8.54999 13.8625 8.34374C13.7312 8.13124 13.5562 7.79999 13.4812 7.60624C13.3438 7.24374 13.3438 7.23749 12.875 7.04999C12.6187 6.94374 12.2125 6.77499 11.9688 6.67499C11.7312 6.57499 11.4812 6.43124 11.4187 6.35624C11.3562 6.28124 11.3062 6.16249 11.3062 6.09374C11.3062 6.02499 11.3562 5.90624 11.4187 5.83124C11.4812 5.75624 11.7312 5.61249 11.9688 5.51249C12.2125 5.40624 12.6187 5.23749 12.875 5.13124C13.3438 4.94374 13.3438 4.93749 13.4812 4.57499C13.5562 4.38124 13.7312 4.04999 13.8625 3.84374C13.9938 3.63749 14.2 3.35624 14.3188 3.22499C14.4375 3.08749 14.7 2.85624 14.9062 2.71249C15.1125 2.56249 15.4625 2.36249 15.6875 2.25624C15.9125 2.15624 16.25 2.04374 16.4375 2.00624C16.625 1.96874 16.85 1.92499 16.9375 1.91249C17.025 1.89999 17.2437 1.88749 17.425 1.88124ZM17.4 3.74374C17.475 3.74374 17.5937 3.79374 17.675 3.85624C17.7625 3.92499 18.0625 4.56874 18.5 5.62499C18.875 6.53124 19.1875 7.34999 19.1875 7.43749C19.1875 7.51874 19.125 7.65624 19.0438 7.73124C18.9688 7.81249 18.8375 7.87499 18.75 7.87499C18.6625 7.87499 18.5312 7.82499 18.4562 7.76249C18.375 7.70624 18.2188 7.41249 17.8875 6.59374H16.925L16.7125 7.12499C16.5938 7.41249 16.4375 7.70624 16.3625 7.76249C16.2812 7.82499 16.15 7.87499 16.0625 7.87499C15.975 7.86874 15.8438 7.80624 15.7625 7.73124C15.6875 7.65624 15.625 7.51874 15.625 7.43749C15.625 7.34999 15.9375 6.53124 16.3125 5.62499C16.7125 4.65624 17.0563 3.91874 17.1313 3.85624C17.2063 3.79374 17.325 3.74374 17.4 3.74374Z" fill="#049AFA"/>
</g>
<defs>
<clipPath id="clip0_106_654">
<rect width="32" height="32" fill="white"/>
</clipPath>
</defs>
</svg>
