<svg width="32" height="32" viewBox="0 0 32 32" fill="none" xmlns="http://www.w3.org/2000/svg">
<g id="file - 2023-10-19T223448.959 1">
<path id="Path 0" fill-rule="evenodd" clip-rule="evenodd" d="M31.05 1.0625C31.125 1.0625 31.3 1.11875 31.4375 1.1875C31.575 1.25625 31.7437 1.3875 31.8125 1.4875C31.8875 1.58125 31.9562 1.75625 31.9812 1.875C32 1.99375 31.9687 2.45625 31.9125 2.90625C31.8562 3.35625 31.7375 4.04375 31.65 4.4375C31.5625 4.83125 31.3625 5.5375 31.2062 6C31.05 6.4625 30.775 7.18125 30.5875 7.59375C30.4 8.00625 30.05 8.68125 29.8062 9.09375C29.5562 9.50625 29.125 10.15 28.8437 10.5312C28.5625 10.9125 28.175 11.3938 27.625 12V15.625C27.625 19.1688 27.625 19.25 27.5 19.375C27.425 19.45 27.2875 19.5 27.175 19.5C27.0437 19.5063 26.925 19.4562 26.8437 19.3687C26.725 19.2437 26.7187 19.1375 26.6875 12.9375L26.2 13.3313C25.9375 13.55 25.5062 13.875 24.7812 14.3813L24.7187 25.0312L24.5625 25.275C24.475 25.4125 24.3187 25.5812 24.2187 25.65C24.0375 25.775 23.95 25.7812 20.7187 25.8188C17.575 25.8563 17.3812 25.8625 16.9062 25.9937C16.6312 26.0688 16.2125 26.2188 15.9687 26.3312C15.725 26.4437 15.3875 26.6313 15.2187 26.75C15.0437 26.8687 14.7 27.1562 14.45 27.3875C14.1 27.7188 13.9562 27.8125 13.8125 27.8125C13.6625 27.8125 13.5312 27.7188 13.1687 27.3687C12.925 27.125 12.5187 26.8 12.2812 26.6562C12.0375 26.5063 11.6625 26.3125 11.4375 26.225C11.2125 26.1375 10.85 26.0187 10.625 25.9625C10.2812 25.875 9.73121 25.8562 6.96871 25.8312C3.77496 25.8 3.71246 25.8 3.48121 25.6688C3.34996 25.5938 3.18121 25.4312 2.96871 25.0938L2.90621 10.3438L2.28121 10.325C1.93746 10.3125 1.54996 10.3375 1.41871 10.3687C1.26455 10.4146 1.1458 10.5042 1.06246 10.6375C0.937463 10.8438 0.937463 10.9562 0.937463 19.5187C0.937463 27.1 0.949963 28.2125 1.03121 28.375C1.08121 28.4813 1.21871 28.6063 1.34371 28.6562C1.53121 28.7375 2.26871 28.75 6.68746 28.75C11.6875 28.75 11.8187 28.75 12.0625 28.875C12.2 28.9438 12.4312 29.1438 12.575 29.3188C12.7312 29.5 12.975 29.6938 13.1562 29.7875C13.375 29.8938 13.575 29.9375 13.8125 29.9375C14.0375 29.9375 14.2625 29.8875 14.4687 29.7938C14.6625 29.7 14.8875 29.525 15.0625 29.3125C15.2187 29.1313 15.4562 28.925 15.5937 28.8687C15.8312 28.7625 16.1625 28.75 20.9812 28.75C25.425 28.75 26.15 28.7375 26.3125 28.6562C26.4125 28.6063 26.5437 28.5 26.5937 28.425C26.675 28.3 26.6875 27.7875 26.6875 21.125L26.875 20.9375C27.025 20.7875 27.1 20.7563 27.2312 20.7875C27.3312 20.8062 27.4562 20.8687 27.5187 20.925C27.625 21.025 27.6312 21.2563 27.625 24.6875C27.625 27.3625 27.6 28.4125 27.55 28.5938C27.5 28.7437 27.3437 28.975 27.1562 29.1688C26.9187 29.4125 26.7625 29.5125 26.5 29.5875C26.2 29.675 25.55 29.6875 15.9687 29.6938L15.625 30.0688C15.3937 30.325 15.1625 30.5063 14.9062 30.6313C14.7 30.725 14.3625 30.8438 14.1562 30.8813C13.8187 30.9563 13.7312 30.95 13.2812 30.8188C13.0062 30.7437 12.6375 30.5875 12.4687 30.475C12.2937 30.3625 12.0437 30.1375 11.6562 29.6812L6.56246 29.6875C2.23746 29.6875 1.41871 29.675 1.15621 29.5938C0.981213 29.5438 0.731213 29.4125 0.599963 29.3C0.468713 29.1875 0.281213 28.9688 0.0312132 28.5312L0.0124632 19.6562C-3.67779e-05 11.9563 0.0124632 10.7437 0.0937132 10.5C0.143713 10.3438 0.281213 10.1062 0.393713 9.96875C0.506213 9.83125 0.743713 9.65 0.912463 9.56875C1.18121 9.43125 1.31871 9.4125 2.93746 9.375V8.96875C2.93746 8.6875 2.97496 8.4875 3.06246 8.3125C3.13121 8.16875 3.29996 7.9875 3.44996 7.89375C3.69996 7.725 3.73746 7.71875 4.74371 7.7C5.31246 7.6875 5.84371 7.69375 5.91871 7.7125C5.99996 7.73125 6.11871 7.80625 6.18746 7.875C6.25621 7.94375 6.31246 8.0625 6.31246 8.14375C6.31871 8.21875 6.26246 8.35625 6.06246 8.625H5.04371C4.48746 8.625 3.99371 8.65 3.95621 8.675C3.89371 8.70625 3.88121 10.45 3.90621 24.8438L7.09371 24.8813C9.71871 24.9125 10.3562 24.9375 10.7187 25.025C10.9562 25.0812 11.2937 25.1688 11.4687 25.225C11.6375 25.2812 11.9937 25.4375 12.25 25.5688C12.5062 25.7 12.8437 25.8937 13 25.9937C13.1562 26.1 13.3 26.1875 13.325 26.1875C13.3562 26.1875 13.3687 22.6125 13.3437 10.2875L12.875 9.89375C12.6187 9.675 12.1562 9.375 11.8437 9.21875C11.5312 9.0625 11.0562 8.88125 10.7812 8.80625C10.3937 8.70625 10.0062 8.66875 9.03746 8.6375C7.80621 8.59375 7.79371 8.59375 7.67496 8.4375C7.61246 8.35 7.55621 8.23125 7.56246 8.175C7.56246 8.1125 7.58121 8.01875 7.60621 7.9625C7.63746 7.90625 7.73121 7.81875 7.82496 7.775C7.94371 7.7125 8.25621 7.6875 8.82496 7.6875C9.28121 7.6875 9.88121 7.7125 10.1562 7.75C10.4312 7.78125 10.825 7.85625 11.0312 7.9125C11.2375 7.9625 11.5875 8.08125 11.8125 8.16875C12.0375 8.25625 12.4 8.4375 12.625 8.56875C12.85 8.7 13.2062 8.95 13.4187 9.125C13.8062 9.43125 13.8125 9.4375 13.9562 9.33125C14.0375 9.26875 14.2875 9.08125 14.5062 8.9125C14.725 8.74375 15.1562 8.4875 15.4687 8.3375C15.775 8.1875 16.3125 7.9875 17.2812 7.725L23.4375 7.6875L23.6687 7.3C23.8 7.08125 24.1437 6.58125 24.4437 6.1875C24.7375 5.79375 25.2875 5.15 25.6625 4.75625C26.0375 4.3625 26.6125 3.81875 26.9375 3.55C27.2625 3.275 27.8687 2.825 28.2812 2.54375C28.6937 2.2625 29.45 1.81875 29.9687 1.55C30.4812 1.28125 30.9687 1.0625 31.0437 1.0625H31.05ZM29.4125 2.925C29.2062 3.05 28.7812 3.33125 28.4625 3.55625C28.15 3.7875 27.6562 4.16875 27.3687 4.4125C27.0875 4.6625 26.6375 5.08125 26.3812 5.35C26.125 5.625 25.7312 6.06875 25.5062 6.34375C25.2812 6.61875 24.8937 7.15 24.6375 7.53125C24.3875 7.90625 23.9625 8.66875 23.6875 9.21875C23.4187 9.76875 23.0875 10.5562 22.95 10.9688C22.8062 11.3813 22.6312 12.0125 22.5437 12.375C22.4625 12.7375 22.4062 13.125 22.4187 13.2375C22.4312 13.3438 22.4625 13.4375 22.4875 13.4375C22.5187 13.4312 23.8437 11.5562 25.4437 9.26875C27.0437 6.975 28.4125 5.0375 28.4875 4.95625C28.5625 4.875 28.6875 4.8125 28.7687 4.8125C28.85 4.80625 28.9875 4.8625 29.0812 4.9375C29.2125 5.03125 29.2562 5.1125 29.2562 5.26875C29.25 5.43125 28.7 6.25625 26.2875 9.70625C24.6562 12.0312 23.3187 13.95 23.3187 13.9688C23.3187 13.9875 23.375 14 23.4437 14C23.5125 14 23.6625 13.9562 23.7687 13.9C23.8812 13.8438 24.2437 13.6125 24.5687 13.3875C24.8937 13.1625 25.375 12.8062 25.6312 12.5875C25.8875 12.375 26.4 11.8938 26.7625 11.5188C27.125 11.15 27.575 10.6625 27.7562 10.4375C27.9437 10.2125 28.3062 9.70625 28.5687 9.3125C28.825 8.91875 29.2125 8.25625 29.425 7.84375C29.6375 7.43125 29.9437 6.75625 30.1 6.34375C30.2625 5.93125 30.4875 5.23125 30.6 4.78125C30.7125 4.3375 30.85 3.7 30.9 3.375C30.9562 3.05 31.0125 2.61875 31.0312 2.425C31.05 2.225 31.0437 2.0625 31.0187 2.0625C30.9937 2.0625 30.7062 2.20625 30.3812 2.38125C30.0562 2.55625 29.6187 2.8 29.4125 2.925ZM16.7562 8.84375C16.5312 8.9 16.2062 9.0125 16.0375 9.0875C15.8625 9.1625 15.5562 9.3375 15.35 9.46875C15.1437 9.6 14.825 9.85 14.6437 10.025L14.3125 10.3438C14.3187 22.625 14.3312 26.1875 14.35 26.1875C14.3687 26.1875 14.5437 26.075 14.7375 25.9438C14.9375 25.8062 15.3125 25.6 15.5687 25.475C15.825 25.3563 16.2625 25.2 16.5375 25.125C16.8125 25.0562 17.3187 24.9688 17.6625 24.9375C18.0062 24.9062 19.5187 24.8813 21.0187 24.875C23.3937 24.875 23.7625 24.8625 23.7875 24.7812C23.8062 24.7313 23.8187 22.4937 23.8187 19.8125V14.9375C23.1875 14.9375 22.9375 14.9125 22.85 14.875C22.7 14.8125 22.6687 14.8438 22.2312 15.4875C21.8437 16.05 21.7812 16.175 21.8312 16.2812C21.8687 16.35 21.9812 16.8687 22.0812 17.4375C22.2125 18.15 22.2562 18.5938 22.2375 18.875C22.2187 19.1375 22.1562 19.3875 22.0562 19.5938C21.9687 19.7687 21.7562 20.0312 21.5875 20.1875C21.3375 20.4188 21.025 20.5812 19.8437 21.0812C19.0562 21.4187 18.3 21.725 18.1625 21.7625C17.9625 21.825 17.8625 21.8187 17.6312 21.7375C17.475 21.6812 17.275 21.55 17.175 21.4438C17.0812 21.3375 16.9875 21.1437 16.9687 21.0187C16.9437 20.8875 16.9687 20.0375 17.0187 19.125C17.1062 17.6063 17.125 17.4375 17.2687 17.125C17.35 16.9375 17.5062 16.6812 17.6125 16.5625C17.7187 16.4438 17.9562 16.2625 18.1375 16.1625C18.3875 16.025 18.725 15.9313 19.4437 15.8C19.975 15.7063 20.5375 15.625 20.6937 15.625L20.975 15.6313C21.6312 14.7063 21.8312 14.3938 21.85 14.3438C21.8687 14.2937 21.8312 14.175 21.7687 14.0875L21.6625 13.925C18.3625 13.9812 18.1125 14 17.7062 14.1187C17.4625 14.1875 17.0687 14.3375 16.8312 14.4375C16.6 14.5437 16.35 14.625 16.2687 14.625C16.1937 14.625 16.075 14.5688 16.0062 14.5C15.9312 14.425 15.8812 14.2875 15.8812 14.175C15.875 14.0563 15.925 13.925 15.9875 13.8687C16.05 13.8125 16.2375 13.6937 16.4125 13.6062C16.5812 13.525 16.95 13.3812 17.225 13.2937C17.5 13.2063 17.9437 13.1063 18.2062 13.0688C18.475 13.0312 19.3187 13 20.0812 13H21.475C21.6 12.3 21.6562 12.0125 21.6812 11.9125L21.725 11.7375C18.2812 11.7875 18.0562 11.8063 17.6437 11.925C17.4 12 17.025 12.15 16.8187 12.25C16.6125 12.3562 16.3812 12.4375 16.3 12.4375C16.225 12.4375 16.1 12.375 16.025 12.3C15.9375 12.2125 15.8812 12.075 15.8812 11.9563C15.8812 11.8063 15.9312 11.7125 16.05 11.6062C16.15 11.5312 16.45 11.375 16.725 11.2688C17 11.1625 17.4062 11.025 17.6312 10.9625C17.9875 10.8625 18.2937 10.8438 20.025 10.8438H22.0062C22.1687 10.3625 22.35 9.89375 22.5187 9.5C22.6875 9.10625 22.8375 8.74375 22.8562 8.70625C22.875 8.64375 22.3562 8.625 20.3625 8.63125C18.9812 8.6375 17.6937 8.6625 17.5062 8.6875C17.3187 8.7125 16.9812 8.78125 16.7562 8.84375ZM18.5062 17.025C18.3875 17.1 18.2312 17.275 18.1687 17.4125C18.0687 17.6125 18.0312 17.9375 17.95 19.2313C17.8937 20.0938 17.8625 20.8188 17.8812 20.8375C17.9 20.8625 18.5625 20.6062 19.35 20.2687C20.45 19.8062 20.8375 19.6125 21.0125 19.4438C21.1687 19.2938 21.2562 19.1313 21.2875 18.9688C21.3187 18.8125 21.3 18.4688 21.2312 18.0312C21.1687 17.6562 21.1062 17.3125 21.0812 17.2687C21.0562 17.225 20.875 17.425 20.6312 17.7687C20.4125 18.0875 20.2312 18.3875 20.2375 18.4375C20.2437 18.4875 20.2687 18.625 20.2875 18.7375C20.3125 18.8937 20.2875 18.9688 20.1625 19.0938C20.0812 19.1812 19.95 19.25 19.8687 19.25C19.7875 19.2563 19.5437 19.1312 19.325 18.9875C19.1062 18.8375 18.8687 18.65 18.8062 18.5625C18.725 18.4562 18.7 18.3563 18.725 18.25C18.75 18.1625 18.8125 18.0438 18.8687 17.9813C18.9312 17.9125 19.0625 17.875 19.1937 17.875C19.4 17.875 19.4375 17.8438 19.7937 17.3312C20 17.025 20.1937 16.7437 20.2125 16.7062C20.2437 16.6562 20.2187 16.625 20.1437 16.6313C20.0875 16.6375 19.7437 16.6938 19.3812 16.7625C18.9812 16.8375 18.6375 16.9375 18.5062 17.025ZM5.71246 10.8062L7.65621 10.825C9.43121 10.85 9.64371 10.8625 10.1312 10.9875C10.425 11.0688 10.9 11.25 11.1937 11.3938C11.6125 11.6 11.7312 11.6938 11.7687 11.8313C11.8 11.9375 11.7875 12.0625 11.7375 12.1687C11.7 12.2625 11.5937 12.3687 11.5062 12.4C11.3812 12.4437 11.2375 12.4125 10.8187 12.2312C10.525 12.1062 10.1187 11.9562 9.91246 11.9C9.61246 11.8125 9.16246 11.7875 5.68121 11.7188L5.56246 11.5625C5.49371 11.475 5.43746 11.3438 5.43746 11.275C5.43121 11.2 5.49371 11.0688 5.56871 10.975L5.71246 10.8062ZM5.76871 12.9875L7.65621 13.0188C9.43121 13.0437 9.57496 13.05 10.1375 13.2C10.4625 13.2875 10.9187 13.45 11.15 13.5562C11.3812 13.6625 11.6312 13.825 11.7 13.925C11.7687 14.0188 11.825 14.1375 11.825 14.1875C11.825 14.2375 11.7687 14.3562 11.7 14.4563C11.6125 14.575 11.5187 14.625 11.3875 14.625C11.2812 14.625 11.0625 14.5563 10.9 14.475C10.7375 14.3938 10.4187 14.2688 10.2 14.2C9.97496 14.125 9.59371 14.0375 9.35621 14C9.11246 13.9688 8.20621 13.9375 5.76246 13.9375L5.60621 13.7812C5.51871 13.6938 5.44996 13.5562 5.44996 13.4688C5.44996 13.3813 5.52496 13.2375 5.61246 13.15L5.76871 12.9875ZM7.22496 15.1875C7.94996 15.1875 8.81871 15.2188 9.16246 15.25C9.50621 15.2812 9.99996 15.3687 10.2562 15.4375C10.5187 15.5063 10.9375 15.6687 11.1937 15.8C11.5 15.95 11.7 16.0875 11.7562 16.2C11.8437 16.3563 11.8437 16.3938 11.7562 16.5438C11.7062 16.6375 11.5875 16.75 11.4937 16.7938C11.3375 16.8625 11.2625 16.85 10.775 16.6313C10.475 16.5 10.0187 16.3375 9.75621 16.275C9.38746 16.1875 8.91871 16.1625 7.50621 16.1375C5.79371 16.1125 5.72496 16.1063 5.58746 15.975C5.50621 15.9 5.44371 15.775 5.44371 15.7C5.44371 15.625 5.46871 15.5125 5.49371 15.4563C5.51871 15.4 5.62496 15.3125 5.72496 15.2688C5.86246 15.2125 6.30621 15.1875 7.22496 15.1875ZM5.71246 17.425L7.68746 17.45C9.48746 17.475 9.71246 17.4875 10.1625 17.6125C10.4375 17.6875 10.9 17.8625 11.1812 18C11.5687 18.1875 11.7125 18.2875 11.7625 18.4188C11.8125 18.55 11.8062 18.6375 11.7312 18.7938C11.6687 18.925 11.575 19.0125 11.4625 19.0375C11.3375 19.0625 11.1562 19.0125 10.8187 18.8563C10.5625 18.7313 10.1812 18.5875 9.97496 18.525C9.67496 18.4375 9.23746 18.4125 5.68746 18.3438L5.56246 18.1875C5.49371 18.1 5.43746 17.9688 5.43746 17.8937C5.43746 17.825 5.49371 17.6875 5.57496 17.5938L5.71246 17.425ZM5.74996 19.625H7.38121C8.27496 19.625 9.22496 19.6562 9.49371 19.6938C9.75621 19.7313 10.1562 19.8188 10.3812 19.8875C10.6062 19.95 10.9875 20.1 11.225 20.2125C11.5437 20.3625 11.6875 20.4688 11.7437 20.6C11.8062 20.7313 11.8062 20.825 11.7562 20.95C11.725 21.0438 11.6312 21.1562 11.5562 21.1938C11.475 21.2313 11.3437 21.25 11.2562 21.2313C11.1687 21.2125 10.875 21.1 10.6 20.975C10.3062 20.8438 9.86871 20.7125 9.53746 20.6562C9.12496 20.5875 8.54371 20.5625 5.75621 20.5625L5.59996 20.4062C5.51246 20.3188 5.44371 20.1812 5.44371 20.0875C5.44996 20 5.51871 19.8625 5.59996 19.775L5.74996 19.625ZM7.66246 21.8375C9.00621 21.8562 9.58121 21.8875 9.88121 21.9625C10.1062 22.0125 10.4437 22.1125 10.6312 22.175C10.8187 22.2437 11.125 22.3687 11.3 22.4625C11.4812 22.55 11.675 22.6875 11.725 22.7687C11.775 22.8438 11.8187 22.95 11.8187 23C11.825 23.05 11.7625 23.175 11.6937 23.2687C11.6 23.3937 11.5125 23.4375 11.3625 23.4375C11.2562 23.4375 10.9812 23.35 10.7562 23.2437C10.5312 23.1375 10.1375 22.9937 9.88121 22.925C9.46871 22.8125 9.18121 22.7938 5.69371 22.75L5.56871 22.5812C5.49371 22.4875 5.43746 22.3562 5.44371 22.3C5.44371 22.2375 5.47496 22.1313 5.51871 22.0625C5.56246 21.9875 5.64996 21.9062 5.71871 21.875C5.79371 21.8375 6.60621 21.825 7.66246 21.8375Z" fill="#049AFA"/>
</g>
</svg>
