<svg width="32" height="32" viewBox="0 0 32 32" fill="none" xmlns="http://www.w3.org/2000/svg">
<g id="file - 2023-10-19T223520.297 1">
<path id="Path 0" fill-rule="evenodd" clip-rule="evenodd" d="M4.59375 0.00625L19.75 0V0.9375H7.125V23L18.0938 23.0312L18.125 23.9375L11.45 23.9562C5.5375 23.9688 4.75625 23.9813 4.5625 24.0688C4.44375 24.1187 4.2375 24.275 4.10625 24.4125C3.94375 24.575 3.8375 24.7687 3.76875 25C3.69375 25.2687 3.68125 25.5688 3.7 26.375C3.71875 27.2625 3.7375 27.4375 3.85 27.6562C3.925 27.7938 4.09375 28 4.225 28.1125C4.35625 28.225 4.56875 28.3438 4.6875 28.375C4.80625 28.4125 5.40625 28.4375 7.125 28.4375V25.375H23.5L23.4688 26.2812L12.75 26.3125V28.4375H19.925C24.3812 28.4375 27.175 28.4125 27.3125 28.375C27.4312 28.3438 27.6437 28.225 27.775 28.1125C27.9062 28 28.075 27.7938 28.15 27.6562C28.275 27.4188 28.2812 27.3 28.2938 25.4813C28.3063 24.425 28.2938 23.5625 28.2625 23.5625C28.2375 23.5625 28.0625 23.6437 27.5312 23.9062L19.125 23.9375V23H23.1875C27.025 23 27.2625 22.9937 27.4875 22.8813C27.6125 22.8188 27.825 22.6437 27.9562 22.4937C28.1104 22.3104 28.2104 22.1146 28.2563 21.9062C28.3 21.6938 28.3125 18.4375 28.2812 1.96875L28.15 1.71875C28.075 1.58125 27.9187 1.38125 27.8 1.28125C27.675 1.175 27.4688 1.05625 27.3375 1.01875C27.1562 0.9625 26.2563 0.9375 20.6875 0.9375V0H27.375L27.7687 0.175C27.9812 0.26875 28.2812 0.4625 28.425 0.6C28.575 0.73125 28.7812 0.96875 28.875 1.125C28.975 1.28125 29.0938 1.5625 29.15 1.75C29.2437 2.0625 29.25 3.33125 29.25 14.6562C29.25 25.9062 29.2375 27.2563 29.15 27.5938C29.1 27.8 28.9875 28.0812 28.9062 28.2188C28.825 28.3563 28.625 28.5938 28.4562 28.75C28.2937 28.9 28 29.1 27.4688 29.3438L12.75 29.375V32L12.6125 31.975C12.5312 31.9563 11.9 31.7875 9.9375 31.25L8.675 31.6C7.975 31.7875 7.34375 31.9562 7.125 32V29.375L5.83125 29.3563C4.5875 29.3438 4.51875 29.3375 4.1875 29.1875C4 29.1 3.70625 28.9 3.54375 28.75C3.375 28.5938 3.175 28.3563 3.09375 28.2188C3.01875 28.0812 2.90625 27.8125 2.85 27.625C2.7625 27.3188 2.75 26.5562 2.75 13.4375H3.6875V18.4375C3.6875 22.4125 3.70625 23.4312 3.76875 23.4125C3.80625 23.3938 4.025 23.3062 4.25 23.2188C4.58125 23.0812 4.8 23.0438 6.1875 22.9688V0.9375H5.55C5.19375 0.9375 4.8 0.975 4.6625 1.01875C4.53125 1.05625 4.325 1.18125 4.2 1.28125C4.08125 1.3875 3.925 1.58125 3.85 1.71875C3.71875 1.96875 3.71875 2.01875 3.6875 12.5H2.75V7.325C2.75 2.8125 2.7625 2.10625 2.85 1.78125C2.9 1.575 3.0125 1.29375 3.09375 1.15625C3.175 1.01875 3.375 0.78125 3.54375 0.625C3.70625 0.475 4.0125 0.275 4.21875 0.175L4.59375 0.00625ZM8.0625 28.5312C8.0625 29.9688 8.0875 30.75 8.125 30.75C8.1625 30.75 8.5875 30.65 9.08125 30.525L9.96875 30.2938C11.3 30.65 11.7125 30.75 11.75 30.75C11.7875 30.75 11.8125 29.9688 11.8125 28.5312V26.3125H8.0625V28.5312ZM8.0625 6.4375H27.3125V16.9375H8.0625V6.4375ZM9 16H26.375V7.375H9V16ZM24.3687 25.375H25.3125V26.3125L24.4062 26.2812L24.3687 25.375ZM10.25 8.5L12.8438 8.53125L12.875 9.4375L11.1562 9.46875L11.125 11.0625H12.6875V12L11.1562 12.0312L11.125 13.625L12.8438 13.6562L12.875 14.5625H10.25V8.5ZM17.8125 8.5L18.7125 8.5375L18.7437 14.5688H17.7437L16.45 12.4812C15.7375 11.3313 15.1312 10.4062 15.1062 10.4187C15.0813 10.4312 15.0562 11.3875 15.0562 14.6313H14.1187V8.56875L15.1375 8.6L16.4062 10.6313C17.1 11.75 17.7062 12.6687 17.7437 12.675C17.7875 12.6875 17.8125 12.075 17.8125 10.5938V8.5ZM22.7938 8.5125C22.9688 8.5125 23.2688 8.5375 23.45 8.58125C23.625 8.61875 23.8875 8.7 24.025 8.7625C24.1625 8.81875 24.325 8.90625 24.3937 8.95625C24.5062 9.0375 24.5 9.05625 24.2687 9.40625C24.1062 9.65 23.9937 9.75625 23.9312 9.7375C23.8813 9.71875 23.6812 9.64375 23.4937 9.575C23.3062 9.50625 23.025 9.45 22.8687 9.45C22.7125 9.44375 22.4312 9.49375 22.2437 9.55C22.0562 9.60625 21.8 9.7125 21.6812 9.7875C21.5625 9.8625 21.35 10.05 21.2188 10.2C21.0812 10.3562 20.9125 10.6063 20.8438 10.7563C20.7437 10.9688 20.7125 11.1688 20.7125 11.5688C20.7125 12.0188 20.7375 12.1562 20.8813 12.4438C20.9688 12.6375 21.1812 12.9125 21.35 13.0688C21.5125 13.2188 21.7937 13.4125 21.9625 13.4875C22.1375 13.5625 22.4312 13.65 22.6187 13.6687C22.8625 13.7 23.0625 13.6812 23.3062 13.6062C23.4937 13.55 23.7563 13.4188 23.8875 13.3188C24.025 13.2063 24.1938 12.9812 24.3062 12.7437C24.4062 12.525 24.4937 12.2812 24.525 12.0375L22.8687 12.0063V11.0688H25.4937V11.5875C25.4937 11.8687 25.45 12.275 25.4 12.4937C25.35 12.7062 25.2437 13 25.175 13.15C25.1 13.2937 24.9375 13.5375 24.8125 13.6875C24.6875 13.8438 24.4625 14.05 24.3062 14.1562C24.15 14.2625 23.8562 14.4 23.65 14.4625C23.4125 14.5375 23.0938 14.5813 22.775 14.5813C22.4438 14.5813 22.1375 14.5375 21.8687 14.4563C21.6437 14.3813 21.3313 14.2375 21.1688 14.1375C21 14.0312 20.7375 13.8125 20.5812 13.65C20.425 13.4875 20.2 13.1562 20.0812 12.9125C19.9562 12.65 19.8375 12.2875 19.7938 12.0063C19.7438 11.65 19.7438 11.4375 19.7938 11.1C19.8375 10.8625 19.9562 10.4813 20.0625 10.2563C20.175 10.025 20.4062 9.69375 20.6187 9.475C20.8312 9.25625 21.1437 9.01875 21.375 8.89375C21.5938 8.78125 21.9312 8.65 22.1187 8.60625C22.3062 8.55625 22.6125 8.51875 22.7938 8.5125Z" fill="#049AFA"/>
</g>
</svg>
