<svg width="32" height="32" viewBox="0 0 32 32" fill="none" xmlns="http://www.w3.org/2000/svg">
<g id="file - 2023-10-19T223554.515 1" clip-path="url(#clip0_106_666)">
<path id="Path 0" fill-rule="evenodd" clip-rule="evenodd" d="M24.1562 0.0062739C24.5312 2.39038e-05 24.7563 0.0375239 25.0625 0.150024C25.2875 0.231274 25.5688 0.356274 25.6875 0.425024C25.8062 0.500024 26.0562 0.706274 26.2375 0.887524C26.4187 1.06877 26.6562 1.38752 26.7563 1.59377C26.8563 1.80002 26.9688 2.12502 27 2.31252C27.05 2.55002 27.05 2.76877 27.0063 3.03127C26.9688 3.23752 26.825 3.82502 26.6812 4.34377C26.5437 4.85627 26.375 5.36252 26.3125 5.46877C26.25 5.57502 26.1312 5.71877 26.05 5.79377C25.9688 5.86877 25.7625 5.99377 25.5938 6.06877C25.3188 6.18752 25.2125 6.20002 24.1562 6.12502L24.1125 6.36252C24.0812 6.55002 24.1063 6.66252 24.25 6.93752C24.35 7.12502 24.5688 7.53127 24.7437 7.84377C24.9187 8.15002 25.1187 8.57502 25.1812 8.78127C25.25 8.98752 25.3188 9.38127 25.3875 10.1563L26.8875 11.9375C27.8938 13.1313 28.45 13.8438 28.5688 14.0938C28.7063 14.375 28.75 14.5625 28.75 14.8438C28.75 15.1188 28.7125 15.2938 28.6063 15.5C28.525 15.6563 28.35 15.8625 28.2125 15.9563C28.0375 16.0813 27.8625 16.1438 27.5938 16.1688C27.275 16.2 27.1688 16.1813 26.8563 16.0375C26.5875 15.9125 26.3375 15.7063 25.1313 14.4688L25.125 15.4063L26.0312 17.0625C26.525 17.975 27.075 19.025 27.2437 19.4063C27.4125 19.7875 27.6375 20.35 27.7437 20.6563C27.8562 20.9625 27.9688 21.3875 28 21.5938C28.0312 21.8 28.2 23.0938 28.375 24.4688C28.5438 25.8438 28.7125 27.0438 28.7375 27.1438C28.775 27.2938 28.8563 27.3438 29.4062 27.5313C29.75 27.65 30.1375 27.8188 30.2687 27.9063C30.3937 27.9938 30.5688 28.1563 30.65 28.2688C30.7312 28.375 30.825 28.5688 30.8687 28.6875C30.9062 28.8063 30.9375 28.9688 30.9375 29.05C30.9375 29.1813 30.9562 29.1875 32 29.1875V32H29.625V31.0625H31.0625V30.125H0.9375V31.0625H26.875V32H0V29.1875H1.03125L1.0125 28.825C1 28.625 1.03125 28.3063 1.0875 28.0938C1.14375 27.8875 1.25625 27.6063 1.3375 27.4688C1.425 27.3313 1.85 26.825 2.28125 26.3438C2.86875 25.6938 3.0875 25.4063 3.1375 25.2188C3.1875 25.0375 3.18125 24.7 3.0625 23.0938L2.65625 22.675C2.38125 22.3875 2.175 22.0938 2.01875 21.7688C1.7875 21.3 1.78125 21.2563 1.78125 20.625C1.78125 20.0375 1.8 19.9313 1.95625 19.6125C2.05 19.4125 2.275 19.0938 2.45625 18.9C2.65625 18.6813 3.65 17.925 5.0625 16.9188C6.31875 16.0188 7.525 15.1938 7.75 15.0813C7.975 14.9688 8.36875 14.8313 8.625 14.775C8.96875 14.7063 9.2375 14.6875 10.1562 14.7625L10.3625 14.4125C10.4688 14.2188 10.6938 13.9313 10.8625 13.775C11.025 13.6188 11.3125 13.4188 11.5 13.3313C11.6875 13.2438 12.0688 13.1313 12.3438 13.0813C12.6313 13.0313 12.9875 13.0063 13.1875 13.0313C13.375 13.05 13.7 13.15 13.9062 13.25C14.1125 13.3438 14.3875 13.5438 14.5188 13.6813C14.6438 13.825 14.8312 14.1 14.9312 14.2938C15.025 14.4938 15.1375 14.7563 15.175 14.875C15.2125 14.9938 15.3125 15.125 15.3875 15.1625C15.4688 15.2 15.625 15.3125 15.7437 15.4125C15.8562 15.5125 16.0125 15.7063 16.0875 15.8438C16.1875 16.0313 16.2125 16.2 16.2062 16.5313C16.2 16.825 16.15 17.125 16.0375 17.4375C15.95 17.6938 15.8 18.0125 15.7 18.1438C15.6062 18.275 15.4312 18.45 15.3125 18.5375C15.1938 18.6188 14.925 18.7438 14.7188 18.8063C14.5125 18.8688 14.2188 18.9438 13.7812 19.0125L13.8062 20.2063C13.8187 20.9125 13.8 21.725 13.675 22.9688L14.0562 23.6563C14.2625 24.0375 14.55 24.6125 14.6938 24.9375C14.8375 25.2625 15.0188 25.8 15.1062 26.125C15.2375 26.6438 15.2562 26.8188 15.2312 27.5C15.2125 28.15 15.1812 28.3563 14.875 29.1875H16.3125C17.4438 29.1875 17.7437 29.1688 17.7062 29.1063C17.6812 29.0688 17.4062 28.6813 17.0875 28.25C16.775 27.8188 16.4688 27.375 16.4125 27.2625C16.3563 27.1563 16.3125 26.9125 16.3125 26.7313C16.3125 26.4875 16.35 26.35 16.4688 26.1688C16.5562 26.0438 16.8 25.8125 17.0187 25.6625C17.2312 25.5125 17.5063 25.2813 17.625 25.15C17.7437 25.0125 18.0375 24.5875 18.2812 24.1938C18.525 23.8063 18.875 23.325 19.0625 23.125C19.25 22.9313 19.5687 22.6625 19.7687 22.525C20.0562 22.3313 20.1562 22.2188 20.2625 21.9688C20.3313 21.7938 20.475 21.3313 20.575 20.9375C20.6813 20.5438 20.8125 19.85 20.8813 19.4063C20.9438 18.9625 21 18.55 21 18.5C21 18.45 20.8937 18.3688 20.7687 18.3188C20.6375 18.2688 20.4375 18.1375 20.3188 18.0375C20.2063 17.9313 20.0437 17.7313 19.9625 17.5938C19.8875 17.4563 19.5187 16.2313 19.15 14.875C18.625 12.9313 18.475 12.2938 18.45 11.875C18.4375 11.5688 18.4562 11.1938 18.5 11C18.5375 10.8125 18.6688 10.3188 18.7812 9.90627C18.8937 9.49377 19.0187 9.03752 19.125 8.62502L19.5625 8.76252C19.8062 8.84377 20 8.92502 20 8.95002C20 8.98127 19.8563 9.51252 19.6875 10.1375C19.4562 10.9688 19.375 11.3938 19.375 11.6875C19.375 12.0063 19.5187 12.6125 20.0312 14.5125C20.3937 15.85 20.7313 17.025 20.7812 17.125C20.8312 17.225 20.9375 17.3563 21.0187 17.4063C21.0938 17.4563 21.2188 17.5 21.3 17.5C21.375 17.5 21.4937 17.425 21.5625 17.325C21.6375 17.2313 21.6938 17.0625 21.6875 16.9375C21.6875 16.8188 21.45 15.6625 20.6313 12.0313L21.6875 8.81252L22.1125 8.96252C22.3687 9.05002 22.5312 9.14377 22.525 9.19377C22.5187 9.24377 22.3125 9.91252 21.6063 12.0938L22.125 14.375C22.5562 16.3063 22.6313 16.7188 22.6063 17.0625C22.5938 17.2875 22.5375 17.5563 22.475 17.6563C22.4188 17.7563 22.3375 17.8875 22.2938 17.9438C22.2313 18.0375 22.3938 18.2375 23.5063 19.4125C24.2125 20.1688 24.9625 20.9625 25.5562 21.5938L25.4875 21.9688C25.45 22.175 25.4125 22.6688 25.4125 23.0625C25.4125 23.6063 25.4375 23.8625 25.525 24.125C25.5875 24.3125 25.775 24.7375 25.9375 25.0625C26.1 25.3875 26.2875 25.825 26.3625 26.0313C26.4312 26.2375 26.5375 26.6313 26.5938 26.9063C26.6562 27.1813 26.7188 27.8063 26.7812 29.1875H28.3937C29.7812 29.1875 30 29.175 30 29.0938C30 29.0438 29.975 28.9438 29.9375 28.875C29.9 28.8063 29.7687 28.7 29.6437 28.6313C29.5125 28.5688 29.0812 28.4125 28.6875 28.2813C28.2938 28.15 27.95 28.0313 27.925 28.0063C27.9062 27.9875 27.7 26.5063 27.4688 24.7188C27.0812 21.7188 27.0312 21.425 26.8312 20.875C26.7125 20.55 26.4312 19.9 26.2125 19.4375C25.9875 18.975 25.5562 18.1438 25.2563 17.5938C24.95 17.0438 24.5812 16.3563 24.175 15.5313V14.25C24.175 13.525 24.2312 12.2875 24.3062 11.4063C24.4 10.2375 24.4188 9.75002 24.375 9.46877C24.3438 9.26252 24.2812 9.01252 24.2375 8.90627C24.2 8.80002 23.9875 8.41252 23.775 8.03127C23.5562 7.65627 23.3125 7.18752 23.0812 6.65627L23.2437 5.92502C23.3312 5.52502 23.4312 5.17502 23.4562 5.14377C23.4875 5.11877 23.85 5.13127 24.2687 5.18127C24.6875 5.23127 25.1062 5.25002 25.2062 5.22502C25.3 5.20627 25.4188 5.12502 25.4688 5.04377C25.5187 4.96877 25.675 4.48127 25.8188 3.96877C25.9625 3.43752 26.0812 2.88127 26.0812 2.68752C26.0812 2.46252 26.0437 2.25002 25.9562 2.06252C25.8812 1.90627 25.6875 1.65627 25.5187 1.50627C25.3562 1.35002 25.0938 1.16877 24.9375 1.10627C24.7812 1.03752 24.5187 0.968774 24.3438 0.950024C24.1313 0.931274 23.9125 0.956274 23.6562 1.03752C23.4062 1.11877 23.1875 1.25002 22.9813 1.43752C22.8125 1.59377 22.6 1.85627 22.5063 2.03127C22.3687 2.30002 22.3438 2.41877 22.3438 2.90627C22.3438 3.36252 22.3687 3.51877 22.6125 3.96877L22.4875 4.59377C22.4187 4.93752 22.3313 5.25627 22.2875 5.30002C22.25 5.35002 21.925 5.55627 21.5688 5.76877C21.2125 5.98127 20.875 6.21252 20.8188 6.28127C20.7625 6.35627 20.625 6.76252 20.5063 7.18752C20.3875 7.61877 20.2938 7.97502 20.2875 7.98127C20.2812 7.98752 20.0875 7.93752 19.8438 7.86877C19.6 7.80002 19.4 7.73752 19.3937 7.73127C19.3875 7.72502 19.4875 7.33752 19.6187 6.87502C19.75 6.41252 19.8813 5.97502 19.9188 5.90627C19.9563 5.83752 20.1063 5.66877 20.2563 5.53127C20.4062 5.39377 20.75 5.15002 21.0125 5.00002C21.4625 4.73752 21.5 4.70002 21.5625 4.43752C21.6187 4.20627 21.6125 4.10627 21.5187 3.84377C21.4375 3.61252 21.4062 3.35627 21.4125 2.87502C21.4125 2.36252 21.4437 2.14377 21.55 1.87502C21.6187 1.68752 21.7937 1.37502 21.9312 1.18752C22.0688 1.00002 22.3313 0.731274 22.5125 0.593774C22.6938 0.456274 23.025 0.268774 23.25 0.175024C23.5688 0.0437739 23.7625 0.0062739 24.1562 0.0062739ZM25.225 11.75C25.2063 11.9063 25.175 12.2688 25.1562 12.5625L25.1187 13.0938C26.9875 15.025 27.1938 15.2 27.375 15.2313C27.5312 15.2563 27.625 15.2375 27.7062 15.1625C27.7687 15.1063 27.8125 14.9688 27.8125 14.8438C27.8125 14.725 27.7812 14.5625 27.7437 14.4813C27.7 14.4063 27.1875 13.7688 26.6 13.0688C26.0125 12.3688 25.4688 11.725 25.3937 11.6313L25.2625 11.4688L25.225 11.75ZM11.9375 14.1688C11.7812 14.2375 11.5375 14.4188 11.4 14.5688C11.2437 14.7375 11.0813 15.0188 10.9688 15.3125C10.8687 15.5688 10.7875 15.7875 10.7812 15.8C10.7812 15.8125 10.4438 15.7688 10.0312 15.7125C9.40625 15.625 9.21875 15.6188 8.90625 15.6813C8.7 15.7188 8.3875 15.8188 8.21875 15.9C8.04375 15.975 6.875 16.775 5.625 17.6688C4.36875 18.5625 3.23125 19.4188 3.09375 19.5688C2.9625 19.7188 2.8125 19.9375 2.76875 20.0438C2.725 20.1563 2.6875 20.4125 2.68125 20.6063C2.68125 20.8938 2.725 21.0563 2.9 21.4063C3.05 21.7125 3.23125 21.9563 3.5125 22.2188C3.73125 22.425 4.56875 23.0563 5.375 23.625C6.18125 24.1938 7.025 24.8063 7.24375 24.9875C7.46875 25.175 7.73125 25.4375 7.825 25.5813C7.9375 25.75 8 25.925 8 26.0625C8 26.1813 7.9375 26.7 7.86875 27.2188C7.7625 27.9938 7.70625 28.2313 7.525 28.6063C7.40625 28.8563 7.3125 29.0875 7.3125 29.125C7.3125 29.1625 7.71875 29.1875 8.40625 29.1875C9.46875 29.1875 9.5 29.1813 9.59375 29.0438C9.64375 28.9688 9.6875 28.8563 9.6875 28.7938C9.6875 28.7375 9.59375 28.5875 9.48125 28.4625C9.36875 28.3438 9.1875 28.2063 9.075 28.1688C8.9625 28.125 8.875 28.05 8.875 28C8.875 27.95 8.91875 27.5 8.96875 27C9.01875 26.5 9.05625 25.8813 9.05625 25.625V25.1563C7.11875 22.7813 6.55625 22.0813 6.55625 22.0625C6.55625 22.0438 7.46875 21.6 8.5875 21.075C9.9625 20.4375 10.6312 20.15 10.65 20.2C10.6687 20.2438 10.725 20.775 10.7812 21.375C10.8313 21.975 10.9062 22.5875 10.9375 22.7313C10.9688 22.8813 11.0438 23.1188 11.1 23.2625C11.1562 23.4125 11.5188 23.9938 11.8938 24.5625C12.275 25.1313 12.6875 25.8188 12.8188 26.0938C12.9438 26.3688 13.0938 26.8125 13.15 27.075C13.2062 27.3438 13.25 27.7188 13.25 27.9063C13.25 28.225 13.2375 28.2563 13.0625 28.3438C12.9563 28.3938 12.8125 28.5125 12.7437 28.6063C12.675 28.7063 12.6187 28.875 12.6187 28.9813L12.625 29.1875L13.8438 29.1938C14.075 28.6813 14.1625 28.4438 14.1938 28.3438C14.225 28.2438 14.275 27.9813 14.3125 27.7625C14.3562 27.5 14.35 27.225 14.3062 26.8875C14.2687 26.625 14.1625 26.1938 14.0813 25.9375C13.9938 25.6813 13.7875 25.1875 13.6125 24.8438C13.4438 24.5 13.1625 23.9875 12.9937 23.7L12.6875 23.1875C12.7875 22.5313 12.8313 21.8375 12.8562 21.2188C12.875 20.5313 12.8625 19.7688 12.8125 19.25C12.775 18.7875 12.725 18.35 12.7063 18.2813C12.6813 18.1625 12.7312 18.15 13.4812 18.0813C14.0562 18.025 14.3625 17.9625 14.5938 17.8563C14.8625 17.7313 14.925 17.6688 15.05 17.3688C15.1313 17.1813 15.2312 16.8875 15.2688 16.7188C15.325 16.4563 15.3187 16.3813 15.2312 16.2313C15.1687 16.1375 14.975 15.9938 14.7937 15.9063C14.475 15.7563 14.4625 15.7438 14.325 15.3C14.25 15.05 14.1062 14.7188 14.0125 14.5625C13.9125 14.4063 13.7375 14.2188 13.6187 14.1438C13.4937 14.0625 13.2625 13.9938 13.0625 13.975C12.8687 13.9563 12.6062 13.9688 12.4688 13.9938C12.3313 14.025 12.0875 14.1 11.9375 14.1688ZM21.8375 19.3438C21.8125 19.5125 21.7437 19.95 21.675 20.3125C21.6062 20.675 21.4812 21.2063 21.3937 21.5C21.3062 21.7938 21.15 22.2438 21.0375 22.5C20.8563 22.9313 20.8125 22.9813 20.4375 23.2188C20.2125 23.3625 19.9062 23.6063 19.7625 23.7563C19.6125 23.9063 19.2875 24.3563 19.0438 24.75C18.8 25.1438 18.4562 25.6188 18.2812 25.8063C18.1063 25.9875 17.8063 26.2563 17.6063 26.4C17.3646 26.5709 17.2458 26.6979 17.25 26.7813C17.25 26.85 17.6313 27.4188 18.0938 28.05L18.9375 29.1875C19.375 29.1875 19.45 29.1563 19.5 29.0625C19.5312 28.9938 19.5625 28.8625 19.5625 28.7625C19.5625 28.6688 19.4688 28.45 19.35 28.2813C19.2375 28.1063 19 27.7375 18.8188 27.45L18.5 26.9375C21.3312 24.4313 22.1937 23.625 22.2375 23.525C22.2875 23.425 22.575 22.7625 22.8813 22.05L23.4375 20.75C23.1313 20.3875 22.775 20 22.4562 19.6563L21.875 19.0313L21.8375 19.3438ZM24.0688 21.625C24.0375 21.7125 23.8062 22.275 23.55 22.875C23.2937 23.475 23.0437 24.0438 22.9937 24.1313C22.9438 24.2188 22.2188 24.9063 21.375 25.65C20.5312 26.3938 19.8188 27.0375 19.7875 27.0813C19.7563 27.1313 19.85 27.3313 20.0562 27.6563C20.2375 27.9313 20.4125 28.2563 20.45 28.375C20.4875 28.4938 20.5063 28.725 20.4937 28.8938L20.4688 29.1875H25.8438C25.7812 27.8563 25.7188 27.275 25.6688 27.0313C25.6125 26.7875 25.5312 26.4813 25.4813 26.3438C25.4313 26.2063 25.2188 25.7125 25 25.25C24.6938 24.5938 24.5875 24.2813 24.5125 23.8438C24.4313 23.3813 24.4312 23.1563 24.4875 22.5938L24.5562 21.9063L24.1313 21.4688L24.0688 21.625ZM8.04375 22.4063C8.05 22.425 8.44375 22.9188 8.91875 23.5C9.39375 24.0875 9.8125 24.6375 9.85625 24.7188C9.9 24.8063 9.95625 25.0063 9.9875 25.175C10.025 25.3709 10.0146 25.8125 9.95625 26.5L9.8625 27.5313C10.2438 27.9188 10.4062 28.1313 10.4688 28.25C10.5375 28.3813 10.5812 28.6125 10.5875 28.825V29.1875H11.6812C11.6875 28.825 11.7188 28.6063 11.7625 28.475C11.8062 28.3375 11.9437 28.1063 12.075 27.9563C12.2812 27.7188 12.3062 27.6563 12.275 27.4563C12.2562 27.325 12.1625 27.0063 12.075 26.75C11.9563 26.4188 11.7 25.9688 11.1938 25.2188C10.8 24.6313 10.4125 24.0188 10.325 23.8438C10.2375 23.675 10.1187 23.3375 10.0562 23.0938C9.99375 22.85 9.925 22.4125 9.90625 22.1125C9.88125 21.7313 9.84375 21.5625 9.79375 21.5688C9.75 21.5688 9.3375 21.7563 8.86875 21.975C8.40625 22.1938 8.0375 22.3875 8.04375 22.4063ZM4.0375 25.425C3.98125 25.6375 3.85 25.9313 3.75 26.0813C3.65 26.225 3.26875 26.6688 2.9 27.0625C2.5375 27.4563 2.18125 27.8875 2.11875 28.0188C2.05 28.1438 1.98125 28.3563 1.95625 28.4875C1.9375 28.6125 1.9375 28.825 1.95625 28.9563L1.99375 29.1875L4.275 29.1563C4.30625 28.8 4.26875 28.6625 4.2 28.5813C4.1375 28.5 3.9125 28.35 3.7 28.2375L3.30625 28.0313C4.81875 26.625 5.28125 26.1688 5.3125 26.1125C5.34375 26.05 5.375 25.725 5.375 25.3938V24.7813C4.45 24.125 4.15625 23.9375 4.13125 23.9375C4.1 23.9375 4.0875 24.1813 4.10625 24.4875C4.125 24.875 4.10625 25.1438 4.0375 25.425ZM6.31875 25.7313C6.3125 25.8938 6.26875 26.1813 6.2125 26.3625C6.13125 26.6438 6.04375 26.7625 5.49375 27.2813L4.86875 27.875C5.2 28.45 5.24375 28.6125 5.24375 28.8625V29.1875H6.30625C6.4625 28.6813 6.58125 28.3938 6.66875 28.2188C6.78125 27.9875 6.85625 27.6688 6.94375 27L7.06875 26.0938C6.84375 25.8688 6.675 25.7188 6.55 25.6125L6.33125 25.425L6.31875 25.7313ZM27.7375 31.0688H28.7313L28.7125 31.975H27.775L27.7375 31.0688ZM8.18125 17.0063C8.2 17.0063 8.33125 17.1688 8.74375 17.7563L8.38125 18.0063C8.1875 18.1438 8.0125 18.2563 7.99375 18.2563C7.975 18.2563 7.84375 18.0938 7.43125 17.5375L7.79375 17.275C7.9875 17.125 8.1625 17.0063 8.18125 17.0063ZM6.68125 18.0688C6.69375 18.0688 6.8 18.2063 6.9125 18.3813C7.025 18.55 7.13125 18.725 7.15 18.7688C7.175 18.8125 7.0625 18.9375 6.8875 19.0688C6.71875 19.1938 6.55625 19.3125 6.525 19.3313C6.4875 19.3563 6.34375 19.2063 6.19375 19C6.05 18.8 5.9375 18.6188 5.94375 18.6C5.95625 18.5875 6.11875 18.4625 6.30625 18.325C6.49375 18.1875 6.6625 18.0688 6.68125 18.0688Z" fill="#049AFA"/>
</g>
<defs>
<clipPath id="clip0_106_666">
<rect width="32" height="32" fill="white"/>
</clipPath>
</defs>
</svg>
