<svg width="32" height="32" viewBox="0 0 32 32" fill="none" xmlns="http://www.w3.org/2000/svg">
<g id="file - 2023-10-19T223630.941 1" clip-path="url(#clip0_106_670)">
<path id="Path 0" fill-rule="evenodd" clip-rule="evenodd" d="M14.925 0.00625C15.7563 0 16.1688 0.03125 16.7313 0.125C17.1375 0.2 17.6375 0.29375 17.8438 0.34375C18.05 0.3875 18.4875 0.51875 18.8125 0.625C19.1375 0.7375 19.7125 0.975 20.0938 1.15C20.475 1.33125 20.9625 1.59375 21.5938 1.9875L22.1187 1.2625C22.4062 0.8625 22.7375 0.4125 22.8563 0.2625C23.0312 0.04375 23.1 0 23.2812 0C23.45 0 23.5312 0.04375 23.625 0.16875C23.7 0.26875 23.7563 0.4 23.75 0.46875C23.75 0.5375 23.7 0.6625 23.6437 0.74375C23.5312 0.8875 23.5312 0.89375 23.8438 1.14375C24.0125 1.2875 24.4312 1.66875 24.7687 2C25.1062 2.325 25.5938 2.84375 25.8438 3.15625C26.0938 3.46875 26.4688 3.96875 26.675 4.28125C26.8812 4.59375 27.2062 5.1375 27.3937 5.5C27.5812 5.8625 27.8687 6.49375 28.0312 6.90625C28.1938 7.31875 28.4188 8.01875 28.5312 8.46875C28.65 8.91875 28.8 9.68125 28.8687 10.175C28.9562 10.7438 29 11.3812 29 11.95C29 12.4437 28.9562 13.1812 28.9062 13.5938C28.85 14.0063 28.7375 14.6687 28.65 15.0625C28.5625 15.4563 28.3875 16.075 28.2687 16.4375C28.15 16.8 27.9188 17.3875 27.7563 17.75C27.5938 18.1125 27.2812 18.7125 27.0625 19.0875C26.8375 19.4562 26.4438 20.05 26.1812 20.4C25.9187 20.7437 25.4562 21.2937 25.15 21.6187C24.8438 21.9438 24.325 22.4313 24 22.7C23.675 22.975 23.1688 23.3562 22.875 23.5562C22.5812 23.7563 22.1063 24.0562 21.8125 24.2188C21.5187 24.3813 21.025 24.6312 20.7188 24.7687C20.4062 24.9062 19.875 25.1125 19.5312 25.2313C19.1875 25.35 18.6375 25.5125 18.3125 25.5938C17.9875 25.6688 17.5562 25.75 17 25.8125L17.0312 27.7188L19.3563 28.5625C20.6313 29.025 21.7687 29.4562 21.8687 29.5187C21.975 29.575 22.1437 29.7563 22.25 29.9188C22.35 30.0875 22.45 30.3312 22.4688 30.4688C22.4875 30.6125 22.4625 30.85 22.4125 31.0312C22.35 31.2375 22.2375 31.4188 22.0812 31.5688C21.95 31.6875 21.7688 31.8375 21.6688 31.8937C21.5125 31.9937 20.975 32 8.5 32L8.2 31.8062C8.0375 31.7062 7.84375 31.525 7.76875 31.4188C7.6875 31.3063 7.59375 31.1063 7.55625 30.9688C7.51875 30.8312 7.50625 30.6063 7.525 30.4688C7.54375 30.3312 7.64375 30.0875 7.75 29.9188C7.85 29.7563 8.025 29.575 8.13125 29.5125C8.23125 29.4563 9.36875 29.025 12.9688 27.7188L13 25.8125H12.825C12.7312 25.8125 12.3438 25.7437 11.9688 25.6562C11.5875 25.5688 11.0125 25.4125 10.6875 25.3062C10.3625 25.2 9.8 24.9813 9.4375 24.825C9.075 24.675 8.525 24.4062 8.21875 24.2313C7.90625 24.0625 7.58125 23.8687 7.48125 23.8062C7.3875 23.7375 7.3 23.6875 7.28125 23.6875C7.2625 23.6875 7.1625 23.7563 7.0625 23.8438C6.95625 23.9312 6.81875 24 6.75 24C6.68125 24 6.5375 23.9125 6.4375 23.8125C6.2875 23.6625 6.25625 23.5875 6.2875 23.45C6.30625 23.3563 6.6 22.9 6.93125 22.4375C7.26875 21.975 7.5625 21.5688 7.58125 21.5312C7.60625 21.4937 7.40625 21.275 7.1375 21.0375C6.875 20.8062 6.40625 20.3438 6.10625 20.0063C5.80625 19.675 5.3625 19.125 5.13125 18.7812C4.89375 18.4375 4.5625 17.8875 4.3875 17.5625C4.21875 17.2375 3.975 16.7125 3.85625 16.4062C3.73125 16.1 3.55625 15.5875 3.46875 15.2812C3.38125 14.975 3.2375 14.3187 3.15625 13.825C3.0375 13.1687 3 12.7063 3 12.05C3 11.5563 3.04375 10.875 3.09375 10.5312C3.14375 10.1875 3.21875 9.75 3.25625 9.5625C3.29375 9.375 3.39375 8.9625 3.48125 8.65625C3.56875 8.35 3.71875 7.8875 3.81875 7.6375C3.91875 7.39375 4.1375 6.9125 4.30625 6.58125C4.475 6.24375 4.80625 5.675 5.05 5.3125C5.29375 4.95 5.71875 4.39375 5.99375 4.075C6.275 3.7625 6.5625 3.45625 6.6375 3.4C6.725 3.34375 6.84375 3.31875 6.9375 3.3375C7.025 3.35625 7.14375 3.40625 7.2 3.45C7.2625 3.49375 7.325 3.61875 7.35 3.71875C7.38125 3.8875 7.33125 3.975 6.8125 4.5625C6.5 4.925 6.04375 5.5125 5.8 5.875C5.55625 6.2375 5.225 6.8125 5.05625 7.15625C4.89375 7.5 4.65625 8.075 4.53125 8.4375C4.40625 8.8 4.25 9.375 4.05625 10.3438L4.29375 10.5688C4.425 10.6875 4.7 10.8562 4.90625 10.9375C5.20625 11.05 5.4 11.0813 5.90625 11.0813C6.4375 11.0813 6.60625 11.0562 7.03125 10.9062C7.325 10.8 7.6625 10.725 7.84375 10.725C8.05625 10.725 8.25625 10.775 8.46875 10.8813C8.71875 11.0063 8.875 11.1625 9.225 11.6313C9.46875 11.95 9.81875 12.3625 10.0063 12.5312C10.1938 12.7063 10.45 12.8938 10.5813 12.9563C10.7063 13.0125 10.8937 13.0625 10.9937 13.0625C11.0938 13.0625 11.225 13.0188 11.275 12.9688C11.3312 12.9187 11.3938 12.7688 11.4125 12.6375C11.4375 12.5125 11.425 11.9563 11.3813 11.4062C11.325 10.6625 11.325 10.3125 11.3813 10.0312C11.4188 9.825 11.4875 9.5875 11.5312 9.5C11.575 9.4125 11.7125 9.25 11.8375 9.1375C11.9625 9.03125 12.1562 8.9125 12.2625 8.88125C12.3875 8.85 12.575 8.85 12.7312 8.88125C12.8812 8.9125 13.1062 8.99375 13.2312 9.05625C13.3625 9.11875 13.8875 9.475 14.4062 9.84375C14.9187 10.2125 15.5 10.6 15.6875 10.7125C15.875 10.825 16.1313 10.95 16.25 10.9875C16.3687 11.0312 16.5375 11.0625 16.625 11.0625C16.7125 11.0625 16.8375 11.025 16.9062 10.975C17.0188 10.8938 17.0312 10.7875 17.0688 9.64375C17.1 8.6375 17.1312 8.33125 17.2375 8C17.3125 7.775 17.45 7.46875 17.55 7.3125C17.65 7.15625 17.9125 6.81875 18.1313 6.55625C18.35 6.29375 18.6188 5.9125 18.7313 5.7125C18.8375 5.5125 18.9625 5.2 19.0063 5.03125C19.0625 4.79375 19.0625 4.6625 19.0063 4.48125C18.9688 4.35625 18.8438 4.15 18.7313 4.025C18.625 3.9 18.3062 3.66875 18.0312 3.50625C17.7625 3.35 17.35 3.0375 17.125 2.8125C16.8813 2.575 16.6375 2.2625 16.5375 2.0625C16.4438 1.875 16.35 1.5625 16.2812 1.03125L15.9375 0.98125C15.75 0.95 15.1687 0.94375 14.6562 0.95625C14.1 0.975 13.425 1.04375 13 1.125C12.6062 1.2 11.9688 1.35625 11.5938 1.48125C11.2125 1.6 10.5938 1.85 10.2188 2.03125C9.8375 2.21875 9.30625 2.50625 9.03125 2.68125C8.75625 2.85625 8.475 3 8.40625 3C8.3375 3 8.225 2.9625 8.15625 2.91875C8.0875 2.86875 8.0125 2.75625 7.98125 2.66875C7.95625 2.575 7.9625 2.4375 7.99375 2.35625C8.01875 2.28125 8.26875 2.075 8.5375 1.9C8.80625 1.725 9.3125 1.4375 9.65625 1.26875C10 1.09375 10.55 0.85625 10.875 0.73125C11.2 0.6125 11.7188 0.45 12.0312 0.375C12.3375 0.3 12.875 0.1875 13.2188 0.125C13.6313 0.05625 14.2125 0.0125 14.9187 0.00625H14.925ZM17.4813 1.79375C17.5625 1.94375 17.7625 2.16875 17.925 2.3C18.0937 2.425 18.3813 2.61875 18.5688 2.73125C18.7563 2.8375 19.05 3.05 19.2188 3.2C19.3875 3.35 19.5938 3.575 19.675 3.7C19.75 3.83125 19.8625 4.1 19.9125 4.29375C19.975 4.53125 19.9937 4.7625 19.9688 4.96875C19.95 5.1375 19.8688 5.45 19.7938 5.65625C19.7188 5.8625 19.5562 6.1875 19.4375 6.375C19.3125 6.5625 19.0312 6.94375 18.8062 7.21875C18.5812 7.49375 18.3438 7.83125 18.275 7.96875C18.2 8.10625 18.1125 8.3875 18.075 8.59375C18.0375 8.8 18.0063 9.41875 18.0063 9.96875C18.0063 10.8 17.9813 11.0125 17.8875 11.2188C17.8313 11.3562 17.6812 11.55 17.5625 11.65C17.4438 11.75 17.25 11.875 17.1313 11.925C16.975 11.9875 16.7812 12.0062 16.475 11.9812C16.1313 11.9563 15.9313 11.8938 15.5375 11.7C15.2625 11.5625 14.6 11.1313 14.0688 10.75C13.5375 10.3625 12.9938 10 12.8625 9.93125C12.7375 9.86875 12.5875 9.8125 12.5375 9.8125C12.4875 9.8125 12.4125 9.875 12.3687 9.95C12.3312 10.0312 12.2937 10.275 12.2937 10.5C12.2875 10.725 12.3125 11.3 12.3438 11.7812C12.3938 12.5375 12.3813 12.7063 12.2875 13.0312C12.2125 13.2937 12.1125 13.4688 11.95 13.625C11.8125 13.7625 11.6063 13.8812 11.4125 13.9312C11.2313 13.9812 10.9688 14.0063 10.7875 13.9875C10.6063 13.9688 10.3062 13.8687 10.075 13.7437C9.85625 13.625 9.5125 13.375 9.31875 13.1875C9.125 13 8.7875 12.6062 8.575 12.3125C8.34375 12 8.10625 11.75 8 11.7C7.84375 11.6375 7.75625 11.6438 7.3625 11.7812C7.11875 11.8687 6.6875 11.9688 6.4125 12.0063C6.05625 12.05 5.76875 12.05 5.425 12.0063C5.1625 11.9688 4.78125 11.875 4.58125 11.8062C4.3875 11.7312 4.19375 11.65 4.1625 11.6187C4.125 11.5875 4.0625 11.5625 4.01875 11.5625C3.96875 11.5625 3.94375 11.6625 3.94375 11.8562C3.94375 12.075 3.9875 12.2312 4.11875 12.4375C4.2125 12.5938 4.3875 12.7812 4.50625 12.85C4.625 12.925 4.825 13.0187 4.94375 13.0562C5.0625 13.0938 5.54375 13.1625 6.00625 13.2188C6.46875 13.2688 6.9875 13.3562 7.1625 13.4062C7.33125 13.4563 7.6125 13.5875 7.78125 13.7C7.95 13.8125 8.15625 14.0063 8.23125 14.125C8.3125 14.2437 8.41875 14.5125 8.475 14.7188C8.525 14.925 8.625 15.6562 8.69375 16.3438C8.7625 17.0312 8.875 17.9188 8.94375 18.3125C9.00625 18.7062 9.1375 19.2875 9.225 19.5938C9.3125 19.9 9.5125 20.4125 9.65625 20.7188C9.80625 21.025 10.0625 21.4563 10.2188 21.6688C10.375 21.8875 10.6 22.1063 10.7063 22.1688C10.8188 22.225 11.15 22.35 11.4438 22.45C11.7375 22.55 12.2125 22.6812 12.5063 22.75C12.8 22.8188 13.2188 22.9 13.4438 22.9312C13.6688 22.9688 14.1438 23.0125 14.5063 23.0312C14.875 23.0562 15.4938 23.0438 15.9125 23.0063C16.325 22.9625 16.9313 22.875 17.2563 22.8125C17.5813 22.7437 18.1188 22.6 18.4438 22.4937C18.7688 22.3875 19.4312 22.1062 19.9125 21.8687C20.3938 21.6313 21.0562 21.25 21.3813 21.0187C21.7063 20.7875 22.3375 20.2313 22.7875 19.7812C23.2375 19.3375 23.7625 18.7437 23.9562 18.4688C24.15 18.1938 24.325 17.9188 24.3438 17.8563C24.3687 17.7812 24.325 17.725 24.175 17.65C24.0417 17.5833 23.8917 17.5604 23.725 17.5812C23.5375 17.6062 23.4188 17.6813 23.2563 17.8563C23.1375 17.9875 22.9062 18.275 22.7375 18.4875C22.575 18.7 22.325 18.9625 22.175 19.0688C22.0312 19.1688 21.7688 19.3 21.6 19.35C21.425 19.4 21.1438 19.4375 20.975 19.4375C20.8 19.4375 20.5437 19.4062 20.3937 19.375C20.25 19.3375 20 19.25 19.8312 19.175C19.6687 19.1 19.3937 18.8937 19.2188 18.7188C19.0375 18.5375 18.825 18.2375 18.7125 18C18.6062 17.775 18.4875 17.4375 18.4438 17.25C18.3875 16.975 18.3937 16.8688 18.4562 16.7313C18.5 16.6375 18.6188 16.5312 18.725 16.4875C18.8625 16.4375 18.95 16.4375 19.05 16.4937C19.1312 16.5312 19.2188 16.625 19.25 16.7C19.2875 16.7812 19.3563 17 19.4062 17.1875C19.4562 17.375 19.5875 17.6625 19.6938 17.825C19.8 17.9938 20 18.1938 20.1437 18.2812C20.3125 18.3813 20.5562 18.4563 20.7875 18.4813C21.0938 18.5125 21.2125 18.4938 21.4438 18.3875C21.6375 18.3 21.825 18.1312 22.0312 17.8625C22.2 17.6437 22.4562 17.35 22.5938 17.2C22.7375 17.05 22.9625 16.8688 23.1 16.7938C23.2938 16.6875 23.4563 16.6562 23.85 16.6562C24.2563 16.6562 24.3937 16.6813 24.5812 16.7938C24.7125 16.875 24.8313 16.9375 24.85 16.9375C24.8687 16.9375 24.95 16.8063 25.0312 16.6375C25.1063 16.475 25.25 16.15 25.3375 15.9062C25.425 15.6687 25.575 15.2125 25.6625 14.9062C25.75 14.6 25.8188 14.275 25.8188 14.1875C25.8188 14.1 25.7 13.7625 25.55 13.4375C25.4 13.1125 25.1313 12.6063 24.9438 12.3188C24.7563 12.0312 24.525 11.725 24.425 11.6438C24.3312 11.5688 24.1937 11.5 24.1125 11.5C24.0375 11.4937 23.9312 11.5437 23.8813 11.6062C23.8313 11.6625 23.75 11.8937 23.7062 12.1187C23.6625 12.35 23.5562 12.6375 23.475 12.7625C23.3875 12.8938 23.225 13.0687 23.1125 13.15C23.0062 13.2375 22.7875 13.3625 22.6313 13.4312C22.475 13.5 22.0562 13.6 21.6938 13.6562C21.2625 13.7188 20.9125 13.8125 20.6625 13.9312C20.4438 14.0375 20.1875 14.225 20.05 14.3813C19.9187 14.5312 19.75 14.7688 19.6812 14.9062C19.6125 15.0437 19.4938 15.2188 19.4188 15.3C19.35 15.375 19.225 15.4375 19.1437 15.4375C19.0687 15.4375 18.9562 15.4187 18.9 15.3875C18.8438 15.3625 18.7625 15.2563 18.7188 15.1562C18.6562 15.0063 18.6625 14.9187 18.7375 14.7188C18.7875 14.5813 18.9312 14.3188 19.0562 14.1313C19.1812 13.9438 19.425 13.6687 19.6 13.5125C19.7688 13.3625 20.0813 13.1562 20.2875 13.0625C20.4937 12.9625 20.8375 12.8563 21.05 12.8188C21.2687 12.7812 21.6187 12.7188 21.8312 12.6812C22.05 12.6437 22.3312 12.55 22.4562 12.4625C22.6312 12.35 22.7125 12.25 22.7563 12.0625C22.7875 11.925 22.85 11.6937 22.8875 11.5437C22.925 11.4 23.0187 11.1812 23.0938 11.0625C23.1688 10.9438 23.3563 10.7812 23.5125 10.7063C23.6875 10.6125 23.9 10.5625 24.1 10.5625C24.275 10.5625 24.525 10.6187 24.6625 10.6812C24.8 10.7437 25.0125 10.9062 25.1437 11.0375C25.2687 11.175 25.5125 11.4937 25.6875 11.75C25.9562 12.1438 26.0125 12.2 26.05 12.0938C26.0687 12.025 26.0562 11.5875 26.0187 11.125C25.975 10.6625 25.875 9.9875 25.7938 9.625C25.7125 9.2625 25.5688 8.74375 25.4813 8.46875C25.3875 8.19375 25.1562 7.64375 24.9688 7.25C24.7812 6.85625 24.5063 6.35 24.3687 6.125C24.225 5.9 23.925 5.48125 23.7 5.1875C23.475 4.9 23.0625 4.43125 22.7875 4.15625C22.5125 3.88125 22.0063 3.44375 21.6625 3.1875C21.3188 2.925 20.7812 2.56875 20.475 2.4C20.1625 2.225 19.675 1.975 19.3813 1.85C19.0875 1.71875 18.5312 1.51875 18.1437 1.4C17.7625 1.28125 17.4 1.1875 17.3438 1.1875C17.2625 1.1875 17.25 1.225 17.2812 1.35625C17.3062 1.45625 17.3938 1.65 17.4813 1.79375ZM22.4312 2.4625C22.4062 2.5 22.65 2.7625 22.9937 3.06875C23.325 3.3625 23.8312 3.88125 24.1187 4.225C24.4062 4.5625 24.8062 5.09375 25.0187 5.40625C25.225 5.71875 25.5563 6.30625 25.7625 6.71875C25.9625 7.13125 26.2375 7.80625 26.375 8.21875C26.5125 8.63125 26.6812 9.25 26.75 9.59375C26.825 9.9375 26.9125 10.625 26.9562 11.125C27.0125 11.8313 27.0125 12.225 26.95 12.9062C26.9125 13.3875 26.8125 14.0875 26.7313 14.4688C26.65 14.85 26.4812 15.45 26.3625 15.8125C26.2375 16.175 26.0375 16.6938 25.9125 16.9688C25.7875 17.2437 25.525 17.7375 25.3312 18.0625C25.1375 18.3875 24.7812 18.925 24.5312 19.25C24.2812 19.575 23.7938 20.1312 23.4375 20.4875C23.0812 20.8375 22.5187 21.3312 22.1875 21.5812C21.8563 21.825 21.3062 22.1875 20.9688 22.3813C20.625 22.575 20.0375 22.8687 19.6625 23.0312C19.2812 23.1938 18.7375 23.3938 18.4438 23.475C18.15 23.5625 17.6438 23.6812 17.3188 23.75C16.9938 23.8125 16.375 23.9 15.9438 23.9375C15.5063 23.9813 14.8563 23.9937 14.475 23.9688C14.0938 23.95 13.4375 23.875 13.0063 23.8062C12.575 23.7312 11.9563 23.5938 11.6313 23.5C11.3063 23.4 10.725 23.1938 10.35 23.0312C9.96875 22.875 9.4375 22.6125 9.1625 22.4562C8.8875 22.3 8.60625 22.1312 8.5375 22.0812C8.41875 22.0062 8.3875 22.0312 8.1 22.4375C7.925 22.675 7.8 22.8875 7.81875 22.9C7.8375 22.9125 8.04375 23.0438 8.2875 23.1875C8.525 23.3375 9.03125 23.6063 9.4125 23.7875C9.7875 23.9688 10.4438 24.2312 10.8625 24.3687C11.2875 24.5125 11.975 24.6938 12.3938 24.7812C12.8188 24.8625 13.525 24.9625 13.975 25.0063C14.4438 25.0438 15.1063 25.0625 15.5375 25.0375C15.95 25.0125 16.5813 24.95 16.9438 24.9C17.3063 24.8438 17.925 24.7188 18.3188 24.6187C18.7125 24.5125 19.3625 24.3062 19.7563 24.15C20.15 23.9937 20.7125 23.7375 21.0063 23.5812C21.3 23.4312 21.8188 23.1187 22.1625 22.8937C22.5063 22.6687 23 22.3125 23.2563 22.1C23.5125 21.8875 23.9438 21.4937 24.225 21.2188C24.5 20.9375 24.9 20.5063 25.1063 20.25C25.3188 19.9937 25.6562 19.525 25.8625 19.2188C26.075 18.9125 26.3687 18.4188 26.525 18.125C26.6812 17.8312 26.9375 17.2875 27.0938 16.9062C27.2437 16.525 27.4625 15.9125 27.5688 15.5312C27.675 15.15 27.8187 14.4937 27.8937 14.0625C28 13.45 28.025 13.0063 28.0312 12.0312C28.0312 11.1375 28.0062 10.5875 27.925 10.0938C27.8687 9.7125 27.7375 9.1 27.6375 8.71875C27.5375 8.3375 27.35 7.75 27.225 7.40625C27.0938 7.0625 26.8438 6.4875 26.6625 6.125C26.4813 5.7625 26.1375 5.175 25.9 4.8125C25.6625 4.45 25.2563 3.9 24.9937 3.59375C24.7375 3.28125 24.3125 2.83125 24.0625 2.59375C23.8062 2.35 23.475 2.05 23.3188 1.925C23.1625 1.79375 23.025 1.6875 23.0063 1.6875C22.9875 1.6875 22.8625 1.85 22.725 2.04375C22.5875 2.2375 22.4562 2.43125 22.4312 2.4625ZM4.51875 15.4688C4.625 15.8125 4.90625 16.475 5.14375 16.9375C5.375 17.4 5.75625 18.05 5.9875 18.375C6.225 18.7 6.7 19.2625 7.04375 19.625C7.39375 19.9875 7.9125 20.4625 8.2 20.6875C8.65 21.0438 8.7125 21.075 8.68125 20.9375C8.65625 20.85 8.55625 20.5438 8.45 20.25C8.35 19.9562 8.19375 19.3687 8.10625 18.9375C8.01875 18.5063 7.90625 17.7313 7.85 17.2188C7.79375 16.7 7.7125 15.9563 7.6625 15.5625C7.6 15.0875 7.53125 14.7937 7.45625 14.6875C7.39375 14.6 7.21875 14.4688 7.0625 14.3938C6.8625 14.2875 6.54375 14.225 5.88125 14.15C5.38125 14.1 4.81875 14 4.63125 13.9312C4.44375 13.8625 4.2375 13.7875 4.18125 13.7625C4.075 13.7188 4.075 13.7563 4.19375 14.2812C4.2625 14.5875 4.40625 15.125 4.51875 15.4688ZM13.9312 26.7938L13.9438 27.5625L16.0375 27.5312L16.025 25.9813C14.45 25.9688 13.9812 25.9812 13.9563 25.9937C13.9375 26.0063 13.925 26.3688 13.9312 26.7938ZM11.0688 29.4062C9.7125 29.9062 8.58125 30.3313 8.55625 30.3563C8.53125 30.3875 8.5 30.475 8.475 30.5625C8.45 30.6688 8.475 30.775 8.5625 30.8937L8.69375 31.0625L21.3375 31.0312C21.5938 30.7062 21.5938 30.6812 21.5063 30.5C21.4563 30.3937 21.3687 30.2937 21.3188 30.275C21.2688 30.2563 20.15 29.85 18.8312 29.3687L16.4438 28.5L13.5375 28.5063L11.0688 29.4062ZM21.35 7.96875C21.5938 7.9875 21.8312 8.0625 22.025 8.16875C22.2125 8.275 22.4 8.45 22.5125 8.625C22.6125 8.775 22.7125 9.03125 22.7313 9.1875C22.7563 9.3375 22.75 9.58125 22.7313 9.71875C22.7063 9.85625 22.6313 10.0875 22.5625 10.2312C22.5 10.375 22.3125 10.6312 22.1437 10.7937C21.9812 10.9625 21.7063 11.1625 21.5375 11.25C21.325 11.35 21.0875 11.4062 20.7875 11.425C20.4688 11.4375 20.275 11.4125 20.0688 11.3313C19.9125 11.2688 19.7063 11.15 19.6063 11.0625C19.5063 10.975 19.3688 10.7937 19.2938 10.6562C19.2 10.4688 19.1688 10.2875 19.1688 9.96875C19.1688 9.6625 19.2063 9.44375 19.2938 9.25C19.3625 9.09375 19.5438 8.83125 19.7 8.6625C19.85 8.49375 20.0875 8.3 20.225 8.23125C20.3625 8.15625 20.5875 8.0625 20.725 8.01875C20.8813 7.96875 21.1187 7.95 21.35 7.96875ZM20.5125 9.16875C20.3938 9.2625 20.2375 9.46875 20.175 9.625C20.0938 9.80625 20.0688 9.975 20.0938 10.1062C20.1125 10.2188 20.1937 10.35 20.2687 10.4062C20.35 10.4563 20.5375 10.5 20.6938 10.5C20.8938 10.5 21.0562 10.45 21.2563 10.325C21.4438 10.2063 21.5875 10.0562 21.675 9.86875C21.7562 9.71875 21.8188 9.5125 21.8188 9.41875C21.8188 9.325 21.7562 9.175 21.675 9.0875C21.5938 8.99375 21.45 8.91875 21.3188 8.90625C21.2 8.8875 21.0125 8.90625 20.9125 8.9375C20.8062 8.975 20.625 9.075 20.5125 9.16875ZM15.6313 12.9563C15.8938 12.975 16.1438 13.0312 16.3438 13.1313C16.5125 13.2125 16.7688 13.3938 16.9062 13.5312C17.0437 13.6687 17.2125 13.9062 17.275 14.0625C17.3438 14.2125 17.3937 14.4812 17.3937 14.6562C17.3937 14.825 17.3563 15.05 17.3188 15.1562C17.2812 15.2563 17.1562 15.4375 17.05 15.55C16.9375 15.6687 16.7375 15.8125 16.6 15.8813C16.4438 15.95 16.2063 15.9937 15.9563 15.9937C15.725 15.9937 15.4375 15.95 15.2375 15.875C15.0437 15.8062 14.7937 15.6375 14.6125 15.4688C14.45 15.3125 14.2625 15.0625 14.1938 14.9187C14.125 14.7625 14.0688 14.5188 14.0688 14.325C14.0688 14.1438 14.1125 13.8938 14.1687 13.7625C14.2188 13.6312 14.325 13.4625 14.4 13.3813C14.475 13.3 14.6187 13.1937 14.7125 13.1375C14.8062 13.0875 14.9625 13.0188 15.0562 12.9875C15.15 12.9625 15.4062 12.95 15.6313 12.9563ZM15.0188 14.2188C15.0063 14.3188 15.0375 14.4875 15.0938 14.5938C15.15 14.6938 15.3 14.8438 15.425 14.9187C15.5625 14.9937 15.7688 15.0562 15.9125 15.0562C16.05 15.0625 16.225 15.0188 16.3 14.9688C16.4062 14.9 16.4438 14.8125 16.4438 14.6562C16.4438 14.5063 16.3875 14.3688 16.2687 14.2375C16.175 14.125 16.0063 14 15.8938 13.9563C15.7875 13.9125 15.6188 13.875 15.5188 13.875C15.425 13.875 15.2812 13.9125 15.1938 13.9563C15.0938 14.0063 15.0312 14.1 15.0188 14.2188Z" fill="#049AFA"/>
</g>
<defs>
<clipPath id="clip0_106_670">
<rect width="32" height="32" fill="white"/>
</clipPath>
</defs>
</svg>
