<svg width="32" height="32" viewBox="0 0 32 32" fill="none" xmlns="http://www.w3.org/2000/svg">
<g id="file - 2023-10-19T223702.637 1">
<path id="Path 0" fill-rule="evenodd" clip-rule="evenodd" d="M19.7813 0C20.0751 0 20.1188 0.025 20.6251 0.44375C20.9188 0.68125 21.4626 1.06875 21.8438 1.29375C22.2251 1.51875 22.6438 1.78125 22.7813 1.875C22.9188 1.96875 23.1626 2.1875 23.3313 2.35C23.4938 2.51875 23.7063 2.825 23.8063 3.03125C23.9063 3.2375 24.0188 3.55625 24.0563 3.7375C24.0938 3.9125 24.1251 4.25 24.1251 4.48125C24.1251 4.71875 24.0813 5.075 24.0313 5.28125C23.9751 5.4875 23.8251 5.88125 23.6876 6.15625C23.4751 6.59375 23.4563 6.66875 23.5313 6.78125C23.5751 6.85 23.6438 7.00625 23.6751 7.125C23.7313 7.30625 23.8188 7.38125 24.2001 7.5875C24.4501 7.725 24.9813 8.05625 25.3751 8.31875C25.7688 8.58125 26.3126 8.9875 26.5813 9.2125C26.8438 9.4375 27.1751 9.775 27.3063 9.95C27.4438 10.1312 27.6376 10.4625 27.7376 10.6875C27.8376 10.9125 27.9563 11.2437 27.9938 11.4187C28.0313 11.6 28.0626 11.9688 28.0626 12.2312C28.0626 12.5188 28.0126 12.925 27.9376 13.2188C27.8626 13.4937 27.7188 13.8875 27.6063 14.0938C27.4938 14.3 27.2001 14.675 26.9376 14.9375C26.6438 15.2375 26.3251 15.4875 26.0751 15.6125C25.7813 15.7625 25.6938 15.8375 25.7188 15.9187C25.7313 15.9812 26.1126 17.2 26.5563 18.625C27.0063 20.05 27.3751 21.3062 27.3751 21.4062C27.3751 21.5187 27.3126 21.65 27.2313 21.7375C27.1563 21.8125 27.0251 21.875 26.9376 21.875C26.8501 21.875 26.7188 21.8188 26.6376 21.75C26.5626 21.6812 26.4626 21.4938 26.4126 21.325C26.3688 21.1625 25.8001 19.3438 25.1563 17.2812C24.5063 15.2188 23.9626 13.5125 23.9438 13.4875C23.9251 13.4625 23.6126 13.525 23.2501 13.625C22.8876 13.725 22.5876 13.8187 22.5813 13.825C22.5813 13.8375 23.1313 16.2625 23.8188 19.2188C24.5001 22.175 25.1813 25.0312 25.3376 25.5625C25.4876 26.0938 25.7126 26.8125 25.8438 27.1562C25.9688 27.5 26.2626 28.175 26.5001 28.6562C26.7313 29.1375 27.1063 29.8563 27.3251 30.25C27.5501 30.6437 27.7813 30.9937 27.8376 31.0312C27.9063 31.075 27.9751 31.0688 28.0438 31.025C28.1313 30.975 28.1626 30.8562 28.1751 30.5562C28.1876 30.3375 28.1626 29.65 28.1251 29.0312C28.0876 28.4125 28.0126 27.6 27.9626 27.2188C27.9126 26.8375 27.8001 26.2062 27.7126 25.8125C27.6313 25.4188 27.4563 24.725 27.3376 24.2812C27.2063 23.8125 27.1251 23.4062 27.1501 23.3312C27.1688 23.25 27.2813 23.1437 27.3876 23.0875C27.5501 23.0125 27.6313 23.0063 27.7501 23.0562C27.8376 23.0938 27.9438 23.1875 27.9813 23.2625C28.0251 23.3438 28.1626 23.7563 28.2813 24.1875C28.4001 24.6187 28.5813 25.3937 28.6876 25.9062C28.7876 26.425 28.9126 27.225 28.9626 27.6875C29.0188 28.15 29.0751 29.05 29.1001 29.6875C29.1251 30.4438 29.1188 30.9312 29.0751 31.0938C29.0376 31.2313 28.9438 31.425 28.8626 31.525C28.7813 31.625 28.6126 31.775 28.4813 31.8563C28.3188 31.9563 28.1563 32 27.9376 32C27.7188 32 27.5563 31.9563 27.3876 31.85C27.2626 31.7688 27.0938 31.6375 27.0251 31.5562C26.9501 31.475 26.6563 30.9875 26.3688 30.4688C26.0813 29.9562 25.7126 29.225 25.5438 28.8438C25.3751 28.4625 25.2188 28.1313 25.2001 28.1063C25.1751 28.0813 25.0751 28.1938 24.9751 28.3563C24.8751 28.5188 24.6501 28.8375 24.4688 29.0625C24.2938 29.2875 23.9688 29.6125 23.7438 29.7875C23.5251 29.9688 23.1626 30.2125 22.9376 30.3312C22.7126 30.4562 22.3376 30.6313 22.0938 30.7188C21.8501 30.8125 21.2876 30.9813 20.8438 31.0938C20.4001 31.2125 19.6438 31.3625 19.1688 31.4312C18.5501 31.525 18.2688 31.5438 18.1563 31.5C18.0688 31.4625 17.9563 31.375 17.9063 31.3C17.8501 31.2188 17.8251 31.0875 17.8438 31C17.8626 30.9125 17.9251 30.8 17.9813 30.7437C18.0563 30.6687 18.3876 30.5938 19.0001 30.5063C19.5001 30.4375 20.2126 30.2938 20.5938 30.1938C20.9751 30.0938 21.5376 29.9187 21.8438 29.8C22.1501 29.6875 22.5751 29.4813 22.7813 29.3438C22.9876 29.2062 23.3126 28.9375 23.5001 28.75C23.6938 28.5625 23.9688 28.2125 24.1126 27.9688C24.2563 27.725 24.4313 27.3625 24.5001 27.1562C24.5751 26.9438 24.6188 26.6875 24.6063 26.5625C24.5938 26.4438 24.4938 26.05 24.3876 25.6875C24.2813 25.325 24.0626 24.4688 23.9063 23.7812C23.6438 22.6562 23.5938 22.5125 23.4188 22.3188C23.3063 22.2063 23.0626 22.0063 22.8751 21.875C22.6876 21.75 22.2626 21.5125 21.9376 21.35C21.6126 21.1875 21.1751 20.9312 20.9688 20.7875C20.7626 20.6375 20.4563 20.3687 20.2938 20.1812C20.1251 19.9937 19.9376 19.7313 19.8751 19.5938C19.8063 19.4562 19.7251 19.1938 19.6876 19.0125C19.6438 18.7938 19.6438 18.5812 19.6876 18.3625C19.7251 18.1812 19.8063 17.9188 19.8751 17.7812C19.9376 17.6437 20.1251 17.3813 20.2938 17.1938C20.4563 17.0063 20.7626 16.7375 20.9688 16.5938C21.1751 16.4438 21.5063 16.2437 21.7063 16.15C21.9001 16.05 22.0626 15.9438 22.0626 15.9062C22.0626 15.8687 21.9751 15.4437 21.8626 14.95C21.6563 14.0687 21.6563 14.0625 21.4813 14.0625C21.3876 14.0625 21.2376 14.0312 21.1376 13.9937C21.0438 13.9625 20.8876 13.8562 20.7938 13.7625C20.6751 13.65 20.5626 13.4187 20.4563 13.0625C20.3626 12.7688 20.2938 12.4062 20.2938 12.25C20.2938 12.0938 20.3376 11.875 20.3938 11.7688C20.5001 11.5625 20.4938 11.5437 20.0313 9.84375C19.7751 8.9 19.5626 8.01875 19.5626 7.8875C19.5626 7.675 19.5376 7.64375 19.2688 7.5C19.1063 7.4125 18.8188 7.21875 18.2813 6.78125L17.2813 6.7625C16.7313 6.75 15.9563 6.76875 15.5626 6.8125C15.1688 6.85 14.5626 6.94375 14.2188 7.00625C13.8751 7.075 13.3563 7.2 13.0626 7.2875C12.7688 7.375 12.2938 7.53125 12.0001 7.6375C11.7063 7.74375 11.2438 7.9375 10.9688 8.0625C10.6938 8.1875 10.1876 8.4625 9.8438 8.6625C9.50005 8.86875 8.95005 9.23125 8.62505 9.475C8.30006 9.71875 7.82505 10.1125 7.5688 10.35C7.31255 10.5875 6.89381 11.0188 6.63755 11.3125C6.3813 11.6062 5.97506 12.1375 5.73756 12.5C5.49381 12.8625 5.16255 13.425 5.00006 13.75C4.83756 14.075 4.60006 14.6375 4.46881 15C4.34381 15.3625 4.16881 15.95 4.08756 16.3125C4.00631 16.675 3.9063 17.3625 3.86255 17.8438C3.8063 18.5312 3.80631 18.9 3.86881 19.5625C3.90631 20.025 4.00005 20.675 4.07505 21C4.1438 21.325 4.30005 21.875 4.4188 22.2188C4.53755 22.5625 4.7188 23.025 4.82505 23.25C4.92505 23.475 5.15006 23.9125 5.33131 24.2188C5.50631 24.525 5.86256 25.0625 6.11881 25.4062C6.37506 25.75 6.89381 26.3438 7.27505 26.7188C7.6563 27.1 8.25005 27.6187 8.5938 27.8813C8.93755 28.1375 9.50005 28.5187 9.8438 28.7188C10.1876 28.925 10.7938 29.2313 11.1876 29.4125C11.5813 29.5875 12.1751 29.8187 12.5001 29.925C12.8251 30.0312 13.3876 30.1938 13.7501 30.275C14.1126 30.3625 14.7376 30.475 15.1376 30.5312C15.5438 30.5812 15.9501 30.625 16.0438 30.625C16.1438 30.6187 16.2938 30.675 16.3876 30.75C16.5188 30.8375 16.5626 30.9312 16.5626 31.0812C16.5626 31.2188 16.5126 31.3312 16.2438 31.5938L15.4813 31.5125C15.0626 31.4688 14.3688 31.3625 13.9376 31.275C13.5063 31.1875 12.7188 30.975 12.1876 30.8C11.6376 30.6125 10.8313 30.2812 10.3126 30.025C9.81255 29.775 9.11256 29.375 8.75005 29.1375C8.38755 28.8938 7.8688 28.5188 7.5938 28.2938C7.3188 28.0688 6.79381 27.5812 6.43131 27.2125C6.06881 26.8375 5.55006 26.2312 5.27506 25.8625C5.00631 25.4937 4.61881 24.9062 4.42506 24.55C4.22506 24.1937 3.93755 23.6 3.78755 23.2188C3.6313 22.8375 3.43131 22.275 3.34381 21.9688C3.25631 21.6625 3.12506 21.0812 3.05631 20.6875C2.98756 20.2938 2.91881 19.6 2.90006 19.1562C2.87506 18.6875 2.89381 18.0375 2.93131 17.625C2.97506 17.2313 3.06255 16.625 3.1313 16.2812C3.20005 15.9375 3.37506 15.3188 3.51256 14.9062C3.65006 14.4937 3.91256 13.85 4.09381 13.4688C4.27506 13.0875 4.6188 12.4875 4.8563 12.125C5.0938 11.7625 5.46255 11.2563 5.6688 11C5.8813 10.7437 6.3563 10.2312 6.72505 9.86875C7.10005 9.50625 7.70005 8.9875 8.06255 8.725C8.42506 8.45625 8.98756 8.075 9.31255 7.8875C9.63755 7.69375 10.2126 7.39375 10.5938 7.2125C10.9751 7.0375 11.6063 6.775 12.0001 6.6375C12.3938 6.50625 13.0251 6.31875 13.4063 6.225C13.7876 6.1375 14.3751 6.01875 14.7188 5.96875C15.0626 5.9125 15.8688 5.85 17.6688 5.78125L17.5876 5.59375C17.5438 5.49375 17.4751 5.225 17.4376 5C17.3813 4.68125 17.3813 4.4875 17.4376 4.125C17.5063 3.7375 17.6251 3.45 18.1251 2.46875C18.4626 1.81875 18.8001 1.0875 18.8751 0.84375C18.9813 0.53125 19.0813 0.35 19.2438 0.20625C19.4313 0.03125 19.5126 0 19.7813 0ZM19.6001 1.59375C19.5126 1.8375 19.2501 2.36875 19.0188 2.78125C18.7938 3.19375 18.5501 3.675 18.4813 3.84375C18.4063 4.0375 18.3626 4.30625 18.3626 4.5625C18.3626 4.8125 18.4063 5.09375 18.4813 5.28125C18.5438 5.45625 18.7063 5.74375 18.8438 5.93125C18.9938 6.1375 19.2688 6.3875 19.5438 6.56875C19.7938 6.7375 20.0501 6.875 20.1063 6.875C20.1688 6.875 20.7126 6.75 21.3126 6.5875C21.9126 6.43125 22.4501 6.28125 22.5001 6.25625C22.5501 6.23125 22.7188 5.95625 22.8751 5.65C23.1501 5.1 23.1563 5.0875 23.1563 4.46875C23.1563 3.91875 23.1376 3.8 22.9876 3.5C22.9001 3.3125 22.7001 3.04375 22.5501 2.90625C22.4001 2.7625 21.9126 2.43125 21.4688 2.1625C21.0251 1.89375 20.4688 1.51875 20.2376 1.33125C19.9626 1.10625 19.8063 1.01875 19.7876 1.075C19.7751 1.11875 19.6876 1.35625 19.6001 1.59375ZM20.6063 7.76875C20.5501 7.79375 20.5001 7.8625 20.5001 7.925C20.5063 7.98125 20.7001 8.7375 20.9376 9.59375C21.3063 10.9438 21.3813 11.1562 21.4813 11.1438C21.5438 11.1375 22.0313 11.0125 22.5626 10.8687C23.0938 10.725 23.5563 10.5875 23.5813 10.5688C23.6126 10.55 23.4501 9.84375 23.2251 9C22.9938 8.15625 22.7813 7.40625 22.7501 7.33125C22.7126 7.25 22.6688 7.1875 22.6376 7.19375C22.6126 7.19375 22.1688 7.3125 21.6563 7.4625C21.1376 7.60625 20.6688 7.74375 20.6063 7.76875ZM24.3501 9.58125C24.5688 10.375 24.5938 10.4187 24.8751 10.6875C25.1063 10.9 25.2001 11.05 25.2751 11.3125C25.3313 11.5 25.4063 11.8125 25.4501 12C25.5126 12.3062 25.5063 12.375 25.3876 12.6438C25.3063 12.8188 25.1751 12.9812 25.0626 13.05C24.9626 13.1062 24.8751 13.1812 24.8751 13.2188C24.8751 13.2563 24.9876 13.6375 25.1251 14.0813C25.2751 14.5437 25.4063 14.875 25.4501 14.875C25.4938 14.875 25.6563 14.7938 25.8126 14.6938C25.9688 14.5938 26.2126 14.3813 26.3563 14.225C26.5063 14.0688 26.7313 13.7188 26.8563 13.4563C27.0626 13.025 27.0876 12.9 27.1126 12.375C27.1313 11.8813 27.1126 11.7125 27.0001 11.375C26.9251 11.15 26.7626 10.8188 26.6313 10.6313C26.5063 10.4438 26.2376 10.15 26.0313 9.975C25.8251 9.8 25.4751 9.525 25.2501 9.36875C25.0251 9.20625 24.6813 8.975 24.4876 8.85C24.2938 8.725 24.1313 8.65 24.1313 8.6875C24.1251 8.71875 24.2251 9.125 24.3501 9.58125ZM21.2626 12.2063C21.2063 12.2375 21.2188 12.3438 21.3126 12.675C21.3813 12.9062 21.4501 13.1 21.4563 13.1125C21.4626 13.1188 22.1563 12.9437 23.0001 12.7125C23.8438 12.4875 24.5376 12.2937 24.5501 12.2937C24.5563 12.2875 24.5126 12.0875 24.4501 11.8438C24.3751 11.5813 24.2938 11.4 24.2438 11.4C24.1938 11.3937 23.5251 11.5625 22.7501 11.775C21.9751 11.9875 21.3063 12.1813 21.2626 12.2063ZM21.1938 17.6063C21.0438 17.7375 20.8501 17.9688 20.7563 18.125C20.6521 18.3125 20.6001 18.5 20.6001 18.6875C20.6001 18.8813 20.6501 19.0562 20.7626 19.25C20.8501 19.4062 21.0188 19.6187 21.1376 19.725C21.2501 19.8375 21.5001 20.025 21.6876 20.1437C21.8751 20.2625 22.2938 20.4875 22.6063 20.65C22.9251 20.8062 23.2001 20.9312 23.2188 20.925C23.2313 20.9125 23.0376 20.0063 22.7751 18.9062C22.5188 17.8062 22.3001 16.9 22.2938 16.8937C22.2813 16.8875 22.0938 16.9875 21.8688 17.125C21.6501 17.2563 21.3438 17.475 21.1938 17.6063ZM16.0626 8.01875C16.5063 8.0375 16.6626 8.06875 17.0001 8.23125C17.2563 8.35625 17.5188 8.54375 17.7001 8.74375C17.8688 8.91875 18.0751 9.225 18.1688 9.425C18.3251 9.74375 18.3438 9.85 18.3438 10.4375C18.3438 11.025 18.3251 11.1313 18.1688 11.4563C18.0751 11.65 17.8688 11.9563 17.7001 12.1313C17.5188 12.325 17.2501 12.525 17.0001 12.6438C16.6313 12.825 16.5376 12.8438 15.9688 12.8438C15.3938 12.8438 15.3126 12.825 14.9376 12.65C14.7063 12.5375 14.4001 12.3187 14.2313 12.15C14.0688 11.9812 13.8626 11.7063 13.7751 11.5312C13.6938 11.3625 13.5938 11.0375 13.5501 10.8125C13.4938 10.5 13.4938 10.3188 13.5501 10.0312C13.5938 9.825 13.6938 9.51875 13.7751 9.34375C13.8626 9.175 14.0688 8.89375 14.2313 8.73125C14.3938 8.5625 14.6438 8.36875 14.7813 8.29375C14.9188 8.225 15.1438 8.13125 15.2813 8.08125C15.4313 8.03125 15.7376 8.00625 16.0626 8.01875ZM15.0063 9.29375C14.8563 9.425 14.6751 9.64375 14.6001 9.78125C14.5126 9.95625 14.4751 10.15 14.4751 10.4375C14.4751 10.725 14.5126 10.9187 14.6001 11.0938C14.6751 11.2312 14.8438 11.4438 14.9813 11.5625C15.1188 11.6812 15.3438 11.8187 15.4751 11.8562C15.6063 11.9 15.8438 11.9375 16.0001 11.9375C16.1626 11.9375 16.4126 11.875 16.5938 11.7937C16.7626 11.7125 16.9876 11.55 17.0876 11.4312C17.1876 11.3125 17.3063 11.125 17.3563 11.0188C17.4001 10.9062 17.4376 10.6438 17.4376 10.4375C17.4376 10.2312 17.4001 9.96875 17.3563 9.8625C17.3063 9.75 17.1876 9.5625 17.0876 9.44375C16.9876 9.325 16.7626 9.1625 16.5938 9.08125C16.3876 8.9875 16.1751 8.9375 15.9688 8.94375C15.7938 8.94375 15.5688 8.975 15.4688 9C15.3626 9.03125 15.1563 9.1625 15.0063 9.29375ZM10.4188 10.5063C10.6626 10.5 10.9626 10.55 11.2001 10.6313C11.4188 10.7063 11.7063 10.8438 11.8438 10.9375C11.9813 11.0312 12.1876 11.2188 12.3063 11.35C12.4251 11.4813 12.6001 11.7625 12.7001 11.9688C12.8063 12.1938 12.8876 12.5063 12.9126 12.75C12.9376 12.9812 12.9251 13.3 12.8813 13.4875C12.8438 13.6625 12.7501 13.9438 12.6751 14.1125C12.6001 14.275 12.3688 14.575 12.1563 14.7875C11.8876 15.0563 11.6751 15.2125 11.4063 15.3188C11.1001 15.4375 10.9188 15.4625 10.4063 15.4688C9.83131 15.4688 9.75005 15.45 9.37505 15.2688C9.11256 15.1438 8.85005 14.95 8.63755 14.725C8.46255 14.5312 8.23755 14.2125 8.13755 14.0188C7.98755 13.6938 7.9688 13.5875 7.9688 13C7.9688 12.4312 7.99381 12.3 8.13131 12C8.21881 11.8125 8.41256 11.5188 8.56881 11.35C8.71881 11.1813 8.95631 10.975 9.0938 10.8875C9.2313 10.8 9.50005 10.675 9.68755 10.6187C9.87505 10.5562 10.2063 10.5063 10.4188 10.5063ZM9.30006 11.9125C9.20631 12.0125 9.07506 12.2188 9.00631 12.375C8.92506 12.55 8.87505 12.7875 8.87505 13C8.87505 13.2312 8.92506 13.45 9.01881 13.6562C9.10006 13.8313 9.26256 14.0562 9.38131 14.1562C9.50006 14.2625 9.7188 14.4 9.87505 14.4625C10.0688 14.5375 10.2751 14.5688 10.5376 14.55C10.8251 14.5375 10.9876 14.4875 11.2251 14.3438C11.4063 14.2312 11.6126 14.025 11.7376 13.8438C11.8501 13.6687 11.9563 13.4187 11.9751 13.2812C12.0001 13.1438 12.0001 12.9062 11.9751 12.75C11.9563 12.5875 11.8563 12.3375 11.7376 12.1562C11.6251 11.9875 11.4063 11.7688 11.2501 11.6687C11.0313 11.5312 10.8688 11.4875 10.5313 11.4625C10.1563 11.4375 10.0501 11.45 9.7813 11.5813C9.6063 11.6687 9.39381 11.8125 9.30006 11.9125ZM8.13755 16.3188C8.2688 16.3125 8.56255 16.3563 8.7938 16.4062C9.0313 16.4562 9.38755 16.6 9.5938 16.725C9.80006 16.8438 10.0501 17.0187 10.1438 17.1125C10.2438 17.2062 10.4126 17.425 10.5313 17.5938C10.6438 17.7687 10.8001 18.0875 10.8751 18.3125C10.9876 18.65 11.0063 18.825 10.9876 19.3125C10.9688 19.8125 10.9376 19.9688 10.7751 20.3125C10.6751 20.5375 10.4938 20.8438 10.3751 20.9937C10.2563 21.1375 10.0126 21.3625 9.8438 21.4875C9.6688 21.6125 9.38755 21.7687 9.2188 21.8312C9.0438 21.9 8.73756 21.975 8.5313 22.0063C8.3063 22.0375 7.9938 22.0312 7.75005 21.9937C7.52505 21.9625 7.14381 21.8375 6.9063 21.725C6.62505 21.5875 6.35631 21.3937 6.15006 21.175C5.97506 20.9937 5.76255 20.7188 5.6688 20.5625C5.5813 20.4062 5.46256 20.1125 5.40631 19.9062C5.35631 19.7 5.31256 19.375 5.31256 19.1875C5.31256 19 5.3563 18.675 5.41255 18.4688C5.46255 18.2625 5.57505 17.9688 5.66255 17.8125C5.7438 17.6562 5.96256 17.375 6.15006 17.1875C6.33756 17 6.6563 16.7625 6.8563 16.6562C7.0563 16.5562 7.37505 16.4375 7.56255 16.3937C7.75005 16.3562 8.01255 16.3188 8.13755 16.3188ZM7.26255 17.4937C7.13755 17.5625 6.9313 17.725 6.80631 17.8563C6.68131 17.9875 6.51256 18.2188 6.43131 18.375C6.30631 18.6063 6.28131 18.75 6.28131 19.1875C6.28131 19.6187 6.31256 19.7687 6.42506 19.9875C6.50006 20.1312 6.6688 20.3625 6.7938 20.5063C6.92506 20.6438 7.18755 20.8312 7.37505 20.925C7.65005 21.0562 7.81255 21.0875 8.1563 21.0875C8.47505 21.0812 8.6813 21.0437 8.9313 20.9312C9.13755 20.8375 9.38755 20.6562 9.5563 20.4688C9.7438 20.2687 9.8938 20.0312 9.96255 19.8125C10.0501 19.5562 10.0751 19.3563 10.0501 19.0312C10.0313 18.7875 9.9688 18.4937 9.9063 18.375C9.8438 18.2563 9.7188 18.0562 9.62505 17.9375C9.5313 17.8188 9.28755 17.6312 9.08755 17.5187C8.8313 17.3812 8.6063 17.3062 8.3438 17.2875C8.13755 17.2688 7.86255 17.2812 7.7313 17.3125C7.6063 17.35 7.3938 17.4312 7.26255 17.4937ZM11.4063 22.5063C11.5438 22.5063 11.8126 22.5375 12.0001 22.5812C12.1876 22.625 12.4751 22.7375 12.6376 22.8312C12.8063 22.925 13.0563 23.1187 13.2001 23.2687C13.3376 23.4125 13.5438 23.7125 13.6501 23.9375C13.8251 24.3062 13.8438 24.4 13.8438 24.9688C13.8438 25.5438 13.8251 25.625 13.6438 26C13.5251 26.25 13.3251 26.5187 13.1313 26.7062C12.9563 26.8687 12.6501 27.075 12.4501 27.175C12.1313 27.325 12.0251 27.3438 11.4376 27.3438C10.8251 27.3438 10.7501 27.3312 10.3751 27.15C10.1063 27.0187 9.86255 26.8375 9.6688 26.6187C9.50005 26.4312 9.2938 26.125 9.20005 25.9375C9.0563 25.6375 9.03755 25.5125 9.0313 24.9688C9.0313 24.3937 9.05006 24.3125 9.22506 23.9375C9.33131 23.7125 9.54381 23.4062 9.69381 23.2563C9.84381 23.1125 10.0813 22.9187 10.2188 22.8375C10.3563 22.7625 10.6251 22.65 10.8126 22.6C11.0001 22.55 11.2688 22.5063 11.4063 22.5063ZM10.7063 23.6375C10.6126 23.6875 10.4313 23.8438 10.3126 23.9813C10.1938 24.1188 10.0563 24.3438 10.0188 24.475C9.97506 24.6063 9.93755 24.8438 9.93755 25C9.93755 25.1625 10.0001 25.4125 10.0813 25.5938C10.1626 25.7687 10.3251 25.9875 10.4438 26.0875C10.5626 26.1875 10.7501 26.3063 10.8563 26.3563C10.9688 26.4 11.2313 26.4375 11.4376 26.4375C11.6438 26.4375 11.9063 26.4 12.0126 26.3563C12.1251 26.3063 12.3126 26.1875 12.4313 26.0875C12.5501 25.9875 12.7126 25.7687 12.7938 25.5938C12.8751 25.4125 12.9376 25.1625 12.9376 25C12.9376 24.8438 12.9063 24.6125 12.8751 24.4875C12.8376 24.3562 12.7063 24.1313 12.5751 23.9937C12.4501 23.85 12.2313 23.6812 12.0938 23.6125C11.9563 23.5437 11.7001 23.475 11.5313 23.4625C11.3563 23.45 11.1438 23.4625 11.0501 23.4937C10.9563 23.5187 10.8001 23.5875 10.7063 23.6375ZM17.3126 24.3937C17.7626 24.4062 17.9063 24.4375 18.2501 24.6063C18.5001 24.725 18.7688 24.925 18.9501 25.1187C19.1188 25.2937 19.3251 25.6 19.4188 25.8C19.5751 26.1187 19.5938 26.225 19.5938 26.8125C19.5938 27.3687 19.5688 27.5187 19.4501 27.7812C19.3688 27.9562 19.2001 28.2188 19.0751 28.3687C18.9501 28.525 18.7001 28.7375 18.5313 28.85C18.3563 28.9625 18.0501 29.1 17.8438 29.1625C17.5688 29.2375 17.3438 29.2563 17.0001 29.2313C16.6626 29.2 16.4251 29.1438 16.1563 29.0063C15.9251 28.8938 15.6438 28.6812 15.4376 28.4562C15.2063 28.2188 15.0438 27.9688 14.9501 27.7375C14.8751 27.5375 14.7938 27.2125 14.7751 27.0187C14.7501 26.7687 14.7688 26.525 14.8376 26.25C14.8938 26.025 15.0188 25.7188 15.1126 25.5625C15.2001 25.4062 15.3813 25.175 15.5126 25.05C15.6438 24.9187 15.8688 24.75 16.0126 24.675C16.1626 24.6 16.3938 24.5062 16.5313 24.4562C16.6813 24.4125 16.9938 24.3812 17.3126 24.3937ZM16.0751 25.85C15.8938 26.0625 15.7876 26.2563 15.7438 26.4688C15.7063 26.6437 15.6876 26.8875 15.7126 27.0187C15.7313 27.1437 15.8001 27.3562 15.8688 27.4875C15.9313 27.6125 16.0938 27.8188 16.2313 27.9375C16.3688 28.0562 16.5938 28.1938 16.7251 28.2313C16.8563 28.275 17.0813 28.3125 17.2188 28.3062C17.3563 28.3062 17.5688 28.275 17.6876 28.2313C17.8126 28.1875 18.0126 28.0812 18.1438 27.9875C18.2688 27.8875 18.4438 27.675 18.5313 27.5C18.6501 27.2687 18.6876 27.0875 18.6876 26.8C18.6876 26.5187 18.6438 26.325 18.5438 26.1313C18.4688 25.975 18.3063 25.7688 18.1813 25.6625C18.0563 25.5562 17.8438 25.4312 17.7126 25.3937C17.5813 25.35 17.3251 25.3125 17.1563 25.3125C16.9813 25.3125 16.7313 25.3687 16.5938 25.4312C16.4563 25.4875 16.2251 25.6812 16.0751 25.85Z" fill="#049AFA"/>
</g>
</svg>
