<svg width="32" height="32" viewBox="0 0 32 32" fill="none" xmlns="http://www.w3.org/2000/svg">
<g id="file - 2023-10-19T223731.885 1" clip-path="url(#clip0_106_678)">
<path id="Path 0" fill-rule="evenodd" clip-rule="evenodd" d="M26.4499 2.9375C26.5812 2.9375 26.7624 2.975 26.8624 3.025C26.9562 3.06875 27.1249 3.2125 27.2374 3.3375C27.3687 3.4875 27.4499 3.65 27.4749 3.825C27.4937 3.975 27.4999 5.88125 27.4687 12.0312L27.3062 12.3438C27.2124 12.5125 27.0312 12.75 26.8999 12.8687C26.7624 12.9875 26.5437 13.1375 26.4062 13.1938C26.2687 13.2563 26.0312 13.325 25.8749 13.35C25.7187 13.375 25.4562 13.3625 25.2812 13.3188C25.0812 13.275 24.8687 13.1625 24.6937 13.0125C24.5374 12.8875 24.3624 12.6687 24.2999 12.5312C24.2437 12.3938 24.1874 12.1375 24.1874 11.9688C24.1874 11.7688 24.2437 11.5437 24.3374 11.3438C24.4187 11.1687 24.5937 10.925 24.7249 10.8C24.8624 10.675 25.1124 10.5063 25.2812 10.425C25.5187 10.325 25.7124 10.2875 26.5624 10.2812V8.5125C26.5624 7.38125 26.5374 6.75 26.4999 6.75C26.4687 6.75 25.0499 7.34375 23.3624 8.075C21.6687 8.8 20.2437 9.425 20.1999 9.4625C20.1374 9.51875 20.1187 10.1188 20.1187 12.3438C20.1249 15.1562 20.1249 15.1562 19.9812 15.4688C19.8937 15.65 19.7062 15.8937 19.5249 16.05C19.3562 16.1937 19.0937 16.3562 18.9374 16.4062C18.7812 16.4625 18.4937 16.5 18.2999 16.5C18.0999 16.5 17.8437 16.4625 17.7374 16.4188C17.6249 16.3688 17.4374 16.25 17.3187 16.15C17.2062 16.05 17.0562 15.8625 16.9937 15.7312C16.9187 15.5875 16.8749 15.3687 16.8749 15.1375C16.8749 14.8938 16.9249 14.6812 17.0249 14.4688C17.1062 14.2937 17.2687 14.0688 17.3812 13.9563C17.4999 13.8438 17.7624 13.6812 17.9687 13.5875C18.2874 13.4437 18.4124 13.425 19.1874 13.4688V10.0625C19.1874 8.00625 19.2124 6.5625 19.2499 6.41875C19.2874 6.29375 19.3874 6.10625 19.4874 6C19.5874 5.8875 19.9187 5.7 20.3124 5.53125C20.6749 5.375 21.0312 5.25 21.1124 5.25C21.1874 5.25 21.3062 5.30625 21.3749 5.375C21.4499 5.45 21.4999 5.58125 21.4999 5.71875C21.4999 5.8625 21.4562 5.975 21.3687 6.04375C21.2999 6.10625 20.9999 6.2625 20.1562 6.6125L20.1437 7.49375C20.1312 8.1625 20.1437 8.375 20.2062 8.375C20.2437 8.375 21.6624 7.78125 23.3437 7.05625C25.0249 6.33125 26.4437 5.725 26.4874 5.7125C26.5437 5.69375 26.5624 5.4625 26.5624 4.825C26.5624 4.35625 26.5499 3.95 26.5312 3.91875C26.5124 3.89375 25.7187 4.2125 24.7687 4.625C23.8124 5.0375 22.9874 5.375 22.9374 5.38125C22.8874 5.38125 22.7687 5.325 22.6749 5.25C22.5437 5.1625 22.4999 5.06875 22.4999 4.91875C22.4999 4.7875 22.5437 4.675 22.6374 4.5875C22.7187 4.51875 23.5249 4.1375 24.4374 3.75C25.3499 3.36875 26.1187 3.025 26.1562 2.99375C26.1874 2.9625 26.3187 2.9375 26.4499 2.9375ZM25.3937 11.4563C25.2374 11.6 25.1687 11.725 25.1437 11.9062C25.1124 12.125 25.1312 12.175 25.2874 12.3C25.4312 12.4187 25.5249 12.4438 25.7187 12.425C25.8562 12.4125 26.0624 12.3312 26.1812 12.2437C26.2999 12.1625 26.4374 11.9937 26.4874 11.875C26.5562 11.6938 26.5562 11.625 26.4874 11.4812C26.4437 11.3812 26.3249 11.2812 26.2187 11.2437C26.1187 11.2125 26.0062 11.1875 25.9687 11.1938C25.9312 11.2 25.8374 11.2188 25.7624 11.2312C25.6812 11.2437 25.5187 11.3438 25.3937 11.4563ZM17.9312 14.725C17.8624 14.8313 17.8062 15.0062 17.8124 15.1375C17.8124 15.3125 17.8499 15.4 17.9562 15.4688C18.0312 15.5188 18.1999 15.5625 18.3312 15.5625C18.4562 15.5625 18.6499 15.5188 18.7499 15.4688C18.8499 15.4187 18.9937 15.3 19.0624 15.2C19.1374 15.1062 19.1937 14.9375 19.1874 14.825C19.1874 14.7125 19.1374 14.575 19.0624 14.5C18.9812 14.4187 18.8562 14.375 18.7062 14.375C18.5749 14.3813 18.3749 14.4187 18.2624 14.4625C18.1499 14.5125 17.9999 14.6313 17.9312 14.725ZM7.15615 4.31875C7.3624 4.3125 7.6999 4.35625 7.90615 4.40625C8.1124 4.4625 8.43115 4.59375 8.61865 4.70625C8.7999 4.81875 9.0624 5.03125 9.20615 5.1875C9.34365 5.34375 9.5374 5.6375 9.63115 5.84375C9.73115 6.05 9.84365 6.4125 9.8874 6.65625C9.9374 6.9875 9.9374 7.18125 9.88115 7.46875C9.84365 7.675 9.7374 8 9.6499 8.1875C9.5624 8.375 9.36865 8.66875 9.2249 8.84375C9.0749 9.0125 8.4124 9.7625 7.7499 10.5C7.0874 11.2375 6.48115 11.9125 6.2624 12.1562L6.96865 16.2188L7.40615 16.2563C7.6499 16.2812 7.9999 16.3562 8.1874 16.4312C8.3749 16.5062 8.66865 16.6562 8.8374 16.7687C9.00615 16.875 9.2874 17.125 9.45615 17.3125C9.6249 17.5 9.8499 17.825 9.95615 18.0312C10.0562 18.2375 10.1812 18.5875 10.2249 18.8125C10.2749 19.0375 10.3124 19.4 10.3124 19.625C10.3124 19.85 10.2749 20.2125 10.2249 20.4375C10.1812 20.6625 10.0499 21.025 9.9374 21.25C9.80615 21.5 9.5749 21.8125 9.31865 22.0688C9.0624 22.3188 8.7624 22.5438 8.53115 22.6562C8.3249 22.7563 8.1499 22.8375 8.1374 22.8375C8.1249 22.8438 8.23115 23.5187 8.36865 24.3438C8.5124 25.1688 8.6249 26.0312 8.6249 26.2625C8.6249 26.5 8.5749 26.85 8.5124 27.0438C8.4499 27.2438 8.30615 27.5562 8.1874 27.7437C8.06865 27.9312 7.84365 28.1937 7.6874 28.3312C7.53115 28.4625 7.28115 28.6375 7.1249 28.7188C6.96865 28.7938 6.68115 28.9062 6.4874 28.9625C6.2874 29.0187 5.9749 29.0625 5.7999 29.0625C5.61865 29.0625 5.2999 29.0063 5.09365 28.9375C4.8874 28.8625 4.58115 28.7313 4.4124 28.6375C4.24365 28.5438 3.9624 28.3125 3.7874 28.125C3.6124 27.9375 3.39365 27.625 3.2999 27.4375C3.2124 27.25 3.0999 26.8937 3.0624 26.6562C3.01865 26.4125 3.00615 26.0812 3.0249 25.9062C3.0499 25.7313 3.14365 25.4563 3.2374 25.2875C3.33115 25.1187 3.51865 24.9 3.65615 24.8C3.79365 24.7 4.0624 24.575 4.2499 24.525C4.4749 24.4625 4.68115 24.4438 4.84365 24.4688C4.98115 24.4937 5.18115 24.55 5.28115 24.5875C5.3874 24.6313 5.5749 24.7625 5.7124 24.8813C5.84365 25 6.03115 25.2313 6.13115 25.4062C6.23115 25.575 6.3124 25.8125 6.3124 25.9188C6.3124 26.075 6.26865 26.1562 6.14365 26.25C6.04365 26.325 5.93115 26.3813 5.89365 26.375C5.8499 26.375 5.74365 26.3375 5.65615 26.2938C5.56865 26.2563 5.4249 26.0875 5.34365 25.9188C5.25615 25.7563 5.1124 25.575 5.01865 25.5125C4.91865 25.45 4.7499 25.4125 4.59365 25.4188C4.40615 25.425 4.2999 25.475 4.15615 25.6187C3.98115 25.8 3.96865 25.85 3.9749 26.2375C3.9749 26.5062 4.0249 26.7563 4.0999 26.9375C4.16865 27.0938 4.3374 27.3438 4.4749 27.4875C4.60615 27.6375 4.8624 27.8313 5.03115 27.9125C5.24365 28.0188 5.4624 28.0687 5.71865 28.0812C5.9249 28.0875 6.21865 28.0563 6.3749 28.0125C6.53115 27.9688 6.7999 27.825 6.96865 27.7C7.18115 27.5375 7.34365 27.3438 7.4874 27.075C7.6499 26.7563 7.6874 26.6188 7.6874 26.2938C7.6874 26.0813 7.5749 25.2563 7.4374 24.4688C7.2999 23.675 7.1874 23.025 7.1874 23.0125C7.1874 23.0063 6.86865 23 6.4874 23C5.9999 23 5.6249 22.9625 5.26865 22.875C4.98115 22.8062 4.5624 22.6625 4.33115 22.5562C4.09365 22.45 3.7374 22.2437 3.53115 22.0938C3.3249 21.95 2.9999 21.6625 2.80615 21.4625C2.6124 21.2563 2.3499 20.925 2.21865 20.7188C2.0874 20.5125 1.8999 20.1437 1.7999 19.9062C1.6999 19.6625 1.5749 19.2437 1.51865 18.9688C1.4499 18.6062 1.43115 18.2875 1.45615 17.8125C1.4749 17.45 1.5374 16.9875 1.59365 16.7812C1.64365 16.575 1.7999 16.1812 1.93115 15.9062C2.0624 15.6313 2.2749 15.2625 2.40615 15.0938C2.5374 14.9187 3.2374 14.1187 5.26865 11.8438L4.8874 9.625C4.6749 8.4 4.4999 7.21875 4.4999 6.98125C4.4999 6.71875 4.5499 6.41875 4.63115 6.16875C4.70615 5.95625 4.84365 5.66875 4.9374 5.53125C5.03115 5.39375 5.2374 5.1625 5.3999 5.0125C5.55615 4.86875 5.80615 4.6875 5.95615 4.6125C6.0999 4.54375 6.34365 4.44375 6.4999 4.4C6.65615 4.35625 6.9499 4.31875 7.15615 4.31875ZM6.06865 5.66875C5.91865 5.8 5.7249 6.03125 5.6374 6.1875C5.51865 6.4 5.46865 6.58125 5.4499 6.90625C5.4374 7.23125 5.5124 7.8 5.7499 9.125C5.91865 10.1062 6.06865 10.9125 6.08115 10.9187C6.0874 10.925 6.68115 10.2812 7.39365 9.48125C8.10615 8.68125 8.75615 7.90625 8.83115 7.75C8.93115 7.54375 8.9624 7.35625 8.9624 7.03125C8.9624 6.71875 8.91865 6.5125 8.8249 6.3125C8.7499 6.15625 8.59365 5.925 8.46865 5.79375C8.3499 5.66875 8.13115 5.5 7.9874 5.43125C7.81865 5.34375 7.56865 5.2875 7.3124 5.275C7.06865 5.2625 6.79365 5.2875 6.6249 5.34375C6.46865 5.39375 6.21865 5.5375 6.06865 5.66875ZM2.9374 15.9875C2.81865 16.1813 2.65615 16.5375 2.5749 16.7812C2.48115 17.0625 2.4124 17.4312 2.39365 17.8125C2.36865 18.2625 2.3874 18.5312 2.46865 18.9062C2.53115 19.1812 2.69365 19.6313 2.83115 19.9062C3.01865 20.275 3.2124 20.5312 3.55615 20.875C3.8249 21.1375 4.19365 21.4313 4.40615 21.5438C4.6124 21.6562 4.9499 21.8062 5.15615 21.875C5.4124 21.9688 5.75615 22.025 6.26865 22.05C6.83115 22.0875 6.9999 22.075 6.9999 22.0125C6.9999 21.975 6.83115 20.9313 6.61865 19.7C6.4124 18.475 6.23115 17.4313 6.2124 17.3875C6.19365 17.3313 6.1374 17.3375 5.9874 17.4188C5.8749 17.475 5.64365 17.65 5.46865 17.8125C5.26865 18.0063 5.09365 18.25 4.9749 18.5063C4.8749 18.7313 4.7874 19.0562 4.76865 19.25C4.75615 19.4375 4.73115 19.6875 4.7124 19.7938C4.69365 19.9438 4.6374 20.025 4.4999 20.0938C4.38115 20.1562 4.25615 20.1688 4.14365 20.1375C4.05615 20.1125 3.94365 20.0375 3.89365 19.9688C3.84365 19.8937 3.8124 19.6812 3.8124 19.4375C3.8124 19.2125 3.85615 18.8625 3.9124 18.6562C3.96865 18.45 4.0999 18.1125 4.20615 17.9125C4.31865 17.7063 4.5749 17.375 4.78115 17.1688C5.0124 16.9375 5.3249 16.7187 5.59365 16.5812L6.03115 16.3687C5.61865 13.925 5.49365 13.1813 5.4874 13.1313C5.4749 13.0813 4.9499 13.625 4.3124 14.3375C3.6749 15.05 3.05615 15.7875 2.9374 15.9875ZM7.5624 19.6562C7.76865 20.8563 7.95615 21.85 7.96865 21.8563C7.9874 21.8688 8.0874 21.8312 8.1874 21.7812C8.29365 21.7313 8.46865 21.6063 8.58115 21.5125C8.6874 21.4125 8.86865 21.1938 8.98115 21.025C9.09365 20.8562 9.23115 20.5375 9.2874 20.3125C9.35615 20.025 9.38115 19.7687 9.35615 19.4375C9.3374 19.1812 9.26865 18.8125 9.1999 18.625C9.1249 18.4375 8.94365 18.1375 8.79365 17.9688C8.64365 17.7937 8.35615 17.5625 8.1499 17.4562C7.9499 17.3437 7.6374 17.2312 7.4624 17.2125C7.1499 17.1687 7.14365 17.175 7.1624 17.3188C7.1749 17.4 7.35615 18.45 7.5624 19.6562ZM0.306152 6.5625H3.2499L3.40615 6.71875C3.49365 6.80625 3.5624 6.94375 3.5624 7.03125C3.5624 7.11875 3.49365 7.25625 3.25615 7.5H0.312402L0.156152 7.34375C0.0686523 7.25625 -9.76562e-05 7.11875 -9.76562e-05 7.03125C0.00615234 6.94375 0.0749023 6.8 0.156152 6.71875L0.306152 6.5625ZM28.6187 6.5625H31.6874L31.8437 6.71875C31.9312 6.8 31.9999 6.94375 31.9999 7.03125C31.9999 7.1125 31.9312 7.25625 31.6937 7.5H28.6249L28.4687 7.34375C28.3812 7.25625 28.3124 7.1125 28.3124 7.025C28.3187 6.9375 28.3874 6.8 28.4687 6.7125L28.6187 6.5625ZM3.3249 10.4062L3.44365 10.5625C3.5124 10.65 3.56865 10.775 3.56865 10.8438C3.56865 10.9125 3.50615 11.0437 3.3124 11.3125H0.249902L0.118652 11.1438C0.0499023 11.0437 -0.00634766 10.9188 -0.00634766 10.8625C-9.76562e-05 10.8 0.0311523 10.6937 0.0749023 10.625C0.118652 10.55 0.206152 10.4688 0.274902 10.4375C0.349902 10.4062 1.0624 10.3875 3.3249 10.4062ZM31.7624 10.4062L31.8812 10.5625C31.9499 10.65 32.0061 10.775 32.0061 10.8438C32.0061 10.9125 31.9437 11.0437 31.7499 11.3125H28.5624L28.4312 11.1438C28.3624 11.0437 28.3062 10.9188 28.3062 10.8625C28.3124 10.8 28.3437 10.6937 28.3874 10.625C28.4312 10.55 28.5187 10.4688 28.5874 10.4375C28.6624 10.4062 29.3999 10.3875 31.7624 10.4062ZM31.7624 14.2188L31.8812 14.375C31.9499 14.4625 32.0061 14.5875 32.0061 14.6562C32.0061 14.725 31.9437 14.8562 31.7499 15.125H21.2499L21.1187 14.9563C21.0499 14.8562 20.9937 14.7438 20.9937 14.7063C20.9999 14.6625 21.0312 14.5562 21.0749 14.4688C21.1187 14.3813 21.2124 14.2875 21.2812 14.2563C21.3562 14.2188 23.4437 14.2 31.7624 14.2188ZM27.0937 18.0063C29.8937 18 31.5374 18.0188 31.6687 18.0625C31.7812 18.1 31.8999 18.1812 31.9374 18.25C31.9687 18.3188 31.9999 18.4375 31.9999 18.5187C31.9937 18.5937 31.9312 18.7188 31.7187 18.9438H27.1249C22.7999 18.9438 22.5249 18.9375 22.4187 18.8312C22.3562 18.7687 22.2999 18.6312 22.2937 18.525C22.2874 18.4187 22.3187 18.2812 22.3624 18.2188C22.4062 18.1625 22.5062 18.0875 22.5812 18.0625C22.6562 18.0312 24.6874 18.0063 27.0937 18.0063ZM27.2562 21.875H31.7499L31.8749 22.0187C31.9437 22.0938 31.9999 22.225 31.9999 22.3125C31.9999 22.4 31.9437 22.5312 31.8749 22.6125C31.8062 22.6875 31.6562 22.7688 31.5437 22.7875C31.4312 22.8062 30.4374 22.8125 29.3312 22.8C27.4249 22.7812 27.3187 22.775 27.1937 22.6562C27.1124 22.5875 27.0562 22.45 27.0562 22.3438C27.0499 22.2375 27.0937 22.0938 27.1499 22.0125L27.2562 21.875ZM14.7312 6.5625C17.0687 6.5625 17.8499 6.58125 17.9749 6.64375C18.0562 6.6875 18.1562 6.79375 18.1812 6.875C18.2187 6.975 18.2124 7.1 18.1624 7.21875C18.1187 7.325 18.0374 7.43125 17.9812 7.45625C17.9249 7.48125 16.4687 7.5 11.6249 7.5L11.4624 7.33125C11.3312 7.19375 11.3062 7.11875 11.3374 6.96875C11.3562 6.86875 11.4374 6.73125 11.5124 6.675C11.6312 6.575 11.8812 6.5625 14.7312 6.5625ZM9.49365 10.375H17.8749L18.0437 10.5188C18.1624 10.625 18.2062 10.7125 18.1999 10.875C18.1999 11.025 18.1499 11.1313 18.0499 11.2063C17.9187 11.3125 17.6499 11.3188 9.4374 11.3125L9.3124 11.1438C9.24365 11.05 9.1874 10.9062 9.1874 10.825C9.19365 10.75 9.2624 10.6125 9.34365 10.5312L9.49365 10.375ZM22.1249 10.375C22.7562 10.3688 22.8687 10.3875 23.0187 10.5C23.1499 10.5938 23.1874 10.675 23.1874 10.8438C23.1874 10.9812 23.1437 11.1062 23.0624 11.1875C22.9499 11.3 22.8562 11.3125 22.1249 11.3125C21.3437 11.3125 21.3062 11.3062 21.1562 11.1562C21.0749 11.0688 20.9999 10.9563 20.9999 10.9062C20.9999 10.8562 21.0374 10.7438 21.0812 10.6562C21.1249 10.5687 21.2124 10.475 21.2812 10.4438C21.3499 10.4063 21.7312 10.3812 22.1249 10.375ZM12.1062 14.2063C15.6437 14.2188 15.7437 14.2188 15.8749 14.3438C15.9562 14.425 16.0062 14.5437 16.0062 14.6687C15.9999 14.7875 15.9499 14.925 15.8749 15C15.7562 15.1187 15.6687 15.125 12.0312 15.125C8.3999 15.125 8.3124 15.1187 8.1874 15C8.11865 14.925 8.0624 14.7875 8.0624 14.6687C8.0624 14.5562 8.10615 14.425 8.16865 14.3687C8.23115 14.3125 8.3249 14.25 8.3749 14.2312C8.43115 14.2125 10.1062 14.2 12.1062 14.2063ZM16.3562 18.0187C20.8312 18.0312 20.9312 18.0312 21.0624 18.1562C21.1499 18.2437 21.1937 18.3563 21.1937 18.5125C21.1874 18.6875 21.1499 18.775 21.0499 18.8438C20.9249 18.925 20.2937 18.9375 11.5624 18.9375L11.4374 18.7625C11.3687 18.6688 11.3124 18.55 11.3124 18.5C11.3124 18.45 11.3562 18.3375 11.4124 18.2625C11.4687 18.1813 11.5749 18.0875 11.6499 18.0625C11.7249 18.0312 13.8374 18.0125 16.3562 18.0187ZM10.5124 21.875L25.7187 21.8687L25.8437 22.0063C25.9124 22.075 25.9687 22.2188 25.9687 22.3188C25.9687 22.4188 25.9124 22.5562 25.6874 22.7812H10.5562L10.3999 22.6063C10.3187 22.5125 10.2499 22.3813 10.2437 22.3188C10.2437 22.2563 10.2999 22.1313 10.3749 22.0375L10.5124 21.875Z" fill="#049AFA"/>
</g>
<defs>
<clipPath id="clip0_106_678">
<rect width="32" height="32" fill="white"/>
</clipPath>
</defs>
</svg>
