<svg width="32" height="32" viewBox="0 0 32 32" fill="none" xmlns="http://www.w3.org/2000/svg">
<g id="file - 2023-10-19T223806.264 1" clip-path="url(#clip0_106_682)">
<path id="Path 0" fill-rule="evenodd" clip-rule="evenodd" d="M15.8938 0.9375C16.2813 0.9375 16.5563 0.975 16.8563 1.06875C17.0938 1.14375 17.3938 1.2625 17.5313 1.33125C17.6688 1.4 17.95 1.56875 18.1563 1.70625C18.3625 1.85 18.7438 2.175 19 2.4375C19.2563 2.7 19.6063 3.11875 19.7813 3.3625C20.0375 3.7375 20.1125 3.80625 20.2188 3.775C20.2875 3.75 20.5125 3.73125 20.7188 3.73125C20.9938 3.725 21.1875 3.76875 21.4375 3.8875C21.625 3.98125 21.8938 4.175 22.025 4.325C22.1625 4.46875 22.3313 4.71875 22.4 4.875C22.4813 5.0625 22.5188 5.3 22.525 5.59375C22.525 5.95625 22.4938 6.09375 22.3375 6.40625C22.2375 6.60625 22.0438 6.875 21.6563 7.20625L21.8563 7.86875C21.9625 8.23125 22.125 8.86875 22.2188 9.28125C22.3125 9.69375 22.45 10.4375 22.5375 10.9375C22.6813 11.8 22.7 11.85 22.8938 12.025C23 12.125 23.4625 12.5375 23.9063 12.9375C24.35 13.3438 24.8438 13.8125 25 13.975C25.1563 14.1438 25.4875 14.5 26.1875 15.25L26.6375 14.625C26.8875 14.2875 27.275 13.7188 27.4938 13.3625C27.7188 13.0063 28.0563 12.3938 28.2563 12C28.45 11.6063 28.7 11.025 28.8063 10.7188C28.9063 10.4125 29.0375 9.95 29.0938 9.7C29.1438 9.45625 29.1875 8.9625 29.1875 8.6125C29.1875 8.25625 29.15 7.825 29.1063 7.65625C29.0563 7.48125 28.9375 7.19375 28.8375 7.00625C28.7375 6.825 28.5125 6.5375 28.3438 6.36875C28.1688 6.2 27.8625 5.975 27.6563 5.875C27.45 5.775 27.0563 5.625 26.7813 5.55C26.3438 5.43125 26.1188 5.4125 24.9625 5.4125C23.725 5.40625 23.6313 5.4 23.5063 5.28125C23.4313 5.2125 23.3688 5.0875 23.3688 5C23.3688 4.9125 23.4313 4.78125 23.5063 4.7C23.6063 4.59375 23.7625 4.5375 24.0875 4.4875C24.3375 4.45 24.9 4.4375 25.375 4.45625C25.8375 4.475 26.425 4.5375 26.6688 4.5875C26.9188 4.64375 27.3313 4.75625 27.575 4.85C27.825 4.9375 28.2 5.10625 28.4063 5.23125C28.6125 5.3625 28.95 5.63125 29.1563 5.8375C29.3813 6.0625 29.6313 6.4 29.7625 6.65625C29.8875 6.89375 30.0375 7.275 30.1 7.5C30.175 7.7875 30.2063 8.125 30.2063 8.65625C30.2063 9.09375 30.1625 9.5875 30.1063 9.84375C30.05 10.0813 29.925 10.55 29.8188 10.875C29.7125 11.2 29.4188 11.8938 29.1625 12.4063C28.9063 12.925 28.475 13.6813 28.2063 14.0938C27.9375 14.5063 27.525 15.1 26.875 15.9688L27 16.125C27.0688 16.2125 27.3563 16.5875 27.6313 16.9688C27.9125 17.35 28.3125 17.95 28.5313 18.3125C28.7438 18.675 29.0313 19.1938 29.1688 19.4688C29.3063 19.7438 29.525 20.2313 29.65 20.55C29.775 20.8625 29.9438 21.4125 30.0313 21.7625C30.1125 22.1188 30.2063 22.6 30.2313 22.8438C30.275 23.2563 30.2875 23.2938 30.5625 23.5625C30.7625 23.7563 30.8875 23.95 30.9688 24.1875C31.0375 24.3813 31.0875 24.7063 31.0875 24.9375C31.0875 25.2375 31.0438 25.4313 30.9313 25.6875C30.8438 25.875 30.65 26.15 30.5 26.3C30.3375 26.4563 30.0813 26.6188 29.8875 26.6938C29.7125 26.7563 29.4125 26.8125 29.2313 26.8125C29.0563 26.8125 28.7625 26.7625 28.5938 26.7063C28.4125 26.6438 28.15 26.475 27.9688 26.3063C27.775 26.1313 27.6 25.8938 27.5063 25.6813C27.4063 25.4438 27.3625 25.225 27.3625 24.9375C27.3563 24.6375 27.4 24.4375 27.5125 24.1875C27.5938 24 27.7875 23.725 27.9438 23.575C28.0938 23.425 28.3625 23.2563 28.5438 23.1875C28.725 23.1188 28.9625 23.0625 29.0625 23.0625C29.225 23.0625 29.25 23.0375 29.25 22.8938C29.25 22.7938 29.2063 22.525 29.1563 22.2813C29.1063 22.0375 28.975 21.575 28.8625 21.25C28.7563 20.925 28.4938 20.3188 28.2875 19.9063C28.075 19.4938 27.7125 18.8625 27.475 18.5C27.2375 18.1375 26.8563 17.6 26.2188 16.7563L25.5313 17.4875C25.1563 17.8875 24.55 18.5 24.1875 18.85C23.825 19.1938 23.3625 19.6313 23.1563 19.8125C22.95 19.9938 22.7625 20.1875 22.7375 20.2438C22.7188 20.3 22.65 20.65 22.5938 21.0313C22.5375 21.4125 22.3938 22.1688 22.275 22.7188C22.15 23.2688 21.8875 24.225 21.6813 24.8438C21.4813 25.4625 21.3188 25.975 21.325 25.9813C21.3375 25.9875 21.6688 26.0813 22.0625 26.1813C22.4563 26.2813 23.1 26.4063 23.4813 26.4625C23.875 26.5188 24.5938 26.5625 25.0938 26.5625C25.75 26.5625 26.175 26.525 26.625 26.4375C27.1188 26.3375 27.2813 26.325 27.3875 26.3813C27.4688 26.425 27.55 26.4875 27.575 26.525C27.6 26.5625 27.625 26.6688 27.625 26.7688C27.625 26.875 27.5625 26.9875 27.45 27.0813C27.3438 27.175 27.1125 27.2563 26.8125 27.3188C26.4938 27.375 25.925 27.4063 25.0313 27.4C24.0625 27.4 23.5625 27.3688 23.125 27.2875C22.8 27.2313 22.1813 27.0938 21.75 26.9938C21.3188 26.8938 20.95 26.8125 20.9188 26.8125C20.8938 26.8125 20.7438 27.0563 20.5875 27.3625C20.425 27.6625 20.15 28.1188 19.975 28.375C19.8063 28.6313 19.4938 29.0375 19.2813 29.2813C19.075 29.5188 18.6938 29.8813 18.4375 30.0875C18.1813 30.2875 17.775 30.55 17.5313 30.6625C17.2875 30.7813 16.9125 30.9188 16.6875 30.9813C16.4625 31.0375 16.1125 31.0875 15.9063 31.0875C15.7 31.0875 15.35 31.0375 15.125 30.975C14.9 30.9188 14.575 30.8063 14.4063 30.7313C14.2313 30.65 13.925 30.475 13.7188 30.3375C13.5188 30.2063 13.1375 29.8813 12.875 29.6188C12.6188 29.3563 12.2625 28.9438 11.7813 28.2563L11.4375 28.2938C11.2188 28.3188 10.9688 28.2938 10.75 28.2313C10.5063 28.1625 10.3063 28.0438 10.0688 27.8313C9.8875 27.6688 9.69375 27.4563 9.65 27.3625C9.5875 27.2375 9.53125 27.2 9.45 27.225C9.39375 27.2438 8.99375 27.3188 8.5625 27.3875C7.975 27.4875 7.50625 27.525 6.6875 27.525C6.01875 27.525 5.45 27.5 5.21875 27.45C5.0125 27.4063 4.63125 27.3 4.375 27.2188C4.11875 27.1313 3.7375 26.9625 3.53125 26.8438C3.325 26.7188 2.98125 26.4438 2.7625 26.2313C2.54375 26.0125 2.28125 25.6688 2.15625 25.4375C2.0375 25.2125 1.8875 24.8063 1.8125 24.5313C1.725 24.1813 1.6875 23.8375 1.6875 23.375C1.6875 23.0125 1.71875 22.5375 1.75625 22.3125C1.81875 21.975 1.8125 21.9 1.74375 21.8813C1.69375 21.8688 1.53125 21.7313 1.375 21.5688C1.19375 21.3938 1.05 21.1625 0.98125 20.9688C0.91875 20.8 0.875 20.4875 0.875 20.2813C0.875 20.075 0.9125 19.7813 0.96875 19.625C1.01875 19.4688 1.18125 19.2063 1.325 19.0438C1.4875 18.8625 1.73125 18.6688 1.9375 18.575C2.175 18.4625 2.3875 18.4125 2.625 18.4125C2.8125 18.4125 3.0375 18.4313 3.125 18.4563C3.2625 18.4938 3.30625 18.4625 3.53125 18.1125C3.66875 17.8938 4.05 17.35 4.3875 16.9063C4.71875 16.4625 5 16.0813 5 16.0625C5 16.0438 4.73125 15.6688 4.4 15.2188C4.06875 14.7688 3.64375 14.15 3.45 13.8438C3.25625 13.5375 2.925 12.9313 2.7125 12.5C2.49375 12.0688 2.225 11.4375 2.10625 11.0938C1.9875 10.75 1.84375 10.2438 1.7875 9.96875C1.7375 9.69375 1.675 9.25625 1.65 9C1.625 8.73125 1.64375 8.31875 1.6875 8.03125C1.73125 7.75625 1.825 7.3625 1.9 7.15625C1.98125 6.95 2.15625 6.6125 2.29375 6.40625C2.43125 6.2 2.70625 5.88125 2.9125 5.7C3.1125 5.51875 3.50625 5.2625 3.78125 5.125C4.05625 4.9875 4.55625 4.8125 5.49375 4.59375L5.5875 4.34375C5.6375 4.20625 5.8 3.95625 5.95 3.79375C6.1 3.625 6.35625 3.41875 6.53125 3.3375C6.76875 3.21875 6.95 3.18125 7.28125 3.175C7.5875 3.16875 7.8 3.20625 8 3.29375C8.15625 3.35625 8.40625 3.525 8.55625 3.6625C8.70625 3.79375 8.89375 4.03125 8.96875 4.1875C9.04375 4.34375 9.125 4.5375 9.14375 4.625C9.18125 4.76875 9.25 4.79375 10.075 4.9875C10.5688 5.1 10.9688 5.1875 10.975 5.175C10.975 5.1625 11.1 4.93125 11.25 4.65625C11.4 4.38125 11.6938 3.90625 11.9 3.59375C12.1063 3.2875 12.4875 2.80625 12.75 2.5375C13.0063 2.26875 13.3563 1.94375 13.5313 1.81875C13.7 1.6875 13.9563 1.51875 14.0938 1.4375C14.2313 1.35 14.5688 1.20625 14.8438 1.1125C15.2313 0.98125 15.4625 0.94375 15.8875 0.9375H15.8938ZM14.3625 2.36875C14.15 2.50625 13.7625 2.83125 13.5063 3.10625C13.2438 3.375 12.8938 3.80625 12.7188 4.0625C12.5438 4.31875 12.3 4.71875 12.175 4.95625C12.05 5.1875 11.9438 5.40625 11.9438 5.4375C11.9438 5.475 12.0188 5.51875 12.1125 5.5375C12.2125 5.55625 12.6813 5.73125 13.1625 5.91875C13.6438 6.10625 14.475 6.475 15.0063 6.725L15.975 7.1875C17.425 6.475 18.0813 6.175 18.3625 6.05625L18.875 5.84375C18.8813 5.2 18.925 5.00625 19.0375 4.78125C19.1188 4.6125 19.225 4.425 19.2688 4.36875C19.3375 4.28125 19.3063 4.2 19.0375 3.8375C18.8688 3.6 18.5563 3.23125 18.35 3.025C18.1438 2.8125 17.7938 2.525 17.5688 2.38125C17.3438 2.2375 16.9813 2.0625 16.7563 1.99375C16.5063 1.91875 16.1813 1.875 15.9125 1.875C15.65 1.875 15.3313 1.93125 15.1125 2C14.9188 2.06875 14.5813 2.2375 14.3625 2.36875ZM6.54375 4.51875C6.45625 4.6375 6.4125 4.7875 6.41875 4.95625C6.41875 5.1 6.475 5.3125 6.54375 5.43125C6.60625 5.55 6.74375 5.7 6.8375 5.775C6.9625 5.86875 7.10625 5.90625 7.3375 5.90625C7.575 5.90625 7.71875 5.86875 7.8625 5.76875C7.975 5.6875 8.1125 5.53125 8.16875 5.425C8.225 5.3125 8.26875 5.09375 8.26875 4.9375C8.2625 4.7625 8.21875 4.6 8.14375 4.5C8.08125 4.4125 7.93125 4.28125 7.8125 4.2C7.675 4.1125 7.50625 4.0625 7.34375 4.0625C7.1875 4.0625 7.0125 4.11875 6.88125 4.20625C6.76875 4.28125 6.6125 4.425 6.54375 4.51875ZM19.8938 5.10625C19.8313 5.2125 19.7875 5.39375 19.7875 5.59375C19.7875 5.825 19.8313 5.9625 19.9438 6.11875C20.0313 6.2375 20.2188 6.3875 20.3625 6.45C20.5375 6.525 20.7 6.55 20.8313 6.525C20.9438 6.5 21.1188 6.4375 21.2125 6.38125C21.3125 6.325 21.4438 6.2 21.5063 6.09375C21.575 5.9875 21.6313 5.79375 21.6313 5.64375C21.6313 5.49375 21.5938 5.3 21.5438 5.20625C21.5 5.10625 21.375 4.95625 21.2625 4.8625C21.1063 4.71875 21.0125 4.6875 20.7375 4.6875C20.5208 4.6875 20.3438 4.72917 20.2063 4.8125C20.1 4.88125 19.9563 5.0125 19.8938 5.10625ZM4.1 5.9625C3.85625 6.08125 3.525 6.3125 3.35625 6.48125C3.1875 6.64375 2.9875 6.9125 2.90625 7.08125C2.825 7.24375 2.7125 7.55 2.65625 7.76875C2.575 8.0625 2.5625 8.3125 2.5875 8.8125C2.6125 9.21875 2.6875 9.69375 2.7875 10.0625C2.88125 10.3875 3.05 10.8938 3.16875 11.1875C3.29375 11.4813 3.54375 12.0125 3.7375 12.375C3.925 12.7375 4.29375 13.3563 4.55 13.75C4.8125 14.1438 5.15 14.6375 5.30625 14.8438C5.4625 15.05 5.6 15.2313 5.6125 15.25C5.61875 15.2688 6.1875 14.7125 6.8625 14.025C7.54375 13.3313 8.33125 12.5563 8.6125 12.3063L9.13125 11.8438C9.38125 10.3438 9.55625 9.5125 9.66875 9.03125C9.7875 8.55 9.95625 7.91875 10.05 7.625C10.1375 7.33125 10.2875 6.875 10.3875 6.6125C10.4875 6.34375 10.5625 6.1125 10.55 6.09375C10.5438 6.075 10.3 6 10.0063 5.91875C9.7125 5.8375 9.3875 5.75 9.2875 5.73125C9.11875 5.7 9.0875 5.71875 8.975 5.91875C8.90625 6.04375 8.70625 6.26875 8.5375 6.41875C8.325 6.60625 8.1125 6.73125 7.88125 6.79375C7.675 6.85 7.4125 6.88125 7.225 6.8625C7.05 6.84375 6.7875 6.775 6.63125 6.70625C6.475 6.6375 6.2375 6.4875 6.1 6.3625C5.9625 6.24375 5.78125 5.99375 5.69375 5.81875C5.60625 5.64375 5.525 5.5 5.50625 5.5C5.4875 5.50625 5.2625 5.5625 5.00625 5.63125C4.75 5.69375 4.3375 5.84375 4.1 5.9625ZM10.875 8.2375C10.775 8.60625 10.5875 9.35 10.4688 9.89375C10.35 10.4438 10.2813 10.875 10.3188 10.875C10.35 10.875 10.6688 10.6563 11.0188 10.3875C11.375 10.1188 12.0125 9.6625 12.4438 9.3625C12.875 9.06875 13.5313 8.6375 13.9125 8.40625C14.2875 8.175 14.6813 7.93125 14.7875 7.86875L14.975 7.7625C14.1 7.35625 13.4 7.0625 12.85 6.84375C12.3 6.625 11.7813 6.43125 11.6938 6.40625C11.5375 6.36875 11.5188 6.39375 11.3 6.9625C11.175 7.29375 10.9813 7.8625 10.875 8.2375ZM17.3688 7.5C17.1438 7.60625 16.95 7.7125 16.95 7.725C16.9438 7.7375 17.2625 7.9375 17.6438 8.16875C18.0313 8.39375 18.7563 8.85625 19.2563 9.19375C19.7563 9.53125 20.4875 10.0438 20.8813 10.3313C21.275 10.625 21.6063 10.8563 21.6188 10.8563C21.6313 10.85 21.5813 10.5188 21.5063 10.125C21.4313 9.73125 21.3188 9.18125 21.2438 8.90625C21.175 8.63125 21.0563 8.19375 20.975 7.9375L20.825 7.46875C20.3125 7.40625 20.05 7.3375 19.9125 7.275C19.775 7.20625 19.5625 7.05 19.4375 6.925C19.3188 6.79375 19.2063 6.6875 19.1875 6.6875C19.175 6.6875 18.85 6.825 18.475 6.99375C18.0938 7.1625 17.6 7.3875 17.3688 7.5ZM13.6438 9.64375C13.2063 9.93125 12.525 10.3938 12.1313 10.6813C11.7375 10.9688 11.1 11.4625 10.7125 11.775L10.0125 12.3438C9.8875 13.75 9.85 14.9875 9.85 16C9.85 17.0313 9.8875 18.2438 9.93125 18.75L10.0125 19.6563C11.2938 20.6813 11.8563 21.1188 12.1 21.2938C12.3375 21.4688 12.9438 21.875 13.4438 22.2063C13.9438 22.5313 14.7 23 15.1313 23.2438C15.5625 23.4875 15.9375 23.6875 15.975 23.6875C16.0063 23.6875 16.4313 23.4563 16.9125 23.1688C17.3938 22.8875 18.25 22.3375 18.8188 21.9563C19.3875 21.5688 20.1563 21.0125 20.5375 20.7188C20.9125 20.425 21.3625 20.0625 21.5375 19.9125L21.85 19.6438C22.0063 18.1188 22.0375 17.1375 22.0375 16C22.0375 15.0063 22 13.8188 21.95 13.3125C21.9063 12.8125 21.8438 12.3563 21.8125 12.3C21.7813 12.2375 21.2438 11.8063 20.6125 11.3375C19.9875 10.8625 19.0375 10.1938 18.5063 9.84375C17.975 9.49375 17.1875 9.00625 16.7563 8.75625C16.325 8.5125 15.9438 8.3125 15.9125 8.3125C15.875 8.3125 15.5313 8.49375 15.1438 8.71875C14.7625 8.94375 14.0875 9.35625 13.6438 9.64375ZM22.975 18.6688C23.7313 17.9813 24.3063 17.3938 24.7438 16.9188C25.1813 16.4438 25.5625 16.0063 25.5875 15.95C25.6313 15.8625 25.3875 15.5875 24.4 14.6063C23.7188 13.925 23.1188 13.3438 23.0688 13.3125C22.9875 13.2688 22.975 13.5813 22.975 15.9625V18.6688ZM6.58125 15.7375L6.31875 16.0688C7.55625 17.3875 8.1375 17.9813 8.4125 18.2313C8.6875 18.4875 8.93125 18.6938 8.95625 18.6938C8.9875 18.6938 8.9875 18.5875 8.9625 18.4563C8.9375 18.325 8.91875 17.2375 8.91875 16.0375C8.9125 14.8313 8.93125 13.7438 8.95625 13.6125C8.98125 13.4583 8.96875 13.3792 8.91875 13.375C8.88125 13.375 8.4 13.8375 7.85 14.3938C7.3 14.9563 6.73125 15.5563 6.58125 15.7375ZM4.7 18.1313C4.1375 18.9688 4.13125 18.975 4.25 19.1C4.31875 19.1688 4.43125 19.3563 4.5 19.5188C4.58125 19.7063 4.63125 19.9625 4.6375 20.2063C4.64375 20.4188 4.6125 20.7125 4.56875 20.85C4.53125 20.9875 4.4 21.2313 4.28125 21.3938C4.1625 21.5563 3.9625 21.7625 3.83125 21.8438C3.70625 21.9313 3.4125 22.05 3.18125 22.1125C2.825 22.2063 2.75625 22.2438 2.73125 22.3813C2.7125 22.4625 2.675 22.8 2.65625 23.1313C2.63125 23.4875 2.64375 23.8688 2.6875 24.1C2.725 24.3063 2.83125 24.625 2.91875 24.8188C3.00625 25.0063 3.16875 25.275 3.28125 25.4125C3.39375 25.55 3.6375 25.7625 3.825 25.8875C4.0125 26.0188 4.35625 26.1938 4.6 26.2875C4.8375 26.375 5.31875 26.4938 5.6625 26.5438C6.1125 26.6125 6.525 26.6313 7.13125 26.6063C7.59375 26.5875 8.225 26.525 8.5375 26.475C8.84375 26.4188 9.175 26.3625 9.26875 26.3438C9.38125 26.325 9.44375 26.275 9.44375 26.2063C9.44375 26.1438 9.49375 25.9563 9.55 25.7875C9.6125 25.6 9.78125 25.3438 9.95 25.1625L10.2438 24.85C9.86875 23.5875 9.6875 22.9125 9.60625 22.5375C9.51875 22.1563 9.3875 21.4563 9.30625 20.9813L9.1625 20.1188C8.19375 19.2813 7.4125 18.5375 6.8 17.925C6.19375 17.3188 5.68125 16.8188 5.675 16.8188C5.6625 16.8188 5.5625 16.9188 5.4625 17.05C5.35625 17.1813 5.01875 17.6625 4.7 18.1313ZM2.2375 19.5188C2.14375 19.5813 2.025 19.7188 1.9625 19.8313C1.90625 19.9438 1.8625 20.15 1.85625 20.2875C1.85625 20.425 1.9125 20.6313 1.98125 20.7563C2.05 20.875 2.20625 21.025 2.325 21.0938C2.44375 21.1625 2.65 21.2188 2.7875 21.2188C2.93125 21.2125 3.13125 21.1625 3.25625 21.0813C3.375 21.0125 3.525 20.8625 3.58125 20.7563C3.64375 20.65 3.69375 20.4375 3.69375 20.2688C3.69375 20.0938 3.65 19.9063 3.58125 19.8063C3.525 19.7125 3.40625 19.5875 3.31875 19.525C3.23125 19.4688 3.075 19.4 2.96875 19.3813C2.8625 19.3563 2.69375 19.3563 2.59375 19.375C2.49375 19.4 2.3375 19.4625 2.2375 19.5188ZM10.475 22.2563C10.5938 22.7875 10.7813 23.5188 10.9 23.8813L11.1063 24.5375C11.6813 24.5938 11.9625 24.6688 12.1 24.7375C12.2375 24.8063 12.4188 24.9375 12.5063 25.0313C12.5938 25.1188 12.6875 25.1938 12.725 25.1938C12.7563 25.1938 13.0938 25.0563 13.475 24.8875C13.85 24.7188 14.3438 24.4938 14.5688 24.3813L14.975 24.1813C14.15 23.7188 13.675 23.4375 13.3813 23.2563C13.0875 23.075 12.5375 22.7125 12.1625 22.4563C11.7813 22.1938 11.2 21.7813 10.8688 21.525C10.4188 21.1875 10.2563 21.0938 10.2563 21.175C10.2563 21.2375 10.3563 21.7188 10.475 22.2563ZM19.0688 22.9125C18.5375 23.2625 17.8688 23.6875 17.5813 23.8563C17.3 24.025 17.0625 24.175 17.0625 24.1938C17.0625 24.2063 17.3563 24.3688 17.7063 24.5438C18.0625 24.7188 18.7438 25.0188 19.225 25.2063C19.7063 25.4 20.1625 25.5688 20.2375 25.5875C20.3625 25.625 20.4 25.5875 20.5 25.3625C20.5625 25.2188 20.7438 24.7063 20.9 24.225C21.05 23.7438 21.2813 22.9 21.4063 22.35C21.5313 21.8 21.6438 21.2813 21.6563 21.2063C21.6625 21.1313 21.6563 21.0688 21.6375 21.0688C21.6188 21.0688 21.25 21.3375 20.8188 21.6688C20.3875 22 19.6 22.5563 19.0688 22.9125ZM28.4563 24.3563C28.3563 24.4813 28.3188 24.625 28.3188 24.85C28.325 25.0438 28.3688 25.2313 28.4438 25.35C28.5063 25.45 28.6563 25.5875 28.7688 25.6563C28.8813 25.725 29.0875 25.775 29.225 25.775C29.3625 25.775 29.575 25.7188 29.6938 25.65C29.8125 25.5813 29.9688 25.4313 30.0313 25.3125C30.1 25.1938 30.1563 24.9875 30.1563 24.85C30.15 24.7125 30.1063 24.5063 30.05 24.3938C29.9875 24.2813 29.85 24.1375 29.7375 24.0688C29.6125 23.9875 29.425 23.9438 29.225 23.9438C29.0167 23.9438 28.8583 23.9833 28.75 24.0625C28.6625 24.125 28.525 24.2563 28.4563 24.3563ZM13.9125 25.75L13.1625 26.0688C13.1563 26.7188 13.1063 26.95 13.0125 27.1625C12.9375 27.3313 12.8125 27.5375 12.7375 27.6125L12.6 27.7563C12.9875 28.3125 13.2938 28.6688 13.5375 28.9125C13.775 29.1625 14.1313 29.4625 14.3188 29.5875C14.5063 29.7125 14.8188 29.875 15.0063 29.9438C15.1938 30.0188 15.5313 30.0938 15.7563 30.1125C16.0313 30.1313 16.2938 30.1125 16.5688 30.0375C16.7938 29.9813 17.1438 29.8438 17.35 29.7375C17.5813 29.6125 17.95 29.3188 18.2938 28.975C18.6063 28.6625 19 28.2 19.175 27.9438C19.3438 27.6813 19.6063 27.2563 19.7438 26.9875C19.975 26.5563 19.9938 26.5 19.8938 26.4625C19.8375 26.4438 19.3938 26.275 18.9125 26.0813C18.4313 25.8938 17.575 25.5188 17.0063 25.2438C16.4375 24.975 15.975 24.75 15.975 24.7563C15.975 24.7563 15.6813 24.9125 15.3188 25.0938C14.9563 25.275 14.325 25.5688 13.9125 25.75ZM10.525 25.95C10.425 26.0938 10.3813 26.2438 10.3813 26.4438C10.3813 26.6125 10.4313 26.8063 10.5063 26.925C10.575 27.0375 10.725 27.1875 10.8313 27.2563C10.95 27.325 11.1438 27.375 11.2875 27.375C11.4313 27.375 11.6375 27.3125 11.775 27.2375C11.9313 27.1438 12.0563 27 12.1438 26.8188C12.2375 26.6188 12.2625 26.4688 12.2375 26.3188C12.2125 26.1938 12.1438 26.0313 12.0875 25.95C12.025 25.8688 11.9063 25.7438 11.8188 25.6813C11.7313 25.6125 11.5375 25.5438 11.3813 25.525C11.175 25.5063 11.0438 25.525 10.8875 25.6188C10.7688 25.6875 10.6063 25.8375 10.525 25.95ZM16.5375 10.8C16.7063 10.8125 16.9625 10.8563 17.1 10.8938C17.2375 10.925 17.475 11.0188 17.6313 11.0938C17.7875 11.175 18.05 11.3688 18.225 11.5188C18.3938 11.675 18.625 11.95 18.7375 12.1375C18.85 12.3188 18.9813 12.625 19.1188 13.1625L19.5188 13.2875C19.7375 13.3563 20.0688 13.5063 20.25 13.6313C20.4375 13.75 20.6813 13.9625 20.7875 14.1C20.9 14.2375 21.0563 14.475 21.1313 14.6313C21.2125 14.7813 21.3125 15.05 21.3563 15.225C21.4063 15.3938 21.4438 15.7375 21.4438 15.9875C21.4438 16.25 21.3938 16.5938 21.3313 16.8C21.2688 17 21.1438 17.2875 21.0563 17.4438C20.9688 17.5938 20.7563 17.85 20.5938 18.0063C20.425 18.1688 20.175 18.35 20.0375 18.425C19.9 18.4938 19.6625 18.5875 19.5063 18.6313C19.35 18.675 19.1875 18.7438 19.1438 18.7813C19.1063 18.8188 19.0563 18.9313 19.0375 19.0375C19.025 19.1375 18.925 19.3938 18.825 19.6C18.7125 19.8188 18.4938 20.1125 18.275 20.325C18.075 20.5125 17.7938 20.7313 17.6438 20.8063C17.5 20.8813 17.2188 20.9813 17.0188 21.0375C16.825 21.0875 16.5188 21.1313 16.35 21.1313C16.175 21.1313 15.8688 21.0875 15.6625 21.0313C15.4563 20.975 15.1625 20.8625 15.0063 20.7813C14.85 20.7 14.5625 20.4688 14.3625 20.2688C14.1438 20.0563 13.925 19.7625 13.8188 19.5375C13.725 19.3313 13.625 19.075 13.6063 18.975C13.5688 18.8 13.5438 18.7813 13.2063 18.7375C13.0063 18.7125 12.6625 18.6063 12.4125 18.4813C12.1188 18.3375 11.8625 18.1438 11.6313 17.9C11.4375 17.7 11.2125 17.3813 11.1188 17.1938C11.0313 17 10.9188 16.6625 10.8813 16.4438C10.8375 16.2063 10.825 15.8875 10.85 15.6938C10.875 15.5 10.95 15.1938 11.025 15.0063C11.0938 14.8125 11.2188 14.5563 11.3 14.425C11.375 14.2938 11.575 14.0625 11.7375 13.9063C11.9063 13.75 12.2063 13.5375 12.4125 13.4375C12.6188 13.3375 12.9625 13.2188 13.5625 13.1L13.6375 12.8188C13.675 12.6625 13.7625 12.425 13.8313 12.2875C13.9 12.15 14.0625 11.9125 14.1875 11.7563C14.3125 11.6063 14.5375 11.4 14.6938 11.2938C14.85 11.1875 15.1125 11.05 15.2875 10.9813C15.4563 10.9188 15.7375 10.8438 15.9125 10.8188C16.0813 10.7875 16.3625 10.7813 16.5375 10.8ZM15.4875 11.9625C15.3625 12.0188 15.1375 12.1875 14.9938 12.3313C14.85 12.475 14.675 12.725 14.6125 12.8813C14.5438 13.0313 14.475 13.3313 14.4563 13.5375C14.4375 13.8313 14.4625 14.0125 14.5938 14.3938C14.7438 14.8438 14.75 14.8938 14.6625 15.0688C14.6063 15.175 14.5063 15.2688 14.4125 15.2875C14.325 15.3 14.1875 15.2875 14.1 15.2563C14.0125 15.2188 13.8875 15.1 13.8188 14.9875C13.75 14.875 13.65 14.6375 13.6 14.4563C13.5375 14.25 13.475 14.1313 13.4125 14.1313C13.3625 14.1313 13.1688 14.1813 12.9875 14.25C12.8125 14.3188 12.5375 14.4813 12.3875 14.6125C12.2375 14.7438 12.0438 14.975 11.95 15.1313C11.8313 15.3438 11.7875 15.525 11.7625 15.9125C11.7375 16.35 11.7563 16.45 11.8938 16.7563C11.9938 16.9688 12.1875 17.2125 12.3938 17.4C12.6125 17.6 12.8313 17.7313 13.0375 17.7875C13.2063 17.8375 13.3875 17.8813 13.425 17.8813C13.4688 17.8813 13.55 17.7313 13.6063 17.55C13.6625 17.3688 13.7813 17.0938 13.8688 16.9438C13.9563 16.7875 14.1313 16.55 14.2563 16.4188C14.375 16.2875 14.6125 16.0938 14.7875 15.9813C14.9563 15.875 15.2563 15.7438 15.4438 15.6875C15.6313 15.6313 16.0125 15.5625 16.2875 15.5375C16.5875 15.5125 16.9125 15.4375 17.1 15.3563C17.2688 15.275 17.5188 15.1125 17.6438 14.9813C17.775 14.8563 17.9438 14.6313 18.0188 14.4875C18.1063 14.3125 18.1625 14.0625 18.1813 13.7563C18.2063 13.35 18.1938 13.2375 18.0563 12.9438C17.975 12.75 17.8063 12.4875 17.6875 12.3563C17.5688 12.225 17.3313 12.05 17.1625 11.9688C16.9875 11.8813 16.6875 11.8063 16.475 11.7875C16.2688 11.775 16.0125 11.7813 15.9125 11.8125C15.8063 11.8375 15.6188 11.9063 15.4875 11.9625ZM18.6188 15.2188C18.5063 15.3875 18.2938 15.625 18.15 15.75L17.8875 15.975C18.4688 16.5813 18.7125 16.925 18.8188 17.1438C18.9188 17.3563 19.0063 17.5813 19.0063 17.6438C19.0063 17.7063 19.0438 17.7688 19.0813 17.7875C19.125 17.8125 19.2875 17.7625 19.4438 17.6875C19.6 17.6125 19.8188 17.4625 19.9313 17.3563C20.05 17.25 20.2188 17.0188 20.3063 16.85C20.45 16.5813 20.475 16.4563 20.475 16.0063C20.475 15.6 20.4438 15.4063 20.3438 15.1938C20.275 15.0375 20.1063 14.8 19.9688 14.6625C19.8375 14.5313 19.6125 14.3688 19.475 14.3063C19.3375 14.2438 19.1938 14.1938 19.1563 14.1938C19.1125 14.1938 19.025 14.35 18.9563 14.55C18.8813 14.75 18.7313 15.05 18.6188 15.2188ZM14.9813 17.0375C14.8438 17.175 14.6688 17.425 14.5875 17.6C14.4875 17.8188 14.4438 18.025 14.4438 18.3188C14.4438 18.5375 14.4813 18.85 14.5375 19.0063C14.5875 19.1563 14.75 19.4188 14.8938 19.5875C15.05 19.7625 15.3063 19.9563 15.5063 20.0563C15.7813 20.1875 15.9375 20.2188 16.2875 20.2188C16.6 20.2188 16.8125 20.175 17.0375 20.075C17.2063 20 17.4688 19.8188 17.6188 19.675C17.7625 19.525 17.9438 19.2688 18.0188 19.1C18.1063 18.8813 18.15 18.65 18.1563 18.35C18.1563 18 18.125 17.8375 17.9938 17.5688C17.9 17.3625 17.7063 17.1125 17.525 16.9563C17.3625 16.8063 17.1 16.6438 16.9438 16.5938C16.7875 16.5438 16.4813 16.5 16.2563 16.5063C15.9688 16.5063 15.7625 16.5438 15.5375 16.65C15.3625 16.7313 15.1125 16.9063 14.9813 17.0375Z" fill="#049AFA"/>
</g>
<defs>
<clipPath id="clip0_106_682">
<rect width="32" height="32" fill="white"/>
</clipPath>
</defs>
</svg>
