<svg width="36" height="36" viewBox="0 0 36 36" fill="none" xmlns="http://www.w3.org/2000/svg">
<g id="file - 2023-10-19T223833.585 1" clip-path="url(#clip0_106_686)">
<path id="Path 0" fill-rule="evenodd" clip-rule="evenodd" d="M8.63438 0.351562C8.97188 0.351562 9.16875 0.400781 9.51328 0.555469C9.75938 0.667969 10.0758 0.892969 10.2445 1.06172C10.4062 1.23047 10.6102 1.53281 10.6945 1.72266C10.807 1.96875 10.8492 2.21484 10.8562 2.56641C10.8562 2.94609 10.8211 3.14297 10.6805 3.44531C10.582 3.65625 10.4062 3.94453 10.2867 4.07812C10.1672 4.21172 9.9 4.41563 9.69609 4.52813C9.39375 4.69688 9.20391 4.74609 8.78906 4.76719C8.37422 4.78828 8.17734 4.76016 7.875 4.64766C7.66406 4.57031 7.34766 4.3875 7.17891 4.23984C7.00312 4.08516 6.79219 3.79688 6.67266 3.55078C6.51094 3.22734 6.46172 3.02344 6.46172 2.67188C6.45469 2.41875 6.50391 2.05313 6.56016 1.86328C6.63047 1.65234 6.80625 1.36406 7.01016 1.13203C7.23516 0.871875 7.48828 0.682031 7.76953 0.555469C8.08594 0.407813 8.30391 0.358594 8.63438 0.351562ZM7.95937 1.77891C7.86797 1.86328 7.74844 2.01797 7.69219 2.12344C7.63594 2.23594 7.59375 2.45391 7.59375 2.61563C7.59375 2.8125 7.64297 3.00234 7.74844 3.16406C7.83984 3.29766 8.02266 3.46641 8.15625 3.52969C8.28984 3.6 8.51484 3.65625 8.64844 3.65625C8.78203 3.65625 9.00703 3.6 9.14062 3.52969C9.27422 3.46641 9.45703 3.29766 9.54844 3.16406C9.66094 2.98828 9.70312 2.81953 9.70312 2.56641C9.70312 2.32031 9.65391 2.14453 9.54141 1.98984C9.45703 1.86328 9.30937 1.72266 9.21094 1.65938C9.1125 1.60312 8.92266 1.53984 8.78906 1.51875C8.65547 1.50469 8.45156 1.51172 8.33203 1.55391C8.2125 1.58906 8.04375 1.6875 7.95937 1.77891ZM26.7539 8.57812C29.6297 8.57812 29.6367 8.57812 29.9531 8.73984C30.1852 8.85938 30.3117 8.98594 30.5859 9.52734V22.5L33.2648 27.8648C35.2125 31.7531 35.9508 33.307 35.9789 33.5391C36 33.7148 35.9789 34.0102 35.9367 34.207C35.8875 34.3969 35.7469 34.6992 35.6203 34.875C35.4797 35.0789 35.2406 35.2758 34.5586 35.6414L18.9844 35.6484L18.2461 35.2828L17.4375 35.6484H4.5L4.06406 35.4445C3.80391 35.318 3.50156 35.107 3.32578 34.9172C3.15703 34.7414 2.95312 34.4461 2.70703 33.9258L2.63672 20.5664L1.37813 18.668C0.689063 17.6273 0.0914062 16.6992 0.0632812 16.6078C0.028125 16.5234 0 16.3336 0 16.1859C0 16.0453 0.0632812 15.7922 0.140625 15.6234C0.239063 15.4266 0.379688 15.2719 0.878906 14.9766H18.3867L18.6328 15.1242C18.7664 15.2086 18.9211 15.3281 18.9703 15.3914C19.0195 15.4547 19.0969 15.5813 19.1461 15.6797C19.2094 15.8133 19.2375 17.55 19.3008 29.707L22.9219 22.5V9.52734L23.0836 9.21094C23.2031 8.98594 23.3438 8.84531 23.5617 8.73281C23.8641 8.57812 23.8992 8.57812 26.7539 8.57812ZM24.0328 10.8773L24.0469 11.9531C25.7977 11.9883 25.8188 11.9953 25.9875 12.1781C26.0789 12.2906 26.1562 12.4523 26.1562 12.5508C26.1562 12.6492 26.0789 12.8109 25.9875 12.9164C25.8188 13.1062 25.7977 13.1133 24.9328 13.1273L24.0469 13.1484L24.082 15.7148C26.4234 15.7781 27.1125 15.7992 27.1266 15.8063C27.1336 15.8133 27.1898 15.9328 27.2461 16.0664C27.3305 16.2703 27.3375 16.3477 27.2672 16.5023C27.218 16.6078 27.0984 16.7344 27 16.7836C26.8734 16.8469 26.4164 16.875 25.4391 16.875H24.0469L24.082 19.4414C25.868 19.4766 25.875 19.4766 26.0156 19.6664C26.1 19.7789 26.1633 19.9336 26.1562 20.018C26.1562 20.1094 26.0648 20.2781 25.9523 20.3906L25.7484 20.6016H24.0469V22.7812C19.8492 31.1766 18.6328 33.6727 18.6328 33.75C18.6328 33.8273 18.682 33.9891 18.7383 34.1016C18.7945 34.2211 18.9492 34.3617 19.0898 34.418C19.3008 34.5094 20.3133 34.5234 26.7539 34.5234C33.1945 34.5234 34.207 34.5094 34.418 34.418C34.5586 34.3617 34.7133 34.2211 34.7695 34.1016C34.8258 33.9891 34.875 33.8273 34.875 33.75C34.875 33.6727 33.6656 31.1977 32.1891 28.2445L29.4961 22.8867L29.4258 9.73828C25.3336 9.71016 24.1172 9.72422 24.082 9.75234C24.0469 9.77344 24.0258 10.2797 24.0328 10.8773ZM2.46094 18.2461L3.79688 20.25L3.83203 22.1836C6.44766 22.2539 6.56016 22.268 6.65156 22.3945C6.70781 22.4719 6.75 22.6336 6.75703 22.7461C6.75703 22.8586 6.69375 23.0344 6.61641 23.1328C6.48281 23.3086 6.47578 23.3086 5.13984 23.3227L3.79688 23.3438V26.0859C6.87656 26.0859 7.79766 26.1141 7.93125 26.1562C8.05078 26.1914 8.19141 26.2898 8.22656 26.3672C8.26875 26.4445 8.29688 26.5852 8.29688 26.6836C8.29688 26.782 8.26875 26.9227 8.22656 27C8.19141 27.0773 8.05078 27.1758 7.93125 27.2109C7.79766 27.2531 6.87656 27.2812 5.75156 27.2812H3.79688V30.0234C6.47578 30.0586 6.48281 30.0586 6.61641 30.2344C6.69375 30.3328 6.75703 30.5086 6.75703 30.6211C6.75 30.7336 6.70781 30.8953 6.65156 30.9727C6.56016 31.0992 6.44766 31.1133 5.18906 31.1484L3.83203 31.1836C3.80391 32.8711 3.825 33.4758 3.86016 33.6094C3.90234 33.743 4.00078 33.9469 4.09219 34.0594C4.18359 34.1719 4.38047 34.3266 4.53516 34.3969C4.80234 34.5094 5.19609 34.5234 10.9688 34.5164C15.6023 34.5164 17.1703 34.4953 17.325 34.432C17.5289 34.3477 17.5359 34.3336 17.5359 33.8203C17.543 33.3633 17.5781 33.2227 17.8102 32.7445L18.0703 32.2031V16.1016C4.08516 16.1016 1.18828 16.1227 1.16016 16.1719C1.13906 16.2141 1.72969 17.1422 2.46094 18.2461ZM26.8242 1.56094C27.1969 1.575 27.4781 1.63125 27.668 1.72266C27.8227 1.8 28.0758 1.98984 28.2234 2.14453C28.3781 2.29922 28.568 2.56641 28.6383 2.74219C28.7156 2.91797 28.793 3.24844 28.807 3.48047C28.8352 3.80391 28.807 4.00078 28.6805 4.32422C28.575 4.59844 28.4133 4.85859 28.2023 5.0625C27.9867 5.27812 27.75 5.42812 27.4922 5.5125C27.2812 5.58281 26.9648 5.64609 26.7891 5.64609C26.6133 5.65313 26.332 5.61094 26.1562 5.56875C25.9805 5.51953 25.6852 5.35781 25.4883 5.21719C25.2492 5.03437 25.0734 4.82344 24.9258 4.53516C24.7922 4.26797 24.7078 3.97969 24.6867 3.73359C24.6727 3.49453 24.7078 3.19922 24.7711 2.98828C24.8344 2.79844 24.9891 2.49609 25.1227 2.32031C25.2773 2.10938 25.5023 1.92656 25.8117 1.77188C26.2336 1.55391 26.3039 1.53984 26.8242 1.56094ZM25.9312 3.18516C25.8609 3.32578 25.8047 3.50859 25.8047 3.58594C25.8047 3.66328 25.8539 3.83906 25.9102 3.97266C25.9664 4.10625 26.1211 4.28203 26.2477 4.35938C26.3742 4.43672 26.5992 4.5 26.7539 4.5C26.9086 4.5 27.1336 4.43672 27.2672 4.35938C27.3867 4.28203 27.5414 4.10625 27.5977 3.97266C27.6539 3.83906 27.7031 3.66328 27.7031 3.58594C27.7031 3.50859 27.6469 3.32578 27.5836 3.18516C27.5133 3.04453 27.3586 2.86875 27.2461 2.79844C27.1336 2.72812 26.9086 2.67188 26.7539 2.67188C26.5992 2.67188 26.3742 2.72812 26.2617 2.79844C26.1492 2.86875 25.9945 3.04453 25.9312 3.18516ZM12.832 7.38984C12.9094 7.38281 13.1625 7.41797 13.3945 7.46016C13.6266 7.50234 13.9852 7.62188 14.1961 7.72031C14.4 7.82578 14.7305 8.07188 14.9203 8.26172C15.1102 8.45859 15.3703 8.81719 15.4898 9.07031C15.6938 9.49219 15.7148 9.58359 15.7148 10.2305C15.7078 10.8141 15.6797 11.0039 15.5391 11.3555C15.4336 11.6227 15.2297 11.925 14.9766 12.1922C14.7656 12.4172 14.4211 12.6914 14.2031 12.7969C13.9922 12.9094 13.6125 13.0289 13.3594 13.0781C13.0078 13.1414 12.7969 13.1414 12.4453 13.0781C12.1922 13.0289 11.8125 12.9094 11.6016 12.7969C11.3836 12.6914 11.0461 12.4242 10.8281 12.1922C10.575 11.925 10.3711 11.6227 10.2656 11.3555C10.125 11.0109 10.0969 10.807 10.0969 10.2656C10.0969 9.72422 10.125 9.52031 10.2656 9.17578C10.3711 8.90859 10.575 8.60625 10.8281 8.33906C11.0391 8.11406 11.3766 7.84687 11.5664 7.74844C11.7633 7.65 12.0938 7.53047 12.3047 7.48125C12.5156 7.43203 12.7547 7.38984 12.832 7.38984ZM11.6508 9.1125C11.4961 9.26719 11.3414 9.53438 11.2711 9.73828C11.2078 9.94219 11.1727 10.2234 11.1937 10.4062C11.2148 10.582 11.2852 10.8492 11.3625 11.0039C11.4328 11.1516 11.5945 11.3695 11.707 11.4891C11.8266 11.6016 12.0445 11.7492 12.1992 11.8195C12.368 11.8969 12.6492 11.9531 12.9023 11.9531C13.2117 11.9531 13.4227 11.9109 13.6758 11.7844C13.8727 11.693 14.1117 11.4961 14.2242 11.3625C14.3297 11.2219 14.4633 10.9758 14.5195 10.8141C14.5828 10.6453 14.625 10.3992 14.625 10.2656C14.625 10.132 14.5828 9.87891 14.5195 9.70312C14.4633 9.52734 14.3016 9.26016 14.1539 9.1125C14.0063 8.95781 13.7602 8.775 13.6055 8.70469C13.4367 8.63438 13.1555 8.57812 12.9023 8.57812C12.6492 8.57812 12.368 8.63438 12.1992 8.70469C12.0445 8.775 11.7984 8.95781 11.6508 9.1125Z" fill="#049AFA"/>
</g>
<defs>
<clipPath id="clip0_106_686">
<rect width="36" height="36" fill="white"/>
</clipPath>
</defs>
</svg>
