<svg width="32" height="32" viewBox="0 0 32 32" fill="none" xmlns="http://www.w3.org/2000/svg">
<g id="file - 2023-10-19T223858.754 1">
<path id="Path 0" fill-rule="evenodd" clip-rule="evenodd" d="M5.25012 1.00002C5.40637 1.00002 5.64387 1.04377 5.78137 1.10002C5.91887 1.15627 6.11262 1.26252 6.21887 1.33752C6.32512 1.41252 6.46887 1.57502 6.54387 1.69377C6.61887 1.81252 6.70637 2.03127 6.73762 2.18752C6.77512 2.35627 6.77512 2.59377 6.73762 2.78127C6.71262 2.95002 6.61262 3.20627 6.36262 3.59377L7.75012 4.96877L8.29387 4.42502C8.60012 4.12502 8.91262 3.85627 9.00012 3.82502C9.08762 3.79377 9.21262 3.78127 9.28137 3.79377C9.35012 3.80627 11.2126 5.62502 13.4189 7.83127C17.2189 11.625 17.4376 11.8563 17.4376 12.0625C17.4314 12.2563 17.3626 12.3563 16.2501 13.4688L16.5001 13.7188C16.6439 13.8563 16.8126 14.0938 16.8876 14.25C16.9751 14.4313 17.0189 14.65 17.0189 14.875C17.0126 15.0625 16.9689 15.3313 16.9064 15.4688C16.8501 15.6063 16.5626 15.9625 16.2626 16.2688C15.9626 16.5688 15.6001 16.8688 15.4564 16.9375C15.2814 17.0188 15.0564 17.0625 14.8314 17.0625C14.6064 17.0625 14.3689 17.0125 14.2189 16.9438C14.0814 16.875 13.8439 16.7125 13.4064 16.325L12.8126 16.9125C12.2939 17.425 12.1939 17.4938 12.0001 17.4938C11.8001 17.5 11.6689 17.3875 8.70012 14.4063L8.44387 14.9375C8.30637 15.2313 8.14387 15.6625 8.09387 15.9063C8.03137 16.15 7.98762 16.6063 7.98762 16.9375C7.98762 17.2688 8.03762 17.725 8.09387 17.9688C8.15012 18.2125 8.28762 18.6 8.40012 18.8438C8.51262 19.0875 8.73137 19.45 8.88762 19.6563C9.04387 19.8625 9.43137 20.25 10.3126 21H14.2689C17.1564 21 18.2876 21.025 18.4689 21.075C18.6189 21.125 18.8439 21.275 19.0314 21.4688C19.2251 21.6563 19.3751 21.8813 19.4251 22.0313C19.4626 22.1688 19.5001 22.3813 19.5001 22.5C19.5001 22.6188 19.4626 22.8313 19.4189 22.9625C19.3814 23.1 19.2439 23.325 19.1189 23.4625C19.0001 23.6063 18.7876 23.775 18.6501 23.8438C18.4251 23.9625 18.2501 23.9688 13.8689 24.0313L16.1564 25.9688L29.0939 26.0313L29.5001 26.2188C29.7251 26.325 30.0439 26.5375 30.2064 26.6875C30.4064 26.8688 30.5939 27.1313 30.7376 27.4313C30.9564 27.875 30.9689 27.9375 30.9689 28.5C30.9689 29.0625 30.9564 29.125 30.7376 29.5688C30.5939 29.8688 30.4064 30.1313 30.2064 30.3125C30.0439 30.4625 29.7001 30.6813 29.0001 31H3.00012L2.54387 30.7938C2.30012 30.6813 1.95637 30.4625 1.79387 30.3125C1.60012 30.1375 1.40637 29.8688 1.27512 29.5938C1.13137 29.2938 1.05012 29.025 1.01887 28.75C1.00012 28.5 1.01262 28.2125 1.06262 28C1.10637 27.8125 1.20012 27.5438 1.26887 27.4063C1.33137 27.2688 1.48137 27.0438 1.58762 26.9063C1.70012 26.7688 1.93137 26.5625 2.10012 26.45C2.26887 26.3375 2.53137 26.2063 2.68762 26.1625C2.84387 26.1125 3.03762 26.0563 3.28137 26L2.91887 24.9563C2.71887 24.375 2.48762 23.65 2.40637 23.3438C2.32512 23.0313 2.21262 22.4563 2.15637 22.0625C2.06887 21.4938 2.05637 21.0813 2.08137 20.0938C2.10637 19.1438 2.14387 18.6938 2.25012 18.2188C2.32512 17.875 2.48137 17.2813 2.60637 16.9063C2.72512 16.525 2.98137 15.8938 3.16887 15.5C3.35637 15.1063 3.71262 14.475 3.96887 14.0938C4.21887 13.7125 4.76887 13.0125 5.95012 11.6563L4.85012 10.5625C3.79387 9.50627 3.75012 9.46252 3.75637 9.21877C3.75637 8.98752 3.80012 8.92502 4.90637 7.80627L3.53137 6.43752L3.15637 6.62502C2.90012 6.75627 2.69387 6.81252 2.50012 6.81252C2.34387 6.81252 2.10637 6.77502 1.97512 6.73127C1.84387 6.69377 1.61887 6.55627 1.48137 6.43752C1.34387 6.31877 1.18137 6.11877 1.12512 6.00002C1.06262 5.88127 0.993868 5.66877 0.968868 5.53127C0.937618 5.36252 0.962618 5.15627 1.03137 4.90627C1.13137 4.53752 1.17512 4.49377 2.73762 2.91877C3.93762 1.71877 4.42512 1.26877 4.65637 1.15627C4.83762 1.06877 5.08762 1.00002 5.25012 1.00002ZM1.98762 5.34377C1.97512 5.52502 2.00012 5.60002 2.12512 5.69377C2.21262 5.76252 2.35637 5.81877 2.45012 5.81252C2.56887 5.81252 2.73762 5.71252 2.96887 5.50002C3.23762 5.25627 3.35637 5.18752 3.51262 5.18752C3.69387 5.18752 3.83762 5.31252 4.67512 6.14377L5.62512 7.09377L7.03137 5.68752C5.61262 4.25627 5.18137 3.77502 5.15637 3.68752C5.13137 3.59377 5.15012 3.45627 5.20637 3.34377C5.25637 3.23752 5.40637 3.05627 5.52512 2.93752C5.70637 2.76252 5.75012 2.67502 5.75012 2.48127C5.75012 2.30002 5.71262 2.21877 5.57512 2.12502C5.48137 2.05002 5.33762 1.99377 5.25012 2.00002C5.13762 2.00002 4.72512 2.37502 3.55012 3.55627C2.14387 4.97502 2.00012 5.13752 1.98762 5.34377ZM4.93762 9.21877L6.34387 10.625L10.5939 6.37502C9.52512 5.30627 9.20637 5.00002 9.18762 5.00002C9.16887 5.00002 8.20637 5.95002 7.04387 7.10627L4.93762 9.21877ZM7.06887 11.3438L12.0001 16.2813L12.6876 15.5938C12.4001 15.2813 12.2876 15.1188 12.2501 15.0313C12.2126 14.9375 12.2126 14.825 12.2501 14.7375C12.2814 14.6625 12.8439 14.0625 13.5001 13.4063C14.6689 12.2438 14.6939 12.225 14.8939 12.2688C15.0064 12.3 15.1939 12.4188 15.3126 12.5375L15.5314 12.75L16.2501 12.0313C12.4501 8.23127 11.3314 7.13127 11.3126 7.13127C11.3001 7.13127 10.3376 8.07502 9.17512 9.23752L7.06887 11.3438ZM6.35012 12.7313C6.17512 12.925 5.83762 13.3188 5.60012 13.5938C5.35637 13.875 5.00637 14.3438 4.81262 14.6313C4.61887 14.9188 4.33762 15.3938 4.19387 15.6875C4.04387 15.9813 3.83137 16.4688 3.71262 16.7813C3.59387 17.0875 3.42512 17.625 3.34387 17.9688C3.26262 18.3125 3.16887 18.8063 3.13137 19.0625C3.09387 19.3188 3.06262 19.95 3.06262 20.4688C3.06262 21.025 3.10012 21.6563 3.16262 22.0313C3.21262 22.375 3.33137 22.9063 3.41262 23.2188C3.50012 23.525 3.74387 24.275 3.96262 24.875L4.35012 25.9688L14.6314 26L12.2876 24H6.31887C6.00637 23.6875 6.00637 23.6813 6.00637 22.5C6.00637 21.325 6.00637 21.3125 6.15637 21.1563L6.31262 21L8.78762 21.0063C8.18137 20.3688 7.88137 19.9688 7.72512 19.7C7.56887 19.4375 7.36262 18.9563 7.25637 18.6375C7.15012 18.3188 7.04387 17.8063 7.01262 17.4813C6.97512 17.125 6.97512 16.7 7.01262 16.3563C7.04387 16.0563 7.14387 15.5813 7.23137 15.2938C7.31887 15.0125 7.49387 14.6 7.61262 14.375C7.73762 14.15 7.87512 13.9125 7.91887 13.8438C7.99387 13.7313 7.95012 13.6688 7.33137 13.05L6.66262 12.3813L6.35012 12.7313ZM13.4126 14.875C14.5251 15.9813 14.6251 16.0563 14.8189 16.0563C15.0064 16.0563 15.1001 16 15.5376 15.5563C15.9376 15.1563 16.0376 15.0188 16.0376 14.8688C16.0376 14.7188 15.9251 14.575 15.4439 14.0875C15.1189 13.7625 14.8314 13.4938 14.8189 13.4938C14.8001 13.4938 14.4751 13.8063 14.1001 14.1875L13.4126 14.875ZM7.00637 22.9938H18.2001C18.4439 22.7438 18.5064 22.6063 18.5064 22.4938C18.5064 22.375 18.4439 22.25 18.3501 22.15L18.1939 21.9938H7.00637V22.9938ZM2.46887 27.4625C2.28137 27.65 2.12512 27.875 2.08137 28.025C2.03762 28.1625 2.00637 28.375 2.00637 28.4938C2.00637 28.6125 2.03762 28.825 2.08137 28.9625C2.12512 29.1125 2.27512 29.3375 2.46887 29.525C2.66262 29.7188 2.88137 29.8688 3.03762 29.9188C3.22512 29.975 6.29387 29.9938 16.0064 29.9938C25.7126 29.9938 28.7814 29.975 28.9751 29.9188C29.1251 29.8688 29.3439 29.7188 29.5376 29.525C29.7314 29.3375 29.8814 29.1125 29.9251 28.9625C29.9689 28.825 30.0001 28.6125 30.0001 28.4938C30.0001 28.375 29.9689 28.1625 29.9251 28.025C29.8814 27.875 29.7314 27.65 29.5376 27.4625C29.3439 27.2688 29.1251 27.1188 28.9751 27.0688C28.7814 27.0125 25.7189 27 15.9751 27C6.86262 27.0063 3.16262 27.025 3.00637 27.075C2.88137 27.1125 2.64387 27.2875 2.46887 27.4625ZM25.5064 0.993774C25.6376 0.993774 25.8251 1.10627 26.1751 1.38752C26.4376 1.60002 26.8126 1.96252 27.0001 2.18752C27.1939 2.41252 27.4501 2.79377 27.5814 3.03127C27.7064 3.26877 27.8564 3.64377 27.9126 3.86877C27.9939 4.16877 28.0126 4.41252 27.9814 4.80627C27.9626 5.10002 27.9064 5.50627 27.8501 5.71252C27.7939 5.91877 27.6564 6.28752 27.5376 6.52502C27.4126 6.78127 27.1876 7.10002 26.9939 7.29377C26.8126 7.48127 26.5126 7.70002 26.0064 7.93127L26.0001 9.65002L26.4251 9.24377C26.6626 9.01877 27.0376 8.73127 27.2564 8.60002C27.4814 8.47502 27.8751 8.29377 28.1439 8.21252C28.4126 8.12502 28.8626 8.03752 29.1439 8.01252C29.6564 7.96877 29.6626 7.97502 30.0251 8.33752L29.9939 9.33752C29.9626 10.1625 29.9314 10.4188 29.8064 10.8063C29.7251 11.0625 29.5439 11.475 29.4126 11.7125C29.2626 11.9875 28.9814 12.3438 28.6626 12.6563C28.3501 12.9688 27.9939 13.25 27.7251 13.4C27.4814 13.5375 27.0751 13.7125 26.8189 13.8C26.4126 13.9313 26.2314 13.9563 25.5064 13.9563C24.7751 13.9563 24.5939 13.9313 24.1939 13.8C23.9314 13.7125 23.5251 13.5375 23.2876 13.4C23.0126 13.25 22.6564 12.9688 22.3439 12.6563C22.0251 12.3438 21.7439 11.9875 21.5939 11.7125C21.4626 11.475 21.2876 11.0625 21.2001 10.8063C21.0751 10.4188 21.0439 10.1625 20.9814 8.33752L21.1626 8.15627C21.3439 7.97502 21.3501 7.96877 21.8626 8.01252C22.1439 8.03752 22.5814 8.11877 22.8314 8.20002C23.0814 8.28127 23.4814 8.45627 23.7251 8.58752C23.9626 8.72502 24.3501 9.01877 25.0064 9.65002V7.93127L24.6751 7.78127C24.4939 7.69377 24.2001 7.47502 24.0189 7.29377C23.8189 7.10002 23.5939 6.78752 23.4689 6.52502C23.3501 6.28752 23.2064 5.90627 23.1501 5.68127C23.0751 5.41252 23.0376 5.04377 23.0376 4.58752C23.0439 4.01877 23.0689 3.83752 23.1876 3.52502C23.2689 3.31877 23.4501 2.96877 23.6001 2.74377C23.7439 2.51877 23.9876 2.20002 24.1376 2.03127C24.2876 1.86252 24.6189 1.56252 24.8689 1.36252C25.1939 1.10002 25.3814 0.993774 25.5064 0.993774ZM24.2314 3.61877C24.0501 3.98752 24.0376 4.07502 24.0376 4.61877C24.0376 5.08127 24.0751 5.31252 24.1876 5.65002C24.2751 5.89377 24.4251 6.21252 24.5314 6.36877C24.6376 6.51877 24.8189 6.71252 24.9439 6.79377C25.0626 6.87502 25.2314 6.95627 25.3189 6.97502C25.4001 6.99377 25.5564 6.99377 25.6626 6.96877C25.7626 6.95002 25.9439 6.86877 26.0689 6.79377C26.1876 6.71252 26.3814 6.50627 26.4939 6.33752C26.6064 6.16252 26.7626 5.83127 26.8376 5.58752C26.9314 5.27502 26.9751 4.98752 26.9751 4.58752C26.9751 4.08127 26.9501 3.98127 26.7751 3.61877C26.6501 3.36252 26.3876 3.00627 26.0751 2.66877C25.7939 2.36252 25.5439 2.11877 25.5126 2.11877C25.4814 2.11877 25.2251 2.36252 24.9439 2.66877C24.6126 3.01877 24.3564 3.35627 24.2314 3.61877ZM22.2001 10.6188C22.2814 10.8438 22.4251 11.1563 22.5189 11.325C22.6126 11.4875 22.8501 11.775 23.0501 11.9688C23.2501 12.1625 23.5501 12.4 23.7251 12.5C23.8939 12.5938 24.2064 12.7313 24.4126 12.8063C24.6189 12.875 24.8439 12.9313 24.9126 12.9313C25.0314 12.9313 25.0314 12.9063 24.9939 12.3563C24.9689 11.9938 24.8939 11.6188 24.8064 11.3688C24.7251 11.1438 24.5814 10.8313 24.4876 10.6688C24.3939 10.5 24.1626 10.2125 23.9751 10.025C23.7814 9.83752 23.4939 9.60627 23.3314 9.51252C23.1689 9.41877 22.8564 9.27502 22.6439 9.20002C22.4314 9.11877 22.1939 9.05627 22.1189 9.05627C21.9876 9.05627 21.9876 9.07502 22.0189 9.63752C22.0439 10.0063 22.1064 10.3563 22.2001 10.6188ZM27.7251 9.49377C27.5501 9.58752 27.2501 9.82502 27.0501 10.0188C26.8501 10.2125 26.6126 10.5 26.5189 10.6688C26.4251 10.8313 26.2814 11.1438 26.2001 11.3688C26.1126 11.6188 26.0376 11.9938 26.0126 12.3563C25.9751 12.925 25.9751 12.9313 26.1126 12.9313C26.1876 12.9313 26.4314 12.8688 26.6439 12.7875C26.8564 12.7125 27.1626 12.575 27.3189 12.4813C27.4689 12.3938 27.7564 12.1625 27.9564 11.9688C28.1564 11.775 28.3939 11.4875 28.4876 11.325C28.5814 11.1563 28.7251 10.8438 28.8064 10.6188C28.9064 10.3375 28.9626 10.0313 28.9751 9.63752C29.0064 9.06877 29.0001 9.05627 28.8626 9.06252C28.7876 9.06252 28.5689 9.11877 28.3814 9.18752C28.1876 9.25627 27.8939 9.39377 27.7251 9.49377ZM25.4751 15C29.3814 14.9938 29.7501 15 30.0314 15.1C30.2355 15.175 30.423 15.3084 30.5939 15.5C30.7314 15.6563 30.8814 15.8938 30.9251 16.0313C30.9814 16.2063 31.0001 16.9125 31.0001 18.4938C31.0001 20.0813 30.9814 20.7813 30.9251 20.9563C30.8814 21.0938 30.7314 21.3313 30.5939 21.4875C30.423 21.6792 30.2355 21.8125 30.0314 21.8875C29.7501 21.9875 29.3751 21.9938 25.5064 21.9938C22.4064 21.9938 21.2189 21.975 21.0376 21.9188C20.8814 21.8688 20.6626 21.7188 20.4689 21.525C20.2751 21.3375 20.1251 21.1125 20.0814 20.9625C20.0314 20.7875 20.0064 20.0375 20.0064 18.4938C20.0064 16.95 20.0314 16.2 20.0814 16.025C20.1251 15.875 20.2814 15.65 20.4689 15.4625C20.6439 15.2875 20.8814 15.1125 21.0064 15.075C21.1564 15.0313 22.5689 15.0063 25.4751 15ZM21.0126 16.3L21.0064 20.6813L21.3189 20.9938H29.7001L30.0064 20.6813V16.3063L29.6939 15.9938H21.3126L21.0126 16.3ZM22.0064 16.9938H23.0064V17.9938H22.0064V16.9938ZM24.0064 16.9938H29.0064V17.9938H24.0064V16.9938ZM22.0064 18.9938H29.0064V19.9938H22.0064V18.9938Z" fill="#049AFA"/>
</g>
</svg>
