<svg width="36" height="36" viewBox="0 0 36 36" fill="none" xmlns="http://www.w3.org/2000/svg">
<g id="file - 2023-10-19T223952.859 1">
<path id="Path 0" fill-rule="evenodd" clip-rule="evenodd" d="M10.357 5.13987C10.7016 5.13284 10.8211 5.17503 11.2078 5.40003C11.4539 5.54065 11.918 5.86409 12.2414 6.11721C12.5578 6.37034 13.0219 6.79925 13.268 7.06643C13.5141 7.34065 13.9148 7.8469 14.1539 8.19143C14.3859 8.543 14.7164 9.11253 14.8781 9.45706C15.0469 9.80159 15.2578 10.343 15.3633 10.6524C15.4617 10.9617 15.5953 11.5172 15.6586 11.8828C15.7148 12.2485 15.7781 12.593 15.7922 12.6422C15.8133 12.6914 16.0031 12.5789 16.2914 12.3469C16.5586 12.136 17.1633 11.7071 17.6484 11.3977C18.1336 11.0813 18.9211 10.6172 19.4062 10.3711C19.8914 10.1321 20.6016 9.79456 20.9883 9.63284C21.375 9.47815 22.0852 9.22503 22.5703 9.07034C23.0555 8.92268 23.8289 8.71878 24.293 8.62034C24.757 8.5219 25.5305 8.39534 26.0156 8.33909C26.5008 8.27581 27.2742 8.21956 27.7383 8.21253C28.4836 8.19846 28.6172 8.21253 28.8633 8.34612C29.018 8.4305 29.2148 8.57112 29.2922 8.66253C29.3766 8.7469 29.4961 8.92268 29.5523 9.03518C29.6086 9.15471 29.707 9.61175 29.7703 10.0547C29.8266 10.4977 29.918 11.2571 29.9602 11.7422C30.0023 12.2274 30.0445 13.2821 30.0445 14.0977C30.0445 14.9133 30.0094 15.968 29.9602 16.4532C29.918 16.9383 29.8477 17.5852 29.8055 17.8946C29.7633 18.2039 29.6367 18.7875 29.5242 19.1953C29.4117 19.6032 29.2219 20.1867 29.1094 20.4961C28.9898 20.8055 28.7367 21.361 28.5539 21.7266C28.3641 22.0922 28.0828 22.6125 27.9141 22.8867C27.7453 23.161 27.4852 23.5547 27.3305 23.7657C27.1758 23.9766 26.7891 24.4477 26.4797 24.8133C26.1633 25.1719 25.5938 25.7414 25.207 26.0789C24.8203 26.4164 24.3 26.8313 24.0469 27.0071C23.7938 27.1899 23.2875 27.5063 22.9219 27.7242C22.5562 27.9422 21.8742 28.2797 21.4102 28.4766C20.9461 28.6805 20.2008 28.9477 19.7578 29.0742C19.3148 29.2008 18.6469 29.3555 18.2812 29.4188C17.9156 29.4821 17.2195 29.5594 16.7344 29.5946C16.2141 29.6367 15.4828 29.6367 14.9414 29.6016C14.4352 29.5664 13.8234 29.5102 13.5703 29.468C13.3172 29.4188 12.9516 29.3555 12.7617 29.3133C12.5648 29.2711 12.143 29.1586 11.2148 28.8914L10.2305 29.4188C9.68906 29.7141 8.80312 30.143 8.26172 30.3821C7.72031 30.6211 7.16484 30.8602 7.03125 30.9235C6.82031 31.0078 6.75703 31.0149 6.58125 30.9305C6.46875 30.8742 6.33516 30.7688 6.27891 30.6914C6.22969 30.6141 6.1875 30.4453 6.1875 30.3258C6.1875 30.1782 6.24375 30.0446 6.34219 29.9532C6.43359 29.8688 6.93281 29.6227 7.45312 29.4047C7.97344 29.1797 8.83125 28.7789 9.35156 28.5047C9.87187 28.2305 10.6453 27.7946 11.0742 27.5344C11.5031 27.2742 12.1781 26.8242 12.5859 26.543C12.9938 26.2547 13.6547 25.7555 14.0625 25.4321C14.4703 25.1086 15.1945 24.4828 15.6727 24.0399C16.1578 23.5969 16.868 22.8867 17.2547 22.4649C17.6484 22.036 18.218 21.375 18.5273 20.9883C18.8367 20.6016 19.3289 19.9547 19.6172 19.5469C19.9055 19.1391 20.3555 18.4641 20.6156 18.0352C20.8828 17.6063 21.1641 17.2055 21.2555 17.1352C21.3398 17.0649 21.4664 17.0086 21.5297 17.0157C21.6 17.0157 21.7547 17.0649 21.8672 17.1211C21.9867 17.1844 22.1063 17.318 22.1484 17.4375C22.1906 17.5641 22.1906 17.7117 22.1555 17.8102C22.1273 17.8946 21.8813 18.3094 21.6211 18.7383C21.3609 19.1672 20.9391 19.8141 20.6859 20.1797C20.4258 20.5453 19.9125 21.2274 19.5469 21.6914C19.1742 22.1555 18.5273 22.9149 18.0984 23.3719C17.6766 23.836 16.9664 24.5461 16.5234 24.9539C16.0734 25.3617 15.3352 26.0016 14.8711 26.3742C14.407 26.7399 13.718 27.2672 13.3383 27.5344C12.7969 27.9141 12.6703 28.0266 12.7758 28.0617C12.8461 28.0899 13.2188 28.1672 13.6055 28.2375C14.1539 28.343 14.6461 28.3711 15.8555 28.3641C17.2688 28.3641 17.4797 28.35 18.3164 28.1742C18.8156 28.0617 19.5609 27.8649 19.9688 27.7313C20.3766 27.5977 21.0516 27.3164 21.4805 27.1125C21.9094 26.9016 22.5562 26.536 22.9219 26.2969C23.2875 26.0508 23.8078 25.6711 24.082 25.4532C24.3563 25.2282 24.8625 24.75 25.207 24.3914C25.5586 24.0258 26.0156 23.4914 26.2336 23.2032C26.4445 22.9149 26.768 22.4367 26.9508 22.1485C27.1266 21.8602 27.4148 21.3188 27.5906 20.9532C27.7664 20.5875 28.0336 19.9055 28.1883 19.4414C28.343 18.9774 28.5187 18.2813 28.575 17.8946C28.6313 17.5078 28.7156 16.6852 28.7648 16.0664C28.8141 15.3844 28.8352 14.3367 28.807 13.3946C28.7859 12.5438 28.7156 11.3907 28.6523 10.8282C28.5891 10.2657 28.4977 9.73128 28.4484 9.63284C28.3711 9.45706 28.3641 9.45706 27.4922 9.46409C27.007 9.47112 26.2687 9.52737 25.8398 9.59065C25.4109 9.65393 24.7359 9.7805 24.3281 9.87893C23.9203 9.97034 23.2242 10.1602 22.7812 10.3008C22.3383 10.4485 21.607 10.7227 21.1641 10.9125C20.7211 11.1024 20.0883 11.4047 19.7578 11.5805C19.4273 11.7563 18.8156 12.1289 18.3867 12.4102C17.9578 12.6914 17.3742 13.1063 17.0789 13.3313C16.7836 13.5563 16.2633 13.9992 15.9187 14.3086C15.5812 14.618 15.0328 15.1735 14.7023 15.5391C14.3789 15.9047 13.8867 16.5094 13.6125 16.875C13.3383 17.2407 12.9234 17.8453 12.6984 18.211C12.4664 18.5766 12.0867 19.2727 11.8406 19.7578C11.6016 20.243 11.2922 20.9532 11.1445 21.3399C10.9969 21.7266 10.793 22.3453 10.6805 22.711C10.568 23.0766 10.3992 23.7727 10.3078 24.2578C10.2094 24.743 10.118 25.2563 10.0969 25.4039C10.0758 25.5446 9.97734 25.7414 9.87891 25.8399C9.77344 25.9524 9.63281 26.0157 9.49219 26.0157C9.35156 26.0157 9.21094 25.9453 9.07031 25.8047C8.95078 25.6922 8.85938 25.5375 8.85938 25.4742C8.85938 25.4039 8.91563 25.0032 8.99297 24.5742C9.07031 24.1524 9.17578 23.611 9.3375 22.9571L8.92266 22.4649C8.69063 22.1907 8.31797 21.7055 8.09297 21.375C7.86797 21.0446 7.5375 20.5102 7.36172 20.1797C7.18594 19.8492 6.92578 19.2938 6.78516 18.9492C6.64453 18.6047 6.44063 17.9719 6.32812 17.543C6.20859 17.1211 6.05391 16.3125 5.97656 15.75C5.89922 15.1875 5.83594 14.5125 5.83594 14.2383C5.83594 13.9711 5.89922 13.3032 5.97656 12.7617C6.05391 12.2203 6.17344 11.5242 6.25078 11.2149C6.32813 10.9055 6.46875 10.4344 6.56016 10.1602C6.65156 9.893 6.83438 9.42893 6.96094 9.14065C7.0875 8.85237 7.34063 8.34612 7.52344 8.01565C7.71328 7.68518 8.05078 7.16487 8.27578 6.8555C8.50781 6.54612 8.84531 6.11721 9.03516 5.90628C9.21797 5.69534 9.50625 5.43518 9.66094 5.32971C9.88594 5.18206 10.0406 5.13987 10.35 5.13987H10.357ZM9.94922 6.72893C9.73125 6.95393 9.32344 7.48831 9.04219 7.91018C8.75391 8.33909 8.36719 9.01409 8.17734 9.4219C7.98047 9.82971 7.72734 10.4766 7.61484 10.8633C7.49531 11.25 7.34063 11.8336 7.27031 12.1641C7.17188 12.6352 7.14375 13.0711 7.14375 14.2735C7.15078 15.5532 7.17188 15.8907 7.29844 16.4883C7.38281 16.875 7.57266 17.5219 7.71328 17.9297C7.85391 18.3375 8.10703 18.9563 8.28281 19.3008C8.45859 19.6453 8.76797 20.1867 8.97187 20.4961C9.18281 20.8055 9.44297 21.1711 9.55547 21.3047L9.75234 21.5508C10.0055 20.8407 10.2375 20.2711 10.4344 19.8282L10.793 19.0196C10.7859 15.8907 10.7508 15.2508 10.6312 14.3438C10.5469 13.7039 10.3922 12.7266 10.2797 12.1641C10.1672 11.6016 10.0969 11.0953 10.118 11.0391C10.1391 10.9828 10.2164 10.8633 10.3008 10.7719C10.3992 10.6664 10.5258 10.6172 10.6734 10.6172C10.8 10.6172 10.9617 10.6453 11.025 10.6805C11.0953 10.7086 11.1938 10.8282 11.2359 10.9407C11.2852 11.0532 11.4047 11.5383 11.4961 12.0235C11.5875 12.5086 11.7211 13.268 11.7844 13.711C11.8477 14.1539 11.9391 15.0539 11.9812 15.7078L12.0656 16.8961C12.4594 16.3055 12.7758 15.8836 13.0219 15.5742C13.268 15.2649 13.725 14.7446 14.0414 14.4141L14.6109 13.8164C14.5617 12.8883 14.5055 12.368 14.4563 12.0586C14.4 11.7492 14.2734 11.243 14.168 10.9336C14.0625 10.6242 13.8727 10.1532 13.7391 9.87893C13.5984 9.61175 13.3453 9.16878 13.1625 8.89456C12.9867 8.62737 12.6352 8.1844 12.382 7.91721C12.1289 7.65003 11.6859 7.24221 11.3977 7.01018C11.1094 6.77815 10.7508 6.53206 10.6031 6.45471L10.3359 6.31409L9.94922 6.72893Z" fill="#049AFA"/>
</g>
</svg>
