<svg width="32" height="32" viewBox="0 0 32 32" fill="none" xmlns="http://www.w3.org/2000/svg">
<g id="file - 2023-10-19T224019.129 1" clip-path="url(#clip0_106_766)">
<path id="Path 0" fill-rule="evenodd" clip-rule="evenodd" d="M22.1875 0.00628039C22.675 3.039e-05 22.9562 0.0375304 23.2812 0.13128C23.525 0.20628 23.9438 0.38128 24.2188 0.51878C24.5875 0.70628 24.8563 0.91253 25.2188 1.28128C25.5562 1.61878 25.7938 1.92503 25.95 2.21878C26.075 2.46253 26.2437 2.86878 26.3188 3.12503C26.4375 3.49378 26.4625 3.73753 26.4625 4.28128C26.4625 4.82503 26.4375 5.06878 26.3188 5.43753C26.2437 5.69378 26.075 6.10003 25.95 6.33753C25.8188 6.57503 25.5562 6.95003 25 7.56253L25.8438 8.56878L26.1875 8.53128C26.375 8.51253 26.9 8.46878 27.3438 8.43753C27.8375 8.40003 28.4125 8.40003 28.8125 8.43128C29.175 8.46253 29.6562 8.53753 29.8937 8.58753C30.125 8.64378 30.475 8.76253 30.6688 8.85628C30.8625 8.95628 31.1625 9.15628 31.3312 9.31253C31.5 9.46878 31.7125 9.75003 31.8 9.93753C31.9437 10.225 31.9688 10.3625 31.9688 10.8188C31.9688 11.3188 31.95 11.3875 31.7062 11.8813C31.5625 12.175 31.2875 12.5875 31.0812 12.8125C30.8812 13.0375 30.5625 13.3625 30.375 13.5313C30.1875 13.7063 29.8062 14.0188 29.5312 14.225C29.2563 14.4313 28.8687 14.7125 28.3062 15.0938L28.3125 15.9813C28.3125 16.475 28.2687 17.1938 28.2188 17.575C28.1688 17.9625 28.0438 18.6063 27.9438 19C27.85 19.3938 27.6625 20 27.5312 20.3438C27.4062 20.6875 27.1562 21.25 26.9813 21.5938C26.8063 21.9375 26.6 22.2813 26.5187 22.3625C26.4437 22.4375 26.3062 22.5 26.2188 22.5C26.1313 22.5 25.9937 22.4313 25.9062 22.3438C25.8188 22.2563 25.75 22.1313 25.75 22.0625C25.75 21.9938 25.9188 21.6063 26.125 21.2C26.325 20.8 26.5812 20.2313 26.6875 19.9375C26.7938 19.6438 26.9625 19.0813 27.0562 18.6875C27.1562 18.2938 27.2687 17.675 27.3125 17.3125C27.35 16.95 27.375 16.4375 27.3438 15.6938L26.6875 16.075C26.325 16.2875 25.3813 16.7875 24.5938 17.1875C23.8062 17.5875 22.6063 18.1563 21.9375 18.4563C21.2687 18.75 20.2 19.2063 19.5625 19.4625C18.925 19.7188 17.9562 20.0938 17.4062 20.3C16.8563 20.5063 15.8687 20.8563 15.2188 21.0813C14.5688 21.3 13.5062 21.6438 12.8562 21.8375C12.2125 22.0313 11.6062 22.1875 11.5 22.1875C11.3687 22.1875 11.275 22.1375 11.1875 22.0125C11.1125 21.9188 11.0562 21.7813 11.0625 21.7C11.0625 21.625 11.1187 21.5063 11.1875 21.4375C11.2563 21.3688 11.5188 21.2563 11.7625 21.1813C12.0125 21.1125 12.725 20.9 13.3438 20.7063C13.9625 20.5125 15.0063 20.1688 15.6562 19.9375C16.3062 19.7063 17.3375 19.325 17.9375 19.0938C18.5375 18.8625 19.4688 18.4938 20 18.2688C20.5312 18.0438 21.4062 17.6625 21.9375 17.425C22.4688 17.1813 23.4813 16.6938 24.1875 16.3375C24.8937 15.9875 25.8188 15.4938 26.25 15.25C26.6812 15 27.425 14.5375 27.9062 14.2188C28.3875 13.9 29.0063 13.4563 29.2812 13.2375C29.5562 13.0125 29.9813 12.625 30.2188 12.3688C30.475 12.1 30.7375 11.75 30.8438 11.5313C30.9438 11.325 31.0375 11.0438 31.05 10.9063C31.0687 10.7375 31.0375 10.5625 30.9438 10.3563C30.8625 10.1688 30.7188 9.99378 30.5438 9.86878C30.4 9.76878 30.1 9.62503 29.875 9.55628C29.65 9.48753 29.175 9.40628 28.8125 9.37503C28.4 9.33753 27.8687 9.33753 27.375 9.37503C26.9438 9.40628 26.5563 9.43753 26.5125 9.43753C26.4688 9.43753 26.5438 9.62503 26.9688 10.3563L27.8125 10.325C28.2875 10.3125 28.8875 10.325 29.1875 10.3688C29.5125 10.4125 29.7812 10.4813 29.875 10.5563C29.975 10.625 30.0375 10.7375 30.0438 10.8625C30.0563 11 30.0063 11.15 29.8813 11.325C29.7875 11.475 29.5125 11.775 29.275 12C29.0375 12.225 28.6313 12.5625 28.375 12.7563C28.1187 12.95 27.5812 13.3188 27.1875 13.575C26.7938 13.8375 26.0875 14.2625 25.625 14.525C25.1625 14.7938 24.1313 15.325 23.3438 15.7188C22.5562 16.1063 21.5375 16.5875 21.0938 16.7813C20.65 16.9813 19.8563 17.3125 19.3438 17.5313C18.825 17.7438 17.8312 18.1375 17.125 18.4063C16.4188 18.6688 15.3062 19.0688 14.6562 19.2938C14.0063 19.5125 12.9062 19.8625 12.2188 20.0688C11.5312 20.275 10.4875 20.5688 9.90625 20.7188C9.325 20.8688 8.41875 21.075 7.90625 21.1813C7.3875 21.2875 6.60625 21.4313 6.15625 21.5063C5.65625 21.5813 4.89375 21.6438 4.15625 21.6688C3.4 21.6938 2.84375 21.6813 2.625 21.6375C2.4375 21.5938 2.20625 21.5063 2.10625 21.4375C1.98125 21.3438 1.9375 21.2625 1.9375 21.0938C1.9375 20.9063 2.00625 20.8 2.4625 20.325C2.75 20.025 3.2125 19.6 3.49375 19.375C3.775 19.15 4 18.925 4 18.875C3.99375 18.825 3.95625 18.6125 3.9125 18.4063C3.86875 18.2 3.8 18.0313 3.7625 18.0313C3.725 18.0313 3.44375 18.2125 3.14375 18.4375C2.84375 18.6563 2.35625 19.0688 2.06875 19.3438C1.78125 19.6188 1.44375 20 1.31875 20.1875C1.19375 20.375 1.05625 20.6563 1.00625 20.8125C0.95625 20.9813 0.9375 21.2125 0.9625 21.3875C0.99375 21.6188 1.05625 21.75 1.24375 21.95C1.375 22.1 1.61875 22.2813 1.7875 22.3563C1.95625 22.4313 2.2875 22.525 2.53125 22.5688C2.825 22.6188 3.34375 22.6313 4.125 22.6063C4.79375 22.5875 5.65 22.5125 6.15625 22.4375C6.6375 22.3688 7.525 22.2063 8.125 22.0813C8.725 21.9563 9.34375 21.8375 9.5 21.825C9.75 21.8 9.79375 21.8188 9.925 21.975C10 22.075 10.0688 22.2063 10.0625 22.2625C10.0625 22.325 10 22.4438 9.91875 22.5313C9.80625 22.6688 9.61875 22.725 8.78125 22.9063C8.23125 23.025 7.6625 23.1375 7.5125 23.1563C7.36875 23.175 7.25 23.2125 7.25 23.25C7.25 23.2875 7.49375 23.5688 7.8 23.8813C8.1 24.1938 8.525 24.6 8.75 24.7813C8.975 24.9625 9.39375 25.2688 9.6875 25.4688C9.98125 25.6625 10.5813 26 11.0312 26.2188C11.4812 26.4375 12.1125 26.7 12.4375 26.8063C12.7625 26.9125 13.2875 27.0563 13.5938 27.1188C13.9 27.1875 14.4375 27.275 14.7812 27.3188C15.175 27.3625 15.775 27.3813 16.4062 27.3563C16.9562 27.3375 17.6437 27.275 17.9375 27.225C18.2313 27.1688 18.7375 27.05 19.0625 26.9625C19.3875 26.875 19.8687 26.7188 20.125 26.6125C20.3813 26.5125 20.9188 26.2625 21.3125 26.0563C21.7062 25.85 22.3 25.4938 22.625 25.2625C22.95 25.0313 23.5688 24.4938 24 24.075C24.4312 23.65 24.8375 23.2813 24.9062 23.25C24.9813 23.2188 25.1063 23.2313 25.2188 23.275C25.3188 23.3188 25.425 23.4 25.45 23.4563C25.4813 23.5125 25.5 23.6313 25.5 23.7188C25.5 23.8313 25.3188 24.0625 24.825 24.5688C24.4563 24.95 23.9312 25.4438 23.6562 25.6563C23.3813 25.8688 22.9438 26.1813 22.6875 26.35C22.4312 26.5188 21.9375 26.8 21.5938 26.9813C21.25 27.1563 20.6875 27.4063 20.3438 27.5313C20 27.6625 19.3937 27.85 19 27.9438C18.6063 28.0438 17.9625 28.1688 17.575 28.2188C17.1938 28.2688 16.4813 28.3125 16 28.3125C15.5188 28.3125 14.8062 28.2688 14.4187 28.2188C14.0375 28.1688 13.3938 28.0438 13 27.9438C12.6062 27.85 12 27.6625 11.6562 27.5313C11.3125 27.4 10.7625 27.1625 10.4375 27C10.1125 26.8375 9.5875 26.5313 9.28125 26.3313C8.975 26.125 8.50625 25.7875 8.25 25.5813C7.99375 25.3688 7.5 24.9063 7.15625 24.55C6.8125 24.2 6.43125 23.7875 6.09375 23.3875L5.4375 23.4688C5.075 23.5188 4.325 23.5563 3.7625 23.5563C3.08125 23.5625 2.59375 23.5313 2.26875 23.4625C2 23.4125 1.575 23.2688 1.325 23.15C1.075 23.0313 0.75625 22.8188 0.6125 22.6688C0.46875 22.525 0.28125 22.25 0.1875 22.0625C0.05625 21.7813 0.03125 21.625 0.03125 21.1875C0.03125 20.7125 0.05625 20.6063 0.2375 20.2188C0.35625 19.975 0.54375 19.6563 0.65625 19.5C0.76875 19.3438 1.0875 19 1.35625 18.7375C1.625 18.4688 2.1125 18.05 2.4375 17.8C2.76875 17.55 3.18125 17.25 3.6875 16.9375V16.075C3.68125 15.3125 3.69375 15.2 3.8125 15.0438C3.9 14.9188 3.99375 14.875 4.1375 14.875C4.275 14.875 4.3875 14.9188 4.475 15.0125C4.6 15.1438 4.6125 15.2438 4.64375 16.3438C4.66875 17.1438 4.71875 17.725 4.8 18.125C4.86875 18.45 4.9875 18.9313 5.0625 19.1875C5.1375 19.4438 5.2875 19.875 5.59375 20.6375L5.875 20.5938C6.03125 20.575 6.5375 20.4813 7 20.4C7.4625 20.3125 8.28125 20.1438 8.8125 20.025C9.34375 19.9 10.4 19.6188 11.1562 19.4063C11.9125 19.1875 13.1625 18.8 13.9375 18.5438C14.7125 18.2875 15.7937 17.9063 16.3438 17.7C16.8937 17.4938 17.7625 17.1563 18.2812 16.95C18.7938 16.7438 19.7812 16.3313 20.4688 16.0313C21.1562 15.7313 22.4062 15.1375 23.25 14.7125C24.0938 14.2938 25.2313 13.675 25.7812 13.3438C26.3312 13.0125 26.8062 12.7188 26.8438 12.6875C26.8875 12.65 26.8563 12.4938 26.7563 12.2375C26.675 12.0188 26.5125 11.6188 26.3937 11.3438C26.275 11.0688 26.025 10.5875 25.8438 10.2813C25.6625 9.97503 25.35 9.49378 25.1437 9.21878C24.9375 8.94378 24.6375 8.56878 24.1875 8.06253L23.8563 8.21878C23.6813 8.30628 23.2938 8.41878 23 8.47503C22.6375 8.54378 22.3 8.56878 21.9375 8.54378C21.6 8.52503 21.2125 8.44378 20.875 8.33753C20.5812 8.23753 20.15 8.03128 19.9062 7.86878C19.6625 7.71253 19.3 7.40003 19.0938 7.18128C18.8875 6.96253 18.6125 6.60003 18.4875 6.37503C18.3625 6.15003 18.2063 5.76878 18.1375 5.53128C18.0688 5.28753 17.9937 5.01878 17.975 4.91878C17.9375 4.75628 17.925 4.75003 17.2938 4.68128C16.925 4.63753 16.2125 4.61878 15.5938 4.64378C14.8687 4.66253 14.3125 4.71878 13.8438 4.81253C13.4625 4.88753 12.8188 5.06253 12.4062 5.19378C11.9937 5.33128 11.375 5.58128 11.0312 5.75003C10.6875 5.91878 10.15 6.22503 9.84375 6.42503C9.5375 6.62503 9.06875 6.96253 8.8125 7.16878C8.55625 7.37503 8.1 7.80003 7.80625 8.10003C7.5125 8.40628 7.09375 8.89378 6.88125 9.18753C6.6625 9.48128 6.3375 9.97503 6.15625 10.2813C5.975 10.5875 5.70625 11.1125 5.5625 11.4375C5.41875 11.7625 5.2 12.3688 5.08125 12.7813C4.95625 13.1938 4.80625 13.5875 4.74375 13.65C4.68125 13.7188 4.55 13.775 4.45 13.775C4.34375 13.7813 4.2 13.725 4.125 13.6563C4.00625 13.55 3.99375 13.4875 4.01875 13.2188C4.03125 13.0438 4.1625 12.5563 4.30625 12.125C4.45 11.6938 4.73125 11.0063 4.93125 10.5938C5.1375 10.1813 5.45 9.61878 5.625 9.34378C5.80625 9.06878 6.08125 8.67503 6.24375 8.46878C6.4 8.26253 6.8125 7.80003 7.15625 7.44378C7.5 7.08753 7.99375 6.63128 8.25 6.41878C8.50625 6.21253 8.95625 5.88128 9.25 5.69378C9.54375 5.50003 10.0625 5.20003 10.4062 5.01878C10.75 4.84378 11.3125 4.59378 11.6562 4.46878C12 4.33753 12.6062 4.15003 13 4.05628C13.3938 3.95628 14.0375 3.83128 14.425 3.78128C14.8063 3.73128 15.5125 3.68753 15.9812 3.68753C16.4562 3.68753 17.0812 3.71878 17.375 3.75003C17.6688 3.78753 17.9125 3.80628 17.9188 3.80003C17.9313 3.78753 17.9813 3.58128 18.0375 3.34378C18.0938 3.10003 18.25 2.66878 18.3875 2.37503C18.5938 1.93753 18.7375 1.74378 19.1812 1.30628C19.475 1.01253 19.875 0.68128 20.0625 0.57503C20.25 0.46878 20.6625 0.30003 20.9688 0.19378C21.45 0.0375304 21.6313 0.00628039 22.1875 0.00628039ZM20.7188 1.30628C20.4271 1.44795 20.1437 1.65628 19.8687 1.93128C19.6187 2.18128 19.375 2.50003 19.2563 2.73128C19.15 2.95003 19.0187 3.28753 18.9688 3.48128C18.9188 3.68128 18.875 4.03753 18.875 4.28128C18.875 4.51878 18.9188 4.88128 18.9688 5.07503C19.0187 5.27503 19.15 5.61253 19.2563 5.82503C19.375 6.06253 19.6187 6.38128 19.8687 6.63128C20.1187 6.88128 20.4375 7.12503 20.675 7.24378C20.8875 7.35003 21.25 7.48128 21.4875 7.53753C21.775 7.60628 22.0625 7.62503 22.4062 7.60628C22.6938 7.58753 23.075 7.50628 23.3125 7.42503C23.5375 7.34378 23.8875 7.16253 24.0875 7.03128C24.2937 6.89378 24.5813 6.63753 24.7313 6.46878C24.875 6.29378 25.0812 5.98753 25.1875 5.78128C25.2875 5.57503 25.4125 5.20628 25.4688 4.96878C25.5187 4.72503 25.5625 4.41878 25.5625 4.28128C25.5625 4.14378 25.5187 3.83128 25.4688 3.59378C25.4125 3.35003 25.2875 2.98753 25.1875 2.78128C25.0812 2.57503 24.875 2.26253 24.7313 2.09378C24.5813 1.91878 24.2937 1.66878 24.0875 1.53128C23.8875 1.40003 23.5375 1.21878 23.3125 1.13753C23.0375 1.03753 22.7313 0.98128 22.3438 0.96253C22.0125 0.95003 21.65 0.97503 21.4688 1.01878C21.3 1.06253 20.9625 1.19378 20.7188 1.30628ZM27.5562 11.7188C27.6313 11.9063 27.7125 12.025 27.7625 12.0125C27.8063 12 28.0187 11.8438 28.2375 11.6688C28.45 11.4875 28.625 11.325 28.625 11.3C28.625 11.2688 28.3563 11.25 28.0312 11.25C27.6 11.25 27.4375 11.2688 27.4375 11.3313C27.4375 11.3688 27.4937 11.55 27.5562 11.7188ZM3.36875 20.7188C3.36875 20.7375 3.65625 20.75 4 20.75H4.625C4.4125 20.1938 4.3375 20.0125 4.3125 19.9813C4.29375 19.9563 4.06875 20.1063 3.81875 20.3125C3.5625 20.525 3.3625 20.7063 3.36875 20.7188ZM5.84375 26.0875C6.11875 26.1 6.5 26.1625 6.6875 26.2313C6.875 26.3 7.16875 26.45 7.34375 26.5688C7.5125 26.6875 7.7625 26.8938 7.89375 27.0313C8.025 27.1688 8.23125 27.475 8.35 27.7188C8.475 27.9688 8.59375 28.3438 8.6375 28.5938C8.6875 28.9188 8.6875 29.1438 8.6375 29.4688C8.6 29.7125 8.48125 30.075 8.3875 30.2813C8.2875 30.4875 8.1125 30.7688 8 30.9063C7.89375 31.0438 7.64375 31.275 7.45 31.4188C7.25 31.5625 6.8875 31.7563 6.6375 31.8438C6.30625 31.9563 6.0625 32 5.7 32C5.35 32 5.10625 31.9625 4.8125 31.8563C4.5875 31.775 4.28125 31.625 4.125 31.5313C3.96875 31.4313 3.71875 31.225 3.56875 31.0688C3.41875 30.9125 3.225 30.6563 3.1375 30.5C3.04375 30.3438 2.925 30.0375 2.8625 29.8125C2.8 29.5875 2.75 29.2375 2.75 29.0313C2.75 28.825 2.8 28.475 2.8625 28.25C2.925 28.025 3.05 27.7125 3.14375 27.5438C3.2375 27.3813 3.4625 27.1 3.64375 26.9188C3.83125 26.7438 4.15 26.5125 4.35 26.4063C4.55 26.3063 4.85625 26.1875 5.03125 26.1438C5.20625 26.1 5.56875 26.075 5.84375 26.0875ZM4.71875 27.2625C4.6125 27.3188 4.4 27.5 4.24375 27.6625C4.075 27.8438 3.90625 28.1125 3.825 28.325C3.74375 28.5375 3.6875 28.8313 3.6875 29.0313C3.6875 29.2313 3.74375 29.525 3.825 29.7313C3.9125 29.9688 4.06875 30.2125 4.275 30.425C4.45625 30.6125 4.73125 30.8125 4.90625 30.8938C5.14375 30.9938 5.34375 31.0313 5.71875 31.0313C6.1375 31.0313 6.275 31.0063 6.5625 30.8625C6.75 30.775 7.03125 30.5625 7.18125 30.3938C7.3375 30.2313 7.51875 29.9688 7.5875 29.8125C7.68125 29.6063 7.7125 29.3938 7.71875 29.0313C7.71875 28.6125 7.6875 28.475 7.55 28.1875C7.4625 28 7.25 27.7188 7.08125 27.5688C6.91875 27.4125 6.65625 27.2313 6.5 27.1625C6.34375 27.1 6.0375 27.0313 5.8125 27.025C5.58125 27.0125 5.3 27.0375 5.15625 27.0813C5.01875 27.1313 4.81875 27.2125 4.71875 27.2625Z" fill="#049AFA"/>
</g>
<defs>
<clipPath id="clip0_106_766">
<rect width="32" height="32" fill="white"/>
</clipPath>
</defs>
</svg>
