<svg width="32" height="32" viewBox="0 0 32 32" fill="none" xmlns="http://www.w3.org/2000/svg">
<g id="file - 2023-10-19T224039.178 1" clip-path="url(#clip0_106_770)">
<path id="Path 0" fill-rule="evenodd" clip-rule="evenodd" d="M0.718836 0.00622559H26.1563L26.3626 0.156226C26.4688 0.243726 26.6188 0.406226 26.6876 0.518726C26.7938 0.693726 26.8126 0.831226 26.8126 1.51248C26.8126 2.14373 26.7876 2.36248 26.7001 2.53748C26.6438 2.66873 26.5063 2.82498 26.4063 2.89998C26.3063 2.96873 26.1313 3.04373 25.8438 3.09998L25.8126 4.12498L30.4688 4.15623L30.8376 4.34373C31.0438 4.44998 31.3126 4.65623 31.4501 4.81248C31.5813 4.96873 31.7563 5.21873 31.8313 5.37498C31.9563 5.63123 31.9688 5.74998 31.9688 7.71873L31.7626 8.14373C31.6293 8.42289 31.473 8.63331 31.2938 8.77497C31.1501 8.88748 30.9438 9.02498 30.8438 9.08123C30.7438 9.13123 30.5063 9.20622 30.3251 9.24372C30.1251 9.28747 29.2188 9.31248 25.8126 9.31248V12.375H28.2063C29.9751 12.375 30.6688 12.3937 30.8751 12.4562C31.0313 12.5 31.2688 12.625 31.4063 12.725C31.5438 12.8312 31.7313 13.0625 32.0001 13.5625V27.75L31.8626 27.9875C31.7876 28.1125 31.6438 28.3125 31.5376 28.4312C31.4313 28.5437 31.2313 28.6937 31.0938 28.7562C30.8563 28.8687 30.5938 28.875 21.7813 28.875L21.5063 28.7312C21.3501 28.6562 21.1313 28.4812 21.0188 28.3437C20.9001 28.2062 20.7688 27.9562 20.7126 27.7812C20.6376 27.5187 20.6251 26.7437 20.6251 18.5625H13.4688C9.53134 18.5625 6.30009 18.5812 6.28759 18.6125C6.27509 18.6375 9.25634 21.4812 12.9126 24.9375C16.5688 28.3937 19.7501 31.3937 20.4063 31.9937L8.57407e-05 32V12.7187L0.450086 13.1687C0.700086 13.4187 0.943836 13.625 0.987586 13.625C1.04384 13.625 1.05634 12.5375 1.03134 3.09998L0.812586 3.04998C0.693836 3.02498 0.525086 2.94998 0.437586 2.88748C0.350086 2.81873 0.225086 2.68748 0.156336 2.59998C0.0500857 2.45623 0.0250857 2.30623 0.00633574 1.66873C-0.0124143 0.999976 8.57413e-05 0.868726 0.118836 0.612476C0.206336 0.418726 0.331336 0.256226 0.487586 0.162476L0.718836 0.00622559ZM1.06259 2.05623H25.8063L25.8126 1.05623H1.06259V2.05623ZM2.06259 14.6812L5.09384 17.5562H20.6251V15.4937H16.0001V14.4312H20.6251C20.6188 13.975 20.6501 13.75 20.6813 13.6375L20.7501 13.4312H16.0001V12.3687H24.7501V9.30622H15.8751C12.9438 7.36247 12.0626 6.76873 12.0313 6.74373C11.9938 6.71248 12.7813 6.14998 13.9063 5.40623L15.8438 4.11873H24.7501V3.11873H2.06259V14.6812ZM16.5001 6.18123H27.8751V5.18123H16.5001V6.18123ZM28.8751 8.24372C30.2001 8.21873 30.3251 8.19373 30.4751 8.08123C30.5751 8.01248 30.7188 7.85623 30.7938 7.73748C30.9251 7.54373 30.9376 7.45623 30.9376 6.73123C30.9376 6.09998 30.9126 5.88748 30.8251 5.70623C30.7626 5.58123 30.6313 5.41873 30.5313 5.34373C30.3688 5.23748 30.2313 5.21248 29.6126 5.19373L28.8813 5.17498L28.8751 8.24372ZM13.9188 6.66248C13.8938 6.68748 14.2188 6.94373 14.6376 7.22498C15.0626 7.50623 15.4313 7.74373 15.4563 7.74373C15.4813 7.74373 15.5001 7.27498 15.5001 6.71248C15.5001 5.92498 15.4813 5.68123 15.4251 5.68123C15.3813 5.68748 15.0376 5.89998 14.6563 6.15623C14.2813 6.41248 13.9501 6.63748 13.9188 6.66248ZM16.5001 8.24372H27.8751V7.24373H16.5001V8.24372ZM21.6938 13.7375C21.6876 24.4 21.7126 27.5375 21.7376 27.5937C21.7626 27.65 21.8626 27.7375 21.9563 27.7812C22.0938 27.85 22.9188 27.8687 26.3813 27.8687H30.6313L30.9376 27.5562L30.9438 13.7125L30.6563 13.4312H21.9938L21.6938 13.7375ZM1.06259 18.5562H2.06259V19.6187H1.06259V20.6187H2.06259V21.6812H1.06259V22.6812H2.06259V23.7437H1.06259V24.7437H2.06259V25.8062H1.06259V26.8062H2.06259V27.8687H1.06259V28.8687H2.06259V29.9312H1.06259V30.9312C17.6001 30.9312 17.7813 30.925 17.6563 30.8125C17.5876 30.75 13.9626 27.325 9.59384 23.2125C5.23134 19.0937 1.52509 15.5937 1.36259 15.4375L1.06259 15.15V18.5562ZM10.8126 6.18123V7.24373H9.50009C8.78134 7.24373 8.18759 7.24998 8.18759 7.25623C8.18759 7.26873 7.93759 9.15623 7.62509 11.4625C7.31884 13.7625 7.05634 15.65 7.05009 15.6562C7.03759 15.6625 6.44384 14.9312 4.40634 12.375L3.12509 12.3687V11.3687L4.90634 11.3625L6.33759 13.15L6.38134 12.9312C6.40634 12.8062 6.61259 11.275 6.84384 9.52497C7.07509 7.76872 7.27509 6.29998 7.28759 6.25623C7.30634 6.19998 7.71259 6.18123 10.8126 6.18123ZM9.65634 8.93122L11.8751 11.15L14.0938 8.93122L14.8126 9.64997L12.5938 11.8687L14.8126 14.0875L14.0938 14.8062L11.8751 12.5875L9.65634 14.8062L8.93759 14.0875L11.1563 11.8687L8.93759 9.64997L9.65634 8.93122ZM16.0001 10.3062H23.7501V11.3687H16.0001V10.3062ZM29.9376 14.4312V18.5562H22.6876L22.6813 16.5312C22.6751 15.4187 22.6938 14.4937 22.7188 14.4687C22.7501 14.45 24.3876 14.4312 29.9376 14.4312ZM23.7501 17.5562H28.8751V15.4937H23.7501V17.5562ZM23.7501 19.6187H24.7501V20.6187H25.8126V21.6812H24.7501V22.6812H23.7501V21.6812H22.6876L22.7188 20.65L23.7501 20.6187V19.6187ZM3.25009 20.0625C3.30009 20.1062 5.36884 22.0562 7.84384 24.3937C10.3188 26.725 12.4001 28.6875 12.4688 28.75C12.5938 28.8625 12.4813 28.8687 3.12509 28.8687L3.14384 24.4187C3.15634 20.475 3.16884 19.9875 3.25009 20.0625ZM4.12509 27.8687C9.95634 27.8687 10.0313 27.8625 9.90634 27.75C9.83759 27.6875 8.52509 26.45 6.98759 25C5.45009 23.55 4.17509 22.3687 4.15634 22.3687C4.14384 22.3687 4.12509 23.6062 4.12509 25.1187V27.8687ZM29.9376 20.6187V21.6812L26.8438 21.65L26.8251 21.2187C26.8126 20.9812 26.8188 20.75 26.8376 20.7C26.8688 20.6312 27.1813 20.6187 29.9376 20.6187ZM22.6876 23.7437H25.8126V24.7437H22.6876V23.7437ZM27.7188 23.9312C27.7563 23.925 27.9251 24.0687 28.4063 24.5562L29.0938 23.9L29.7813 24.6187L29.1313 25.275L29.7813 25.9312L29.0313 26.6812L28.3751 26.025L27.7188 26.675L27.0001 25.9625L27.6563 25.3062L26.9688 24.6187L27.3126 24.275C27.5001 24.0812 27.6813 23.9312 27.7188 23.9312ZM22.6876 25.8062H25.8126V26.8062H22.6876V25.8062Z" fill="#049AFA"/>
</g>
<defs>
<clipPath id="clip0_106_770">
<rect width="32" height="32" fill="white"/>
</clipPath>
</defs>
</svg>
