<svg width="36" height="36" viewBox="0 0 36 36" fill="none" xmlns="http://www.w3.org/2000/svg">
<g id="file - 2023-10-19T224105.659 1">
<path id="Path 0" fill-rule="evenodd" clip-rule="evenodd" d="M12.5087 4.7391C12.572 4.78128 12.6634 4.85863 12.7126 4.92191C12.7759 4.99925 12.797 5.33675 12.797 7.17191H25.9454V6.09613C25.9454 5.11878 25.9525 5.01332 26.0861 4.86566C26.1704 4.77425 26.3111 4.71097 26.4376 4.71097C26.5642 4.71097 26.7048 4.77425 26.7892 4.86566C26.9228 5.01332 26.9298 5.11878 26.9298 7.17191L28.1392 7.193C29.2431 7.20707 29.3837 7.22113 29.6509 7.36878C29.8196 7.45316 30.0728 7.63597 30.4806 8.00863L31.922 8.01566C33.3142 8.01566 33.3704 8.02269 33.6868 8.33207L33.6798 14.0274L33.5181 14.1891C33.3704 14.3368 33.3142 14.3508 31.2892 14.3438L31.3243 14.4985C31.3384 14.5899 31.4087 15.0891 31.465 15.6094C31.5282 16.1297 31.704 17.4446 31.8587 18.5274C32.0134 19.6102 32.3017 21.4172 32.8642 24.5743L32.9064 31.0782L32.6954 31.2188C32.4845 31.3594 32.365 31.3594 17.6486 31.3594C7.86105 31.3594 2.75637 31.3383 2.6509 31.2891C2.56652 31.2469 2.45402 31.1485 2.4048 31.0571C2.33449 30.9375 2.32043 30.4383 2.33449 28.8633C2.35558 26.9016 2.36262 26.8102 2.52433 26.4024C2.6509 26.093 2.81965 25.8539 3.15715 25.5164C3.49465 25.1789 3.73371 25.0102 4.46496 24.7149L22.5001 24.6797V20.1235C22.5001 15.8977 22.4861 15.5532 22.3736 15.293C22.3032 15.1383 22.1486 14.9414 22.0361 14.85C21.9235 14.7586 21.7056 14.6532 21.5509 14.618C21.3751 14.5688 20.1868 14.5547 15.497 14.5899L15.2157 14.7727C15.0681 14.8711 14.8782 15.075 14.8009 15.2297C14.6884 15.4618 14.6603 15.7078 14.6251 16.7696C14.59 17.8946 14.5689 18.0703 14.4282 18.3305C14.3439 18.4993 14.1821 18.7383 13.8587 19.0899V20.1797C13.8517 21.1711 13.8446 21.2836 13.7111 21.4243C13.5775 21.5719 13.5142 21.586 11.9532 21.586V22.2188C11.9532 22.7953 11.9392 22.8657 11.7775 23.0274C11.6861 23.1258 11.5243 23.2032 11.4259 23.2032C11.3275 23.2032 11.1868 23.1399 11.1095 23.0625C10.99 22.943 10.9689 22.8305 10.9689 21.586H10.1392C9.38683 21.593 9.30246 21.5789 9.1759 21.4383C9.04933 21.3047 9.03527 21.1782 8.99308 19.3711L8.66261 19.2024C8.4798 19.111 8.20558 18.9422 8.05793 18.8157C7.90324 18.6961 7.65011 18.4219 7.4884 18.211C7.33371 18 7.12277 17.5993 6.85558 16.8399V12.8321C6.85558 8.93675 6.86261 8.81722 7.00324 8.50785C7.08058 8.33207 7.27043 8.05082 7.42511 7.88207C7.57277 7.71332 7.85402 7.49535 8.0509 7.38988C8.40246 7.20707 8.41652 7.20707 11.8126 7.17191V6.13128C11.8056 5.1891 11.8196 5.08363 11.9532 4.90785C12.0306 4.80238 12.1642 4.71097 12.2415 4.69691C12.3259 4.68285 12.4454 4.70394 12.5087 4.7391ZM8.17043 8.53597C8.01574 8.68363 7.92433 8.85941 7.86808 9.1055C7.81886 9.33753 7.8048 10.7016 7.81886 13.1133L7.83996 16.7696C8.19855 17.5149 8.40949 17.7961 8.62043 17.986C8.81027 18.1547 9.14074 18.3516 9.35168 18.4289C9.70324 18.5625 9.87902 18.5696 11.3345 18.5485C12.8251 18.5274 12.9376 18.5203 13.1275 18.3797C13.2329 18.3024 13.3946 18.1266 13.4861 17.993C13.6337 17.775 13.6478 17.6766 13.6407 16.8399C13.6407 16.3336 13.6759 15.7289 13.7111 15.4828C13.7532 15.2438 13.8446 14.9274 13.915 14.7797C13.9923 14.6391 14.1892 14.386 14.3579 14.2243C14.5267 14.0625 14.815 13.8586 15.0118 13.7672C15.3564 13.6055 15.4056 13.6055 18.3517 13.5844C20.9532 13.5633 21.3962 13.5703 21.797 13.6758C22.0501 13.7391 22.3946 13.8868 22.5634 14.0133C22.7321 14.1399 22.9712 14.3789 23.0978 14.5547C23.2173 14.7305 23.3579 15.0399 23.4001 15.2368C23.4634 15.5039 23.4845 16.9102 23.4845 20.1446V24.6797H31.8517C31.8025 24.4336 31.6267 23.4 31.4368 22.2188C31.24 21.0375 31.0079 19.5399 30.9095 18.8789C30.8111 18.218 30.6353 16.9243 30.5228 15.9961C30.4032 15.068 30.2415 13.6618 30.1642 12.8672C30.0939 12.0727 29.9954 10.8844 29.9462 10.2305C29.897 9.39378 29.8337 8.96488 29.7564 8.79613C29.6861 8.66253 29.5314 8.47269 29.3978 8.37425L29.1587 8.19144C11.5384 8.16332 8.64152 8.18441 8.54308 8.24066C8.46574 8.28285 8.29699 8.41644 8.17043 8.53597ZM30.8954 9.64691C30.9235 10.0055 30.9868 10.9196 31.0501 11.6719C31.1064 12.4243 31.1696 13.1133 31.1837 13.1977C31.2189 13.3524 31.247 13.3594 31.9571 13.3594H32.6954V9.00003H30.8532L30.8954 9.64691ZM9.97043 20.1164L9.97746 20.5946H12.8603V19.5399C10.7017 19.5399 10.0478 19.568 10.0126 19.5891C9.98449 19.6172 9.9634 19.8563 9.97043 20.1164ZM4.07121 25.9875C3.93762 26.0719 3.74777 26.2618 3.64933 26.4094C3.5509 26.5571 3.43136 26.7891 3.38215 26.9227C3.3259 27.0844 3.29777 27.7102 3.29777 28.7368V30.2977H31.915V28.4696C10.3571 28.4696 10.2587 28.4696 10.1181 28.3289C10.0407 28.2516 9.97746 28.0969 9.97746 27.9774C9.97746 27.8297 10.0407 27.7243 10.1743 27.6258C10.3642 27.4852 10.4134 27.4852 21.1431 27.4852H31.915V25.6571C7.77668 25.6641 4.76027 25.6852 4.5634 25.7555C4.4298 25.8047 4.21183 25.9102 4.07121 25.9875ZM26.3954 9.63285C26.5501 9.63285 26.8384 9.67503 27.0282 9.73128C27.2462 9.79457 27.5204 9.94925 27.7314 10.1321C27.9282 10.3078 28.1462 10.5891 28.2376 10.786C28.3571 11.0532 28.3993 11.2641 28.3993 11.6297C28.3993 11.9532 28.3571 12.2203 28.2728 12.4032C28.2025 12.5578 28.0407 12.811 27.9071 12.9586C27.7736 13.1133 27.5064 13.3172 27.3095 13.4157C27.0282 13.5633 26.8665 13.5985 26.4306 13.5985C26.0017 13.5985 25.84 13.5633 25.5517 13.4157C25.3618 13.3172 25.0946 13.1133 24.9611 12.9586C24.8275 12.811 24.6657 12.5578 24.5954 12.4032C24.511 12.2203 24.4689 11.9532 24.4689 11.6297C24.4689 11.2641 24.511 11.0532 24.6306 10.786C24.722 10.5891 24.94 10.3078 25.1368 10.1321C25.3267 9.97035 25.629 9.78753 25.7978 9.73832C25.9735 9.68207 26.2407 9.63988 26.3954 9.63285ZM25.5868 11.0813C25.4884 11.2219 25.4462 11.3907 25.4462 11.6508C25.4462 11.9672 25.4814 12.0586 25.6782 12.2696C25.8048 12.4102 26.0157 12.5578 26.1493 12.6C26.3321 12.6563 26.4798 12.6563 26.6767 12.6C26.8454 12.5508 27.0564 12.4243 27.19 12.2696C27.3868 12.0516 27.415 11.9743 27.415 11.6297C27.415 11.3133 27.3868 11.2078 27.2251 11.025C27.1196 10.9055 26.9439 10.7649 26.8384 10.7086C26.7329 10.6594 26.5431 10.6172 26.4165 10.6172C26.29 10.6172 26.0861 10.6735 25.9595 10.7438C25.8329 10.8211 25.6642 10.9688 25.5868 11.0813ZM27.1337 15.9539C27.2532 15.9539 27.4079 16.0172 27.4853 16.0946C27.5626 16.1719 27.6329 16.3125 27.6329 16.3969C27.6329 16.4813 27.5767 16.6289 27.5064 16.7203C27.422 16.8399 27.3165 16.8891 27.1337 16.8891C26.9579 16.8891 26.8525 16.8399 26.7681 16.7203C26.6978 16.6289 26.6415 16.4813 26.6415 16.3969C26.6415 16.3125 26.7048 16.1719 26.7821 16.0946C26.8665 16.0172 27.0212 15.9539 27.1337 15.9539ZM27.4501 18.6961C27.6329 18.6961 27.7314 18.7453 27.8087 18.8578C27.865 18.9422 27.9142 19.0758 27.9142 19.1532C27.9142 19.2375 27.8579 19.3711 27.7876 19.4625C27.7032 19.5821 27.5978 19.6313 27.415 19.6313C27.2392 19.6313 27.1337 19.5821 27.0493 19.4625C26.979 19.3711 26.9228 19.2235 26.9228 19.1391C26.9228 19.0547 26.986 18.9211 27.0634 18.8368C27.1548 18.7524 27.3025 18.6961 27.4501 18.6961ZM27.8017 21.4172C27.879 21.4383 28.0056 21.5227 28.0689 21.6071C28.1392 21.6914 28.1954 21.8321 28.1954 21.9164C28.1954 22.0008 28.1251 22.1344 28.0478 22.2118C27.9704 22.2961 27.8157 22.3524 27.6962 22.3524C27.5837 22.3524 27.429 22.2961 27.3446 22.2118C27.2673 22.1344 27.204 22.0149 27.204 21.9305C27.204 21.8532 27.2462 21.7266 27.2954 21.6493C27.3376 21.5719 27.4431 21.4735 27.5204 21.4453C27.5978 21.4102 27.7243 21.3961 27.8017 21.4172Z" fill="#049AFA"/>
</g>
</svg>
