<svg width="32" height="32" viewBox="0 0 32 32" fill="none" xmlns="http://www.w3.org/2000/svg">
<g id="file - 2023-10-19T224211.573 1" clip-path="url(#clip0_106_778)">
<path id="Path 0" fill-rule="evenodd" clip-rule="evenodd" d="M9.58125 5.50625C9.98125 5.5 10.1937 5.53125 10.3875 5.61875C10.5375 5.68125 10.7063 5.7875 10.7625 5.85C10.825 5.91875 10.9125 6.08125 10.9625 6.21875C11.0375 6.4125 11.0562 6.81875 11.0625 8.03125C11.0625 8.89375 11.0375 9.69375 11 9.8125C10.9688 9.93125 10.85 10.125 10.7375 10.2375C10.6188 10.35 10.4187 10.4688 10.2812 10.5C10.1438 10.5312 9.8 10.5625 9 10.5625V12.3125H10.2937C11.55 12.3125 11.6 12.3188 11.7375 12.4563C11.825 12.5438 11.875 12.6688 11.875 12.8C11.875 12.9438 11.8313 13.0375 11.7 13.125C11.5437 13.2438 11.4438 13.2562 9 13.25V17.375H14.625V13.25H14.0625C13.7563 13.25 13.4562 13.2313 13.4 13.2063C13.3438 13.175 13.2563 13.075 13.2063 12.9688C13.1313 12.8125 13.125 12.75 13.2 12.6C13.2437 12.5 13.3313 12.3937 13.3875 12.3687C13.45 12.3375 13.7563 12.3125 14.625 12.3125V10.5938L13.9875 10.5625C13.5063 10.5312 13.2875 10.4937 13.125 10.4C13.0063 10.3312 12.8438 10.1625 12.7688 10.025C12.6313 9.7875 12.625 9.725 12.625 8.08125C12.625 7.01875 12.65 6.3125 12.6938 6.20625C12.7313 6.10625 12.8188 5.9625 12.8938 5.88125C12.9688 5.8 13.1438 5.68125 13.2812 5.61875C13.4625 5.5375 13.6812 5.5 14.0625 5.5C14.3562 5.5 14.6938 5.53125 14.8125 5.56875C14.9312 5.6125 15.1 5.69375 15.1875 5.75C15.275 5.80625 15.3938 5.95625 15.5625 6.3125L16.325 6.33125C17.025 6.34375 17.1187 6.3625 17.4062 6.51875C17.5875 6.6125 18.05 7.01875 18.5063 7.48125C18.9438 7.925 19.3625 8.40625 19.4438 8.5625C19.5938 8.84375 19.5938 8.8625 19.6562 13.7812L26.2 13.8438L26.3188 14C26.3875 14.0875 26.4438 14.225 26.4375 14.3125C26.4375 14.4 26.375 14.5312 26.1562 14.7563L22.8563 14.75C20.6813 14.75 19.5063 14.725 19.3875 14.6812C19.2938 14.65 19.1375 14.5437 19.0375 14.45C18.9375 14.3562 18.8188 14.1875 18.775 14.0813C18.7062 13.9187 18.6875 13.3812 18.6875 11.5312C18.6875 10 18.6625 9.125 18.6187 9.01875C18.5812 8.91875 18.2375 8.525 17.8563 8.1375C17.4688 7.75 17.0625 7.39375 16.95 7.34375C16.8188 7.28125 16.5438 7.25 15.5625 7.25L15.5938 21.4062H31.0312L31.0438 18.125C31.0563 15.575 31.0438 14.8313 30.9813 14.8C30.9438 14.775 30.25 14.75 28 14.75L27.8438 14.5938C27.7563 14.5063 27.6875 14.3938 27.6875 14.3438C27.6875 14.2937 27.725 14.1812 27.7625 14.0938C27.8063 14.0063 27.9125 13.9062 28 13.8687C28.0938 13.8312 28.7375 13.8125 29.6875 13.825C31.1 13.8438 31.2375 13.8563 31.4375 13.975C31.5562 14.0438 31.7312 14.2125 31.9937 14.5938L32 21.625L31.85 21.8625C31.7625 21.9875 31.5875 22.1562 31.4562 22.2313C31.2625 22.3438 31.1187 22.3687 30.125 22.375V23.5H30.7C31.1875 23.5063 31.3187 23.525 31.5187 23.6437C31.6625 23.725 31.8062 23.8813 31.875 24.0312C31.975 24.2313 32 24.4187 32 24.9562C32 25.3687 31.9688 25.7 31.9188 25.8312C31.8688 25.9375 31.7438 26.1062 31.6375 26.2062C31.525 26.3 31.3313 26.4062 31.2 26.4375C31.0438 26.4875 26.8438 26.5 17.9062 26.4875C4.9875 26.4688 4.84375 26.4688 4.6 26.3438C4.4625 26.275 4.2875 26.1187 4.20625 26C4.075 25.8 4.0625 25.7125 4.0625 24.9688C4.05625 24.225 4.06875 24.1375 4.2 23.9375C4.28125 23.8188 4.44375 23.6687 4.5625 23.6125C4.76875 23.5062 5.1875 23.5 16.5625 23.5L16.5312 22.4062L15.9375 22.375C15.6125 22.3563 15.2875 22.3125 15.2188 22.275C15.15 22.2375 15.0188 22.1187 14.9187 22.0063C14.825 21.9 14.725 21.7062 14.6875 21.5812C14.6562 21.45 14.625 20.6625 14.625 18.3125H9L8.96875 21.7313L8.80625 21.9438C8.71875 22.0625 8.54375 22.2062 8.41875 22.2687C8.21875 22.3625 7.98125 22.375 6.53125 22.375C5.08125 22.375 4.84375 22.3625 4.64375 22.2687C4.51875 22.2062 4.34375 22.0625 4.25625 21.9438C4.09375 21.7313 4.09375 21.7125 4.075 20.5187C4.0625 19.3875 4.06875 19.3062 4.1875 19.1875C4.25625 19.1187 4.3875 19.0625 4.48125 19.0625C4.58125 19.0562 4.725 19.1125 4.8125 19.1812C4.96875 19.3 4.96875 19.3125 5 21.4375H8.0625V7.25H7.5C7.1875 7.25 6.8625 7.28125 6.7625 7.31875C6.66875 7.35 6.275 7.69375 5.8875 8.08125C5.5 8.46875 5.1375 8.85625 5.0875 8.95625C5.0125 9.1 5 9.8 5 17.4375L4.81875 17.625C4.71875 17.7312 4.58125 17.8125 4.51875 17.8125C4.45625 17.8188 4.33125 17.7625 4.23125 17.6875C4.08125 17.575 4.0625 17.525 4.0625 16.8125H3.5C2.98125 16.8125 2.9375 16.8188 2.9375 16.9375C2.9375 17.0063 2.9 17.1375 2.85 17.2375C2.80625 17.3312 2.6875 17.475 2.5875 17.5625C2.4875 17.65 2.3 17.7437 1.9375 17.8125V20.5625L2.10625 20.6125C2.20625 20.6437 2.375 20.7625 2.49375 20.8813C2.6125 21 2.75625 21.2063 2.81875 21.3438C2.8875 21.4875 2.9375 21.7375 2.9375 21.9375C2.9375 22.1375 2.8875 22.3875 2.81875 22.5312C2.75625 22.6688 2.6375 22.8563 2.55625 22.9438C2.475 23.0312 2.29375 23.1625 2.15625 23.2313C2.01875 23.3 1.79375 23.375 1.65625 23.4C1.49375 23.425 1.2875 23.4062 1.075 23.3438C0.9 23.2938 0.65 23.1562 0.51875 23.05C0.39375 22.9375 0.225 22.7062 0.14375 22.5312C0.05 22.3312 0 22.1 0 21.8937C0 21.675 0.04375 21.4812 0.13125 21.3312C0.2 21.2 0.35 21 0.45625 20.8875C0.56875 20.775 0.7375 20.65 1.00625 20.5312L1 17.8438L0.7375 17.7563C0.5875 17.7125 0.36875 17.5688 0 17.1875V15.4062C0 14.0625 0.01875 13.575 0.08125 13.425C0.13125 13.3125 0.25625 13.1438 0.3625 13.05C0.475 12.95 0.6625 12.8625 1 12.8125V11.4563C1.00625 10.1 1 10.0937 0.8625 10.025C0.78125 9.9875 0.625 9.875 0.50625 9.775C0.3875 9.675 0.225 9.45625 0.14375 9.28125C0.06875 9.1125 0 8.85625 0 8.71875C0 8.58125 0.05 8.33125 0.10625 8.1625C0.1875 7.94375 0.3125 7.76875 0.53125 7.58125C0.7625 7.375 0.93125 7.2875 1.1875 7.2375C1.45 7.18125 1.6 7.18125 1.8125 7.24375C1.96875 7.28125 2.20625 7.39375 2.3375 7.4875C2.49375 7.59375 2.65625 7.7875 2.7625 8C2.9 8.2625 2.9375 8.425 2.9375 8.6875C2.9375 8.88125 2.8875 9.14375 2.81875 9.28125C2.75625 9.41875 2.6 9.63125 2.4625 9.75625C2.33125 9.875 2.15625 9.99375 2.075 10.0188C1.9375 10.0625 1.9375 10.0687 1.9375 12.7812L2.2 12.8562C2.35 12.8937 2.55625 13.0187 2.675 13.1375C2.79375 13.2562 2.9 13.4375 2.96875 13.8125H4.0625V8.90625L4.2125 8.59375C4.31875 8.38125 4.65625 8 5.2625 7.4C6.0625 6.60625 6.19375 6.50625 6.5 6.4125C6.725 6.35 7.0625 6.3125 8.09375 6.31875L8.16875 6.14375C8.2125 6.05 8.3125 5.90625 8.3875 5.83125C8.46875 5.75625 8.64375 5.65 8.78125 5.6C8.925 5.55 9.2625 5.50625 9.575 5.50625H9.58125ZM9.0375 9.59375H10.1L10.1313 6.5H9.00625L9.0375 9.59375ZM13.6 9.59375L14.6313 9.625V6.5H13.5625L13.6 9.59375ZM0.95 8.68125C0.95 8.80625 1 8.93125 1.1 9.03125C1.21875 9.14375 1.325 9.1875 1.50625 9.1875C1.70625 9.1875 1.78125 9.15625 1.8875 9.01875C1.95625 8.91875 2.0125 8.7625 2.00625 8.65625C2.00625 8.55625 1.96875 8.425 1.925 8.36875C1.8875 8.3125 1.7875 8.2375 1.7125 8.2C1.63125 8.15625 1.5125 8.125 1.44375 8.125C1.36875 8.125 1.23125 8.20625 1.13125 8.30625C1.01875 8.425 0.95625 8.5625 0.95 8.68125ZM0.94375 16.875H2.00625V13.75H0.94375V16.875ZM2.975 15.8438H4.0375L4.05625 14.75H2.94375L2.975 15.8438ZM1.0375 21.6375C0.9875 21.7188 0.9375 21.8562 0.9375 21.9562C0.9375 22.05 1.00625 22.2 1.08125 22.2875C1.18125 22.4 1.2875 22.45 1.45625 22.4562C1.625 22.4625 1.73125 22.4187 1.85 22.3062C1.95625 22.2062 2.00625 22.0875 2.00625 21.9375C2.00625 21.7917 1.95833 21.6729 1.8625 21.5812C1.7875 21.5062 1.65 21.4313 1.56875 21.4125C1.48125 21.3938 1.35 21.4062 1.275 21.4375C1.2 21.4688 1.09375 21.5563 1.0375 21.6375ZM17.5063 23.5H29.1938L29.1625 22.4062L17.5063 22.375V23.5ZM5.00625 25.5H31.0688V24.4375H5.00625V25.5ZM23.2875 16.6313C25.9813 16.625 26.5188 16.6375 26.7875 16.7188C26.9563 16.7688 27.1812 16.8812 27.2875 16.9562C27.3875 17.0375 27.55 17.2563 27.6437 17.4438C27.775 17.6938 27.8188 17.8687 27.8188 18.125C27.8125 18.3188 27.7625 18.575 27.7 18.7188C27.6375 18.8562 27.475 19.0688 27.3438 19.1938C27.2062 19.3125 26.9875 19.4563 26.85 19.5063C26.6438 19.575 26.0063 19.5938 23.2875 19.5938C20.3813 19.5938 19.9438 19.5812 19.7563 19.4937C19.6313 19.4375 19.4375 19.3125 19.3188 19.2125C19.2063 19.1125 19.0437 18.8875 18.9625 18.7188C18.8813 18.5437 18.8188 18.2937 18.8188 18.1562C18.8188 18.0188 18.85 17.7938 18.8937 17.6625C18.9375 17.5312 19.0688 17.3063 19.1938 17.1688C19.3125 17.0313 19.4875 16.875 19.5875 16.825C19.6812 16.775 19.8375 16.7062 19.9312 16.6812C20.0187 16.6562 21.5312 16.6313 23.2875 16.6313ZM19.9438 17.7437C19.8313 17.8625 19.7625 18 19.7563 18.1187C19.7563 18.2375 19.8062 18.3687 19.8937 18.4625C19.9812 18.55 20.1438 18.625 20.3188 18.65C20.4688 18.675 21.9438 18.6875 23.5875 18.675L26.575 18.6562C26.825 18.375 26.875 18.2375 26.875 18.1063C26.875 18 26.8375 17.8625 26.8 17.8062C26.7562 17.75 26.6562 17.675 26.5812 17.6375C26.4812 17.5813 25.5625 17.5625 23.2812 17.5625H20.1187L19.9438 17.7437Z" fill="#049AFA"/>
</g>
<defs>
<clipPath id="clip0_106_778">
<rect width="32" height="32" fill="white"/>
</clipPath>
</defs>
</svg>
