<svg width="32" height="32" viewBox="0 0 32 32" fill="none" xmlns="http://www.w3.org/2000/svg">
<g id="file - 2023-10-19T224245.496 1" clip-path="url(#clip0_106_782)">
<path id="Path 0" fill-rule="evenodd" clip-rule="evenodd" d="M15.3439 0.693703C15.7564 0.687453 16.1814 0.731203 16.5939 0.818703C16.9376 0.893703 17.4564 1.03745 17.7501 1.13745C18.0439 1.2437 18.4626 1.4187 18.6876 1.5312C18.9126 1.6437 19.3626 1.91245 19.6876 2.1312C20.0126 2.34995 20.4126 2.6562 20.5751 2.81245C20.8189 3.03745 20.8751 3.13745 20.8751 3.31245C20.8751 3.44995 20.8251 3.59995 20.7376 3.71245C20.6564 3.81245 20.5314 3.9187 20.4564 3.94995C20.3689 3.9812 20.1314 3.96245 19.8314 3.9062C19.4376 3.82495 19.2689 3.82495 18.9689 3.8812C18.7626 3.9187 18.4251 4.0062 18.2189 4.07495C18.0126 4.1437 17.6251 4.31245 17.3626 4.4437C17.0939 4.57495 16.7126 4.78745 16.5189 4.9187C16.3189 5.0437 15.8876 5.34995 14.9689 6.0562L15.0501 6.51245C15.1064 6.79995 15.1251 7.1812 15.1001 7.5312C15.0814 7.8437 15.0314 8.2062 14.9251 8.5937L16.5751 10.2C17.4751 11.0812 18.2376 11.8062 18.2689 11.8062C18.2939 11.8125 20.3314 10.1062 22.8001 8.01245C25.2626 5.92495 27.3689 4.1562 27.4689 4.07495C27.5876 3.98745 27.7376 3.9312 27.8876 3.93745C28.0439 3.93745 28.1814 3.98745 28.2814 4.0812C28.3689 4.1562 29.2376 5.52495 30.2189 7.12495C31.5939 9.3687 32.0001 10.075 32.0001 10.2375C32.0001 10.375 31.9439 10.4937 31.6376 10.8125H29.6876V11.6562C29.6876 12.2687 29.6626 12.5625 29.5939 12.7187C29.5314 12.8645 29.4272 12.9687 29.2814 13.0312C29.1251 13.1 28.8314 13.125 27.3751 13.125V13.9562C27.3751 14.6187 27.3501 14.825 27.2626 15C27.2064 15.1187 27.0876 15.25 27.0001 15.2937C26.9001 15.3437 26.5376 15.375 25.0626 15.375L25.0314 17.2625L24.8251 17.4437C24.7189 17.5437 24.5564 17.625 24.4689 17.625C24.3814 17.625 24.3126 17.65 24.3126 17.6875C24.3126 17.725 25.2564 18.6687 26.4001 19.8C28.2314 21.5875 28.5126 21.8937 28.6689 22.2187C28.8189 22.5437 28.8439 22.6687 28.8439 23.1875C28.8439 23.725 28.8251 23.8187 28.6564 24.15C28.5564 24.35 28.3439 24.6312 28.1876 24.7687C28.0314 24.9125 27.7501 25.1 27.5626 25.1875C27.2689 25.3187 27.1314 25.3437 26.6251 25.3437C26.0814 25.3437 25.9939 25.325 25.6251 25.1437C25.2751 24.975 24.8751 24.6125 20.4689 20.3187L20.4314 21.0187C20.4126 21.4062 20.3626 21.775 20.3189 21.8437C20.2751 21.9125 20.1814 22.0125 20.1064 22.0625C20.0001 22.1312 19.7376 22.1562 18.0626 22.1875V24.0625L17.2001 24.9687L17.3189 25.3125C17.3876 25.5312 17.4314 25.8375 17.4376 26.1437C17.4376 26.4062 17.4064 26.7562 17.3689 26.925C17.3314 27.0875 17.1751 27.475 17.0314 27.7812C16.8876 28.0875 16.5876 28.5937 16.3689 28.9062C16.1501 29.2125 15.6439 29.7875 15.2501 30.1875C14.7439 30.6937 14.4189 30.9687 14.1439 31.1125C13.8376 31.2687 13.6751 31.3125 13.4064 31.3125C13.1626 31.3125 12.9689 31.2687 12.7376 31.15C12.5564 31.0562 12.2501 30.8562 12.0626 30.6937C11.8751 30.5375 11.5814 30.2687 11.4126 30.0937C11.2439 29.925 11.0376 29.6437 10.9564 29.4687C10.8689 29.275 10.8126 29.025 10.8064 28.8125C10.8001 28.625 10.8189 28.3687 10.8439 28.25C10.8689 28.1312 10.9439 27.925 11.1251 27.5625L7.81262 24.3125L7.51887 24.45C7.31887 24.5375 7.05012 24.5937 6.71887 24.6125C6.27512 24.6375 6.17512 24.625 5.84387 24.475C5.56262 24.35 5.32512 24.1625 4.90637 23.7312C4.56262 23.3812 4.27512 23.025 4.16887 22.8125C4.04387 22.5562 4.00012 22.375 4.00012 22.1125C4.00012 21.8625 4.05012 21.65 4.15012 21.425C4.23762 21.2437 4.49387 20.8875 4.73137 20.6312C4.96262 20.375 5.42512 19.9562 5.75012 19.6937C6.07512 19.4312 6.50637 19.1062 6.70637 18.9812C6.90012 18.8562 7.22512 18.6687 7.42512 18.5687C7.61887 18.4687 7.98137 18.325 8.21887 18.2562C8.51887 18.1625 8.82512 18.1187 9.18762 18.1125C9.60012 18.1125 9.80637 18.1437 10.5001 18.4062L12.6439 16.6C13.8189 15.6125 14.7876 14.7937 14.7939 14.7875C14.8064 14.7875 14.1064 14.1 11.6876 11.75L11.4876 11.8125C11.3751 11.85 11.0001 11.8937 10.0314 11.9562L9.63762 12.4312C9.41887 12.6937 9.13137 13.1312 8.75012 13.9062L8.87512 14.1125C8.94387 14.2187 9.04387 14.475 9.10012 14.675C9.17512 14.9187 9.19387 15.1562 9.16887 15.4375C9.14387 15.7062 9.06887 15.975 8.95012 16.2187C8.84387 16.4312 8.64387 16.7 8.49387 16.8312C8.34387 16.9687 8.08762 17.1437 7.92512 17.225C7.75637 17.3062 7.47512 17.4 7.30012 17.425C7.11887 17.4562 6.81262 17.4625 6.62512 17.4375C6.43762 17.4125 6.11887 17.3187 5.92512 17.2312C5.62512 17.0875 5.20637 16.7187 3.45637 15.0062C2.29387 13.875 1.12512 12.7312 0.862618 12.4562C0.531368 12.1187 0.331368 11.8562 0.212618 11.5937C0.100118 11.3312 0.0376182 11.075 0.0188682 10.75C0.00011824 10.4937 0.0126182 10.225 0.0501182 10.1562C0.0876182 10.0875 0.181368 9.8937 0.262618 9.7187C0.337618 9.54995 0.531368 9.28745 0.687618 9.1312C0.843868 8.9812 1.12512 8.7812 1.31262 8.6937C1.61262 8.54995 1.73762 8.5312 2.28137 8.5312C2.84387 8.5312 2.93762 8.54995 3.25012 8.7062C3.50012 8.83745 3.64387 8.87495 3.78137 8.8437C3.88762 8.82495 4.13762 8.71245 4.34387 8.59995C4.55012 8.4812 4.93762 8.2187 5.68762 7.62495V7.17495C5.68762 6.92495 5.74387 6.4937 5.81262 6.2187C5.88137 5.9437 6.05637 5.4812 6.20012 5.1937C6.36262 4.8812 6.61887 4.49995 6.84387 4.26245C7.05012 4.03745 7.37512 3.7437 7.56262 3.59995C7.75012 3.46245 8.10637 3.2562 8.34387 3.1437C8.58762 3.0312 8.95012 2.8937 9.15637 2.8437C9.36262 2.78745 9.81262 2.72495 10.1564 2.7062C10.7689 2.6687 10.7876 2.66245 11.0314 2.4437C11.1689 2.3187 11.5064 2.06245 11.7814 1.87495C12.0564 1.68745 12.5189 1.42495 12.8126 1.2937C13.1064 1.1562 13.6501 0.962453 14.0314 0.868703C14.5439 0.743703 14.8814 0.693703 15.3439 0.693703ZM13.8751 2.24995C13.6501 2.32495 13.2564 2.49995 13.0001 2.63745C12.7439 2.77495 12.4189 2.97495 12.2814 3.0812C12.1439 3.18745 11.8501 3.4312 11.6314 3.6187L11.2251 3.9687C9.87512 3.9812 9.63762 4.01245 9.31262 4.12495C9.08762 4.19995 8.75012 4.3562 8.56262 4.4687C8.37512 4.5812 8.05637 4.84995 7.85012 5.0687C7.65012 5.28745 7.40012 5.63745 7.29387 5.8437C7.19387 6.04995 7.06887 6.4187 7.01887 6.6562C6.95637 6.9437 6.93762 7.2562 6.96262 7.56245C6.98762 7.8812 6.97512 8.07495 6.91887 8.1687C6.88137 8.2437 6.65012 8.47495 6.40637 8.68745C6.16887 8.8937 5.78762 9.1937 5.56262 9.33745C5.33762 9.48745 5.05012 9.66245 4.91887 9.7312C4.79387 9.7937 4.68762 9.8562 4.68762 9.87495C4.68762 9.8937 5.38137 10.5812 6.22512 11.4062C7.61262 12.7562 7.77512 12.8937 7.83762 12.7875C7.87512 12.7187 8.03762 12.4687 8.20012 12.225C8.36262 11.9812 8.69387 11.5562 8.93762 11.2812C9.18762 11.0062 9.46262 10.7437 9.55012 10.6937C9.66262 10.6375 9.83762 10.6187 10.0626 10.6375C10.2501 10.6562 10.6064 10.6437 10.8439 10.6187C11.0876 10.5875 11.4064 10.5187 11.5626 10.4687C11.7189 10.4187 12.0189 10.2625 12.2376 10.125C12.4501 9.98745 12.7689 9.72495 12.9376 9.54995C13.1126 9.3687 13.3314 9.06245 13.4314 8.87495C13.5314 8.68745 13.6626 8.37495 13.7126 8.18745C13.7689 7.99995 13.8189 7.6187 13.8189 7.3437C13.8189 7.01245 13.7751 6.66245 13.6814 6.31245C13.5376 5.7812 13.5376 5.7812 13.6564 5.58745C13.7251 5.4812 13.9626 5.23745 14.1876 5.04995C14.4126 4.86245 14.9189 4.4812 15.3126 4.2062C15.7064 3.9312 16.2439 3.58745 16.5001 3.44995C16.7564 3.3062 17.1939 3.1062 17.4689 2.99995C17.7439 2.8937 18.0251 2.7812 18.0939 2.7562C18.2064 2.71245 18.2001 2.6937 18.0001 2.5937C17.8814 2.5312 17.5876 2.41245 17.3439 2.3312C17.1001 2.24995 16.7189 2.1437 16.4876 2.0937C16.2501 2.0437 15.7751 1.99995 15.4251 2.0062C15.0689 2.01245 14.6689 2.03745 14.5314 2.06245C14.3939 2.0937 14.1001 2.17495 13.8751 2.24995ZM11.4439 19.2812C14.6126 22.4062 15.7064 23.475 15.9251 23.675L16.3189 24.0312L16.8126 23.5312L16.8439 21.25C17.1876 20.9062 17.1939 20.9062 18.1564 20.8937L19.1251 20.875C19.1564 19.0062 19.1564 19 19.3314 18.8312C19.5001 18.6562 19.5064 18.6562 20.4689 18.6437L21.4376 18.625L21.4689 16.7375L21.8751 16.375H23.7501C23.7501 15.0687 23.7751 14.6187 23.8126 14.5312C23.8501 14.4437 23.9376 14.3187 24.0189 14.25C24.1439 14.1312 24.2376 14.125 25.1126 14.125H26.0626C26.0939 12.5125 26.1189 12.25 26.1876 12.1437C26.2376 12.0687 26.3376 11.9687 26.4064 11.925C26.4939 11.8687 26.8314 11.8375 27.4564 11.8312L28.3751 11.8125C28.3814 10.575 28.4126 10.1187 28.4564 9.99995C28.5064 9.84995 28.6001 9.7437 28.7501 9.67495C28.9126 9.58745 29.1251 9.56245 29.5814 9.56245C29.9126 9.56245 30.1876 9.5562 30.1876 9.54995C30.1939 9.53745 29.6376 8.6312 28.9626 7.5312C28.2876 6.4312 27.7314 5.52495 27.7251 5.52495C27.7126 5.5187 24.0501 8.61245 19.5751 12.4L11.4439 19.2812ZM1.45012 10.2187C1.35012 10.35 1.31262 10.4875 1.31262 10.7187C1.30637 10.9437 1.34387 11.0812 1.45012 11.2187C1.53137 11.325 2.64387 12.4375 3.92512 13.6875C5.20637 14.9437 6.35012 16.0187 6.45637 16.0812C6.60012 16.1562 6.75637 16.1875 6.98137 16.175C7.18762 16.1625 7.36887 16.1062 7.48137 16.025C7.57512 15.95 7.71262 15.7937 7.78137 15.6812C7.84387 15.5625 7.90012 15.35 7.90637 15.2125C7.90637 15.0375 7.85637 14.8875 7.75637 14.7437C7.66887 14.625 6.55012 13.5 5.26887 12.25C3.98137 10.9937 2.83762 9.9187 2.73137 9.86245C2.62512 9.79995 2.41887 9.74995 2.28137 9.74995C2.13137 9.74995 1.95012 9.8062 1.81262 9.88745C1.69387 9.9687 1.53137 10.1125 1.45012 10.2187ZM13.3939 10.9L13.0001 11.2187C13.6564 11.875 14.2814 12.4875 14.8126 13L15.7814 13.9312C16.9001 13 17.2314 12.7125 17.2376 12.6937C17.2501 12.6687 16.6189 12.025 15.8314 11.2625C15.0501 10.4937 14.3939 9.8687 14.3751 9.8687C14.3564 9.87495 14.2126 10.0312 14.0626 10.2312C13.9064 10.425 13.6064 10.725 13.3939 10.9ZM22.7376 18.775C22.7189 19.45 22.7126 19.5062 22.5626 19.6562C22.4814 19.7437 22.3126 19.8375 22.2001 19.8625C22.0876 19.8812 22.0001 19.9312 22.0001 19.9687C22.0064 20 22.9126 20.9125 24.0189 21.9937C25.1439 23.0875 26.1251 23.9937 26.2376 24.0375C26.3501 24.0875 26.5251 24.125 26.6251 24.125C26.7314 24.125 26.9064 24.0875 27.0189 24.0375C27.1314 23.9937 27.3001 23.8687 27.3939 23.7562C27.4876 23.65 27.5814 23.4562 27.6001 23.325C27.6251 23.2 27.6126 22.9937 27.5751 22.875C27.5251 22.7062 26.9876 22.1437 25.3626 20.5562C24.1876 19.4 23.1126 18.3687 22.9876 18.2562L22.7501 18.0625L22.7376 18.775ZM7.85012 19.7875C7.64387 19.8937 7.24387 20.15 6.95637 20.3625C6.67512 20.5687 6.21262 20.9625 5.93762 21.225C5.65637 21.4937 5.38762 21.7875 5.34387 21.8812C5.29387 21.9812 5.27512 22.1125 5.30012 22.1937C5.31887 22.275 5.52512 22.5312 5.75012 22.7687C5.97512 23 6.23762 23.2312 6.33137 23.2812C6.42512 23.3312 6.57512 23.3687 6.66262 23.3687C6.75012 23.3687 6.90637 23.3187 7.01887 23.2625C7.13137 23.2062 7.30637 23.0937 7.41262 23.0125C7.53762 22.9125 7.68137 22.8625 7.85012 22.8625C7.98762 22.8625 8.15637 22.9062 8.22512 22.9562C8.29387 23.0062 9.30637 23.9875 10.4751 25.1312C12.5626 27.1875 12.6001 27.225 12.6001 27.475C12.6001 27.6437 12.5501 27.7875 12.4376 27.9375C12.3439 28.05 12.2251 28.2437 12.1689 28.35C12.1126 28.4625 12.0689 28.6125 12.0689 28.6812C12.0689 28.75 12.1064 28.8812 12.1564 28.975C12.2001 29.075 12.4564 29.3375 12.7189 29.5687C13.1251 29.9312 13.2251 29.9937 13.4251 29.9937C13.6439 29.9875 13.7189 29.9312 14.3189 29.3187C14.6814 28.95 15.1251 28.45 15.3001 28.2125C15.4814 27.9687 15.7251 27.5625 15.8564 27.3062C15.9814 27.05 16.1126 26.6687 16.1439 26.4625C16.1876 26.2062 16.1814 26.0062 16.1376 25.8375C16.0814 25.6187 15.6439 25.1687 12.9689 22.5562C11.1001 20.7312 9.78762 19.4937 9.66887 19.45C9.56262 19.4062 9.36262 19.375 9.22512 19.375C9.08762 19.375 8.80637 19.425 8.60012 19.4875C8.39387 19.5437 8.05637 19.6812 7.85012 19.7875ZM9.89387 21.4312C9.91887 21.4312 10.0314 21.4687 10.1439 21.5187C10.2564 21.5625 11.1751 22.4125 14.0126 25.2125L14.0064 25.475C14.0064 25.6875 13.9626 25.7812 13.8251 25.9312C13.6939 26.0625 13.5814 26.1187 13.4314 26.1187C13.3189 26.1187 13.1501 26.0687 13.0564 26.0062C12.9689 25.95 12.0939 25.1125 11.1064 24.15C9.78137 22.85 9.31887 22.3562 9.31262 22.2437C9.30637 22.1562 9.30637 22.0437 9.31262 21.9937C9.31887 21.9437 9.35637 21.8375 9.40012 21.7562C9.43762 21.6812 9.55637 21.575 9.66262 21.525C9.76262 21.475 9.86887 21.4312 9.89387 21.4312Z" fill="#049AFA"/>
</g>
<defs>
<clipPath id="clip0_106_782">
<rect width="32" height="32" fill="white"/>
</clipPath>
</defs>
</svg>
