<svg width="32" height="32" viewBox="0 0 32 32" fill="none" xmlns="http://www.w3.org/2000/svg">
<g id="file - 2023-10-19T224307.195 1" clip-path="url(#clip0_106_786)">
<path id="Path 0" fill-rule="evenodd" clip-rule="evenodd" d="M4.5876 0.5625H27.4064L27.5689 0.73125C27.6564 0.83125 28.0939 1.4 28.5376 2C28.9751 2.6 29.8126 3.73125 30.3876 4.51875C31.0876 5.4625 31.4376 5.9875 31.4376 6.09375C31.4376 6.18125 31.3814 6.30625 31.3126 6.375C31.2001 6.4875 31.1064 6.5 29.0626 6.5V28.5H30.0939C31.1126 28.5 31.1251 28.5 31.2814 28.6562C31.4376 28.8125 31.4376 28.8187 31.4376 29.9875C31.4376 31.1125 31.4314 31.1625 31.1564 31.4438L0.843854 31.4375L0.700104 31.2938C0.562604 31.1625 0.556354 31.125 0.562604 29.9875C0.562604 28.825 0.562604 28.8125 0.718854 28.6562C0.868854 28.5 0.881354 28.5 2.9376 28.5V6.5H1.8751C0.893854 6.5 0.800104 6.4875 0.687604 6.375C0.618854 6.30625 0.562604 6.1875 0.562604 6.10625C0.562604 6.03125 0.612604 5.9 0.668854 5.8125C0.725104 5.725 1.5626 4.5875 2.51885 3.28125C3.48135 1.975 4.3376 0.83125 4.4251 0.73125L4.5876 0.5625ZM1.88135 5.625C23.7251 5.625 30.0689 5.6125 30.0689 5.59375C30.0689 5.58125 29.3814 4.6375 28.5501 3.50625L27.0376 1.44375L4.96885 1.4375L1.88135 5.625ZM3.80635 17.5438L3.81885 28.5063H28.1939L28.1626 6.53125C9.3626 6.5125 3.88135 6.51875 3.8501 6.54375C3.8251 6.56875 3.80635 11.5188 3.80635 17.5438ZM1.44385 30.5688H30.5689V29.3813H1.44385V30.5688ZM8.1501 7.6875C8.98135 7.6875 9.1126 7.7 9.20635 7.8C9.28135 7.875 9.4001 8.3375 9.56885 9.225C9.7126 9.94375 9.8126 10.5938 9.79385 10.6625C9.7751 10.7313 9.61885 10.9625 9.13135 11.5688V17.4438H9.4126C9.63135 17.4438 9.73135 17.475 10.0064 17.7563L9.9751 26.1L9.83135 26.3813C9.7501 26.5312 9.59385 26.7563 9.4876 26.8687C9.3751 26.9812 9.1501 27.15 8.9751 27.2437C8.7126 27.3813 8.58135 27.4062 8.1626 27.4062C7.79385 27.4062 7.59385 27.375 7.38135 27.2812C7.2251 27.2062 6.9876 27.0375 6.85635 26.9062C6.71885 26.7687 6.5376 26.5063 6.2876 25.975L6.26885 22.0063C6.25635 19.4688 6.26885 17.9563 6.3126 17.8188C6.3501 17.6812 6.4376 17.5687 6.5376 17.5187C6.6251 17.475 6.80635 17.4438 7.19385 17.4438V11.6L6.8501 11.1625C6.6376 10.8938 6.5001 10.6625 6.50635 10.5688C6.50635 10.4813 6.6126 9.85 6.7376 9.16875C6.9001 8.3125 7.0126 7.89375 7.0876 7.8125C7.1876 7.7 7.3001 7.6875 8.1501 7.6875ZM7.54385 9.6125L7.38135 10.4438C7.80635 10.95 7.9626 11.1625 8.0001 11.2375C8.0501 11.3375 8.06885 12.2688 8.06885 14.4125C8.06885 17.0625 8.08135 17.4438 8.1626 17.4438C8.24385 17.4438 8.25635 17.0562 8.25635 14.3625L8.2501 11.2875C8.7376 10.6562 8.88135 10.4313 8.88135 10.3813C8.88135 10.325 8.8126 9.9 8.7251 9.425L8.56885 8.56875C7.8376 8.56875 7.75635 8.5875 7.73135 8.675C7.7126 8.7375 7.63135 9.15625 7.54385 9.6125ZM7.1501 22.1688L7.1626 25.8563C7.4126 26.2375 7.59385 26.4 7.73135 26.4625C7.90635 26.55 8.0501 26.575 8.25635 26.5438C8.4126 26.525 8.60635 26.4625 8.6876 26.4C8.76885 26.3375 8.89385 26.2063 8.96885 26.1063C9.1001 25.9313 9.1001 25.8937 9.11885 22.125L9.13135 18.3188C7.4126 18.3188 7.1876 18.3375 7.16885 18.4C7.1501 18.4438 7.14385 20.1375 7.1501 22.1688ZM20.9126 7.6875C21.0251 7.6875 21.1501 7.7375 21.2251 7.81875C21.3376 7.94375 21.3501 8.05 21.3814 10.1938L21.8501 10.6C22.2564 10.9438 22.3376 10.9938 22.4314 10.925C22.4876 10.8875 22.7126 10.7 23.3189 10.1938L23.3376 9.075C23.3501 8.05 23.3626 7.94375 23.4751 7.81875C23.5501 7.7375 23.6751 7.6875 23.7876 7.6875C23.9126 7.69375 24.1189 7.79375 24.3814 7.99375C24.6689 8.20625 24.8814 8.43125 25.1189 8.7875C25.3064 9.06875 25.5064 9.4625 25.5751 9.69375C25.6564 9.95625 25.7001 10.2812 25.7001 10.6313C25.7001 10.9188 25.6689 11.3 25.6314 11.475C25.5876 11.6438 25.4689 11.9625 25.3564 12.1812C25.2501 12.4062 25.0189 12.7437 24.8439 12.9312C24.6689 13.125 24.3814 13.375 23.8814 13.6938V21.4438L24.1501 21.5875C24.2939 21.6687 24.5876 21.925 24.8064 22.15C25.0314 22.3937 25.2689 22.725 25.3814 22.9562C25.4814 23.1687 25.5939 23.4875 25.6314 23.6625C25.6689 23.8313 25.7064 24.1812 25.7064 24.4438C25.7064 24.7 25.6689 25.05 25.6314 25.225C25.5939 25.3938 25.4751 25.7188 25.3626 25.9438C25.2501 26.175 25.0064 26.5188 24.7876 26.7563C24.5751 26.975 24.2689 27.2313 24.1126 27.3188C23.8751 27.4438 23.7939 27.4625 23.6564 27.4125C23.5564 27.375 23.4439 27.275 23.4001 27.1938C23.3439 27.0813 23.3189 26.6938 23.3126 24.9125L22.8439 24.5187C22.5939 24.3062 22.3689 24.1313 22.3501 24.1313C22.3314 24.1313 22.1126 24.3062 21.4001 24.9125L21.3751 26.0562C21.3501 27.1938 21.3501 27.2 21.1939 27.325C21.1064 27.3938 20.9876 27.4438 20.9314 27.4438C20.8689 27.4438 20.7314 27.3937 20.6189 27.3375C20.5064 27.2812 20.2626 27.0875 20.0751 26.9125C19.8876 26.7375 19.6314 26.4312 19.4939 26.225C19.3626 26.0188 19.1939 25.6625 19.1251 25.4438C19.0314 25.15 19.0001 24.8625 19.0001 24.4438C19.0001 24.0188 19.0314 23.7313 19.1251 23.4438C19.1939 23.2188 19.3626 22.8687 19.4939 22.6625C19.6314 22.4563 19.8876 22.1437 20.0751 21.9688C20.2626 21.7938 20.5064 21.6 20.8189 21.4438V13.6938L20.5001 13.4875C20.3189 13.375 20.0251 13.125 19.8439 12.925C19.6564 12.725 19.4251 12.3875 19.3251 12.175C19.2251 11.9625 19.1064 11.6438 19.0689 11.475C19.0251 11.3 18.9939 10.9375 18.9939 10.6625C18.9939 10.3688 19.0376 10.0063 19.1001 9.7875C19.1564 9.58125 19.2751 9.28125 19.3501 9.13125C19.4314 8.975 19.6001 8.7125 19.7376 8.55C19.8689 8.3875 20.1439 8.125 20.3501 7.96875C20.5939 7.7875 20.7939 7.69375 20.9126 7.6875ZM20.0126 9.76875C19.9751 9.8625 19.9189 10.1188 19.8876 10.3313C19.8501 10.5813 19.8501 10.85 19.8876 11.0688C19.9189 11.2563 20.0251 11.575 20.1189 11.775C20.2251 12.0062 20.4126 12.2625 20.6314 12.4625C20.8189 12.6437 21.1001 12.85 21.2564 12.925C21.4126 13 21.5751 13.1375 21.6189 13.2188C21.6751 13.3438 21.6939 14.35 21.6939 17.6V21.8188C21.4189 22.0813 21.1751 22.2563 20.9751 22.3813C20.7751 22.5 20.5064 22.7375 20.3751 22.9125C20.2439 23.0813 20.0751 23.3938 20.0001 23.6C19.9126 23.8563 19.8689 24.1187 19.8689 24.4438C19.8689 24.7188 19.9189 25.0375 19.9814 25.225C20.0376 25.3938 20.1501 25.6375 20.2314 25.7687C20.3189 25.9 20.4126 26.0063 20.4439 26.0063C20.4814 26.0063 20.5064 25.7188 20.5064 25.2687L20.5001 24.5375C21.6939 23.5125 22.1001 23.1813 22.1814 23.1375C22.2564 23.1 22.3689 23.075 22.4314 23.0938C22.4876 23.1063 22.8626 23.3938 23.2564 23.725C23.6501 24.0562 24.0251 24.3875 24.0876 24.4625C24.1814 24.575 24.2001 24.7125 24.2001 25.3C24.1939 25.8312 24.2126 26 24.2751 25.9875C24.3189 25.975 24.4501 25.775 24.5689 25.5312C24.7814 25.1125 24.7876 25.075 24.7876 24.4125C24.7876 23.7563 24.7751 23.7 24.5876 23.3312C24.4751 23.1187 24.2689 22.8313 24.1314 22.6938C23.9939 22.5562 23.7251 22.35 23.5314 22.2375C23.3314 22.125 23.1376 21.9813 23.0876 21.9125C23.0251 21.8062 23.0064 21.0062 23.0064 17.5812C23.0064 14.35 23.0251 13.3438 23.0876 13.2188C23.1314 13.125 23.3001 12.9875 23.4751 12.9C23.6501 12.8125 23.9126 12.625 24.0564 12.4812C24.2064 12.3375 24.3939 12.1125 24.4751 11.975C24.5626 11.8375 24.6689 11.5938 24.7251 11.4438C24.7814 11.2812 24.8251 10.9563 24.8251 10.6938C24.8314 10.3875 24.7876 10.1 24.7126 9.88125C24.6501 9.6875 24.5314 9.44375 24.4564 9.33125C24.3814 9.21875 24.2939 9.13125 24.2564 9.13125C24.2189 9.13125 24.1939 9.40625 24.1939 9.83125C24.1939 10.2188 24.1751 10.5687 24.1501 10.6062C24.1189 10.6438 23.7501 10.975 23.3189 11.3375C22.7126 11.8562 22.5001 12.0063 22.3501 12.0063C22.2001 12.0063 22.0001 11.8687 21.3814 11.3375C20.9501 10.975 20.5814 10.6438 20.5564 10.6062C20.5314 10.5687 20.5126 10.2188 20.5126 9.8375C20.5189 9.44375 20.4939 9.125 20.4626 9.10625C20.4251 9.0875 20.3251 9.19375 20.2376 9.3375C20.1501 9.48125 20.0501 9.675 20.0126 9.76875ZM15.0251 13.4438C15.2876 13.4438 15.5751 13.4688 15.6626 13.5063C15.7501 13.5375 15.8751 13.6313 15.9439 13.7063C16.0126 13.7812 16.0814 13.9438 16.1064 14.0688C16.1251 14.1875 16.1876 14.3375 16.2501 14.3938C16.3064 14.4563 16.4064 14.5063 16.4751 14.5063C16.5439 14.5063 16.6876 14.4438 16.7876 14.3625C16.9126 14.2688 17.0564 14.225 17.2376 14.225C17.4876 14.225 17.5376 14.2563 17.9626 14.675C18.3689 15.0813 18.4126 15.1562 18.4126 15.375C18.4126 15.525 18.3626 15.6875 18.2751 15.8125C18.1939 15.9187 18.1314 16.0687 18.1314 16.1437C18.1314 16.2187 18.1814 16.3313 18.2376 16.3875C18.3001 16.4438 18.4501 16.5062 18.5689 16.525C18.6876 16.5437 18.8689 16.6375 18.9626 16.7375C19.0814 16.85 19.1501 17 19.1751 17.1938C19.1939 17.3438 19.1939 17.6438 19.1751 17.85C19.1439 18.1187 19.0939 18.2625 18.9939 18.3687C18.9126 18.4438 18.7064 18.55 18.5251 18.6C18.2501 18.675 18.1876 18.7188 18.1564 18.8625C18.1251 18.9875 18.1626 19.1187 18.2876 19.35C18.4251 19.5875 18.4564 19.7 18.4189 19.85C18.3939 19.9563 18.2001 20.2063 17.9564 20.45C17.7064 20.7 17.4626 20.8875 17.3501 20.9125C17.2126 20.9438 17.0876 20.9125 16.8689 20.7875C16.7064 20.7 16.5126 20.6313 16.4501 20.6313C16.3814 20.6313 16.2876 20.6688 16.2314 20.725C16.1751 20.775 16.1189 20.9187 16.1001 21.05C16.0814 21.1875 16.0001 21.3562 15.9001 21.4562C15.7626 21.5938 15.6501 21.6375 15.3501 21.6688C15.1439 21.6875 14.8501 21.6875 14.6939 21.6688C14.5064 21.6438 14.3564 21.575 14.2376 21.4562C14.1439 21.3625 14.0501 21.1875 14.0251 21.0688C14.0064 20.9438 13.9439 20.7937 13.8876 20.7375C13.8314 20.675 13.7251 20.625 13.6501 20.625C13.5689 20.625 13.4189 20.6937 13.3126 20.7687C13.1939 20.8562 13.0314 20.9125 12.8751 20.9125C12.6564 20.9125 12.5876 20.8625 12.1814 20.4562C11.7564 20.0312 11.7251 19.9812 11.7251 19.7375C11.7251 19.5562 11.7689 19.4125 11.8689 19.2812C11.9501 19.1812 12.0126 19.0438 12.0126 18.975C12.0126 18.9062 11.9626 18.8 11.9001 18.7437C11.8376 18.6875 11.6876 18.6187 11.5689 18.6C11.4501 18.5813 11.2876 18.5063 11.2126 18.4375C11.1314 18.3687 11.0439 18.2437 11.0064 18.1625C10.9751 18.075 10.9439 17.7938 10.9439 17.5375C10.9439 17.2437 10.9814 16.9937 11.0376 16.8813C11.0876 16.775 11.2189 16.65 11.3189 16.6C11.4251 16.5438 11.5689 16.5 11.6501 16.5C11.7251 16.5 11.8376 16.45 11.9001 16.3937C11.9626 16.3312 12.0126 16.2313 12.0126 16.1625C12.0126 16.0938 11.9564 15.9625 11.8876 15.8813C11.8251 15.7938 11.7501 15.6375 11.7251 15.5375C11.7001 15.4313 11.7001 15.2812 11.7189 15.2063C11.7376 15.1313 11.9064 14.9062 12.0876 14.7125C12.2689 14.525 12.5001 14.325 12.6001 14.2688C12.7189 14.2125 12.8626 14.1875 12.9939 14.2125C13.1064 14.2375 13.2751 14.3125 13.3689 14.3813C13.4626 14.45 13.5939 14.5063 13.6626 14.5063C13.7314 14.5 13.8376 14.45 13.9001 14.3938C13.9626 14.3313 14.0126 14.2188 14.0064 14.1438C14.0064 14.0688 14.0501 13.9188 14.1001 13.8188C14.1501 13.7125 14.2751 13.5875 14.3689 13.5375C14.4751 13.4813 14.7251 13.4438 15.0251 13.4438ZM14.3314 15.1625C14.0939 15.325 14.0001 15.35 13.6376 15.35C13.3501 15.35 13.1751 15.3125 13.0689 15.2437C12.9189 15.1437 12.9064 15.1438 12.7876 15.2625C12.6689 15.3812 12.6689 15.3937 12.7751 15.6187C12.8564 15.775 12.8876 15.95 12.8689 16.2C12.8564 16.4688 12.8064 16.6188 12.6626 16.825C12.5376 17.0063 12.3689 17.15 12.1501 17.2563C11.8689 17.3875 11.8189 17.4375 11.8189 17.5812C11.8189 17.7188 11.8564 17.7563 11.9939 17.7875C12.0876 17.8 12.2751 17.9062 12.4064 18.0187C12.5439 18.1312 12.7064 18.3375 12.7689 18.475C12.8314 18.6125 12.8814 18.8375 12.8814 18.975C12.8814 19.1125 12.8251 19.3438 12.7564 19.4875C12.6314 19.75 12.6314 19.7562 12.7564 19.8625C12.8751 19.9688 12.8939 19.9688 13.1314 19.8625C13.2689 19.8 13.5001 19.7563 13.6501 19.7563C13.7939 19.7563 14.0251 19.8062 14.1626 19.8687C14.3001 19.9312 14.4876 20.0625 14.5751 20.1625C14.6626 20.2625 14.7626 20.45 14.8064 20.5812C14.8689 20.7812 14.9064 20.8188 15.0689 20.8188C15.2314 20.8188 15.2626 20.7875 15.3001 20.6125C15.3251 20.5 15.4314 20.3125 15.5314 20.2C15.6376 20.0813 15.8314 19.9375 15.9626 19.8687C16.0876 19.8062 16.3189 19.7563 16.4751 19.7563C16.6314 19.7563 16.8626 19.7938 16.9939 19.85C17.2064 19.9375 17.2376 19.9375 17.3376 19.8312C17.4376 19.7312 17.4376 19.7062 17.3501 19.4875C17.3001 19.3562 17.2564 19.125 17.2564 18.975C17.2564 18.8188 17.3126 18.5875 17.3751 18.4562C17.4376 18.325 17.5876 18.1375 17.7001 18.0312C17.8189 17.925 18.0064 17.8188 18.1189 17.7938C18.2939 17.7563 18.3189 17.725 18.3189 17.5688C18.3189 17.4062 18.2876 17.3687 18.0876 17.3C17.9564 17.2625 17.7689 17.1562 17.6689 17.0688C17.5689 16.9813 17.4376 16.8 17.3751 16.6625C17.3126 16.525 17.2564 16.2875 17.2564 16.1437C17.2564 16 17.3064 15.7625 17.3689 15.625C17.4689 15.3875 17.4689 15.3687 17.3689 15.25C17.2564 15.1313 17.2564 15.1313 16.9939 15.25C16.8439 15.3188 16.6126 15.375 16.4751 15.375C16.3376 15.375 16.1126 15.325 15.9751 15.2625C15.8376 15.2 15.6376 15.0375 15.5251 14.9062C15.4126 14.7688 15.3064 14.5813 15.2876 14.4875C15.2626 14.35 15.2251 14.3188 15.0814 14.3188C14.9314 14.3188 14.8876 14.3625 14.7564 14.6438C14.6501 14.8688 14.5126 15.0312 14.3314 15.1625ZM15.1314 15.4C15.5126 15.4125 15.7501 15.4562 15.9626 15.5562C16.1251 15.6312 16.3939 15.8125 16.5564 15.9625C16.7189 16.1125 16.9376 16.4063 17.0376 16.6063C17.2064 16.9313 17.2251 17.0312 17.2251 17.5375C17.2251 18.0438 17.2064 18.1438 17.0314 18.5063C16.9189 18.7375 16.7126 19.0125 16.5626 19.1562C16.4126 19.2938 16.1314 19.475 15.9439 19.5625C15.6564 19.7 15.5126 19.7188 15.0376 19.7188C14.5439 19.7188 14.4314 19.6938 14.1064 19.5312C13.9064 19.4312 13.6189 19.2125 13.4689 19.05C13.3189 18.8875 13.1314 18.6187 13.0564 18.4562C12.9689 18.2562 12.9126 17.9937 12.8939 17.6625C12.8751 17.25 12.8939 17.0938 13.0126 16.7875C13.1126 16.5063 13.2564 16.3062 13.5314 16.0312C13.7939 15.7688 14.0251 15.6062 14.2564 15.5125C14.5376 15.4 14.7001 15.3812 15.1314 15.4ZM13.9751 16.8125C13.8251 17.0187 13.7814 17.1562 13.7626 17.4625C13.7501 17.7563 13.7689 17.9062 13.8689 18.1C13.9376 18.2375 14.0751 18.425 14.1751 18.5125C14.2689 18.6063 14.4564 18.725 14.5876 18.7812C14.7126 18.8375 14.9314 18.8813 15.0689 18.8813C15.2064 18.8813 15.4251 18.8375 15.5564 18.7812C15.6814 18.725 15.8689 18.6063 15.9689 18.5125C16.0689 18.425 16.2001 18.2375 16.2626 18.1C16.3251 17.9625 16.3814 17.725 16.3814 17.5812C16.3814 17.4375 16.3376 17.2125 16.2876 17.0812C16.2314 16.95 16.1126 16.7688 16.0189 16.6688C15.9251 16.5688 15.7439 16.4375 15.6189 16.375C15.4751 16.3 15.2564 16.2563 15.0501 16.2563C14.8251 16.2563 14.6314 16.3 14.4439 16.4C14.2876 16.4812 14.0814 16.6625 13.9751 16.8125Z" fill="#049AFA"/>
</g>
<defs>
<clipPath id="clip0_106_786">
<rect width="32" height="32" fill="white"/>
</clipPath>
</defs>
</svg>
