<svg width="32" height="32" viewBox="0 0 32 32" fill="none" xmlns="http://www.w3.org/2000/svg">
<g id="file - 2023-10-19T224333.301 1">
<path id="Path 0" fill-rule="evenodd" clip-rule="evenodd" d="M15.9999 0.1875C16.0499 0.1875 16.3749 0.4 16.7186 0.6625C17.0624 0.925 17.6811 1.3625 18.0936 1.6375C18.5061 1.9125 19.3811 2.4 20.0311 2.71875C20.6811 3.04375 21.5249 3.41875 21.9061 3.55625C22.2874 3.69375 22.9311 3.90625 23.3436 4.025C23.7561 4.14375 24.3749 4.29375 24.7186 4.3625C25.0624 4.4375 25.6499 4.5375 26.0311 4.59375C26.4124 4.65 27.2124 4.71875 27.8124 4.74375C28.8624 4.79375 28.9124 4.8 29.0186 4.94375C29.0811 5.025 29.1436 5.175 29.1624 5.28125C29.1811 5.3875 29.1811 7.51875 29.1686 10.0312C29.1499 12.8562 29.1124 14.8562 29.0686 15.2812C29.0311 15.6625 28.9374 16.3188 28.8686 16.75C28.7936 17.1812 28.6561 17.8563 28.5624 18.25C28.4624 18.6437 28.2936 19.2375 28.1874 19.5625C28.0749 19.8875 27.8874 20.4125 27.7686 20.7188C27.6436 21.025 27.3561 21.6625 27.1249 22.125C26.8936 22.5875 26.5436 23.2375 26.3436 23.5625C26.1436 23.8875 25.7936 24.4125 25.5749 24.7188C25.3499 25.025 24.9999 25.4937 24.7874 25.75C24.5811 26.0063 24.1249 26.5125 23.7811 26.8687C23.4374 27.225 22.8749 27.7625 22.5311 28.0562C22.1874 28.35 21.6124 28.8125 21.2499 29.075C20.8874 29.3375 20.2561 29.75 19.8436 30C19.4311 30.2437 18.7561 30.6125 18.3436 30.8062C17.9311 31.0063 17.2874 31.2875 16.9061 31.4312C16.5249 31.575 16.1561 31.725 16.0811 31.7687C15.9686 31.825 15.9061 31.825 15.7999 31.7687C15.7186 31.725 15.3749 31.5813 15.0311 31.4438C14.6874 31.3125 14.1499 31.0812 13.8436 30.9375C13.5374 30.7938 13.0249 30.5375 12.7186 30.3625C12.4124 30.1875 11.8499 29.8375 11.4686 29.5938C11.0874 29.3438 10.4874 28.9062 10.1249 28.625C9.7624 28.3375 9.10615 27.75 8.6624 27.3188C8.2249 26.8875 7.6374 26.2625 7.3624 25.9375C7.0874 25.6125 6.64365 25.0375 6.38115 24.6562C6.1124 24.275 5.75615 23.7437 5.59365 23.4688C5.4249 23.1938 5.0999 22.5875 4.86865 22.125C4.64365 21.6625 4.35615 21.025 4.23115 20.7188C4.1124 20.4125 3.9249 19.8875 3.8124 19.5625C3.70615 19.2375 3.5374 18.6437 3.4374 18.25C3.34365 17.8563 3.20615 17.1812 3.13115 16.75C3.0624 16.3188 2.96865 15.6625 2.93115 15.2812C2.8874 14.8562 2.8499 12.8875 2.83115 10.0938C2.8124 7.61875 2.81865 5.48125 2.8374 5.34375C2.85615 5.20625 2.91865 5.025 2.98115 4.94375C3.0874 4.8 3.1374 4.79375 4.1874 4.74375C4.7874 4.71875 5.59365 4.65 5.96865 4.59375C6.34365 4.5375 6.9374 4.4375 7.28115 4.3625C7.6249 4.29375 8.19365 4.15625 8.5499 4.05625C8.8999 3.95625 9.54364 3.74375 9.98114 3.5875C10.4249 3.43125 11.2624 3.06875 11.8436 2.78125C12.4249 2.49375 13.2436 2.05 13.6561 1.7875C14.0686 1.53125 14.7436 1.0625 15.1561 0.75625C15.5686 0.44375 15.9499 0.19375 15.9999 0.1875ZM14.1124 2.625C13.7561 2.84375 13.0436 3.2375 12.5311 3.5C12.0124 3.7625 11.2311 4.125 10.7811 4.3C10.3311 4.475 9.5874 4.73125 9.1249 4.875C8.6624 5.0125 7.8749 5.2125 7.3749 5.3125C6.8749 5.4125 6.11865 5.5375 5.6874 5.59375C5.25615 5.64375 4.7624 5.6875 4.59365 5.6875C4.41865 5.6875 4.1749 5.7125 4.04365 5.7375L3.7999 5.78125C3.8499 14.5125 3.86865 15.325 3.9624 15.9375C4.01865 16.3312 4.1249 16.9375 4.19365 17.2812C4.26865 17.625 4.41865 18.2313 4.53115 18.625C4.64365 19.0187 4.8374 19.625 4.96865 19.9688C5.09365 20.3125 5.44365 21.1 5.7499 21.7188C6.05615 22.3375 6.4999 23.1375 6.7374 23.5C6.9749 23.8625 7.3999 24.45 7.68115 24.8125C7.9624 25.175 8.4624 25.7625 8.7999 26.1187C9.13115 26.475 9.7124 27.0375 10.0936 27.3625C10.4749 27.6875 11.0749 28.1625 11.4374 28.4188C11.7999 28.675 12.4186 29.0812 12.8124 29.3125C13.2061 29.55 13.8124 29.875 14.1561 30.0312C14.4999 30.1938 15.0561 30.4375 15.3936 30.5688L15.9999 30.8125C16.8936 30.4625 17.4624 30.2125 17.8436 30.0312C18.2249 29.8563 18.8249 29.5312 19.1874 29.3188C19.5499 29.1 20.1124 28.7375 20.4374 28.5125C20.7624 28.2812 21.2874 27.8875 21.5936 27.6313C21.8999 27.375 22.5061 26.8125 22.9374 26.375C23.3686 25.9438 23.9499 25.2937 24.2311 24.9312C24.5061 24.575 24.9499 23.9562 25.2124 23.5625C25.4749 23.1688 25.8999 22.4375 26.1499 21.9375C26.4061 21.4375 26.7374 20.7062 26.8936 20.3125C27.0499 19.9188 27.2811 19.2563 27.4061 18.8438C27.5311 18.4312 27.7124 17.6875 27.8124 17.1875C27.9124 16.6875 28.0249 16.025 28.0686 15.7188C28.1186 15.3438 28.1499 13.5938 28.1624 10.45L28.1874 5.75C27.6811 5.70625 27.1624 5.6625 26.7186 5.625C26.2749 5.5875 25.5249 5.4875 25.0624 5.4C24.5999 5.3125 23.9124 5.1625 23.5311 5.0625C23.1499 4.9625 22.4624 4.75 21.9999 4.5875C21.5374 4.425 20.8311 4.15 20.4374 3.975C20.0436 3.8 19.3686 3.4625 18.9374 3.225C18.5061 2.9875 17.9311 2.64375 17.6561 2.46875C17.3811 2.2875 16.8999 1.95625 16.5936 1.725C16.2874 1.5 16.0186 1.3125 15.9999 1.3125C15.9811 1.31875 15.6936 1.51875 15.3624 1.76875C15.0311 2.01875 14.4686 2.4 14.1124 2.625ZM15.9561 3.25C16.0624 3.25 16.4436 3.45 16.9874 3.79375C17.4561 4.09375 18.2374 4.54375 18.7186 4.7875C19.1999 5.0375 19.9436 5.3875 20.3749 5.5625C20.8061 5.7375 21.4936 5.9875 21.9061 6.125C22.3186 6.25625 22.9374 6.4375 23.2811 6.525C23.6249 6.6125 24.2874 6.75 24.7499 6.83125C25.2124 6.91875 25.7624 7.00625 25.9686 7.03125C26.1749 7.05625 26.4186 7.1125 26.5186 7.1625C26.6124 7.2125 26.7061 7.3125 26.7249 7.39375C26.7436 7.46875 26.7436 9.24375 26.7311 11.3438C26.7124 14.4875 26.6874 15.2812 26.5999 15.875C26.5436 16.2687 26.4249 16.9188 26.3311 17.3125C26.2436 17.7062 26.0624 18.3813 25.9249 18.8125C25.7874 19.2437 25.5186 19.9438 25.3311 20.375C25.1436 20.8062 24.8499 21.4125 24.6749 21.7188C24.4999 22.025 24.2061 22.5187 24.0124 22.8125C23.8249 23.1063 23.4874 23.5812 23.2561 23.875C23.0311 24.1688 22.5936 24.6875 22.2811 25.025C21.9749 25.3687 21.3936 25.925 20.9999 26.2687C20.6061 26.6062 19.8874 27.15 19.4061 27.4688C18.9249 27.7938 18.2061 28.225 17.8124 28.4312C17.4186 28.6375 16.8561 28.9062 16.0311 29.2563L15.5936 29.0875C15.3561 28.9937 14.7624 28.7188 14.2811 28.475C13.7999 28.2313 13.0686 27.8062 12.6561 27.5312C12.2436 27.2563 11.6061 26.7875 11.2499 26.4875C10.8874 26.1937 10.3061 25.6562 9.96239 25.3C9.61239 24.95 9.1249 24.4 8.8749 24.0938C8.6249 23.7875 8.21865 23.225 7.9624 22.8438C7.7124 22.4625 7.3374 21.8312 7.13115 21.4375C6.9249 21.0438 6.66865 20.5063 6.55615 20.25C6.4499 19.9937 6.2499 19.4562 6.11865 19.0625C5.98115 18.6688 5.80615 18.075 5.71865 17.75C5.6374 17.425 5.5374 16.9875 5.4999 16.7812C5.4624 16.575 5.3874 16.1 5.33115 15.7188C5.25615 15.175 5.23115 14.225 5.1749 7.46875L5.31865 7.29375C5.45615 7.125 5.54365 7.1 6.53115 6.9375C7.1124 6.84375 7.90615 6.6875 8.28115 6.59375C8.6624 6.5 9.29365 6.325 9.6874 6.20625C10.0811 6.0875 10.7999 5.8375 11.2811 5.64375C11.7624 5.45625 12.4936 5.1375 12.9061 4.93125C13.3186 4.73125 13.9811 4.375 14.3749 4.14375C14.7686 3.90625 15.2499 3.60625 15.4374 3.48125C15.6249 3.35 15.8561 3.25 15.9561 3.25ZM14.1561 5.3625C13.7749 5.56875 13.0499 5.925 12.5311 6.15625C12.0186 6.38125 11.1999 6.70625 10.7186 6.86875C10.2374 7.0375 9.4499 7.275 8.96865 7.39375C8.4874 7.51875 7.75615 7.675 7.34365 7.75C6.93115 7.81875 6.4999 7.8875 6.39365 7.90625L6.1874 7.9375C6.23115 14.2937 6.25615 15.1062 6.3374 15.6875C6.39365 16.0813 6.51239 16.7313 6.5999 17.125C6.6874 17.5187 6.8874 18.225 7.0374 18.6875C7.19365 19.15 7.5499 20.0063 7.8374 20.5938C8.1249 21.1812 8.5749 21.9813 8.84365 22.375C9.10615 22.7687 9.48115 23.2875 9.6749 23.5312C9.8749 23.7687 10.2999 24.2437 10.6249 24.5812C10.9499 24.925 11.5124 25.45 11.8749 25.7437C12.2311 26.0375 12.8811 26.5187 13.3124 26.8C13.7436 27.0875 14.4874 27.5188 14.9686 27.7563C15.4499 27.9937 15.9124 28.1875 15.9999 28.1875C16.0874 28.1875 16.5499 27.9937 17.0311 27.7563C17.5124 27.5188 18.2874 27.0688 18.7499 26.7625C19.2124 26.4563 19.8624 25.975 20.1874 25.7062C20.5124 25.4312 21.0749 24.9 21.4311 24.525C21.7874 24.15 22.3124 23.5375 22.5936 23.1562C22.8811 22.775 23.2624 22.2125 23.4561 21.9062C23.6436 21.6 23.9311 21.075 24.0936 20.75C24.2561 20.425 24.5124 19.8625 24.6561 19.5C24.7999 19.1375 25.0061 18.55 25.1124 18.1875C25.2186 17.825 25.3686 17.25 25.4374 16.9062C25.5061 16.5625 25.6124 15.975 25.6624 15.5938C25.7436 15.05 25.7686 14.1812 25.7874 11.4187L25.8124 7.9375C25.4999 7.8875 25.0686 7.81875 24.6561 7.75C24.2436 7.675 23.5686 7.53125 23.1561 7.43125C22.7436 7.325 22.0999 7.14375 21.7186 7.01875C21.3374 6.9 20.6936 6.6625 20.2811 6.5C19.8686 6.33125 19.2749 6.08125 18.9686 5.9375C18.6624 5.79375 18.0561 5.475 17.6249 5.2375C17.1936 4.99375 16.6561 4.675 16.4186 4.525C16.1874 4.375 15.9936 4.25 15.9874 4.25625C15.9749 4.25625 15.7124 4.425 15.4061 4.625C15.0999 4.825 14.5374 5.15625 14.1561 5.3625ZM21.3311 12.125C21.4249 12.125 21.5686 12.1938 21.6561 12.2812C21.7499 12.375 21.8124 12.5062 21.8124 12.6062C21.8124 12.7562 21.1874 13.4063 17.9811 16.6063C14.6311 19.9625 14.1311 20.4375 13.9686 20.4375C13.8061 20.4375 13.5499 20.2062 12.0499 18.7062C10.8124 17.4688 10.3124 16.9313 10.3124 16.825C10.3124 16.75 10.3936 16.6 10.4999 16.5C10.6436 16.3563 10.7249 16.3188 10.8624 16.35C10.9749 16.3687 11.4936 16.8438 13.9374 19.2812L14.5749 18.6562C14.9311 18.3125 16.5561 16.7 18.1874 15.0813C20.6499 12.6313 21.1874 12.125 21.3311 12.125Z" fill="#049AFA"/>
</g>
</svg>
