<svg width="32" height="32" viewBox="0 0 32 32" fill="none" xmlns="http://www.w3.org/2000/svg">
<g id="file - 2023-10-19T224411.129 1">
<path id="Path 0" fill-rule="evenodd" clip-rule="evenodd" d="M18.875 0L19.0875 0.20625C19.2625 0.375 19.3062 0.46875 19.3438 0.78125C19.3687 0.9875 19.375 1.38125 19.35 1.65625C19.3313 1.93125 19.2687 2.325 19.2188 2.53125C19.1625 2.7375 19.0375 3.075 18.9375 3.28125C18.8375 3.4875 18.6625 3.76875 18.55 3.9C18.4375 4.0375 18.175 4.25625 17.9688 4.3875C17.7625 4.51875 17.425 4.68125 17.2188 4.75C17.0125 4.81875 16.65 4.9 16.4062 4.94375C16.1625 4.98125 15.9625 5.01875 15.9563 5.025C15.95 5.025 16 5.20625 16.0625 5.425C16.1313 5.6375 16.1875 5.88125 16.1875 5.96875C16.1875 6.0875 16.2125 6.11875 16.3 6.09375C16.3562 6.08125 16.6 6.00625 16.8438 5.9375C17.0875 5.8625 17.55 5.7875 17.875 5.76875C18.3062 5.74375 18.6125 5.7625 19 5.8375C19.2938 5.9 19.7125 6.025 19.9375 6.11875C20.1625 6.20625 20.5562 6.425 20.8125 6.59375C21.0688 6.76875 21.475 7.10625 21.7125 7.34375C21.9438 7.58125 22.3 8.01875 22.4875 8.3125C22.6812 8.60625 22.9438 9.08125 23.075 9.375C23.2063 9.66875 23.3813 10.1875 23.4688 10.5312C23.5562 10.875 23.6625 11.4812 23.7 11.875C23.7563 12.425 23.7563 12.7688 23.7 13.3438C23.6625 13.7563 23.5562 14.375 23.4688 14.7188C23.3813 15.0625 23.2063 15.5813 23.075 15.875C22.9438 16.1688 22.6812 16.6437 22.4875 16.9375C22.2937 17.2313 21.9625 17.6437 21.375 18.25H24.0625C26.0812 18.25 26.7875 18.2687 26.9125 18.3312C27.0063 18.3687 27.1187 18.4812 27.1625 18.5812C27.2125 18.675 27.25 18.8062 27.25 18.875C27.25 18.9438 27.2125 19.075 27.1625 19.175C27.1187 19.2687 27.0063 19.3812 26.9125 19.425C26.8188 19.4688 26.5125 19.5 25.6562 19.4937L25.4562 19.7625C25.35 19.9125 25.1875 20.2 25.0938 20.4062C25 20.6125 24.8875 20.9625 24.8375 21.1875C24.7937 21.4125 24.75 21.775 24.75 22C24.75 22.225 24.7937 22.5875 24.8375 22.8125C24.8875 23.0375 25 23.3875 25.0938 23.5938C25.1875 23.8 25.35 24.0875 25.6562 24.5063L27.4562 24.5C28.8562 24.5 29.2875 24.5187 29.425 24.5875C29.5187 24.6313 29.6312 24.7437 29.675 24.8375C29.7125 24.925 29.75 25.0562 29.75 25.125C29.75 25.1938 29.7125 25.325 29.675 25.4125C29.6312 25.5063 29.5187 25.6187 29.425 25.6625C29.3125 25.7188 29.0438 25.75 28.1562 25.7437L27.9562 26.0125C27.85 26.1625 27.6875 26.45 27.5938 26.6562C27.5 26.8625 27.3875 27.2125 27.3375 27.4375C27.2937 27.6625 27.25 28.025 27.25 28.25C27.25 28.475 27.2937 28.8375 27.3375 29.0625C27.3875 29.2875 27.5 29.6375 27.5938 29.8438C27.6875 30.05 27.85 30.3375 28.1562 30.7563L28.7062 30.75C29.0437 30.75 29.3125 30.7812 29.425 30.8375C29.5187 30.8813 29.6312 30.9937 29.675 31.0875C29.7125 31.175 29.75 31.3062 29.75 31.375C29.75 31.4438 29.7188 31.5625 29.6812 31.6437C29.6437 31.7188 29.55 31.8313 29.475 31.8875C29.35 31.9938 28.6437 32 6.375 32L6.08125 31.6938C5.9125 31.5188 5.66875 31.1937 5.525 30.9562C5.3875 30.725 5.2 30.35 5.10625 30.125C5.01875 29.9 4.9 29.45 4.8375 29.125C4.76875 28.7062 4.74375 28.3563 4.775 27.9375C4.79375 27.6125 4.86875 27.1375 4.9375 26.8937C5.00625 26.6437 5.13125 26.3 5.21875 26.125C5.30625 25.9562 5.375 25.8 5.375 25.7812C5.375 25.7625 5.05625 25.75 4.675 25.75C4.24375 25.7437 3.9125 25.7188 3.83125 25.6688C3.75625 25.625 3.575 25.4562 3.43125 25.2812C3.2875 25.1125 3.06875 24.7875 2.93125 24.5625C2.8 24.3375 2.625 23.9438 2.5375 23.6875C2.45 23.4312 2.35 23.0375 2.31875 22.8125C2.28125 22.5875 2.25 22.225 2.25 22C2.25 21.775 2.28125 21.4125 2.31875 21.1875C2.35 20.9625 2.45 20.5688 2.5375 20.3125C2.625 20.0562 2.8 19.6625 2.93125 19.4375C3.06875 19.2125 3.2875 18.8937 3.43125 18.7188C3.575 18.55 3.75625 18.375 3.83125 18.3312C3.93125 18.275 4.71875 18.2563 9.84375 18.2563L9.525 17.925C9.35 17.7437 9.0875 17.425 8.93125 17.2188C8.78125 17.0125 8.525 16.5875 8.36875 16.2812C8.20625 15.975 8.00625 15.5063 7.91875 15.25C7.8375 14.9937 7.7125 14.5437 7.65 14.25C7.5625 13.85 7.53125 13.4563 7.53125 12.625C7.53125 11.825 7.5625 11.3938 7.6375 11.0312C7.7 10.7563 7.81875 10.3062 7.9125 10.0312C8 9.75625 8.20625 9.275 8.3625 8.96875C8.525 8.6625 8.8125 8.19375 9.00625 7.9375C9.2 7.68125 9.50625 7.33125 9.69375 7.1625C9.88125 6.99375 10.2312 6.725 10.4688 6.56875C10.7125 6.40625 11.0875 6.20625 11.3125 6.1125C11.5375 6.025 11.9563 5.9 12.25 5.84375C12.6375 5.7625 12.9375 5.74375 13.375 5.76875C13.75 5.79375 14.15 5.8625 14.9688 6.125L14.9187 5.91875C14.8938 5.8125 14.775 5.50625 14.65 5.25C14.4937 4.91875 14.3125 4.66875 14.0437 4.40625C13.8313 4.2 13.5 3.95 13.3125 3.85625C13.125 3.76875 12.8 3.65 12.5938 3.59375C12.3875 3.54375 12.1125 3.5 11.9875 3.5C11.8562 3.5 11.675 3.4625 11.5875 3.425C11.4937 3.38125 11.3812 3.26875 11.3375 3.175C11.2875 3.075 11.25 2.94375 11.25 2.875C11.25 2.80625 11.2875 2.675 11.3375 2.58125C11.3812 2.48125 11.4937 2.36875 11.5875 2.33125C11.675 2.2875 11.8625 2.25 12 2.25C12.1375 2.25 12.4688 2.29375 12.7375 2.35C13.0063 2.4 13.4688 2.5625 13.8 2.725C14.1125 2.875 14.3875 2.99375 14.3938 2.9875C14.4062 2.975 14.4563 2.7875 14.5063 2.5625C14.55 2.3375 14.6813 1.9625 14.8 1.71875C14.9375 1.44375 15.1438 1.15625 15.35 0.95625C15.5375 0.775 15.8625 0.54375 16.0812 0.4375C16.2937 0.3375 16.65 0.2 16.875 0.13125C17.1687 0.04375 17.5 0.0125 18.875 0ZM17 1.4125C16.8125 1.46875 16.525 1.60625 16.3625 1.725C16.15 1.875 16.0188 2.0375 15.9125 2.26875C15.8313 2.44375 15.7313 2.7625 15.6938 2.96875C15.6562 3.175 15.625 3.44375 15.625 3.5625V3.78125C16.2312 3.7125 16.55 3.65 16.7188 3.59375C16.8938 3.54375 17.1438 3.43125 17.2812 3.34375C17.4187 3.25625 17.6125 3.0625 17.7062 2.91875C17.8 2.775 17.9187 2.51875 17.9688 2.34375C18.025 2.175 18.0875 1.85625 18.1125 1.6375L18.1562 1.25C17.7188 1.2625 17.5375 1.275 17.4688 1.2875C17.4 1.30625 17.1875 1.35625 17 1.4125ZM11.875 7.24375C11.6875 7.3125 11.3625 7.48125 11.1562 7.6125C10.95 7.74375 10.6562 7.975 10.5 8.13125C10.3438 8.28125 10.1 8.5625 9.95625 8.75C9.8125 8.9375 9.58125 9.31875 9.45 9.59375C9.3125 9.86875 9.1375 10.2937 9.06875 10.5312C8.99375 10.775 8.89375 11.2063 8.8375 11.5C8.7875 11.7937 8.75 12.3 8.75 12.625C8.75 12.95 8.7875 13.4563 8.8375 13.75C8.89375 14.0437 8.99375 14.4812 9.06875 14.7188C9.1375 14.9625 9.31875 15.3937 9.45625 15.6812C9.6 15.9688 9.86875 16.3875 10.05 16.6187C10.2313 16.8438 10.525 17.1562 10.7063 17.3062C10.8813 17.4562 11.1562 17.65 11.3125 17.7375C11.4688 17.8312 11.775 17.9688 12 18.05C12.2312 18.1312 12.625 18.2125 12.9062 18.2313C13.3 18.2563 13.5188 18.2375 13.9375 18.1313C14.2688 18.05 14.65 17.8937 14.9563 17.7188C15.2312 17.5562 15.5188 17.4375 15.625 17.4375C15.7312 17.4375 15.9937 17.5438 16.2375 17.6875C16.4687 17.825 16.8375 18 17.0625 18.0812C17.3813 18.1875 17.6125 18.2188 18.125 18.2188C18.6437 18.2188 18.8687 18.1875 19.1875 18.075C19.4125 18 19.7437 17.85 19.925 17.75C20.1 17.6437 20.4375 17.3875 20.6625 17.175C20.8938 16.9562 21.2 16.6125 21.3438 16.4062C21.4937 16.2 21.6938 15.8625 21.7938 15.6562C21.9 15.45 22.0437 15.1 22.1187 14.875C22.2 14.65 22.3 14.2812 22.35 14.05C22.4 13.8125 22.4563 13.35 22.475 13.0188C22.5 12.6813 22.4813 12.15 22.4438 11.8438C22.4062 11.5375 22.3188 11.0562 22.2437 10.7812C22.175 10.5063 22.0063 10.0437 21.8687 9.75C21.7312 9.45625 21.4937 9.05 21.35 8.84375C21.2 8.6375 20.8938 8.29375 20.6625 8.08125C20.4375 7.8625 20.1 7.60625 19.925 7.5C19.7437 7.4 19.4125 7.25 19.1875 7.175C18.8687 7.0625 18.6437 7.03125 18.125 7.03125C17.6125 7.03125 17.3813 7.0625 17.0625 7.16875C16.8375 7.25 16.4687 7.425 16.2375 7.5625C15.9937 7.70625 15.7312 7.8125 15.625 7.8125C15.5188 7.8125 15.2563 7.70625 15.0188 7.5625C14.7812 7.43125 14.425 7.25625 14.2188 7.1875C13.9812 7.1 13.6375 7.04375 13.2812 7.03125C12.975 7.01875 12.6062 7.03125 12.4688 7.0625C12.3313 7.0875 12.0625 7.16875 11.875 7.24375ZM4.18125 19.7938C4.06875 19.9625 3.90625 20.25 3.825 20.4375C3.74375 20.625 3.6375 20.9625 3.5875 21.1875C3.54375 21.4125 3.5 21.775 3.5 22C3.5 22.225 3.54375 22.5875 3.5875 22.8125C3.6375 23.0375 3.74375 23.375 3.825 23.5625C3.90625 23.75 4.06875 24.0375 4.175 24.2L4.375 24.5H7.875V22.625C6.76875 22.625 6.4375 22.5938 6.3375 22.5438C6.24375 22.5063 6.13125 22.3938 6.0875 22.2938C6.0375 22.2 6 22.0688 6 22C6 21.9312 6.0375 21.8 6.0875 21.7C6.13125 21.6063 6.24375 21.4938 6.3375 21.45C6.4625 21.3938 8.03125 21.375 13.5 21.375C19.325 21.375 20.5312 21.3875 20.675 21.4625C20.7687 21.5063 20.8812 21.6187 20.925 21.7125C20.9625 21.8 21 21.9312 21 22C21 22.0688 20.9625 22.2 20.925 22.2875C20.8812 22.3813 20.7687 22.4937 20.675 22.5375C20.5312 22.6063 19.8062 22.625 16.6875 22.625H12.875V24.5C21.5938 24.5 24.125 24.4938 24.125 24.4813C24.125 24.475 24.0562 24.3188 23.9688 24.1375C23.8813 23.9625 23.75 23.5938 23.675 23.325C23.5625 22.9375 23.5375 22.6812 23.5375 22C23.5375 21.3188 23.5625 21.0625 23.675 20.6688C23.75 20.4062 23.8813 20.0375 23.9688 19.8563C24.0562 19.6813 24.125 19.525 24.125 19.5125C24.125 19.5063 19.6812 19.5 14.25 19.5H4.38125L4.18125 19.7938ZM9.125 25.4688C9.83125 24.775 10.1062 24.55 10.1875 24.525C10.275 24.5063 10.4312 24.5063 10.5312 24.525C10.6438 24.5562 10.9062 24.7562 11.175 25.0187L11.6313 25.4625L11.625 22.6187H9.125V25.4688ZM6.68125 26.05C6.575 26.2125 6.4125 26.5 6.33125 26.6875C6.25 26.8813 6.14375 27.2188 6.09375 27.4375C6.04375 27.6625 6.00625 28.0312 6.00625 28.25C6.00625 28.475 6.04375 28.8438 6.09375 29.0625C6.14375 29.2875 6.25 29.625 6.33125 29.8125C6.4125 30.0063 6.56875 30.2937 6.68125 30.4562L6.88125 30.75C22.1875 30.75 26.6313 30.7437 26.6313 30.7375C26.6313 30.7312 26.5625 30.575 26.475 30.3937C26.3875 30.2125 26.2563 29.85 26.1812 29.5812C26.0688 29.1875 26.0438 28.9375 26.0438 28.25C26.0438 27.5688 26.0688 27.3187 26.1812 26.925C26.2563 26.6562 26.3875 26.2937 26.475 26.1125C26.5625 25.9312 26.6313 25.775 26.6313 25.7687C26.6313 25.7625 23.5375 25.75 19.7563 25.75H12.8813C12.8813 26.9 12.85 27.1875 12.7937 27.3C12.7437 27.3937 12.6312 27.5062 12.5437 27.55C12.4563 27.5938 12.325 27.625 12.2563 27.625C12.1875 27.625 12.0688 27.6 11.9875 27.5562C11.9125 27.5187 11.5188 27.1625 11.1125 26.7625L10.3813 26.0312C9.24375 27.1625 8.85 27.5187 8.76875 27.5562C8.69375 27.6 8.575 27.625 8.50625 27.625C8.4375 27.625 8.3 27.5875 8.20625 27.5438C8.1125 27.4938 8 27.3813 7.95625 27.2938C7.9125 27.1938 7.88125 26.8625 7.88125 26.4375V25.75H6.8875L6.68125 26.05ZM18.2188 8.40625C18.3563 8.425 18.6688 8.5375 18.9062 8.65625C19.15 8.775 19.475 8.98125 19.6313 9.1125C19.7875 9.24375 20.0375 9.49375 20.1812 9.6625C20.325 9.8375 20.5375 10.1438 20.6562 10.35C20.7687 10.5563 20.925 10.9 20.9937 11.1187C21.0688 11.3312 21.125 11.6188 21.125 11.7563C21.125 11.925 21.0812 12.0562 20.9875 12.1687C20.8937 12.2688 20.7563 12.3375 20.5938 12.3625C20.4 12.3875 20.3062 12.3625 20.175 12.2625C20.0562 12.175 19.9562 12 19.8687 11.7125C19.7937 11.475 19.6687 11.1562 19.5875 10.9937C19.5063 10.825 19.3187 10.5625 19.175 10.4062C19.025 10.2437 18.7938 10.0375 18.6562 9.94375C18.5187 9.84375 18.2437 9.7125 18.05 9.6375C17.7812 9.5375 17.6625 9.45625 17.5938 9.31875C17.5437 9.21875 17.5 9.06875 17.5063 8.99375C17.5063 8.9125 17.55 8.78125 17.6 8.7C17.6562 8.61875 17.7625 8.5125 17.8375 8.4625C17.9187 8.4125 18.0688 8.3875 18.2188 8.40625ZM18.4875 27.6313C21.975 27.6313 23.0375 27.65 23.1625 27.7062C23.2563 27.75 23.3687 27.8625 23.4125 27.9562C23.4625 28.0562 23.5 28.1875 23.5 28.2563C23.5 28.325 23.4625 28.4562 23.4125 28.55C23.3687 28.65 23.2563 28.7625 23.1625 28.8C23.0375 28.8625 21.975 28.8813 18.5 28.8813C15.0312 28.8813 13.9625 28.8625 13.8375 28.8C13.75 28.7625 13.6375 28.65 13.5875 28.55C13.5375 28.4562 13.5 28.3187 13.5063 28.2375C13.5063 28.1625 13.55 28.0312 13.6 27.95C13.6562 27.8688 13.7625 27.7625 13.8375 27.7188C13.9437 27.65 14.85 27.6375 18.4875 27.6313Z" fill="#049AFA"/>
</g>
</svg>
