<svg width="24" height="24" viewBox="0 0 24 24" fill="none" xmlns="http://www.w3.org/2000/svg">
<g id="uil:arrow-up">
<path id="Vector" d="M11.2899 6.29006L6.2899 11.2901C6.19886 11.3852 6.12749 11.4973 6.0799 11.6201C5.97988 11.8635 5.97988 12.1366 6.0799 12.3801C6.12749 12.5028 6.19886 12.615 6.2899 12.7101L11.2899 17.7101C11.3831 17.8033 11.4938 17.8773 11.6156 17.9277C11.7375 17.9782 11.868 18.0042 11.9999 18.0042C12.2662 18.0042 12.5216 17.8984 12.7099 17.7101C12.8982 17.5218 13.004 17.2664 13.004 17.0001C13.004 16.7338 12.8982 16.4784 12.7099 16.2901L9.4099 13.0001L16.9999 13.0001C17.2651 13.0001 17.5195 12.8947 17.707 12.7072C17.8945 12.5196 17.9999 12.2653 17.9999 12.0001C17.9999 11.7348 17.8945 11.4805 17.707 11.293C17.5195 11.1054 17.2651 11.0001 16.9999 11.0001L9.4099 11.0001L12.7099 7.71006C12.8036 7.61709 12.878 7.5065 12.9288 7.38464C12.9796 7.26278 13.0057 7.13207 13.0057 7.00006C13.0057 6.86805 12.9796 6.73734 12.9288 6.61548C12.878 6.49362 12.8036 6.38302 12.7099 6.29006C12.6169 6.19633 12.5063 6.12194 12.3845 6.07117C12.2626 6.0204 12.1319 5.99426 11.9999 5.99426C11.8679 5.99426 11.7372 6.0204 11.6153 6.07117C11.4935 6.12194 11.3829 6.19633 11.2899 6.29006Z" fill="#049AFA"/>
</g>
</svg>
