<svg width="24" height="24" viewBox="-4 -4 24 24" fill="none" xmlns="http://www.w3.org/2000/svg">
<g id="jam:close">
<path id="Vector" d="M8.876 7.93334L11.2327 5.576C11.2963 5.5145 11.3471 5.44094 11.3821 5.3596C11.417 5.27827 11.4354 5.19079 11.4362 5.10227C11.4369 5.01375 11.4201 4.92596 11.3865 4.84403C11.353 4.7621 11.3035 4.68767 11.2409 4.62507C11.1783 4.56248 11.1039 4.51297 11.022 4.47945C10.94 4.44593 10.8523 4.42907 10.7637 4.42983C10.6752 4.4306 10.5877 4.44899 10.5064 4.48393C10.4251 4.51887 10.3515 4.56966 10.29 4.63334L7.93267 6.99L5.576 4.63334C5.5145 4.56966 5.44094 4.51887 5.3596 4.48393C5.27827 4.44899 5.19079 4.4306 5.10227 4.42983C5.01375 4.42907 4.92596 4.44593 4.84403 4.47945C4.7621 4.51297 4.68767 4.56248 4.62507 4.62507C4.56248 4.68767 4.51297 4.7621 4.47945 4.84403C4.44593 4.92596 4.42907 5.01375 4.42983 5.10227C4.4306 5.19079 4.44899 5.27827 4.48393 5.3596C4.51887 5.44094 4.56966 5.5145 4.63334 5.576L6.99 7.93267L4.63334 10.29C4.56966 10.3515 4.51887 10.4251 4.48393 10.5064C4.44899 10.5877 4.4306 10.6752 4.42983 10.7637C4.42907 10.8523 4.44593 10.94 4.47945 11.022C4.51297 11.1039 4.56248 11.1783 4.62507 11.2409C4.68767 11.3035 4.7621 11.353 4.84403 11.3865C4.92596 11.4201 5.01375 11.4369 5.10227 11.4362C5.19079 11.4354 5.27827 11.417 5.3596 11.3821C5.44094 11.3471 5.5145 11.2963 5.576 11.2327L7.93267 8.876L10.29 11.2327C10.3515 11.2963 10.4251 11.3471 10.5064 11.3821C10.5877 11.417 10.6752 11.4354 10.7637 11.4362C10.8523 11.4369 10.94 11.4201 11.022 11.3865C11.1039 11.353 11.1783 11.3035 11.2409 11.2409C11.3035 11.1783 11.353 11.1039 11.3865 11.022C11.4201 10.94 11.4369 10.8523 11.4362 10.7637C11.4354 10.6752 11.417 10.5877 11.3821 10.5064C11.3471 10.4251 11.2963 10.3515 11.2327 10.29L8.876 7.93334Z" fill="#049AFA"/>
</g>
</svg>
