<svg width="24" height="24" viewBox="-6 -6 24 24" fill="none" xmlns="http://www.w3.org/2000/svg">
<g id="material-symbols:content-paste-go">
<path id="Vector" d="M9 10.5L8.3 9.7875L9.0875 9H6V8H9.0875L8.3 7.2L9 6.5L11 8.5L9 10.5ZM10.5 5.5H9.5V2.5H8.5V4H3.5V2.5H2.5V9.5H5V10.5H2.5C2.225 10.5 1.9895 10.402 1.7935 10.206C1.5975 10.01 1.49967 9.77467 1.5 9.5V2.5C1.5 2.225 1.598 1.9895 1.794 1.7935C1.99 1.5975 2.22533 1.49967 2.5 1.5H4.5875C4.67917 1.20833 4.85833 0.968668 5.125 0.781001C5.39167 0.593334 5.68333 0.499668 6 0.500001C6.33333 0.500001 6.63133 0.593834 6.894 0.781501C7.15667 0.969168 7.33367 1.20867 7.425 1.5H9.5C9.775 1.5 10.0105 1.598 10.2065 1.794C10.4025 1.99 10.5003 2.22533 10.5 2.5V5.5ZM6 2.5C6.14167 2.5 6.2605 2.452 6.3565 2.356C6.4525 2.26 6.50033 2.14133 6.5 2C6.5 1.85833 6.452 1.7395 6.356 1.6435C6.26 1.5475 6.14134 1.49967 6 1.5C5.85834 1.5 5.7395 1.548 5.6435 1.644C5.5475 1.74 5.49967 1.85867 5.5 2C5.5 2.14167 5.548 2.2605 5.644 2.3565C5.74 2.4525 5.85867 2.50033 6 2.5Z" fill="#049AFA"/>
</g>
</svg>
