<svg width="26" height="26" viewBox="0 0 26 26" fill="none" xmlns="http://www.w3.org/2000/svg">
<g id="file - 2023-10-20T131541.604 1">
<path id="Path 0" d="M7.3125 3.03155C7.20586 3.07725 6.58633 3.65108 5.73828 4.49913L4.3418 5.89054C3.91016 5.45382 3.71719 5.28624 3.63086 5.24561C3.54453 5.19991 3.37695 5.16436 3.25 5.16436C3.11797 5.16436 2.95039 5.20499 2.84375 5.26085C2.73711 5.32179 2.62031 5.44874 2.54922 5.58585C2.48828 5.7128 2.4375 5.89054 2.4375 5.97686C2.4375 6.06827 2.46797 6.20538 2.50859 6.28155C2.54922 6.3628 2.88945 6.72843 3.26016 7.09913C3.81367 7.64757 3.97109 7.7796 4.13867 7.82022C4.2707 7.85069 4.41289 7.85069 4.54492 7.81514C4.71758 7.76944 5.01211 7.49522 6.48984 6.02764C7.44961 5.07296 8.26719 4.22491 8.31289 4.13858C8.36367 4.03702 8.38398 3.89991 8.36875 3.73233C8.35859 3.59015 8.30273 3.41241 8.24687 3.32608C8.18594 3.24483 8.03359 3.12296 7.90664 3.06202C7.77461 2.996 7.62734 2.94522 7.58164 2.9503C7.53086 2.9503 7.40898 2.98585 7.3125 3.03155ZM11.5781 5.24054C11.4512 5.30655 11.2988 5.43858 11.2328 5.53507C11.1566 5.65694 11.1211 5.78897 11.1211 5.94132C11.1211 6.06827 11.1617 6.25108 11.2176 6.34757C11.2684 6.44405 11.4004 6.57608 11.507 6.63702L11.7051 6.75382L22.9785 6.7589C23.2477 6.57608 23.3695 6.46944 23.4203 6.39835C23.4762 6.32725 23.532 6.16983 23.5473 6.04288C23.5727 5.86007 23.5523 5.76866 23.4559 5.596C23.3898 5.47413 23.2527 5.32686 23.1562 5.26593L22.9785 5.15421L11.8066 5.12882L11.5781 5.24054ZM7.26172 10.6386C7.15508 10.6843 6.51016 11.2886 5.70273 12.096L4.31641 13.4773C3.82383 12.9948 3.63086 12.8323 3.56484 12.7968C3.50391 12.7663 3.35664 12.7409 3.23477 12.7409C3.09258 12.7409 2.96055 12.7816 2.84883 12.8577C2.75234 12.9187 2.63047 13.0304 2.57969 13.0964C2.52383 13.1675 2.46797 13.33 2.45273 13.4519C2.43242 13.6245 2.45273 13.7312 2.52891 13.8835C2.58477 13.9952 2.90469 14.3558 3.23477 14.6808C3.56484 15.0058 3.91016 15.3105 3.99648 15.3511C4.08789 15.3968 4.23008 15.4323 4.31641 15.4323C4.39766 15.4323 4.52969 15.412 4.60586 15.3815C4.68711 15.3511 5.53008 14.5437 6.48984 13.589C7.44961 12.6343 8.26719 11.7913 8.30781 11.7151C8.34336 11.639 8.37891 11.4765 8.37891 11.3597C8.37891 11.2175 8.34336 11.0855 8.26719 10.9687C8.20117 10.8722 8.09453 10.7554 8.02344 10.6995C7.95234 10.6487 7.79492 10.5929 7.66797 10.5827C7.52578 10.5675 7.37344 10.5878 7.26172 10.6386ZM11.5375 12.8273C11.441 12.873 11.3191 12.9796 11.2582 13.0659C11.1871 13.1675 11.1414 13.3249 11.1312 13.5026C11.116 13.7312 11.1312 13.8175 11.2328 13.9597C11.2937 14.0562 11.4309 14.178 11.5273 14.239C11.7051 14.3405 11.7457 14.3405 17.3418 14.3405H22.9785C23.2578 14.173 23.3848 14.0308 23.4457 13.9038C23.5117 13.7819 23.5625 13.6042 23.5625 13.5026C23.5625 13.4011 23.5168 13.2538 23.4457 13.1472C23.3797 13.0507 23.2477 12.9187 23.1512 12.8577L22.9785 12.7409C12.2535 12.746 11.6898 12.7511 11.5375 12.8273ZM7.36328 18.1796C7.22109 18.2151 6.89102 18.5198 5.78906 19.6218C5.02227 20.3886 4.36719 21.0183 4.3418 21.0183C4.31133 21.0183 4.14375 20.871 3.96094 20.6933C3.70703 20.4444 3.58516 20.3632 3.42773 20.3327C3.31602 20.3124 3.14336 20.3124 3.04688 20.3327C2.94531 20.353 2.79297 20.4495 2.68125 20.5562C2.55937 20.678 2.48659 20.8067 2.46289 20.9421C2.44258 21.0538 2.44258 21.2265 2.46289 21.323C2.48828 21.4601 2.6457 21.653 3.16367 22.1812C3.53437 22.5519 3.92031 22.9023 4.02187 22.953C4.12852 23.0089 4.26055 23.0495 4.31641 23.0495C4.37227 23.0495 4.51445 23.0038 4.63125 22.948C4.78359 22.8819 5.37773 22.3183 6.56094 21.1351C7.50039 20.1905 8.29766 19.3577 8.32305 19.2816C8.35352 19.2054 8.37891 19.0429 8.37891 18.9261C8.37891 18.7839 8.34336 18.6468 8.26719 18.5351C8.20117 18.4386 8.0793 18.3218 7.99805 18.271C7.91172 18.2253 7.77461 18.1745 7.69336 18.1593C7.60703 18.1441 7.45977 18.1542 7.36328 18.1796ZM11.6289 20.3683C11.5578 20.3937 11.4461 20.4648 11.3801 20.5257C11.3191 20.5866 11.2328 20.7034 11.1922 20.7796C11.1516 20.8558 11.1211 21.0132 11.1211 21.1351C11.116 21.2773 11.1566 21.4093 11.2328 21.521C11.2988 21.6175 11.4156 21.7444 11.4918 21.8003C11.634 21.9069 11.6441 21.9069 17.2707 21.9222C22.5418 21.9323 22.9125 21.9273 23.0902 21.846C23.1918 21.7952 23.334 21.6784 23.4051 21.5819C23.5117 21.4448 23.5371 21.3534 23.5371 21.1198C23.5371 20.8913 23.5117 20.7999 23.4051 20.6628C23.334 20.5663 23.1918 20.4444 23.0902 20.3987C22.9125 20.3124 22.5367 20.3073 17.3266 20.3124C13.7516 20.3124 11.7102 20.3327 11.6289 20.3683Z" fill="#049AFA"/>
</g>
</svg>
